Music_BrilloTown:
	musicheader 4, 1, Music_BrilloTown_Ch1
	musicheader 1, 2, Music_BrilloTown_Ch2
	musicheader 1, 3, Music_BrilloTown_Ch3
	musicheader 1, 4, Music_BrilloTown_Ch4

Music_BrilloTown_Ch1:
	tempo 280
	volume $77
	stereopanning $77
	vibrato $00, $23
	notetype $6, $88
	note __, 6
Music_BrilloTown_Ch1_loop:
	dutycycle 3
	octave 3
	note E_, 3
	note __, 1
	note E_, 2
	slidepitchto 4, 5, D_
	note E_, 2
	note C_, 2
	octave 2
	note A_, 2
	note B_, 8
	note G_, 4
	note B_, 3
	note __, 1
	note B_, 2
	slidepitchto 4, 6, A_
	note B_, 2
	note G_, 2
	note F_, 2
	note G_, 8
	octave 3
	note D_, 4
	note E_, 3
	note __, 1
	note E_, 2
	slidepitchto 4, 5, D_
	note E_, 2
	note C_, 2
	octave 2
	note A_, 2
	octave 3
	note C_, 4
	note F_, 4
	note A_, 4
	note G_, 6
	octave 4
	note C_, 6
	octave 3
	notetype $C, $88
	note B_, 10
	notetype $6, $88
	note G_, 4
	note E_, 3
	note __, 1
	note E_, 2
	slidepitchto 4, 5, D_
	note E_, 2
	note C_, 2
	octave 2
	note A_, 2
	note B_, 8
	note G_, 4
	note B_, 3
	note __, 1
	note B_, 2
	slidepitchto 4, 6, A_
	note B_, 2
	note G_, 2
	note F_, 2
	note G_, 8
	octave 3
	note D_, 4
	note E_, 3
	note __, 1
	note E_, 2
	slidepitchto 4, 5, D_
	note E_, 2
	note C_, 2
	octave 2
	note A_, 2
	octave 3
	note C_, 4
	note F_, 4
	note A_, 4
	note G_, 6
	note F_, 6
	note E_, 12
	
	dutycycle 2
	note G_, 3
	note __, 1
	note G_, 2
	slidepitchto 4, 5, F_
	note G_, 2
	note E_, 2
	note D_, 2
	note F_, 4
	note G_, 4
	note B_, 4
	octave 4
	note C_, 3
	note __, 1
	note C_, 2
	slidepitchto 4, 5, B_
	note C_, 2
	octave 3
	note A_, 2
	note G_, 2
	note F_, 4
	note E_, 4
	note C_, 4
	note G_, 3
	note __, 1
	note G_, 2
	slidepitchto 4, 5, F_
	note G_, 2
	note E_, 2
	note D_, 2
	note F_, 4
	note G_, 4
	note B_, 4
	octave 4
	note C_, 3
	note __, 1
	note C_, 2
	slidepitchto 4, 5, B_
	note C_, 2
	octave 3
	note A_, 2
	note G_, 2
	note F_, 4
	note E_, 4
	note C_, 4
	note G_, 3
	note __, 1
	note G_, 2
	slidepitchto 4, 5, F_
	note G_, 2
	note E_, 2
	note D_, 2
	note F_, 4
	note G_, 4
	note B_, 4
	octave 4
	note C_, 3
	note __, 1
	note C_, 2
	slidepitchto 4, 5, B_
	note C_, 2
	octave 3
	note A_, 2
	note G_, 2
	note F_, 4
	note E_, 4
	note C_, 4
	note G_, 3
	note __, 1
	note G_, 2
	slidepitchto 4, 5, F_
	note G_, 2
	note E_, 2
	note D_, 2
	note F_, 4
	note G_, 4
	octave 4
	note C_, 4
	octave 3
	note B_, 6
	note A_, 2
	note G_, 16
	note B_, 1
	note __, 1
	note B_, 1
	note __, 1
	note B_, 1
	note __, 3
	note B_, 1
	note __, 3
	note B_, 1
	note __, 11
	loopchannel 0, Music_BrilloTown_Ch1_loop

Music_BrilloTown_Ch2:
Music_BrilloTown_Ch2_loop:
	vibrato $00, $23
	dutycycle 0
	octave 3
	notetype $6, $C8
	note E_, 2
	note F_, 2
	note F#, 2
	note G_, 3
	note __, 1
	note G_, 2
	note A_, 1
	note G_, 1
	note F_, 2
	note E_, 2
	note F_, 4
	note __, 2
	note D_, 2
	note D#, 2
	note E_, 2
	note F_, 3
	note __, 1
	note F_, 2
	note G_, 1
	note F_, 1
	note E_, 2
	note D_, 2
	note E_, 4
	note __, 2
	note E_, 2
	note F_, 2
	note F#, 2
	note G_, 3
	note __, 1
	note G_, 2
	note A_, 1
	note G_, 1
	note F_, 2
	note G_, 2
	note A_, 4
	octave 4
	note C_, 6
	note F_, 2
	note E_, 3
	note __, 1
	note E_, 2
	note F_, 1
	note E_, 1
	note D_, 2
	note C_, 2
	notetype $C, $C8
	note D_, 9
	
	octave 3
	notetype $6, $C8
	note E_, 2
	note F_, 2
	note F#, 2
	note G_, 3
	note __, 1
	note G_, 2
	note A_, 1
	note G_, 1
	note F_, 2
	note E_, 2
	note F_, 4
	note __, 2
	note D_, 2
	note D#, 2
	note E_, 2
	note F_, 3
	note __, 1
	note F_, 2
	note G_, 1
	note F_, 1
	note E_, 2
	note D_, 2
	note E_, 4
	note __, 2
	note E_, 2
	note F_, 2
	note F#, 2
	note G_, 3
	note __, 1
	note G_, 2
	note A_, 1
	note G_, 1
	note F_, 2
	note G_, 2
	note A_, 2
	octave 4
	note C_, 2
	note F_, 6
	note D_, 2
	note E_, 3
	note __, 1
	note E_, 2
	note F_, 1
	note E_, 1
	note D_, 2
	octave 3
	note B_, 2
	octave 4
	note C_, 6
	note __, 6
	
	dutycycle 1
	octave 3
	note B_, 3
	note __, 1
	note B_, 2
	octave 4
	note C_, 1
	octave 3
	note B_, 1
	note A_, 2
	note G_, 2
	octave 4
	note F_, 6
	note D_, 6
	note E_, 3
	note __, 1
	note E_, 2
	note F_, 1
	note E_, 1
	note D_, 2
	note C_, 2
	octave 3
	note G_, 6
	octave 4
	note C_, 6
	octave 3
	note B_, 3
	note __, 1
	note B_, 2
	octave 4
	note C_, 1
	octave 3
	note B_, 1
	note A_, 2
	note G_, 2
	octave 4
	note F_, 6
	note D_, 6
	note E_, 3
	note __, 1
	note E_, 2
	note F_, 1
	note E_, 1
	note D_, 2
	note C_, 2
	note G_, 12
	
	octave 3
	note B_, 3
	note __, 1
	note B_, 2
	octave 4
	note C_, 1
	octave 3
	note B_, 1
	note A_, 2
	note G_, 2
	octave 4
	note F_, 6
	note D_, 6
	note E_, 3
	note __, 1
	note E_, 2
	note F_, 1
	note E_, 1
	note D_, 2
	note C_, 2
	octave 3
	note G_, 6
	octave 4
	note C_, 6
	octave 3
	note B_, 3
	note __, 1
	note B_, 2
	octave 4
	note C_, 1
	octave 3
	note B_, 1
	note A_, 2
	note G_, 2
	octave 4
	note F_, 6
	note E_, 2
	note D_, 4
	notetype $C, $C8
	note F_, 12
	notetype $6, $C8
	
	note F_, 1
	note __, 1
	note F_, 1
	note __, 1
	note F_, 1
	note __, 3
	note F_, 1
	note __, 3
	note F_, 1
	note __, 5
	loopchannel 0, Music_BrilloTown_Ch2_loop

Music_BrilloTown_Ch3:
;	dutycycle 8
	notetype $6, $10
	note __, 6
Music_BrilloTown_Ch3_loop:
	octave 3
	note C_, 6
	note G_, 6
	octave 2
	note G_, 6
	note B_, 2
	octave 3
	note D_, 4
	octave 2
	note G_, 6
	octave 3
	note D_, 6
	note C_, 6
	note E_, 2
	note G_, 4
	note C_, 6
	note G_, 6
	note F_, 6
	note A_, 2
	octave 4
	note C_, 4
	octave 3
	note G_, 6
	note E_, 6
	note D_, 6
	octave 2
	note B_, 2
	note G_, 4
	octave 3
	note D_, 8
	octave 2
	note G_, 4
	octave 3
	note C_, 6
	note G_, 6
	octave 2
	note G_, 6
	note B_, 2
	octave 3
	note D_, 4
	octave 2
	note G_, 6
	octave 3
	note D_, 6
	note C_, 6
	note E_, 2
	note G_, 4
	note C_, 6
	note G_, 6
	note F_, 6
	note A_, 2
	octave 4
	note C_, 4
	octave 3
	note G_, 6
	octave 2
	note G_, 6
	octave 3
	note C_, 12
	
	octave 2
	note G_, 6
	note B_, 6
	octave 3
	note D_, 6
	octave 2
	note B_, 2
	octave 3
	note F_, 4
	note E_, 6
	note C_, 6
	note E_, 6
	note C_, 2
	octave 2
	note G_, 4
	octave 2
	note G_, 6
	note B_, 6
	octave 3
	note D_, 6
	octave 2
	note B_, 2
	octave 3
	note F_, 4
	note E_, 6
	note C_, 6
	note E_, 6
	note G_, 2
	note G_, 4
	
	octave 2
	note G_, 6
	note B_, 6
	octave 3
	note D_, 6
	octave 2
	note B_, 2
	octave 3
	note F_, 4
	note G_, 6
	note E_, 6
	note C_, 6
	note E_, 6
	octave 2
	note G_, 6
	note B_, 6
	octave 3
	note D_, 6
	note C_, 2
	octave 2
	note B_, 4
	note G_, 6
	note B_, 2
	octave 3
	note D_, 4
	
	octave 2
	note G_, 6
	note B_, 2
	octave 3
	note D_, 4
	octave 2
	note G_, 1
	note __, 1
	note G_, 1
	note __, 1
	note G_, 1
	note __, 3
	note G_, 1
	note __, 3
	note G_, 1
	note __, 11
	loopchannel 0, Music_BrilloTown_Ch3_loop

Music_BrilloTown_Ch4:
	togglenoise $3
	notetype $c
	note __, 3
Music_BrilloTown_Ch4_loop:
	callchannel Music_BrilloTown_Ch4_DrumLoop
	callchannel Music_BrilloTown_Ch4_DrumLoop
	callchannel Music_BrilloTown_Ch4_DrumLoop
	callchannel Music_BrilloTown_Ch4_DrumLoop
	note C_, 2
	note __, 4
	callchannel Music_BrilloTown_Ch4_DrumLoop
	callchannel Music_BrilloTown_Ch4_DrumLoop
	callchannel Music_BrilloTown_Ch4_DrumLoop
	callchannel Music_BrilloTown_Ch4_DrumLoop
	callchannel Music_BrilloTown_Ch4_DrumLoop
	callchannel Music_BrilloTown_Ch4_DrumLoop
	callchannel Music_BrilloTown_Ch4_DrumLoop
	callchannel Music_BrilloTown_Ch4_DrumLoop
	callchannel Music_BrilloTown_Ch4_DrumLoop
	callchannel Music_BrilloTown_Ch4_DrumLoop
	callchannel Music_BrilloTown_Ch4_DrumLoop
	callchannel Music_BrilloTown_Ch4_DrumLoop
	note C_, 2
	note __, 10
	loopchannel 0, Music_BrilloTown_Ch4_loop
	
Music_BrilloTown_Ch4_DrumLoop:
	note D_, 1
	note D#, 1
	note D#, 1
	note D_, 1
	note D#, 1
	note D#, 1
	note C_, 2
	note C_, 2
	note C_, 2
	endchannel
