Music_Clown:
	musicheader 4, 1, Music_Clown_Ch1
	musicheader 1, 2, Music_Clown_Ch2
	musicheader 1, 3, Music_Clown_Ch3
	musicheader 1, 4, Music_Clown_Ch4

Music_Clown_Ch1:
	tempo 80
	volume $77
	vibrato $12, $25
	dutycycle $8
	notetype $c, $95
	intensity $70
	note __, 16
	note __, 16
	octave 4
	note E_, 2
	note D#, 2
	note D_, 2
	note C#, 2
	note C_, 2
	octave 3
	note B_, 2
	note A#, 2
	note A_, 2
	note G#, 2
	note G_, 2
	note F#, 2
	note F_, 2
	note E_, 2
	note D#, 2
	note D_, 2
	note C#, 2
	note __, 16
	note __, 16
	octave 4
	note F#, 2
	note F_, 2
	note E_, 2
	note D#, 2
	note D_, 2
	note C#, 2
	note C_, 2
	octave 3
	note B_, 2
	note A#, 2
	note A_, 2
	note G#, 2
	note G_, 2
	note F#, 2
	note F_, 2
	note E_, 2
	note D#, 2
	note F_, 16
	note F_, 16
	note F_, 16
	octave 2
	note G_, 4
	octave 3
	note F_, 3
	note __, 1
	note F_, 3
	note __, 1
	note F_, 3
	note __, 1
	callchannel Music_Clown_Ch1_Section1_Part1
	callchannel Music_Clown_Ch1_Section1_Part2
	callchannel Music_Clown_Ch1_Section1_Part1
	callchannel Music_Clown_Ch1_Section1_Part3
	callchannel Music_Clown_Ch1_Section1_Part1
	callchannel Music_Clown_Ch1_Section1_Part2
	callchannel Music_Clown_Ch1_Section1_Part1
	callchannel Music_Clown_Ch1_Section1_Part4
	intensity $60
	callchannel Music_Clown_Ch1_Section2
	note __, 4
	note G_, 1
	note __, 1
	note G_, 1
	note __, 1
	note __, 4
	note G_, 1
	note __, 1
	note G_, 1
	note __, 1
	note __, 4
	note A_, 1
	note __, 1
	note A_, 1
	note __, 1
	note __, 4
	note A_, 1
	note __, 1
	note A_, 1
	note __, 1
	note __, 16
	note __, 16
	callchannel Music_Clown_Ch1_Section2
	octave 4
	note __, 4
	note C_, 1
	note __, 1
	note C_, 1
	note __, 1
	note __, 4
	note C_, 1
	note __, 1
	note C_, 1
	note __, 1
	note __, 4
	note C_, 1
	note __, 1
	note C_, 1
	note __, 1
	note __, 4
	note C_, 1
	note __, 1
	note C_, 1
	note __, 1
	note __, 16
	note __, 4
	note E_, 1
	note __, 1
	note E_, 1
	note __, 1
	note E_, 4
	note __, 4
	
	dutycycle 2
	intensity $57
	octave 3
	note __, 4
	note A_, 6
	note __, 2
	note A_, 4
	note __, 4
	note A_, 4
	note __, 8
	intensity $47
	note __, 4
	note A_, 6
	note __, 2
	note A_, 4
	note __, 4
	note A_, 4
	note __, 8
	
	intensity $37
	octave 2
	note __, 4
	note F_, 7
	note __, 1
	note F_, 4
	note __, 4
	note F_, 4
	note __, 4
	note F_, 4
	note __, 4
	note F_, 7
	note __, 1
	note F_, 4
	note __, 4
	note F_, 4
	note __, 4
	note F_, 4
	note __, 4
	note F_, 7
	note __, 1
	note F_, 4
	note __, 4
	note F_, 4
	note __, 4
	note F_, 4
	note __, 4
	note F_, 7
	note __, 1
	note F_, 4
	note __, 4
	note F_, 4
	note __, 4
	note F_, 4
	
	note __, 4
	note A#, 7
	note __, 1
	note A#, 4
	
	intensity $30
	octave 3
	note D_, 8
	note C#, 8
	note C_, 15
	note __, 1
	note C_, 7
	note __, 1
	note C_, 8
	octave 2
	note B_, 15
	note __, 1
	note B_, 7
	note __, 1
	note B_, 8
	note A#, 7
	note __, 1
	note A#, 7
	note __, 1
	note A#, 7
	note __, 1
	note A#, 7
	note __, 1
	
	octave 3
	note F_, 16
	note G_, 8
	note G#, 8
	note A_, 15
	note __, 1
	note A_, 7
	note __, 1
	note A_, 8
	note G#, 16
	note A#, 8
	note B_, 8
	octave 4
	note C_, 16
	octave 3
	note A_, 7
	note __, 1
	note A_, 8
	note B_, 15
	note __, 1
	note B_, 7
	note __, 1
	note B_, 8
	octave 4
	note A_, 8
	note F_, 8
	note C_, 8
	octave 3
	note A_, 8
	note B_, 7
	note __, 1
	note B_, 8
	note A#, 7
	note __, 1
	note A#, 8
	note A_, 16
	note A_, 4
	note __, 12
	
	intensity $70
	octave 2
	note A_, 3
	note __, 1
	note A_, 2
	note B_, 2
	octave 3
	note C_, 2
	note C#, 2
	note D_, 2
	note D#, 2
	note E_, 2
	note __, 2
	note E_, 1
	note __, 3
	note C#, 1
	note __, 3
	octave 2
	note A_, 1
	note __, 3
	octave 3
	note F_, 4
	note E_, 2
	note D_, 2
	note C#, 2
	note D_, 2
	note E_, 1
	note __, 1
	note C#, 1
	note __, 1
	octave 2
	note A_, 1
	note __, 3
	note A#, 1
	note __, 3
	note A_, 8
	
	octave 3
	note C_, 3
	note __, 1
	note C_, 2
	note C#, 2
	note D_, 2
	note E_, 2
	note F_, 2
	note F#, 2
	note G_, 2
	note __, 2
	note G_, 1
	note __, 3
	note E_, 1
	note __, 3
	note C_, 1
	note __, 3
	
	note A#, 4
	note F#, 2
	note A_, 2
	note G_, 1
	note __, 3
	note C_, 1
	note __, 3
	note A#, 4
	note F#, 2
	note A_, 2
	note G_, 1
	note __, 3
	note C_, 1
	note __, 3
	
	octave 2
	note C_, 2
	note C#, 2
	note D_, 2
	note D#, 2
	note E_, 2
	note F_, 2
	note F#, 2
	note G_, 2
	
	intensity $50
	octave 3
	note __, 4
	note C_, 1
	note __, 1
	note C_, 1
	note __, 1
	note C_, 3
	note __, 1
	note C_, 4
	note __, 4
	note C_, 4
	note __, 4
	note C_, 4
	note __, 4
	note C_, 1
	note __, 1
	note C_, 1
	note __, 1
	note C_, 3
	note __, 1
	note C_, 4
	note __, 4
	note C_, 4
	note __, 4
	note C_, 4
	note __, 4
	note C#, 1
	note __, 1
	note C#, 1
	note __, 1
	note C#, 3
	note __, 1
	note C#, 4
	note __, 4
	note C#, 4
	note __, 4
	note C#, 4
	note __, 4
	note C_, 1
	note __, 1
	note C_, 1
	note __, 1
	note C_, 3
	note __, 1
	note C_, 4
	note __, 4
	note C_, 4
	note __, 4
	note C_, 4
	note __, 4
	octave 2
	note A#, 1
	note __, 1
	note A#, 1
	note __, 1
	note A#, 3
	note __, 1
	note A#, 4
	
	intensity $70
	dutycycle 0
	octave 5
	note D_, 8
	note C#, 8
	note __, 3
	note C_, 13
	note C_, 8
	note C_, 8
	octave 4
	note __, 3
	note B_, 13
	note B_, 8
	note B_, 8
	note A#, 8
	note A#, 8
	note A#, 8
	note A#, 8
	
	dutycycle 2
	octave 3
	intensity $50
	note __, 4
	note C_, 1
	note __, 1
	note C_, 1
	note __, 1
	note C_, 3
	note __, 1
	note C_, 4
	note __, 4
	note C_, 4
	note __, 4
	note C_, 4
	note __, 4
	note C_, 1
	note __, 1
	note C_, 1
	note __, 1
	note C_, 3
	note __, 1
	note C_, 4
	note __, 4
	note C_, 4
	note __, 4
	note C_, 4
	
	note __, 4
	note C#, 1
	note __, 1
	note C#, 1
	note __, 1
	note C#, 3
	note __, 1
	note C#, 4
	note __, 4
	octave 2
	note B_, 4
	note __, 4
	note B_, 4
	note __, 4
	octave 3
	note C_, 1
	note __, 1
	note C_, 1
	note __, 1
	note C_, 3
	note __, 1
	note C_, 4
	note __, 4
	note C_, 4
	note __, 4
	note C_, 4
	octave 2
	note __, 4
	note B_, 1
	note __, 1
	note B_, 1
	note __, 1
	note B_, 3
	note __, 1
	note B_, 4
	note __, 4
	note B_, 4
	note __, 4
	note B_, 4
	octave 3
	note __, 4
	note C_, 4
	note __, 4
	note C_, 4
	note __, 4
	note C_, 4
	note __, 4
	note C_, 4
	
	note __, 4
	note E_, 1
	note __, 1
	note E_, 1
	note __, 1
	note E_, 3
	note __, 1
	note E_, 3
	note __, 1
	note __, 4
	note E_, 4
	note __, 4
	note E_, 4
	note C_, 4
	note C#, 4
	note C_, 4
	note C#, 4
	note C_, 4
	note __, 4
	note C_, 4
	note __, 4
	loopchannel 0, Music_Clown_Ch1

Music_Clown_Ch2:
	vibrato $12, $25
	dutycycle $3f
	notetype $c, $95
	intensity $80
	octave 4
	note E_, 10
	note __, 2
	note E_, 1
	note __, 1
	note E_, 1
	note __, 1
	note E_, 10
	note __, 2
	note E_, 1
	note __, 1
	note E_, 1
	note __, 1
	note E_, 16
	note E_, 16
	note F#, 10
	note __, 2
	note F#, 1
	note __, 1
	note F#, 1
	note __, 1
	note F#, 10
	note __, 2
	note F#, 1
	note __, 1
	note F#, 1
	note __, 1
	note F#, 16
	note F#, 16
	note G_, 10
	note __, 2
	note G_, 1
	note __, 1
	note G_, 1
	note __, 1
	note G_, 10
	note __, 2
	note G_, 1
	note __, 1
	note G_, 1
	note __, 1
	octave 3
	note G_, 2
	note G#, 2
	note A_, 2
	note A#, 2
	note B_, 2
	octave 4
	note C_, 2
	note C#, 2
	note D_, 2
	note D#, 2
	note E_, 2
	note F_, 2
	note F#, 2
	note G_, 2
	note G#, 2
	note A_, 2
	note B_, 2
	callchannel Music_Clown_Ch2_Section1_Part1
	callchannel Music_Clown_Ch2_Section1_Part2
	callchannel Music_Clown_Ch2_Section1_Part1
	callchannel Music_Clown_Ch2_Section1_Part3
	callchannel Music_Clown_Ch2_Section1_Part1
	callchannel Music_Clown_Ch2_Section1_Part2
	callchannel Music_Clown_Ch2_Section1_Part1
	callchannel Music_Clown_Ch2_Section1_Part4
	intensity $70
	callchannel Music_Clown_Ch2_Section2
	note C_, 4
	note __, 12
	callchannel Music_Clown_Ch2_Section2
	note C_, 2
	note __, 2
	octave 5
	note C_, 1
	note __, 1
	note C_, 1
	note __, 1
	note C_, 4
	note __, 4
	
	dutycycle 2
	intensity $67
	octave 3
	note __, 4
	note F_, 6
	note __, 2
	note F_, 4
	note __, 4
	note F_, 4
	note __, 8
	intensity $57
	note __, 4
	note F_, 6
	note __, 2
	note F_, 4
	note __, 4
	note F_, 4
	note __, 8
	
	intensity $40
	octave 2
	note A_, 16
	note A#, 8
	note B_, 8
	octave 3
	note C_, 16
	note D_, 8
	note E_, 8
	note F_, 16
	note D#, 8
	note C#, 8
	note C_, 16
	note C_, 7
	note __, 1
	note C_, 8
	note D_, 16
	note A#, 7
	note __, 1
	note A#, 8
	note A_, 16
	note G_, 8
	note F_, 8
	note A_, 16
	note G_, 8
	note F#, 8
	note A_, 8
	note G_, 8
	note E_, 8
	note D_, 4
	note C#, 4
	
	note A_, 16
	note A#, 8
	note B_, 8
	octave 4
	note C_, 16
	note D_, 8
	note E_, 8
	note F_, 16
	note G_, 8
	note G#, 8
	note A_, 16
	note F_, 7
	note __, 1
	note F_, 8
	note G#, 16
	note G_, 8
	note F_, 8
	octave 5
	note D_, 8
	note C_, 8
	octave 4
	note A_, 8
	note F_, 8
	note G_, 8
	note D_, 8
	note E_, 8
	note G_, 8
	note F_, 15
	note __, 1
	note F_, 4
	intensity $50
	note A_, 1
	note __, 1
	note A_, 1
	note __, 1
	note A_, 3
	note __, 1
	note A_, 3
	note __, 1
	
	intensity $60
	note A_, 15
	note __, 1
	note A_, 15
	note __, 1
	note A_, 15
	note __, 1
	note A_, 15
	note __, 1
	octave 5
	note C_, 15
	note __, 1
	note C_, 15
	note __, 1
;	tempo 90
	note C_, 15
	note __, 1
;	tempo 100
	note C_, 15
	note __, 1
	intensity $70
;	tempo 160
	note C_, 15
	note __, 1
	
;	tempo 100
	intensity $80
	dutycycle $0
	callchannel Music_Clown_Ch2_Finale_Part1
	note D#, 8
	note C#, 8
	octave 4
	note C_, 1
	note F_, 1
	note A_, 1
	octave 5
	note C_, 12
	note __, 1
	note C_, 7
	note __, 1
	note C_, 8
	octave 4
	note D_, 1
	note F_, 1
	note A#, 1
	octave 5
	note D_, 13
	note A#, 7
	note __, 1
	note A#, 8
	octave 4
	note A_, 1
	octave 5
	note C_, 1
	note F_, 1
	note A_, 13
	note G_, 8
	note F_, 8
	octave 4
	note A_, 1
	octave 5
	note C_, 1
	note F_, 1
	note A_, 13
	note G_, 8
	note F#, 8
	octave 4
	note A_, 1
	octave 5
	note C_, 1
	note F_, 1
	note A_, 5
	note G_, 8
	note E_, 8
	note D_, 4
	note C#, 4
	
	callchannel Music_Clown_Ch2_Finale_Part1
	note G_, 8
	note G#, 8
	octave 4
	note A_, 1
	octave 5
	note C_, 1
	note F_, 1
	note A_, 13
	note F_, 16
	octave 4
	note G#, 1
	octave 5
	note C_, 1
	note F_, 1
	note G#, 13
	note G_, 8
	note F_, 8
	octave 6
	note D_, 8
	note C_, 8
	octave 5
	note A_, 8
	note F_, 8
	note G_, 8
	note D_, 8
	note E_, 8
	note G_, 8
	note F_, 4
	note E_, 2
	note G_, 2
	note F_, 4
	note E_, 2
	note G_, 2
	note F_, 4
	note __, 4
	note F_, 4
	note __, 4
	loopchannel 0, Music_Clown_Ch2

Music_Clown_Ch3:
	stereopanning $ff
	vibrato $8, $23
	notetype $c, $14
	octave 3
	note E_, 10
	note __, 2
	note E_, 1
	note __, 1
	note E_, 1
	note __, 1
	note E_, 10
	note __, 2
	note E_, 1
	note __, 1
	note E_, 1
	note __, 1
	note E_, 16
	note E_, 16
	note F#, 10
	note __, 2
	note F#, 1
	note __, 1
	note F#, 1
	note __, 1
	note F#, 10
	note __, 2
	note F#, 1
	note __, 1
	note F#, 1
	note __, 1
	note F#, 16
	note F#, 16
	octave 2
	note G_, 16
	note G_, 16
	note G_, 16
	octave 1
	note G_, 4
	octave 3
	note B_, 3
	note __, 1
	note B_, 3
	note __, 1
	note B_, 3
	note __, 1
	callchannel Music_Clown_Ch3_Section1_Part1
	callchannel Music_Clown_Ch3_Section1_Part2
	callchannel Music_Clown_Ch3_Section1_Part1
	callchannel Music_Clown_Ch3_Section1_Part3
	callchannel Music_Clown_Ch3_Section1_Part1
	callchannel Music_Clown_Ch3_Section1_Part2
	callchannel Music_Clown_Ch3_Section1_Part1
	callchannel Music_Clown_Ch3_Section1_Part4
	intensity $15
	callchannel Music_Clown_Ch3_Section2
	octave 2
	note __, 4
	note G_, 8
	callchannel Music_Clown_Ch3_Section2
	octave 4
	note C_, 1
	note __, 1
	note C_, 1
	note __, 1
	note C_, 4
	note __, 4
	intensity $23
	callchannel Music_Clown_Ch3_Bridge
	intensity $33
	callchannel Music_Clown_Ch3_Bridge
	octave 3
	note F_, 4
	octave 4
	note C_, 7
	note __, 1
	note C_, 4
	octave 3
	note F_, 4
	octave 4
	note C_, 4
	octave 3
	note F_, 4
	octave 4
	note C_, 4
	octave 3
	note F_, 4
	octave 4
	note C_, 7
	note __, 1
	note C_, 4
	octave 3
	note F_, 4
	octave 4
	note C_, 4
	octave 3
	note F_, 4
	octave 4
	note C_, 4
	
	octave 3
	note C#, 4
	octave 4
	note C#, 7
	note __, 1
	note C#, 4
	octave 3
	note C#, 4
	octave 4
	note C#, 4
	octave 3
	note C#, 4
	octave 4
	note C#, 4
	
	octave 3
	note F_, 4
	octave 4
	note C_, 7
	note __, 1
	note C_, 4
	octave 3
	note F_, 4
	octave 4
	note C_, 4
	octave 3
	note F_, 4
	octave 4
	note C_, 4
	
	octave 3
	note A#, 4
	octave 4
	note F_, 7
	note __, 1
	note F_, 4
	octave 3
	note A#, 4
	octave 4
	note F_, 4
	octave 3
	note A#, 4
	octave 4
	note F_, 4
	
	octave 3
	note C_, 4
	octave 4
	note F_, 7
	note __, 1
	note F_, 4
	octave 3
	note C_, 4
	octave 4
	note F_, 4
	octave 3
	note C_, 4
	octave 4
	note F_, 4
	
	octave 3
	note G_, 4
	octave 4
	note F_, 7
	note __, 1
	note F_, 4
	octave 3
	note G_, 4
	octave 4
	note F_, 4
	octave 3
	note G_, 4
	octave 4
	note F_, 4
	
	note C_, 4
	note E_, 4
	note C_, 4
	note E_, 4
	note C_, 4
	note G_, 4
	note C_, 4
	note G_, 4
	
	intensity $23
	octave 3
	note F_, 4
	octave 4
	note C_, 7
	note __, 1
	note C_, 4
	octave 3
	note F_, 4
	octave 4
	note C_, 4
	octave 3
	note F_, 4
	octave 4
	note C_, 4
	octave 3
	note F_, 4
	octave 4
	note C_, 7
	note __, 1
	note C_, 4
	octave 3
	note F_, 4
	octave 4
	note C_, 4
	octave 3
	note F_, 4
	octave 4
	note C_, 4
	
	octave 3
	note C#, 4
	octave 4
	note F_, 7
	note __, 1
	note F_, 4
	octave 3
	note C#, 4
	octave 4
	note F_, 4
	octave 3
	note C#, 4
	octave 4
	note F_, 4
	octave 3
	note C_, 4
	octave 4
	note F_, 7
	note __, 1
	note F_, 4
	octave 3
	note F_, 4
	octave 4
	note F_, 4
	octave 3
	note A_, 4
	octave 4
	note F_, 4
	
	octave 2
	note B_, 4
	octave 4
	note F_, 7
	note __, 1
	note F_, 4
	octave 2
	note B_, 4
	octave 4
	note F_, 4
	octave 2
	note B_, 4
	octave 4
	note F_, 4
	octave 3
	note C_, 4
	octave 4
	note F_, 4
	octave 3
	note C_, 4
	octave 4
	note F_, 4
	octave 3
	note C_, 4
	octave 4
	note F_, 4
	octave 3
	note C_, 4
	octave 4
	note F_, 4
	octave 3
	note G_, 4
	octave 4
	note F_, 4
	octave 3
	note G_, 4
	octave 4
	note F_, 4
	octave 3
	note C_, 4
	octave 4
	note G_, 4
	octave 3
	note C_, 4
	octave 4
	note G_, 4
	
	octave 3
	note F_, 4
	octave 4
	note F_, 7
	note __, 1
	note F_, 3
	note __, 1
	note F_, 3
	note __, 1
	note __, 12
	
	octave 3
	note A_, 16
	note A_, 16
	note A_, 16
	note A_, 16
	octave 4
	note C_, 16
	note C_, 16
	note C_, 16
	
	intensity $14
	octave 2
	note A#, 4
	note F_, 2
	note A_, 2
	note G_, 4
	octave 3
	note C_, 4
	octave 2
	note C_, 2
	note C#, 2
	note D_, 2
	note D#, 2
	note E_, 2
	note F_, 2
	note F#, 2
	note G_, 2
	
	note F_, 4
	octave 3
	note A_, 1
	note __, 1
	note A_, 1
	note __, 1
	note A_, 3
	note __, 1
	note A_, 4
	octave 2
	note F_, 4
	octave 3
	note A_, 4
	octave 2
	note F_, 4
	octave 3
	note A_, 4
	octave 2
	note F_, 4
	octave 3
	note A_, 1
	note __, 1
	note A_, 1
	note __, 1
	note A_, 3
	note __, 1
	note A_, 4
	octave 2
	note F_, 4
	octave 3
	note A_, 4
	octave 2
	note F_, 4
	octave 3
	note A_, 4
	octave 2

	note C#, 4
	octave 3
	note G#, 1
	note __, 1
	note G#, 1
	note __, 1
	note G#, 3
	note __, 1
	note G#, 4
	octave 2
	note C#, 4
	octave 3
	note G#, 4
	octave 2
	note C#, 4
	octave 3
	note G#, 4
	octave 2
	note F_, 4
	octave 3
	note A_, 1
	note __, 1
	note A_, 1
	note __, 1
	note A_, 3
	note __, 1
	note A_, 4
	octave 2
	note F_, 4
	octave 3
	note A_, 4
	octave 2
	note F_, 4
	octave 3
	note A_, 4
	octave 2
	
	note A#, 4
	octave 3
	note F_, 1
	note __, 1
	note F_, 1
	note __, 1
	note F_, 3
	note __, 1
	note F_, 4
	octave 1
	note A#, 4
	octave 3
	note F_, 4
	octave 1
	note A#, 4
	octave 3
	note F_, 4
	octave 2
	note C_, 4
	octave 3
	note F_, 1
	note __, 1
	note F_, 1
	note __, 1
	note F_, 3
	note __, 1
	note F_, 4
	octave 2
	note C_, 4
	octave 3
	note F_, 4
	octave 2
	note C_, 4
	octave 3
	note A_, 4
	octave 2
	note G_, 4
	octave 3
	note G_, 1
	note __, 1
	note G_, 1
	note __, 1
	note G_, 3
	note __, 1
	note G_, 4
	octave 2
	note G_, 4
	octave 3
	note G_, 4
	octave 2
	note G_, 4
	octave 3
	note G_, 4
	octave 2
	note C_, 4
	octave 3
	note G_, 4
	octave 2
	note C_, 4
	octave 3
	note G_, 4
	octave 2
	note C_, 4
	octave 3
	note G_, 4
	octave 2
	note C_, 4
	octave 3
	note G_, 4
	
	octave 2
	note F_, 4
	octave 3
	note F_, 1
	note __, 1
	note F_, 1
	note __, 1
	note F_, 3
	note __, 1
	note F_, 4
	octave 2
	note F_, 4
	octave 3
	note F_, 4
	octave 2
	note F_, 4
	octave 3
	note F_, 4
	octave 2
	note F_, 4
	octave 3
	note F_, 1
	note __, 1
	note F_, 1
	note __, 1
	note F_, 3
	note __, 1
	note F_, 4
	octave 2
	note F_, 4
	octave 3
	note F_, 4
	octave 2
	note F_, 4
	octave 3
	note F_, 4
	
	octave 2
	note C#, 4
	octave 3
	note G#, 1
	note __, 1
	note G#, 1
	note __, 1
	note G#, 3
	note __, 1
	note G#, 4
	octave 2
	note C#, 4
	octave 3
	note G#, 4
	octave 2
	note C#, 4
	octave 3
	note G#, 4
	octave 2
	note C_, 4
	octave 3
	note A_, 1
	note __, 1
	note A_, 1
	note __, 1
	note A_, 3
	note __, 1
	note A_, 4
	octave 1
	note A_, 4
	octave 3
	note A_, 4
	octave 1
	note A_, 4
	octave 3
	note A_, 4
	
	octave 1
	note G#, 4
	octave 3
	note G#, 1
	note __, 1
	note G#, 1
	note __, 1
	note G#, 3
	note __, 1
	note G#, 4
	octave 1
	note G#, 4
	octave 3
	note G#, 4
	octave 1
	note G_, 4
	octave 3
	note G_, 4
	
	octave 2
	note C_, 4
	octave 3
	note A_, 4
	octave 2
	note C_, 4
	octave 3
	note A_, 4
	octave 2
	note C_, 4
	octave 3
	note A_, 4
	octave 2
	note C_, 4
	octave 3
	note A_, 4
	octave 2
	note C_, 4
	octave 4
	note C_, 1
	note __, 1
	note C_, 1
	note __, 1
	note C_, 3
	note __, 1
	note C_, 4
	octave 2
	note C_, 4
	octave 3
	note A#, 4
	octave 2
	note C_, 4
	octave 3
	note A#, 4
	note A_, 4
	note A#, 4
	note A_, 4
	note A#, 4
	note A_, 4
	note __, 4
	octave 2
	note F_, 4
	note __, 4
	loopchannel 0, Music_Clown_Ch3
	
Music_Clown_Ch4:
	endchannel

Music_Clown_Ch1_Section1_Part1:
	octave 3
	note __, 4
	note E_, 4
	note __, 4
	note E_, 4
	note __, 4
	note E_, 4
	note __, 4
	note E_, 4
	note __, 4
	note E_, 4
	note __, 4
	note E_, 4
	note __, 4
	note E_, 4
	note __, 4
	note E_, 4
	endchannel
	
Music_Clown_Ch1_Section1_Part2:
	octave 3
	note __, 4
	note F_, 4
	note __, 4
	note F_, 4
	note __, 4
	note F_, 4
	note __, 4
	note F_, 4
	note __, 4
	note F_, 4
	note __, 4
	note F_, 4
	note __, 4
	note F_, 4
	note __, 4
	note F_, 4
	endchannel
	
Music_Clown_Ch1_Section1_Part3:
	octave 3
	note __, 4
	note D#, 4
	note __, 4
	note D#, 4
	note __, 4
	note E_, 4
	note __, 4
	note E_, 4
	octave 2
	note B_, 3
	note __, 1
	note B_, 1
	note __, 1
	note B_, 1
	note __, 1
	note B_, 3
	note __, 1
	note B_, 3
	note __, 1
	note B_, 1
	note __, 1
	note A#, 1
	note __, 1
	note A_, 1
	note __, 1
	note G#, 1
	note __, 1
	note G_, 1
	note __, 1
	note F#, 1
	note __, 1
	note F_, 1
	note __, 1
	note D_, 1
	note __, 1
	endchannel

Music_Clown_Ch1_Section1_Part4:
	octave 3
	note __, 4
	note D_, 4
	note __, 4
	note D_, 4
	note __, 4
	note D#, 4
	note __, 4
	note D#, 4
	note __, 4
	note D_, 4
	note __, 4
	note F#, 4
	note G_, 4
	note __, 4
	octave 2
	note G_, 2
	note __, 6
	endchannel
	
Music_Clown_Ch1_Section2:
	octave 3
	note __, 4
	note G_, 1
	note __, 1
	note G_, 1
	note __, 1
	note G_, 1
	note __, 3
	note G_, 1
	note __, 7
	note G_, 1
	note __, 7
	note G_, 1
	note __, 3
	note __, 4
	note G_, 1
	note __, 1
	note G_, 1
	note __, 1
	note G_, 3
	note __, 1
	note G_, 3
	note __, 1
	note __, 4
	note G_, 1
	note __, 1
	note G_, 1
	note __, 1
	note G_, 3
	note __, 1
	note G_, 3
	note __, 1
	note __, 4
	note G_, 1
	note __, 1
	note G_, 1
	note __, 1
	note G_, 3
	note __, 1
	note G_, 3
	note __, 1
	note __, 4
	note G_, 4
	note __, 4
	note G_, 4
	note __, 4
	note G_, 1
	note __, 1
	note G_, 1
	note __, 1
	note G_, 3
	note __, 1
	note G_, 3
	note __, 1
	note __, 4
	note G_, 1
	note __, 1
	note G_, 1
	note __, 1
	note G_, 3
	note __, 1
	note G_, 3
	note __, 1
	note __, 4
	note G_, 1
	note __, 1
	note G_, 1
	note __, 1
	note G_, 3
	note __, 1
	note G_, 3
	note __, 1
	note __, 4
	note G_, 4
	note __, 4
	note G_, 4
	note __, 4
	note A_, 1
	note __, 1
	note A_, 1
	note __, 1
	note A_, 3
	note __, 1
	note A_, 3
	note __, 1
	note __, 4
	note A_, 1
	note __, 1
	note A_, 1
	note __, 1
	note A_, 3
	note __, 1
	note A_, 3
	note __, 1
	endchannel
	
Music_Clown_Ch2_Section1_Part1:
	octave 5
	note C_, 2
	note __, 2
	octave 4
	note B_, 2
	note __, 2
	note A#, 1
	note __, 1
	note B_, 1
	note __, 1
	note A#, 1
	note __, 1
	note A_, 1
	note __, 1
	note G#, 2
	note __, 2
	note G_, 2
	note __, 2
	note F#, 4
	note G_, 4
	note A_, 2
	note __, 2
	note G#, 2
	note __, 2
	note G_, 1
	note __, 1
	note G#, 1
	note __, 1
	note G_, 1
	note __, 1
	note F#, 1
	note __, 1
	note F_, 2
	note __, 2
	note E_, 2
	note __, 2
	note D#, 4
	note E_, 4
	endchannel

Music_Clown_Ch2_Section1_Part2:
	octave 4
	note G_, 2
	note __, 2
	note F_, 1
	note __, 1
	note F_, 1
	note __, 1
	note C#, 4
	note D_, 4
	note G_, 2
	note __, 2
	note F_, 1
	note __, 1
	note F_, 1
	note __, 1
	note C#, 4
	note D_, 4
	octave 3
	note B_, 2
	octave 4
	note C_, 2
	note C#, 2
	note D_, 2
	note D#, 2
	note E_, 2
	note F_, 2
	note F#, 2
	note G_, 2
	note G#, 2
	note A_, 2
	note B_, 2
	note A_, 4
	note G_, 4
	endchannel

Music_Clown_Ch2_Section1_Part3:
	octave 4
	note D#, 3
	note __, 1
	note D#, 1
	note __, 1
	note D#, 1
	note __, 1
	note F#, 4
	octave 3
	note B_, 4
	octave 4
	note G_, 2
	note A_, 2
	note G_, 2
	note F#, 2 
	note E_, 4
	octave 3
	note B_, 4
	octave 4
	note B_, 3
	note __, 1
	note B_, 1
	note __, 1
	note B_, 1
	note __, 1
	note B_, 3
	note __, 1
	note B_, 3
	note __, 1
	note B_, 1
	note __, 1
	note B_, 1
	note __, 1
	note B_, 1
	note __, 1
	note B_, 1
	note __, 1
	note B_, 1
	note __, 1
	note B_, 1
	note __, 1
	note B_, 4
	endchannel

Music_Clown_Ch2_Section1_Part4:
	octave 4
	note D_, 3
	note __, 1
	note D_, 1
	note __, 1
	note D_, 1
	note __, 1
	note A_, 4
	note D_, 4
	note D#, 3
	note __, 1
	note D#, 1
	note __, 1
	note D#, 1
	note __, 1
	note A#, 8
	note B_, 1
	note __, 1
	octave 5
	note D_, 1
	note __, 1
	note C#, 1
	note __, 1
	note C_, 1
	note __, 1
	octave 4
	note B_, 3
	note __, 1
	note A_, 3
	note __, 1
	note G_, 3
	note __, 1
	note __, 12
	endchannel
	
Music_Clown_Ch2_Section2:
	octave 4
	note __, 4
	note E_, 1
	note __, 1
	note E_, 1
	note __, 1
	note E_, 1
	note __, 3
	note E_, 1
	note __, 7
	note E_, 1
	note __, 7
	note E_, 1
	note __, 3
	note __, 4
	note F_, 1
	note __, 1
	note F_, 1
	note __, 1
	note F_, 3
	note __, 1
	note F_, 3
	note __, 1
	note __, 4
	note F_, 1
	note __, 1
	note F_, 1
	note __, 1
	note F_, 3
	note __, 1
	note F_, 3
	note __, 1
	note __, 4
	note F_, 1
	note __, 1
	note F_, 1
	note __, 1
	note F_, 3
	note __, 1
	note F_, 3
	note __, 1
	note __, 4
	note F_, 4
	note __, 4
	note F_, 4
	note __, 4
	note E_, 1
	note __, 1
	note E_, 1
	note __, 1
	note E_, 3
	note __, 1
	note E_, 3
	note __, 1
	note __, 4
	note E_, 1
	note __, 1
	note E_, 1
	note __, 1
	note E_, 3
	note __, 1
	note E_, 3
	note __, 1
	note __, 4
	note E_, 1
	note __, 1
	note E_, 1
	note __, 1
	note E_, 3
	note __, 1
	note E_, 3
	note __, 1
	note __, 4
	note E_, 4
	note __, 4
	note E_, 4
	note __, 4
	note F#, 1
	note __, 1
	note F#, 1
	note __, 1
	note F#, 3
	note __, 1
	note F#, 3
	note __, 1
	note __, 4
	note F#, 1
	note __, 1
	note F#, 1
	note __, 1
	note F#, 3
	note __, 1
	note F#, 3
	note __, 1
	
	note __, 4
	note G_, 1
	note __, 1
	note G_, 1
	note __, 1
	note __, 4
	note G_, 1
	note __, 1
	note G_, 1
	note __, 1
	note __, 4
	note F_, 1
	note __, 1
	note F_, 1
	note __, 1
	note __, 4
	note F_, 1
	note __, 1
	note F_, 1
	note __, 1
	
	octave 5
	note C_, 2
	note __, 2
	octave 3
	note B_, 1
	note __, 1
	note A_, 1
	note __, 1
	note G_, 1
	note __, 1
	note F_, 1
	note __, 1
	note E_, 1
	note __, 1
	note D_, 1
	note __, 1
	endchannel
	
Music_Clown_Ch2_Finale_Part1:
	octave 3
	note A_, 1
	octave 4
	note C_, 1
	note F_, 1
	note A_, 13
	note A#, 8
	note B_, 8
	octave 3
	note A_, 1
	octave 4
	note C_, 1
	note F_, 1
	octave 5
	note C_, 13
	note D_, 8
	note E_, 8
	octave 4
	note F_, 1
	note G#, 1
	octave 5
	note C#, 1
	note F_, 13
	endchannel
	
Music_Clown_Ch3_Section1_Part1:
	octave 2
	note C_, 4
	octave 3
	note G_, 4
	octave 2
	note G_, 4
	octave 3
	note G_, 4
	octave 2
	note C_, 4
	octave 3
	note G_, 4
	octave 2
	note G_, 4
	octave 3
	note G_, 4
	octave 2
	note C_, 4
	octave 3
	note G_, 4
	octave 2
	note G_, 4
	octave 3
	note G_, 4
	octave 2
	note C_, 4
	octave 3
	note G_, 4
	octave 2
	note G_, 4
	octave 3
	note G_, 4
	endchannel
	
Music_Clown_Ch3_Section1_Part2:
	octave 2
	note B_, 4
	octave 3
	note G_, 4
	octave 2
	note G_, 4
	octave 3
	note G_, 4
	octave 2
	note B_, 4
	octave 3
	note G_, 4
	octave 2
	note G_, 4
	octave 3
	note G_, 4
	note D_, 4
	octave 3
	note G_, 4
	octave 2
	note G_, 4
	octave 3
	note G_, 4
	note D_, 4
	octave 3
	note G_, 4
	octave 2
	note G_, 4
	octave 3
	note G_, 4
	endchannel
	
Music_Clown_Ch3_Section1_Part3:
	octave 2
	note B_, 4
	octave 3
	note F#, 4
	octave 2
	note B_, 4
	octave 3
	note F#, 4
	octave 2
	note E_, 4
	octave 3
	note G_, 4
	octave 2
	note E_, 4
	octave 3
	note G_, 4
	octave 2
	note B_, 3
	note __, 1
	note B_, 1
	note __, 1
	note B_, 1
	note __, 1
	note B_, 3
	note __, 1
	note B_, 3
	note __, 1
	note B_, 1
	note __, 1
	note A#, 1
	note __, 1
	note A_, 1
	note __, 1
	note G#, 1
	note __, 1
	note G_, 1
	note __, 1
	note F#, 1
	note __, 1
	note F_, 1
	note __, 1
	note D_, 1
	note __, 1
	endchannel
	
Music_Clown_Ch3_Section1_Part4:
	octave 3
	note D_, 4
	note F#, 4
	note D_, 4
	note F#, 4
	note C#, 4
	note G_, 4
	note C#, 4
	note G_, 4
	note D_, 4
	note G_, 4
	octave 2
	note D_, 4
	octave 4
	note C_, 4
	octave 2
	note G_, 3
	note __, 1
	note G_, 1
	note __, 1
	note G_, 1
	note __, 1
	note G_, 1
	note __, 1
	note F_, 1
	note __, 1
	note E_, 1
	note __, 1
	note D_, 1
	note __, 1
	endchannel
	
Music_Clown_Ch3_Section2:
	note C_, 12
	octave 1
	note G_, 4
	octave 2
	note C_, 4
	octave 1
	note B_, 2
	octave 2
	note C_, 2
	note C#, 2
	note D_, 2
	note D#, 2
	note E_, 2
	note F_, 12
	note E_, 4
	note D_, 12
	note __, 4
	note A_, 12
	note G_, 4
	note F_, 2
	note G_, 2
	note F_, 2
	note E_, 2
	note D_, 2
	note E_, 2
	note F_, 2
	note D_, 2
	note C_, 12
	note E_, 4
	octave 1
	note G_, 12
	note __, 4
	octave 2
	note C_, 12
	octave 1
	note G_, 4
	octave 2
	note C_, 4
	octave 1
	note B_, 2
	octave 2
	note C_, 2
	note D_, 2
	note E_, 2
	note F_, 2
	note G_, 2
	note F#, 12
	note A_, 4
	octave 3
	note C_, 8
	octave 2
	note B_, 4
	octave 3
	note C_, 4
	note E_, 8
	note C_, 8
	note D_, 8
	octave 2
	note G_, 8
	octave 3
	note C_, 4
	octave 2
	note B_, 1
	note __, 1
	note A_, 1
	note __, 1
	note G_, 1
	note __, 1
	note F_, 1
	note __, 1
	note E_, 1
	note __, 1
	note D_, 1
	note __, 1
	note C_, 4
	endchannel
	
Music_Clown_Ch3_Bridge:
	note F_, 12
	note E_, 4
	note D_, 4
	note C_, 4
	note D_, 2
	note C_, 2
	note D_, 2
	note E_, 2
	endchannel
