Music_DayBreakVillage: ; eb453
	musicheader 4, 1, Music_DayBreakVillage_Ch1
	musicheader 1, 2, Music_DayBreakVillage_Ch2
	musicheader 1, 3, Music_DayBreakVillage_Ch3
	musicheader 1, 4, Music_DayBreakVillage_Ch4
; eb45f

Music_DayBreakVillage_Ch1: ; eb45f
	stereopanning $f
	tempo 220
	volume $77
	vibrato $12, $23
	dutycycle $3
	notetype $c, $77
	octave 3
	
	note __, 16
	note __, 16
	note __, 16
	note __, 16
Music_DayBreakVillage_loop1: ; eb46d
	note F_, 6
	note F_, 2
	note A_, 4
	note A_, 4
	note F_, 4
	note F_, 4
	note D_, 4
	note F_, 4
	note F_, 8
	note E_, 8
	note C_, 8
	note __, 8
	
	note A#, 6
	note F_, 2
	octave 4
	note D_, 4
	octave 3
	note A#, 4
	note A_, 4
	note F_, 4
	note A_, 4
	note G_, 2
	note F_, 2
	note E_, 6
	note C_, 2
	note G_, 4
	note E_, 4
	note F_, 6
	note G_, 2
	note A_, 8
	
	note A#, 6
	note F_, 2
	octave 4
	note D_, 4
	octave 3
	note A#, 4
	note A_, 4
	note F_, 4
	note A_, 4
	note F_, 4
	note G_, 2
	note A_, 2
	note A#, 2
	octave 4
	note D_, 2
	note C_, 2
	octave 3
	note A#, 2
	note G_, 2
	note E_, 2
	note C_, 8
	note __, 8
	
	note F_, 6
	note F_, 2
	note A_, 4
	note A_, 4
	note F_, 4
	note F_, 4
	note D_, 4
	note F_, 4
	note F_, 6
	note F_, 2
	note C_, 4
	note F_, 4
	note E_, 8
	note __, 8
	
	loopchannel 0, Music_DayBreakVillage_loop1
; eb519

Music_DayBreakVillage_Ch2: ; eb519
	stereopanning $f
	vibrato $12, $23
	dutycycle $1
	notetype $c, $c7
	octave 3
	note A_, 6
	note A#, 2
	octave 4
	note C_, 4
	note D_, 4
	note C_, 4
	octave 3
	note A#, 4
	note F_, 4
	note A#, 4
	note A_, 6
	note G_, 2
	note F_, 4
	note A_, 4
	note G_, 8
	note __, 8
Music_DayBreakVillage_loop2: ; eb523
	note A_, 6
	note A#, 2
	octave 4
	note C_, 4
	note D_, 4
	note C_, 4
	octave 3
	note A#, 4
	note F_, 4
	note A#, 4
	note A_, 6
	note F_, 2
	note G_, 4
	note E_, 4
	note F_, 8
	note __, 2
	
	note A_, 2
	note A#, 2
	octave 4
	note C_, 2
	note D_, 6
	octave 3
	note A#, 2
	octave 4
	note G_, 2
	note F_, 2
	note E_, 2
	note D_, 2
	note C_, 6
	note D_, 2
	note C_, 4
	octave 3
	note A#, 2
	note A_, 2
	note G_, 6
	note E_, 2
	note A#, 2
	note A_, 2
	note G_, 2
	note A#, 2
	note A_, 2
	note G_, 2
	note A_, 2
	note A#, 2
	octave 4
	note C_, 6
	note __, 2
	note D_, 6
	octave 3
	note A#, 2
	octave 4
	note G_, 2
	note F_, 2
	note E_, 2
	note D_, 2
	note C_, 4
	octave 3
	note A_, 2
	octave 4
	note D#, 2
	note D_, 2
	note C_, 2
	octave 3
	note A#, 2
	note A_, 2
	note A#, 2
	octave 4
	note C_, 2
	note D_, 2
	note F_, 2
	note E_, 2
	note C_, 2
	octave 3
	note A#, 2
	note G_, 2
	note F_, 8
	note __, 8
	note A_, 6
	note A#, 2
	octave 4
	note C_, 4
	note D_, 4
	note C_, 4
	octave 3
	note A#, 4
	note F_, 4
	note A#, 4
	note A_, 6
	note G_, 2
	note F_, 4
	note A_, 4
	note G_, 8
	note __, 8
	

	loopchannel 0, Music_DayBreakVillage_loop2
; eb555

Music_DayBreakVillage_Ch3: ; eb584
	stereopanning $ff
	vibrato $8, $23
	notetype $c, $25
	
	octave 3
	note F_, 16
	octave 2
	note A#, 16
	octave 3
	note C_, 16
	note E_, 16
Music_DayBreakVillage_loop3: ; eb58c
	note F_, 2
	octave 4
	note C_, 2
	note F_, 2
	note C_, 2
	octave 3
	note F_, 2
	octave 4
	note C_, 2
	note F_, 2
	note C_, 2
	octave 2
	note A#, 2
	octave 3
	note F_, 2
	note A#, 2
	note F_, 2
	octave 2
	note A#, 2
	octave 3
	note F_, 2
	note A#, 2
	note F_, 2
	note C_, 2
	note F_, 2
	note A_, 2
	note F_, 2
	note C_, 2
	note E_, 2
	note G_, 2
	note E_, 2
	octave 2
	note F_, 2
	octave 3
	note C_, 2
	note F_, 2
	note C_, 2
	octave 2
	note F_, 2
	note F_, 2
	note G_, 2
	note A_, 2
	
	note A#, 2
	octave 3
	note F_, 2
	note A#, 2
	note F_, 2
	octave 2
	note A#, 2
	octave 3
	note F_, 2
	note A#, 2
	note F_, 2
	octave 2
	note A_, 2
	octave 3
	note F_, 2
	note A_, 2
	note F_, 2
	octave 2
	note A_, 2
	octave 3
	note F_, 2
	note A_, 2
	note F_, 2
	octave 2
	note G_, 2
	octave 3
	note D_, 2
	note G_, 2
	note E_, 2
	octave 2
	note G_, 2
	octave 3
	note D_, 2
	note G_, 2
	note E_, 2
	note F_, 4
	note G_, 4
	note A_, 4
	note F_, 4
	
	octave 2
	note A#, 2
	octave 3
	note F_, 2
	note A#, 2
	note F_, 2
	octave 2
	note A#, 2
	octave 3
	note F_, 2
	note A#, 2
	note F_, 2
	octave 2
	note A_, 2
	octave 3
	note F_, 2
	note A_, 2
	note F_, 2
	octave 2
	note D_, 2
	note A_, 2
	octave 3
	note D_, 2
	octave 2
	note A_, 2
	note G_, 2
	octave 3
	note D_, 2
	note G_, 2
	note D_, 2
	note C_, 2
	note G_, 2
	octave 4
	note C_, 2
	octave 3
	note G_, 2
	note F_, 2
	octave 4
	note C_, 2
	octave 3
	note A_, 2
	octave 4
	note C_, 2
	octave 3
	note F_, 4
	note __, 4
	
	note F_, 2
	octave 4
	note C_, 2
	note F_, 2
	note C_, 2
	octave 3
	note F_, 2
	octave 4
	note C_, 2
	note F_, 2
	note C_, 2
	octave 2
	note A#, 2
	octave 3
	note F_, 2
	note A#, 2
	note F_, 2
	octave 2
	note A#, 2
	octave 3
	note F_, 2
	note A#, 2
	note F_, 2
	note C_, 2
	note F_, 2
	note A_, 2
	note F_, 2
	note C_, 2
	note F_, 2
	note A_, 2
	note F_, 2
	note C_, 2
	note G_, 2
	octave 4
	note C_, 2
	octave 3
	note G_, 2
	note C_, 2
	note G_, 2
	octave 4
	note C_, 2
	octave 3
	note G_, 2
	loopchannel 0, Music_DayBreakVillage_loop3
; eb606

Music_DayBreakVillage_Ch4: ; eb606
	togglenoise $3
	notetype $c
	note __, 16
	note __, 16
	note __, 16
	note __, 16
Music_DayBreakVillage_loop4: ; eb613
	callchannel Music_DayBreakVillage_Ch4Drum1
	callchannel Music_DayBreakVillage_Ch4Drum1
	callchannel Music_DayBreakVillage_Ch4Drum1
	callchannel Music_DayBreakVillage_Ch4Drum1
	callchannel Music_DayBreakVillage_Ch4Drum1
	callchannel Music_DayBreakVillage_Ch4Drum1
	callchannel Music_DayBreakVillage_Ch4Drum1
	callchannel Music_DayBreakVillage_Ch4Drum2
	
	callchannel Music_DayBreakVillage_Ch4Drum1
	callchannel Music_DayBreakVillage_Ch4Drum1
	callchannel Music_DayBreakVillage_Ch4Drum1
	callchannel Music_DayBreakVillage_Ch4Drum1
	callchannel Music_DayBreakVillage_Ch4Drum1
	callchannel Music_DayBreakVillage_Ch4Drum1
	callchannel Music_DayBreakVillage_Ch4Drum1
	callchannel Music_DayBreakVillage_Ch4Drum1
	callchannel Music_DayBreakVillage_Ch4Drum1
	callchannel Music_DayBreakVillage_Ch4Drum1
	callchannel Music_DayBreakVillage_Ch4Drum1
	callchannel Music_DayBreakVillage_Ch4Drum1
	callchannel Music_DayBreakVillage_Ch4Drum1
	callchannel Music_DayBreakVillage_Ch4Drum1
	callchannel Music_DayBreakVillage_Ch4Drum1
	note G#, 2
	note __, 6
	callchannel Music_DayBreakVillage_Ch4Drum1
	callchannel Music_DayBreakVillage_Ch4Drum1
	callchannel Music_DayBreakVillage_Ch4Drum1
	callchannel Music_DayBreakVillage_Ch4Drum1
	callchannel Music_DayBreakVillage_Ch4Drum1
	callchannel Music_DayBreakVillage_Ch4Drum1
	callchannel Music_DayBreakVillage_Ch4Drum1
	callchannel Music_DayBreakVillage_Ch4Drum1
	loopchannel 0, Music_DayBreakVillage_loop4
	
Music_DayBreakVillage_Ch4Drum1:
	note __, 2
	note G#, 1
	note __, 1
	note G#, 1
	note __, 1
	note G#, 1
	note __, 1
	endchannel
	
Music_DayBreakVillage_Ch4Drum2:
	note G#, 1
	note __, 3
	note G#, 1
	note __, 1
	note G#, 1
	note __, 1
	endchannel
	