Music_DodrioRace:
	musicheader 4, 1, Music_DodrioRace_Ch1
	musicheader 1, 2, Music_DodrioRace_Ch2
	musicheader 1, 3, Music_DodrioRace_Ch3
	musicheader 1, 4, Music_DodrioRace_Ch4

Music_DodrioRace_Ch1:
	tempo 120

	volume $77
	stereopanning $77
Music_DodrioRace_Ch1_loop:
	octave 3
	notetype $C, $81
	note C_, 1
	octave 2
	note E_, 1
	note G_, 1
	octave 3
	note C_, 1
	octave 2
	note E_, 1
	note G_, 1
	octave 3
	note C_, 1
	octave 2
	note E_, 1
	note G_, 1
	octave 3
	note C_, 1
	octave 2
	note E_, 1
	note G_, 1
	octave 3
	note C_, 1
	octave 2
	note E_, 1
	note G_, 1
	octave 3
	note C_, 1
	note F_, 1
	octave 2
	note A_, 1
	octave 3
	note C_, 1
	note F_, 1
	octave 2
	note A_, 1
	octave 3
	note C_, 1
	note F_, 1
	octave 2
	note A_, 1
	octave 3
	note C_, 1
	note F_, 1
	octave 2
	note A_, 1
	octave 3
	note C_, 1
	note F_, 1
	octave 2
	note A_, 1
	octave 3
	note C_, 1
	note F_, 1
	note D_, 1
	octave 2
	note F_, 1
	note A_, 1
	octave 3
	note D_, 1
	octave 2
	note F_, 1
	note A_, 1
	octave 3
	note D_, 1
	octave 2
	note F_, 1
	note A_, 1
	octave 3
	note D_, 1
	octave 2
	note F#, 1
	note A_, 1
	octave 3
	note D_, 1
	octave 2
	note F#, 1
	note A_, 1
	octave 3
	note D_, 1
	note D_, 1
	octave 2
	note G_, 1
	note B_, 1
	octave 3
	note D_, 1
	octave 2
	note G_, 1
	note B_, 1
	octave 3
	note D_, 1
	octave 2
	note G_, 1
	note B_, 1
	octave 3
	note D_, 1
	octave 2
	note G_, 1
	note B_, 1
	octave 3
	note D_, 1
	octave 2
	note G_, 1
	note B_, 1
	octave 3
	note D_, 1
	note C_, 1
	octave 2
	note E_, 1
	note G_, 1
	octave 3
	note C_, 1
	octave 2
	note E_, 1
	note G_, 1
	octave 3
	note C_, 1
	octave 2
	note E_, 1
	note G_, 1
	note A#, 1
	note E_, 1
	note G_, 1
	note A#, 1
	note E_, 1
	note G_, 1
	note A#, 1
	note A_, 1
	note C_, 1
	note F_, 1
	note A_, 1
	note C_, 1
	note F_, 1
	note A_, 1
	note C_, 1
	note F_, 1
	note G#, 1
	note C_, 1
	note F_, 1
	note G#, 1
	note C_, 1
	note F_, 1
	note G#, 1
	note G_, 1
	octave 1
	note B_, 1
	octave 2
	note D_, 1
	note G_, 1
	octave 1
	note B_, 1
	octave 2
	note D_, 1
	note G_, 1
	octave 1
	note B_, 1
	octave 2
	note D_, 1
	note G_, 1
	note B_, 1
	note D_, 1
	note G_, 1
	note B_, 1
	note D_, 1
	note G_, 1
	octave 3
	note C_, 1
	octave 2
	note E_, 1
	note G_, 1
	octave 3
	note C_, 1
	octave 2
	note E_, 1
	note G_, 1
	octave 3
	note C_, 1
	octave 2
	note E_, 1
	note G_, 1
	note A#, 1
	note E_, 1
	note G_, 1
	note A#, 1
	note E_, 1
	note G_, 1
	note A#, 1
	note A_, 1
	note C_, 1
	note F_, 1
	note A_, 1
	note C_, 1
	note F_, 1
	note A_, 1
	note C_, 1
	note G_, 1
	note B_, 1
	note D_, 1
	note G_, 1
	note B_, 1
	note D_, 1
	note G_, 1
	note B_, 1
	octave 3
	note C_, 1
	octave 2
	note E_, 1
	note G_, 1
	octave 3
	note C_, 1
	octave 2
	note E_, 1
	note G_, 1
	octave 3
	note C_, 1
	octave 2
	note E_, 1
	note G_, 1
	octave 3
	note C_, 1
	octave 2
	note E_, 1
	note G_, 1
	octave 3
	note C_, 1
	octave 2
	note E_, 1
	note G_, 1
	octave 3
	note C_, 1
	note D_, 1
	octave 2
	note F_, 1
	note A_, 1
	octave 3
	note D_, 1
	octave 2
	note F_, 1
	note A_, 1
	octave 3
	note D_, 1
	octave 2
	note F_, 1
	note B_, 1
	octave 3
	note D_, 1
	octave 2
	note G_, 1
	note B_, 1
	octave 3
	note D_, 1
	octave 2
	note G_, 1
	note B_, 1
	octave 3
	note D_, 1
	note C_, 1
	octave 2
	note E_, 1
	note G_, 1
	octave 3
	note C_, 1
	octave 2
	note E_, 1
	note G_, 1
	octave 3
	note C_, 1
	octave 2
	note E_, 1
	note G_, 1
	note A#, 1
	note E_, 1
	note G_, 1
	note A#, 1
	note E_, 1
	note G_, 1
	note A#, 1
	note A_, 1
	note C_, 1
	note F_, 1
	note A_, 1
	note C_, 1
	note F_, 1
	note A_, 1
	note C_, 1
	note F_, 1
	note A_, 1
	note C_, 1
	note F_, 1
	note A_, 1
	note C_, 1
	note F_, 1
	note A_, 1
	note G_, 1
	octave 1
	note B_, 1
	octave 2
	note E_, 1
	note G_, 1
	octave 1
	note B_, 1
	octave 2
	note E_, 1
	note G_, 1
	octave 1
	note B_, 1
	octave 2
	note E_, 1
	note A_, 1
	note C_, 1
	note E_, 1
	note A_, 1
	note C_, 1
	note E_, 1
	note A_, 1
	octave 3
	note D_, 1
	octave 2
	note F#, 1
	note A_, 1
	octave 3
	note D_, 1
	octave 2
	note F#, 1
	note A_, 1
	octave 3
	note D_, 1
	octave 2
	note F#, 1
	note A_, 1
	octave 3
	note D_, 1
	octave 2
	note F#, 1
	note A_, 1
	octave 3
	note D_, 1
	octave 2
	note F#, 1
	note A_, 1
	octave 3
	note D_, 1
	note D_, 1
	octave 2
	note G_, 1
	note B_, 1
	octave 3
	note D_, 1
	octave 2
	note G_, 1
	note B_, 1
	octave 3
	note D_, 1
	octave 2
	note G_, 1
	note B_, 1
	octave 3
	note D_, 1
	octave 2
	note G_, 1
	note B_, 1
	octave 3
	note D_, 1
	octave 2
	note G_, 1
	note B_, 1
	octave 3
	note D_, 1	
	loopchannel 0, Music_DodrioRace_Ch1_loop

Music_DodrioRace_Ch2:
Music_DodrioRace_Ch2_loop:
	vibrato $00, $23
	slidepitchto 1, 4, E_
	octave 4
	notetype $C, $A8
	note D#, 4
	slidepitchto 1, 4, E_
	note D#, 4
	slidepitchto 1, 4, G_
	note F_, 6
	note E_, 1
	note __, 1
	note D_, 1
	note __, 1
	note C_, 1
	note __, 1
	note C_, 1
	octave 3
	note A_, 1
	note __, 1
	octave 4
	note C_, 7
	octave 3
	note G_, 1
	note __, 1
	octave 4
	note D_, 1
	note __, 1
	note E_, 1
	note __, 1
	note D_, 1
	note __, 1
	note E_, 1
	note __, 1
	note D_, 3
	note C_, 1
	octave 3
	note B_, 1
	note __, 1
	note A_, 1
	note __, 1
	note B_, 1
	note __, 1
	note A_, 1
	note __, 1
	note B_, 1
	octave 4
	note C_, 1
	note __, 1
	slidepitchto 1, 4, D_
	note C#, 6
	note __, 1
	octave 3
	note G_, 1
	note __, 1
	slidepitchto 1, 4, E_
	octave 4
	note D#, 4
	slidepitchto 1, 4, E_
	note D#, 4
	slidepitchto 1, 4, G_
	note F_, 6
	note E_, 1
	note __, 1
	note D_, 1
	note __, 1
	note C_, 1
	note __, 1
	note C_, 1
	octave 3
	note A_, 1
	note __, 1
	octave 4
	note C_, 7
	octave 3
	note G_, 1
	note __, 1
	octave 4
	note D_, 1
	note __, 1
	note E_, 1
	note __, 1
	note D_, 1
	note __, 1
	note E_, 1
	note __, 1
	note D_, 2
	note E_, 1
	note G_, 1
	note __, 1
	note E_, 1
	note D_, 2
	note C_, 8
	intensity $A5
	note C_, 4
	dutycycle 2
	intensity $A8
	note F_, 1
	note F#, 1
	note G_, 1
	note G#, 1
	slidepitchto 1, 4, A_
	note G#, 4
	slidepitchto 1, 4, A_
	note G#, 4
	slidepitchto 1, 4, A_
	note G#, 4
	note G_, 1
	note __, 1
	note F_, 1
	note __, 1
	note E_, 1
	note __, 1
	note D_, 1
	note __, 1
	note E_, 1
	note F_, 1
	note __, 1
	note G_, 5
	octave 3
	note G_, 4
	slidepitchto 1, 4, D_
	octave 4
	note C#, 4
	slidepitchto 1, 4, D_
	note C#, 4
	slidepitchto 1, 4, F_
	note E_, 4
	note E_, 1
	note __, 1
	note D#, 1
	note __, 1
	note E_, 1
	note __, 1
	note D#, 1
	note __, 1
	note E_, 1
	note F_, 1
	note __, 1
	note G_, 5
	note G#, 4
	slidepitchto 1, 4, A_
	note G#, 4
	slidepitchto 1, 4, A_
	note G#, 4
	slidepitchto 1, 3, C_
	note B_, 4
	note B_, 1
	note __, 1
	note A_, 1
	note __, 1
	note G_, 1
	note __, 1
	note F#, 1
	note __, 1
	note G_, 1
	note B_, 1
	note __, 1
	octave 5
	note C_, 5
	octave 4
	note B_, 4
	note A_, 1
	note __, 1
	note G#, 1
	note __, 1
	note A_, 1
	note __, 1
	note B_, 1
	note __, 1
	octave 5
	note C_, 1
	note __, 1
	note C#, 1
	note __, 1
	note D_, 1
	octave 4
	note A_, 3
	note B_, 1
	note __, 1
	note A_, 1
	note __, 1
	note B_, 1
	note A_, 2
	note G_, 5
	octave 3
	dutycycle 0
	note G_, 4
	loopchannel 0, Music_DodrioRace_Ch2_loop

Music_DodrioRace_Ch3:
Music_DodrioRace_Ch3_loop:
	dutycycle 8
	octave 3
	notetype $C, $28
	note C_, 1
	note __, 1
	octave 4
	note C_, 1
	note __, 1
	octave 3
	note G_, 1
	note __, 1
	note E_, 1
	note __, 1
	note C_, 1
	note __, 1
	note D_, 1
	note __, 1
	note E_, 1
	note __, 1
	note C_, 1
	note __, 1
	note F_, 1
	note __, 1
	octave 2
	note F_, 1
	note __, 1
	octave 3
	note F_, 1
	note __, 1
	note D_, 1
	note __, 1
	note C_, 1
	note __, 1
	octave 2
	note A_, 1
	note __, 1
	note G_, 1
	note __, 1
	note F_, 1
	note __, 1
	octave 3
	note D_, 1
	note __, 1
	note E_, 1
	note __, 1
	note F_, 1
	note __, 1
	note D_, 1
	note __, 1
	note F#, 1
	note __, 1
	note D_, 1
	note __, 1
	note A_, 1
	note __, 1
	note D_, 1
	note __, 1
	note G_, 1
	note __, 1
	note F_, 1
	note __, 1
	note E_, 1
	note __, 1
	note D_, 1
	note __, 1
	note C_, 1
	note __, 1
	octave 2
	note B_, 1
	note __, 1
	note A_, 1
	note __, 1
	note G_, 1
	note __, 1
	octave 3
	note C_, 1
	note __, 1
	octave 2
	note G_, 1
	note __, 1
	octave 3
	note C_, 1
	note __, 1
	note D_, 1
	note __, 1
	note E_, 1
	note __, 1
	note D#, 1
	note __, 1
	note E_, 1
	note __, 1
	note C_, 1
	note __, 1
	note F_, 1
	note __, 1
	note G_, 1
	note __, 1
	note A_, 1
	note __, 1
	note B_, 1
	note __, 1
	octave 4
	note C_, 1
	note __, 1
	octave 3
	note G#, 1
	note __, 1
	note G_, 1
	note __, 1
	note F_, 1
	note __, 1
	note G_, 1
	note __, 1
	octave 2
	note G_, 1
	note __, 1
	octave 3
	note G_, 1
	note __, 1
	note E_, 1
	note __, 1
	note D_, 1
	note __, 1
	octave 2
	note G_, 1
	note __, 1
	note A_, 1
	note __, 1
	note B_, 1
	note __, 1
	octave 3
	note C_, 1
	note __, 1
	octave 2
	note B_, 1
	note __, 1
	note A_, 1
	note __, 1
	note G_, 1
	note __, 1
	note F_, 1
	note __, 1
	note E_, 1
	note __, 1
	note D_, 1
	note __, 1
	note C_, 1
	note __, 1
	octave 3
	note F_, 1
	note __, 1
	note C_, 1
	note __, 1
	note F_, 1
	note __, 1
	note E_, 1
	note __, 1
	note D_, 1
	note __, 1
	octave 2
	note G_, 1
	note __, 1
	note A_, 1
	note __, 1
	note B_, 1
	note __, 1
	octave 3
	note C_, 1
	note __, 1
	octave 4
	note C_, 1
	note __, 1
	octave 3
	note G_, 1
	note __, 1
	octave 4
	note C_, 1
	note __, 1
	octave 3
	note E_, 1
	note __, 1
	note G_, 1
	note __, 1
	note C_, 1
	note __, 1
	note C#, 1
	note __, 1
	note D_, 1
	note __, 1
	note E_, 1
	note __, 1
	note F_, 1
	note __, 1
	note E_, 1
	note __, 1
	note D_, 1
	note __, 1
	octave 2
	note B_, 1
	note __, 1
	note G_, 1
	note __, 1
	octave 3
	note G_, 1
	note __, 1
	note C_, 1
	note __, 1
	note D_, 1
	note __, 1
	note E_, 1
	note __, 1
	note D_, 1
	note __, 1
	note C_, 1
	note __, 1
	octave 2
	note A#, 1
	note __, 1
	note A_, 1
	note __, 1
	note G_, 1
	note __, 1
	note F_, 1
	note __, 1
	octave 3
	note F_, 1
	note __, 1
	octave 2
	note F_, 1
	note __, 1
	octave 3
	note F_, 1
	note __, 1
	note D_, 1
	note __, 1
	note C_, 1
	note __, 1
	octave 2
	note B_, 1
	note __, 1
	note A_, 1
	note __, 1
	octave 3
	note E_, 1
	note __, 1
	octave 2
	note E_, 1
	note __, 1
	octave 3
	note E_, 1
	note __, 1
	note D_, 1
	note __, 1
	note C_, 1
	note __, 1
	octave 2
	note B_, 1
	note __, 1
	note A_, 1
	note __, 1
	octave 3
	note C_, 1
	note __, 1
	note D_, 1
	note __, 1
	note E_, 1
	note __, 1
	note F#, 1
	note __, 1
	note D_, 1
	note __, 1
	note A_, 1
	note __, 1
	note F#, 1
	note __, 1
	note D_, 1
	note __, 1
	note F#, 1
	note __, 1
	note G_, 1
	note __, 1
	note F_, 1
	note __, 1
	note E_, 1
	note __, 1
	note D_, 1
	note __, 1
	note C_, 1
	note __, 1
	octave 2
	note B_, 1
	note __, 1
	note A_, 1
	note __, 1
	note G_, 1
	note __, 1
	loopchannel 0, Music_DodrioRace_Ch3_loop

Music_DodrioRace_Ch4:
	togglenoise 3
Music_DodrioRace_Ch4_loop:
	notetype $C
	note G_, 1
	note G_, 1
	note G_, 1
	note G_, 1
	note B_, 1
	note G_, 1
	note G_, 1
	note G_, 1
	loopchannel 0, Music_DodrioRace_Ch4_loop

