Music_DragonShrine:
	musicheader 3, 1, Music_DragonShrine_Ch1
	musicheader 1, 2, Music_DragonShrine_Ch2
	musicheader 1, 3, Music_DragonShrine_Ch3

Music_DragonShrine_Ch1:
	tempo 340
	volume $77
	stereopanning $ff
	dutycycle 1
	vibrato $03, $23
	notetype $c, $37
	octave 4
	note __, 1
	note D#, 2
	note G#, 6
	note A#, 2
	notetype $8, $37
	note B_, 8
	octave 5
	
	note C#, 2
	octave 4
	note B_, 2
	notetype $C, $37
	note A#, 12
	note __, 2
	note A#, 2
	note G#, 6
	note B_, 2
	notetype $8, $37
	note A#, 8
	note F#, 2
	note E_, 2
	notetype $C, $37
	note D#, 12
	note __, 2
	
	note D#, 2
	note G#, 6
	note A#, 2
	notetype $8, $37
	note B_, 8
	octave 5
	
	note C#, 2
	octave 4
	note B_, 2
	note A#, 2
	note G#, 2
	note A#, 16
	note __, 1
	notetype $C, $37
	note B_, 1
	octave 5
	note C#, 1
	notetype $8, $37
	note D#, 8
	note C#, 2
	octave 4
	note B_, 2
	note A#, 8
	note G#, 2
	note G_, 2
	notetype $C, $37
	note G#, 12
	note __, 5
	octave 3
	notetype $C, $28
Music_DragonShrine_Ch1_loop:
	note D#, 16
	note C#, 16
	octave 2
	note B_, 8
	octave 3
	note C#, 8
	octave 2
	note F#, 16
	octave 3
	note D#, 16
	note C#, 16
	octave 2
	note B_, 8
	octave 3
	note C#, 8
	note D#, 16
	note D#, 2
	loopchannel 0, Music_DragonShrine_Ch1_loop

Music_DragonShrine_Ch2:
	dutycycle 1
	stereopanning $ff
	notetype $C, $57
	vibrato 18, 3, 4
Music_DragonShrine_Ch2_loop:
	octave 4
	note D#, 2
	note G#, 6
	note A#, 2
	notetype $8, $57
	note B_, 8
	octave 5
	
	note C#, 2
	octave 4
	note B_, 2
	notetype $C, $57
	note A#, 12
	note __, 2
	note A#, 2
	note G#, 6
	note B_, 2
	notetype $8, $57
	note A#, 8
	note F#, 2
	note E_, 2
	notetype $C, $57
	note D#, 12
	note __, 2
	
	note D#, 2
	note G#, 6
	note A#, 2
	notetype $8, $57
	note B_, 8
	octave 5
	
	note C#, 2
	octave 4
	note B_, 2
	note A#, 2
	note G#, 2
	note A#, 16
	note __, 1
	notetype $C, $57
	note B_, 1
	octave 5
	note C#, 1
	notetype $8, $57
	note D#, 8
	note C#, 2
	octave 4
	note B_, 2
	note A#, 8
	note G#, 2
	note G_, 2
	notetype $C, $57
	note G#, 12
	note __, 4
	loopchannel 0, Music_DragonShrine_Ch2_loop

Music_DragonShrine_Ch3:
	stereopanning $ff
	dutycycle 5
	vibrato 22, 2, 4
	notetype $c, $33
	note __, 2
	note __, 16
	note __, 16
	note __, 16
	note __, 16
	note __, 16
	note __, 16
	note __, 16
	note __, 16
	octave 3
	note __, 2
Music_DragonShrine_Ch3_loop:
	note G#, 16
	note F#, 16
	note E_, 8
	note F#, 8
	octave 2
	note B_, 16
	octave 3
	note G#, 16
	note F#, 16
	note E_, 8
	note F#, 8
	note G#, 16
	note G#, 2
	loopchannel 0, Music_DragonShrine_Ch3_loop
	

