Music_EncounterGymLeader:
	musicheader 4, 1, Music_EncounterGymLeader_Ch1
	musicheader 1, 2, Music_EncounterGymLeader_Ch2
	musicheader 1, 3, Music_EncounterGymLeader_Ch3
	musicheader 1, 4, Music_EncounterGymLeader_Ch4

Music_EncounterGymLeader_Ch1:
	tempo $93
	volume $77
	stereopanning $77
	notetype $C, $00
	note __, 4
	dutycycle 2
	intensity $A8
	octave 3
	note E_, 8
	note G_, 4
Music_EncounterGymLeader_Ch1_loop:
	notetype $C, $A8
	intensity $78
	note __, 1
	dutycycle 0
	notetype $6, $78
	octave 3
	note A_, 1
	note __, 1
	note A_, 1
	note __, 1
	note G_, 1
	note __, 1
	note A_, 1
	note __, 3
	note A_, 1
	note __, 1
	note A_, 1
	note __, 1
	note G_, 1
	note __, 1
	octave 4
	note C_, 1
	note __, 3
	note C_, 1
	note __, 1
	note C_, 1
	note __, 1
	octave 3
	note G_, 1
	note __, 1
	octave 4
	note C_, 1
	note __, 3
	octave 3
	note A#, 1
	note __, 1
	note A#, 1
	note __, 1
	note F_, 1
	note __, 1
	note A#, 1
	note __, 3
	note F_, 1
	note __, 1
	note F_, 1
	note __, 1
	note A#, 1
	note __, 1
	octave 4
	note C_, 1
	note __, 3
	dutycycle 1
	note E_, 1
	note __, 1
	note E_, 1
	note __, 1
	note C_, 1
	note __, 1
	note E_, 1
	note __, 1
	note C_, 1
	note __, 1
	dutycycle 0
	octave 3
	note E_, 1
	note __, 1
	note F_, 1
	note __, 1
	note A_, 1
	note __, 1
	note A_, 1
	note __, 1
	note G_, 1
	note __, 1
	note A_, 1
	note __, 3
	note A_, 1
	note __, 1
	note A_, 1
	note __, 1
	dutycycle 2
	intensity $88
	octave 4
	note E_, 6
	note G_, 4
	note __, 2
	note F_, 8
	dutycycle 0
	intensity $78
	note D_, 1
	note __, 1
	note D_, 1
	note __, 1
	note F_, 1
	note __, 1
	note D_, 1
	note __, 3
	note D_, 1
	note __, 1
	note E_, 1
	note __, 1
	note C_, 1
	note __, 1
	note C_, 1
	note __, 3
	note E_, 1
	note __, 1
	note E_, 1
	note __, 1
	note C_, 1
	note __, 1
	note E_, 1
	note __, 1
	dutycycle 1
	intensity $88
	note D_, 6
	note C#, 6
	octave 3
	note B_, 4
	note A_, 1
	note B_, 1
	note A_, 6
	note E_, 4
	note F#, 4
	note G_, 8
	note B_, 8
	note A_, 8
	note E_, 8
	note A#, 8
	dutycycle 0
	octave 5
	note C#, 1
	note __, 1
	note C#, 1
	note __, 3
	note C#, 1
	note __, 3
	note C#, 1
	note __, 3
	note C#, 1
	note __, 3
	octave 4
	note B_, 1
	note __, 1
	octave 5
	note C#, 1
	note __, 11
	note C#, 1
	note __, 1
	note C#, 1
	note __, 3
	note C#, 1
	note __, 3
	note C#, 1
	note __, 3
	note C#, 1
	note __, 11
	intensity $78
	octave 4
	note D_, 1
	note __, 1
	octave 3
	note B_, 1
	note __, 3
	octave 4
	note D_, 1
	note __, 1
	octave 3
	note G_, 1
	note __, 3
	note B_, 1
	note __, 1
	note A_, 1
	note __, 3
	octave 4
	note E_, 1
	note __, 1
	octave 3
	note A_, 1
	note __, 3
	octave 4
	note C#, 1
	note __, 1
	dutycycle 2
	intensity $88
	note C#, 1
	note D_, 7
	dutycycle 0
	octave 5
	note D_, 1
	note __, 1
	note D_, 1
	note __, 1
	note C#, 1
	note __, 1
	note D_, 1
	note __, 3
	note D_, 1
	note __, 3
	note D_, 1
	note __, 1
	note C#, 1
	note __, 1
	note D_, 1
	note __, 1
	note D_, 1
	note __, 1
	note D_, 1
	note __, 1
	note C#, 1
	note __, 1
	note D_, 1
	note __, 3
	intensity $78
	octave 4
	note D_, 1
	note __, 1
	octave 3
	note B_, 1
	note __, 3
	octave 4
	note D_, 1
	note __, 1
	octave 3
	note G_, 1
	note __, 3
	note B_, 1
	note __, 1
	note A_, 1
	note __, 3
	octave 4
	note E_, 1
	note __, 1
	octave 3
	note A_, 1
	note __, 3
	octave 4
	note C#, 1
	note __, 1
	dutycycle 1
	intensity $87
	octave 3
	note B_, 12
	note A_, 8
	note F#, 8
	note A_, 8
	note __, 2
	dutycycle 0
	intensity $77
	octave 4
	note D_, 1
	note __, 1
	octave 3
	note B_, 1
	note __, 3
	octave 4
	note D_, 1
	note __, 1
	octave 3
	note G_, 1
	note __, 3
	note B_, 1
	note __, 1
	note A_, 1
	note __, 3
	octave 4
	note E_, 1
	note __, 1
	octave 3
	note A_, 1
	note __, 3
	octave 4
	note C#, 1
	note __, 1
	dutycycle 1
	intensity $87
	octave 3
	note G#, 1
	note A_, 11
	note A#, 8
	note B_, 8
	dutycycle 2
	note E_, 8
	note __, 2
	intensity $77
	octave 4
	note G_, 1
	note __, 1
	note D_, 1
	note __, 3
	octave 5
	note D_, 1
	note __, 1
	octave 4
	note D_, 1
	note __, 3
	note B_, 1
	note __, 1
	note E_, 1
	note __, 3
	note A_, 1
	note __, 1
	note E_, 1
	note __, 3
	octave 5
	note C#, 1
	note __, 1
	octave 4
	note E_, 1
	note __, 5
	note A#, 1
	note __, 1
	note F_, 1
	note __, 3
	octave 5
	note F_, 1
	note __, 1
	octave 4
	note F_, 1
	note __, 3
	octave 5
	note D_, 1
	note __, 1
	octave 4
	note G_, 1
	note __, 3
	octave 5
	note C_, 1
	note __, 1
	octave 4
	note G_, 1
	note __, 3
	octave 5
	note E_, 1
	note __, 1
	octave 4
	note G_, 1
	note __, 3
	dutycycle 1
	intensity $88
	note D_, 4
	note C_, 4
	note D_, 4
	note E_, 1
	note F_, 3
	note E_, 6
	note D_, 6
	note C_, 4
	octave 3
	note A_, 16
	intensity $87
	note A_, 4
	dutycycle 0
	octave 5
	note A_, 1
	note __, 1
	note A_, 1
	note __, 1
	note G_, 1
	note __, 1
	note A_, 1
	note __, 1
	octave 6
	note C#, 1
	note __, 1
	octave 5
	note A_, 1
	note __, 1
	loopchannel 0, Music_EncounterGymLeader_Ch1_loop

Music_EncounterGymLeader_Ch2:
	notetype $C, $00
	note __, 8
	dutycycle 2
	intensity $C8
	vibrato $08, $23
	octave 3
	note G_, 4
	octave 4
	note C_, 4
Music_EncounterGymLeader_Ch2_loop:
	octave 4
	notetype $C, $C8
	intensity $C7
	note D_, 2
	note __, 1
	note E_, 2
	note __, 1
	note F_, 1
	note __, 1
	notetype $6, $C7
	note F#, 1
	note G_, 7
	note F_, 4
	note E_, 4
	note D_, 4
	note __, 2
	note E_, 4
	note __, 2
	octave 3
	note A_, 2
	note G_, 2
	note A_, 4
	dutycycle 1
	octave 5
	note C_, 1
	note __, 1
	note C_, 1
	note __, 1
	octave 4
	note A_, 1
	note __, 1
	octave 5
	note C_, 1
	note __, 1
	dutycycle 2
	octave 3
	note A_, 4
	octave 4
	note D_, 4
	note __, 2
	note E_, 4
	note __, 2
	note F_, 2
	note __, 2
	note G_, 6
	octave 5
	note C_, 4
	note __, 2
	intensity $C8
	octave 4
	note A_, 12
	intensity $C7
	note G_, 2
	note G#, 2
	note __, 2
	note A_, 10
	dutycycle 1
	note G_, 8
	note F#, 6
	note E_, 6
	note D_, 4
	note C#, 1
	note D_, 1
	note C#, 6
	octave 3
	note B_, 4
	note A_, 4
	note B_, 6
	octave 4
	note C#, 6
	note D_, 4
	note C#, 6
	octave 3
	note B_, 6
	note A_, 4
	octave 4
	note F_, 1
	note F#, 7
	dutycycle 0
	octave 5
	note F#, 1
	note __, 1
	note F#, 1
	note __, 3
	note F#, 1
	note __, 3
	note F#, 1
	note __, 3
	note F#, 1
	note __, 3
	note E_, 1
	note __, 1
	note F#, 1
	note __, 11
	note F#, 1
	note __, 1
	note F#, 1
	note __, 3
	note F#, 1
	note __, 3
	note F#, 1
	note __, 3
	note F#, 1
	note __, 3
	note E_, 1
	note __, 1
	dutycycle 2
	octave 4
	note F#, 1
	note G_, 1
	note G#, 1
	note A_, 1
	note A#, 1
	note B_, 5
	note A_, 6
	note G_, 4
	note D_, 6
	note E_, 6
	note F_, 1
	note F#, 7
	dutycycle 0
	octave 5
	note F#, 1
	note __, 1
	note F#, 1
	note __, 1
	note E_, 1
	note __, 1
	note F#, 1
	note __, 3
	note F#, 1
	note __, 3
	note F#, 1
	note __, 1
	note E_, 1
	note __, 1
	note F#, 1
	note __, 1
	note F#, 1
	note __, 1
	note F#, 1
	note __, 1
	note E_, 1
	note __, 1
	note F#, 1
	note __, 1
	dutycycle 1
	octave 4
	note B_, 6
	note A_, 6
	note G_, 4
	note F#, 6
	note E_, 6
	note D_, 12
	note C#, 8
	octave 3
	note B_, 8
	octave 4
	note F#, 2
	note G_, 2
	note G#, 2
	note A_, 2
	note A#, 1
	note B_, 5
	note A_, 6
	note G_, 4
	note D_, 6
	note E_, 6
	note F_, 1
	note F#, 11
	note E_, 8
	note D_, 8
	dutycycle 2
	note C#, 8
	octave 3
	note B_, 4
	note D_, 4
	note G_, 4
	note B_, 4
	octave 4
	note C_, 1
	note C#, 5
	octave 3
	note B_, 6
	note A_, 4
	octave 4
	note D_, 4
	octave 3
	note F_, 4
	note A#, 4
	octave 4
	note D_, 4
	note D#, 1
	note E_, 5
	note D_, 6
	note C_, 4
	dutycycle 1
	note F_, 4
	note E_, 4
	note F_, 4
	note G#, 1
	note A_, 3
	note G_, 6
	note F_, 6
	note E_, 4
	intensity $C8
	note D_, 16
	intensity $C7
	note C#, 8
	dutycycle 2
	octave 3
	note A_, 4
	note __, 4
	loopchannel 0, Music_EncounterGymLeader_Ch2_loop

Music_EncounterGymLeader_Ch3:
	dutycycle 5
	octave 2
	notetype $C, $25
	note A_, 16
Music_EncounterGymLeader_Ch3_loop:
	octave 3
	note D_, 1
	note __, 1
	note D_, 1
	note __, 1
	octave 4
	note D_, 1
	octave 3
	note D_, 1
	note A_, 1
	note F_, 1
	note __, 1
	note C_, 1
	note __, 1
	octave 4
	note C_, 1
	note __, 1
	octave 3
	note G_, 1
	note E_, 1
	note C_, 1
	octave 2
	note A#, 1
	note __, 1
	note A#, 1
	note __, 1
	octave 3
	note A#, 1
	note D_, 1
	note F_, 1
	note D_, 1
	note C_, 1
	note __, 1
	octave 4
	note C_, 1
	note __, 1
	octave 3
	note G_, 1
	note E_, 1
	note C_, 1
	note __, 1
	note D_, 1
	note __, 1
	note D_, 1
	note __, 1
	octave 4
	note D_, 1
	note __, 1
	octave 3
	note A_, 1
	note F_, 1
	note __, 1
	note C_, 1
	note __, 1
	octave 4
	note C_, 1
	note __, 1
	octave 3
	note G_, 1
	note E_, 1
	note C_, 1
	octave 2
	note A#, 1
	note __, 1
	note A#, 1
	note __, 1
	octave 3
	note A#, 1
	note __, 1
	note F_, 1
	note D_, 1
	note __, 1
	note C_, 1
	note __, 1
	octave 4
	note C_, 1
	note __, 1
	octave 3
	note G_, 1
	note E_, 1
	note C_, 1
	octave 2
	note B_, 1
	note __, 1
	note B_, 1
	note __, 1
	octave 3
	note B_, 1
	note __, 1
	note F#, 1
	note D_, 1
	note __, 1
	octave 2
	note A_, 1
	note __, 1
	octave 3
	note A_, 1
	note __, 1
	note E_, 1
	note C#, 1
	octave 2
	note A_, 1
	note G_, 1
	note __, 1
	note G_, 1
	note __, 1
	octave 3
	note G_, 1
	note __, 1
	note D_, 1
	octave 2
	note B_, 1
	note __, 1
	note A_, 1
	note __, 1
	octave 3
	note A_, 1
	note __, 1
	note E_, 1
	note C#, 1
	octave 2
	note A_, 1
	note F#, 1
	note __, 1
	note F#, 1
	note __, 2
	note F#, 1
	note __, 1
	octave 3
	note F#, 6
	note E_, 1
	note F#, 1
	note C#, 1
	octave 2
	note F#, 1
	note __, 1
	note F#, 1
	note __, 2
	note F#, 1
	note __, 1
	octave 3
	note F#, 5
	octave 2
	note F#, 4
	note G_, 1
	note __, 1
	note G_, 1
	note __, 1
	octave 3
	note G_, 1
	note __, 1
	octave 2
	note G_, 1
	note __, 2
	note A_, 1
	note __, 1
	octave 3
	note A_, 1
	note __, 1
	note E_, 1
	note C#, 1
	octave 2
	note A_, 1
	octave 3
	note D_, 4
	octave 4
	note D_, 4
	octave 3
	note A_, 4
	note F#, 4
	note G_, 1
	note __, 1
	octave 2
	note G_, 1
	note __, 1
	octave 3
	note G_, 1
	note __, 1
	octave 2
	note G_, 1
	note __, 2
	note A_, 1
	note __, 1
	octave 3
	note A_, 1
	note __, 1
	note E_, 1
	note C#, 1
	octave 2
	note A_, 1
	note B_, 4
	octave 3
	note C#, 4
	note D_, 4
	octave 2
	note B_, 4
	note G_, 1
	note __, 1
	note G_, 1
	note __, 1
	octave 3
	note G_, 1
	note __, 1
	octave 2
	note G_, 1
	note __, 2
	note A_, 1
	note __, 1
	octave 3
	note A_, 1
	note __, 1
	note E_, 1
	note C#, 1
	octave 2
	note A_, 1
	octave 3
	note D_, 1
	note __, 1
	octave 4
	note D_, 1
	octave 3
	note D_, 1
	note C#, 1
	note __, 1
	octave 4
	note C#, 1
	octave 3
	note C#, 1
	octave 2
	note B_, 1
	note __, 1
	octave 3
	note B_, 1
	octave 2
	note B_, 1
	note A_, 1
	note __, 1
	octave 3
	note A_, 1
	octave 2
	note A_, 1
	note G_, 8
	note A_, 8
	note A#, 8
	octave 3
	note C_, 8
	octave 2
	note A#, 3
	octave 3
	note A#, 5
	note C_, 3
	octave 4
	note C_, 5
	octave 2
	note A_, 4
	octave 3
	note A_, 1
	note A_, 1
	note __, 1
	note A_, 1
	note __, 1
	note A_, 1
	note __, 1
	note A_, 1
	note __, 1
	note G_, 1
	note A_, 1
	note __, 1
	loopchannel 0, Music_EncounterGymLeader_Ch3_loop

Music_EncounterGymLeader_Ch4:
	togglenoise 3
	notetype $C
	note B_, 4
	note G_, 1
	note __, 3
	note G_, 1
	note __, 3
	note B_, 1
	note A#, 1
	note G_, 1
	note __, 1
Music_EncounterGymLeader_Ch4_loop:
	note B_, 1
	note __, 1
	note G_, 1
	note G_, 1
	note D_, 1
	note __, 1
	note G_, 1
	note G_, 1
	note G_, 1
	note D_, 1
	note A#, 1
	note G_, 1
	note D_, 1
	note A#, 1
	note G_, 1
	note D_, 1
	loopchannel 0, Music_EncounterGymLeader_Ch4_loop

