Music_EventideVillage:
	musicheader 4, 1, Music_EventideVillage_Ch1
	musicheader 1, 2, Music_EventideVillage_Ch2
	musicheader 1, 3, Music_EventideVillage_Ch3
	musicheader 1, 4, Music_EventideVillage_Ch4

Music_EventideVillage_Ch1:
	tempo $B5
	volume $77
	stereopanning $77
Music_EventideVillage_Ch1_loop:
	dutycycle 1
	octave 3
	notetype $C, $A5
	note G_, 2
	dutycycle 0
	intensity $82
	octave 4
	note G_, 1
	note __, 1
	octave 5
	note C_, 1
	note C_, 1
	octave 4
	note G_, 1
	note __, 1
	note B_, 1
	note __, 1
	note G_, 1
	note __, 1
	note B_, 1
	note __, 1
	note A_, 1
	note __, 1
	dutycycle 1
	intensity $A5
	octave 3
	note E_, 2
	dutycycle 0
	intensity $82
	octave 4
	note E_, 1
	note __, 1
	note A_, 1
	note A_, 1
	note E_, 1
	note __, 1
	note G_, 1
	note __, 1
	note E_, 1
	note __, 1
	note G_, 1
	note __, 1
	note F_, 1
	note __, 1
	dutycycle 1
	intensity $A5
	octave 3
	note C_, 2
	dutycycle 0
	intensity $82
	octave 4
	note C_, 1
	note __, 1
	note F_, 1
	note F_, 1
	note C_, 1
	note __, 1
	note E_, 1
	note __, 1
	note D_, 1
	note __, 1
	note C_, 1
	note __, 1
	note D_, 1
	note __, 1
	dutycycle 1
	intensity $A5
	octave 3
	note D_, 2
	dutycycle 0
	note G_, 1
	note __, 1
	intensity $82
	octave 4
	note D_, 1
	note D_, 1
	octave 3
	note B_, 1
	note __, 1
	octave 4
	note D_, 1
	note __, 1
	note C_, 1
	note __, 1
	octave 3
	note B_, 1
	note __, 1
	octave 4
	note C_, 1
	note __, 1
	dutycycle 1
	intensity $A5
	octave 3
	note G_, 2
	dutycycle 0
	intensity $82
	octave 4
	note G_, 1
	note __, 1
	octave 5
	note C_, 1
	note C_, 1
	octave 4
	note G_, 1
	note __, 1
	note B_, 1
	note __, 1
	note G#, 1
	note __, 1
	octave 5
	note D_, 1
	note __, 1
	note C_, 1
	note __, 1
	dutycycle 1
	intensity $A5
	octave 3
	note C_, 2
	dutycycle 0
	intensity $82
	octave 4
	note C_, 1
	note __, 1
	note E_, 1
	note E_, 1
	note C_, 1
	note __, 1
	note G_, 1
	note __, 1
	note F_, 1
	note __, 1
	note E_, 1
	note __, 1
	note C#, 1
	note __, 1
	dutycycle 1
	intensity $A5
	octave 3
	note G#, 2
	dutycycle 0
	intensity $82
	octave 4
	note C#, 1
	note __, 1
	note G_, 1
	note G_, 1
	note F_, 1
	note __, 1
	note G#, 1
	note __, 1
	note G_, 1
	note __, 1
	note D#, 1
	note __, 1
	note G_, 1
	note __, 1
	dutycycle 1
	intensity $A5
	octave 3
	note D_, 2
	note G_, 1
	note __, 1
	dutycycle 0
	intensity $82
	octave 4
	note G_, 1
	note G_, 1
	note D_, 1
	note __, 1
	octave 3
	note B_, 1
	note __, 1
	dutycycle 1
	intensity $A6
	note B_, 2
	note __, 2
	note B_, 4
	dutycycle 2
	intensity $72
	octave 4
	note E_, 1
	octave 3
	note B_, 1
	octave 4
	note G#, 1
	note E_, 1
	note B_, 1
	note G#, 1
	octave 5
	note E_, 1
	octave 4
	note B_, 1
	note G#, 1
	note E_, 1
	octave 3
	note B_, 1
	note G#, 1
	dutycycle 1
	intensity $96
	note A_, 4
	dutycycle 2
	intensity $72
	octave 4
	note C_, 1
	octave 3
	note A_, 1
	octave 4
	note E_, 1
	note C_, 1
	note G_, 1
	note E_, 1
	octave 5
	note C_, 1
	octave 4
	note G_, 1
	note E_, 1
	note C_, 1
	note E_, 1
	note C_, 1
	dutycycle 1
	intensity $96
	octave 3
	note F_, 4
	dutycycle 2
	intensity $72
	note A_, 1
	note F_, 1
	octave 4
	note C_, 1
	octave 3
	note A_, 1
	octave 4
	note F_, 1
	note C_, 1
	note A_, 1
	note F_, 1
	octave 5
	note C_, 1
	octave 4
	note A_, 1
	note F#, 1
	note D_, 1
	dutycycle 1
	intensity $96
	octave 3
	note D_, 3
	dutycycle 2
	intensity $72
	note G_, 1
	note B_, 1
	octave 4
	note D_, 1
	octave 3
	note G_, 1
	note B_, 1
	octave 4
	note D_, 1
	note G_, 1
	dutycycle 1
	intensity $96
	vibrato $00, $13
	octave 3
	note B_, 2
	note A#, 2
	note A_, 2
	note G#, 4
	dutycycle 2
	intensity $72
	octave 4
	note E_, 1
	octave 3
	note B_, 1
	octave 4
	note G#, 1
	note E_, 1
	note B_, 1
	note G#, 1
	octave 5
	note E_, 1
	octave 4
	note B_, 1
	note G#, 1
	note E_, 1
	octave 3
	note B_, 1
	note G#, 1
	dutycycle 1
	intensity $96
	octave 4
	note C_, 2
	note __, 2
	note D_, 2
	note __, 2
	note E_, 2
	note __, 2
	octave 3
	note E_, 4
	note D_, 3
	dutycycle 2
	intensity $72
	note A#, 1
	octave 4
	note D_, 1
	note F_, 1
	octave 3
	note A#, 1
	octave 4
	note D_, 1
	note F_, 1
	note A#, 1
	note C_, 1
	note F_, 1
	note A_, 1
	octave 5
	note C_, 1
	octave 4
	note F_, 1
	note A_, 1
	octave 5
	note C_, 1
	note F_, 1
	octave 4
	note G#, 1
	octave 5
	note C_, 1
	note D#, 1
	note G#, 1
	note D#, 1
	note C_, 1
	octave 4
	note G#, 1
	note D#, 1
	note G_, 1
	note D#, 1
	octave 3
	note A#, 1
	note G_, 1
	octave 4
	note D#, 1
	octave 3
	note A#, 1
	note G_, 1
	note D#, 1
	note G#, 1
	octave 4
	note C_, 1
	note D_, 1
	note C_, 1
	note D_, 1
	note F_, 1
	note D_, 1
	note F_, 1
	note G_, 1
	note F_, 1
	note G_, 1
	note G#, 1
	note G_, 1
	note G#, 1
	octave 5
	note C_, 1
	note C#, 1
	intensity $97
	note D_, 8
	note __, 8
	loopchannel 0, Music_EventideVillage_Ch1_loop

Music_EventideVillage_Ch2:
	dutycycle 2
	vibrato $00, $23
	octave 4
	notetype $C, $C6
	note E_, 4
Music_EventideVillage_Ch2_loop:
	dutycycle 2
	vibrato $00, $23
	octave 4
	notetype $C, $C6
	note F_, 2
	note E_, 2
	note D_, 2
	note E_, 2
	note D_, 2
	note C_, 6
	note D_, 2
	note C_, 2
	octave 3
	note B_, 2
	octave 4
	note C_, 2
	octave 3
	note B_, 2
	note A_, 6
	note G_, 2
	note F_, 2
	octave 4
	note C_, 2
	octave 3
	note B_, 2
	note A_, 2
	note B_, 6
	note A_, 2
	note G_, 2
	octave 4
	note F_, 2
	note E_, 2
	note D_, 2
	note E_, 6
	note F_, 2
	note E_, 2
	note G#, 2
	note E_, 2
	note B_, 2
	note A_, 6
	note G_, 2
	note F_, 2
	note E_, 2
	note D_, 2
	note C_, 2
	note F_, 6
	note D#, 2
	note C#, 2
	note C_, 2
	octave 3
	note A#, 2
	note G#, 2
	octave 4
	note C_, 4
	note D_, 2
	note C_, 2
	octave 3
	note B_, 2
	note __, 2
	dutycycle 1
	vibrato $00, $13
	octave 4
	note D_, 2
	note __, 2
	note E_, 6
	note F_, 2
	note E_, 2
	note G#, 2
	note E_, 2
	note B_, 2
	octave 5
	note C_, 4
	octave 4
	note B_, 2
	note A_, 2
	note G_, 4
	note F_, 2
	note E_, 2
	note D_, 6
	note E_, 2
	note C_, 4
	note D_, 4
	note C_, 2
	octave 3
	note B_, 4
	note A_, 2
	note G_, 2
	octave 4
	note G_, 2
	note F#, 2
	note F_, 2
	note E_, 6
	note F_, 2
	note E_, 2
	note G#, 2
	note E_, 2
	note B_, 2
	note A_, 2
	note __, 2
	note B_, 2
	note __, 2
	octave 5
	note C_, 2
	note __, 2
	dutycycle 2
	vibrato $00, $23
	octave 4
	note B_, 2
	octave 5
	note C_, 2
	note D_, 6
	note C_, 2
	octave 4
	note A#, 2
	note A_, 2
	note G_, 2
	note F_, 2
	octave 5
	note C_, 6
	octave 4
	note A#, 2
	note G#, 2
	note G_, 2
	note F_, 2
	note D#, 2
	note D_, 12
	note C_, 2
	note __, 2
	octave 3
	note B_, 10
	note __, 2
	octave 4
	note C_, 2
	note D_, 2
	note E_, 6
	loopchannel 0, Music_EventideVillage_Ch2_loop

Music_EventideVillage_Ch3:
Music_EventideVillage_Ch3_loop:
	octave 3
	notetype $C, $10
	note C_, 2
	octave 4
	note C_, 2
	note __, 6
	octave 2
	note G_, 2
	note G#, 2
	note A_, 4
	octave 3
	note A_, 2
	note __, 6
	note E_, 2
	octave 2
	note E_, 2
	note F_, 4
	octave 3
	note F_, 2
	octave 2
	note F_, 2
	note __, 4
	octave 3
	note F#, 2
	octave 2
	note F#, 2
	note G_, 4
	octave 3
	note G_, 2
	note __, 6
	octave 2
	note B_, 2
	note G_, 2
	octave 3
	note C_, 4
	octave 4
	note C_, 2
	note __, 4
	octave 2
	note B_, 2
	note E_, 2
	note __, 2
	note F_, 4
	octave 3
	note F_, 2
	octave 2
	note F_, 2
	note __, 2
	note C_, 2
	octave 3
	note C_, 2
	note __, 2
	note C#, 4
	note D#, 2
	note F_, 2
	octave 2
	note G#, 2
	note __, 2
	octave 3
	note C_, 2
	note __, 2
	octave 2
	note G_, 4
	octave 3
	note G_, 2
	note __, 2
	octave 2
	note G_, 2
	octave 3
	note G_, 1
	note G_, 1
	octave 2
	note F_, 2
	note __, 2
	note E_, 4
	octave 3
	note E_, 2
	octave 2
	note E_, 2
	note __, 2
	octave 3
	note E_, 2
	octave 2
	note E_, 2
	note __, 2
	note A_, 4
	octave 3
	note A_, 2
	octave 2
	note A_, 2
	note __, 2
	octave 4
	note C_, 2
	octave 3
	note C_, 2
	note __, 2
	octave 2
	note F_, 6
	octave 3
	note F_, 2
	octave 2
	note F_, 2
	note __, 2
	note F#, 2
	note __, 2
	note G_, 4
	note B_, 2
	octave 3
	note D_, 2
	note G_, 2
	note __, 2
	octave 2
	note G_, 2
	note __, 2
	note G#, 6
	note B_, 4
	note E_, 4
	octave 3
	note E_, 2
	note F_, 2
	note __, 2
	note G_, 2
	note __, 2
	note A_, 2
	note __, 2
	octave 2
	note A_, 4
	note A#, 10
	note F_, 8
	note G#, 8
	octave 3
	note D#, 8
	note F_, 16
	octave 2
	note G_, 2
	note G_, 2
	octave 3
	note G_, 2
	octave 2
	note G_, 2
	note __, 2
	octave 3
	note G_, 2
	octave 2
	note G_, 2
	note __, 2
	loopchannel 0, Music_EventideVillage_Ch3_loop

Music_EventideVillage_Ch4:
	togglenoise 3
Music_EventideVillage_Ch4_loop:
	notetype $C
	note A#, 1
	note __, 1
	note E_, 1
	note __, 1
	note D_, 1
	note __, 1
	note G_, 1
	note G_, 1
	note B_, 1
	note A#, 1
	note E_, 1
	note __, 1
	note D_, 1
	note __, 1
	note B_, 1
	note __, 1
	loopchannel 0, Music_EventideVillage_Ch4_loop

