Music_Eventide: ; f6e23
	musicheader 3, 1, Music_Eventide_Ch1
	musicheader 1, 2, Music_Eventide_Ch2
	musicheader 1, 3, Music_Eventide_Ch3

Music_Eventide_Ch1:
	tempo $87
	volume $77
	stereopanning $77
Music_Eventide_Ch1_loop:
	dutycycle 1
	tone $0001
	vibrato $00, $07
	octave 4
	notetype $C, $94
	note D#, 6
	intensity $75
	note D#, 6
	intensity $56
	note D#, 6
	intensity $37
	note D#, 4
	note __, 10
	intensity $94
	note D#, 6
	intensity $75
	note D#, 6
	intensity $56
	note D_, 6
	intensity $37
	note D_, 4
	note __, 10
	intensity $94
	note D#, 6
	intensity $75
	note D#, 6
	intensity $56
	note D#, 6
	intensity $37
	note D#, 4
	note __, 10
	intensity $94
	octave 3
	note B_, 6
	intensity $75
	note B_, 6
	octave 4
	intensity $56
	note D_, 6
	intensity $37
	note D_, 4
	note __, 10
	intensity $87
	octave 3
	note D#, 16
	note G_, 8
	note D#, 8
	note F_, 16
	note D_, 8
	note F_, 8
	note D#, 16
	note G_, 8
	note D#, 8
	note D_, 16
	note F_, 8
	note G#, 8
	note D#, 12
	note C_, 4
	note G_, 8
	note D#, 8
	note F_, 16
	note D_, 16
	octave 2
	note G#, 16
	octave 3
	note C_, 16
	note D_, 16
	note F_, 16
	loopchannel 0, Music_Eventide_Ch1_loop

Music_Eventide_Ch2:
Music_Eventide_Ch2_loop:
	dutycycle 1
	tone $0001
	vibrato $00, $07
	octave 4
	notetype $C, $94
	note C_, 6
	intensity $75
	note C_, 6
	intensity $56
	note C_, 6
	intensity $37
	note C_, 4
	note __, 10
	intensity $94
	note C_, 6
	intensity $75
	note C_, 6
	octave 3
	intensity $56
	note B_, 6
	intensity $37
	note B_, 4
	note __, 10
	intensity $94
	octave 4
	note C_, 6
	intensity $75
	note C_, 6
	intensity $56
	note C_, 6
	intensity $37
	note C_, 4
	note __, 10
	intensity $94
	octave 3
	note G_, 6
	intensity $75
	note G_, 6
	intensity $56
	note B_, 6
	intensity $37
	note B_, 4
	note __, 10
	intensity $A7
	note G_, 12
	octave 4
	note C_, 2
	note D_, 2
	note D#, 4
	note D_, 4
	note C_, 4
	octave 3
	note G_, 4
	note B_, 16
	note G#, 16
	note G_, 12
	octave 4
	note C_, 2
	note D_, 2
	note D#, 4
	note D_, 4
	note C_, 4
	octave 3
	note G_, 4
	note B_, 16
	note B_, 16
	note G_, 12
	octave 4
	note C_, 2
	note D_, 2
	note D#, 4
	note D_, 4
	note C_, 4
	octave 3
	note G_, 4
	note B_, 16
	note G_, 16
	note D#, 12
	octave 4
	note C_, 2
	note D_, 2
	note D#, 4
	note D_, 4
	note C_, 4
	octave 3
	note G_, 4
	note B_, 16
	octave 4
	note D_, 16
	loopchannel 0, Music_Eventide_Ch2_loop

Music_Eventide_Ch3:
	dutycycle 4
	octave 3
	notetype $C, $14
	note C_, 1
	intensity $24
	note C_, 1
	intensity $14
	note D#, 1
	intensity $24
	note D#, 1
	intensity $14
	note G_, 1
	intensity $24
	note G_, 1
	intensity $14
	note C_, 1
	intensity $24
	note C_, 1
	intensity $14
	note D#, 1
	intensity $24
	note D#, 1
	intensity $14
	note G_, 1
	intensity $24
	note G_, 1
	note C_, 1
	intensity $34
	note C_, 1
	intensity $24
	note D#, 1
	intensity $34
	note D#, 1
	intensity $24
	note G_, 1
	intensity $34
	note G_, 1
	intensity $24
	note C_, 1
	intensity $34
	note C_, 1
	intensity $24
	note D#, 1
	intensity $34
	note D#, 1
	intensity $24
	note G_, 1
	intensity $34
	note G_, 1
Music_Eventide_Ch3_loop:
	note __, 8
	intensity $14
	octave 2
	note B_, 1
	intensity $24
	note B_, 1
	intensity $14
	octave 3
	note D_, 1
	intensity $24
	note D_, 1
	intensity $14
	note G_, 1
	intensity $24
	note G_, 1
	intensity $14
	octave 2
	note B_, 1
	intensity $24
	note B_, 1
	intensity $14
	octave 3
	note D_, 1
	intensity $24
	note D_, 1
	intensity $14
	note G_, 1
	intensity $24
	note G_, 1
	octave 2
	note B_, 1
	intensity $34
	note B_, 1
	intensity $24
	octave 3
	note D_, 1
	intensity $34
	note D_, 1
	intensity $24
	note G_, 1
	intensity $34
	note G_, 1
	intensity $24
	octave 2
	note B_, 1
	intensity $34
	note B_, 1
	intensity $24
	octave 3
	note D_, 1
	intensity $34
	note D_, 1
	intensity $24
	note G_, 1
	intensity $34
	note G_, 1
	note __, 8
	intensity $14
	note C_, 1
	intensity $24
	note C_, 1
	intensity $14
	note D#, 1
	intensity $24
	note D#, 1
	intensity $14
	note G_, 1
	intensity $24
	note G_, 1
	intensity $14
	note C_, 1
	intensity $24
	note C_, 1
	intensity $14
	note D#, 1
	intensity $24
	note D#, 1
	intensity $14
	note G_, 1
	intensity $24
	note G_, 1
	note C_, 1
	intensity $34
	note C_, 1
	intensity $24
	note D#, 1
	intensity $34
	note D#, 1
	intensity $24
	note G_, 1
	intensity $34
	note G_, 1
	intensity $24
	note C_, 1
	intensity $34
	note C_, 1
	intensity $24
	note D#, 1
	intensity $34
	note D#, 1
	intensity $24
	note G_, 1
	intensity $34
	note G_, 1
	note __, 8
	intensity $14
	octave 2
	note B_, 1
	intensity $24
	note B_, 1
	intensity $14
	octave 3
	note D_, 1
	intensity $24
	note D_, 1
	intensity $14
	note G_, 1
	intensity $24
	note G_, 1
	intensity $14
	octave 2
	note B_, 1
	intensity $24
	note B_, 1
	intensity $14
	octave 3
	note D_, 1
	intensity $24
	note D_, 1
	intensity $14
	note G_, 1
	intensity $24
	note G_, 1
	octave 2
	note B_, 1
	intensity $34
	note B_, 1
	intensity $24
	octave 3
	note D_, 1
	intensity $34
	note D_, 1
	intensity $24
	note G_, 1
	intensity $34
	note G_, 1
	intensity $24
	octave 2
	note B_, 1
	intensity $34
	note B_, 1
	intensity $24
	octave 3
	note D_, 1
	intensity $34
	note D_, 1
	intensity $24
	note G_, 1
	intensity $34
	note G_, 1
	note __, 8
	intensity $14
	note C_, 1
	intensity $24
	note C_, 1
	intensity $14
	note D#, 1
	intensity $24
	note D#, 1
	intensity $14
	note G_, 1
	intensity $24
	note G_, 1
	intensity $14
	note C_, 1
	intensity $24
	note C_, 1
	intensity $14
	note D#, 1
	intensity $24
	note D#, 1
	intensity $14
	note G_, 1
	intensity $24
	note G_, 1
	intensity $14
	note C_, 1
	intensity $24
	note C_, 1
	intensity $14
	note D#, 1
	intensity $24
	note D#, 1
	intensity $14
	note G_, 1
	intensity $24
	note G_, 1
	intensity $14
	note C_, 1
	intensity $24
	note C_, 1
	intensity $14
	note D#, 1
	intensity $24
	note D#, 1
	intensity $14
	note G_, 1
	intensity $24
	note G_, 1
	intensity $14
	note C_, 2
	note D#, 2
	note G_, 2
	note D#, 2
	octave 2
	note B_, 1
	intensity $24
	note B_, 1
	intensity $14
	octave 3
	note D_, 1
	intensity $24
	note D_, 1
	intensity $14
	note G_, 1
	intensity $24
	note G_, 1
	intensity $14
	octave 2
	note B_, 1
	intensity $24
	note B_, 1
	intensity $14
	octave 3
	note D_, 1
	intensity $24
	note D_, 1
	intensity $14
	note G_, 1
	intensity $24
	note G_, 1
	intensity $14
	octave 2
	note B_, 1
	intensity $24
	note B_, 1
	intensity $14
	octave 3
	note D_, 1
	intensity $24
	note D_, 1
	intensity $14
	note G_, 1
	intensity $24
	note G_, 1
	intensity $14
	octave 2
	note B_, 1
	intensity $24
	note B_, 1
	intensity $14
	octave 3
	note D_, 1
	intensity $24
	note D_, 1
	intensity $14
	note G_, 1
	intensity $24
	note G_, 1
	intensity $14
	octave 2
	note B_, 2
	octave 3
	note D_, 2
	note G_, 2
	note D_, 2
	note C_, 1
	intensity $24
	note C_, 1
	intensity $14
	note D#, 1
	intensity $24
	note D#, 1
	intensity $14
	note G_, 1
	intensity $24
	note G_, 1
	intensity $14
	note C_, 1
	intensity $24
	note C_, 1
	intensity $14
	note D#, 1
	intensity $24
	note D#, 1
	intensity $14
	note G_, 1
	intensity $24
	note G_, 1
	intensity $14
	note C_, 1
	intensity $24
	note C_, 1
	intensity $14
	note D#, 1
	intensity $24
	note D#, 1
	intensity $14
	note G_, 1
	intensity $24
	note G_, 1
	intensity $14
	note C_, 1
	intensity $24
	note C_, 1
	intensity $14
	note D#, 1
	intensity $24
	note D#, 1
	intensity $14
	note G_, 1
	intensity $24
	note G_, 1
	intensity $14
	note C_, 2
	note D#, 2
	note G_, 2
	note D#, 2
	octave 2
	note B_, 1
	intensity $24
	note B_, 1
	intensity $14
	octave 3
	note D_, 1
	intensity $24
	note D_, 1
	intensity $14
	note G_, 1
	intensity $24
	note G_, 1
	intensity $14
	octave 2
	note B_, 1
	intensity $24
	note B_, 1
	intensity $14
	octave 3
	note D_, 1
	intensity $24
	note D_, 1
	intensity $14
	note G_, 1
	intensity $24
	note G_, 1
	intensity $14
	octave 2
	note B_, 1
	intensity $24
	note B_, 1
	intensity $14
	octave 3
	note D_, 1
	intensity $24
	note D_, 1
	intensity $14
	note G_, 1
	intensity $24
	note G_, 1
	intensity $14
	octave 2
	note B_, 1
	intensity $24
	note B_, 1
	intensity $14
	octave 3
	note D_, 1
	intensity $24
	note D_, 1
	intensity $14
	note G_, 1
	intensity $24
	note G_, 1
	intensity $14
	note G_, 2
	note F_, 2
	note D#, 2
	note D_, 2
	note C_, 1
	intensity $24
	note C_, 1
	intensity $14
	note D#, 1
	intensity $24
	note D#, 1
	intensity $14
	note G_, 1
	intensity $24
	note G_, 1
	intensity $14
	note C_, 1
	intensity $24
	note C_, 1
	intensity $14
	note D#, 1
	intensity $24
	note D#, 1
	intensity $14
	note G_, 1
	intensity $24
	note G_, 1
	intensity $14
	note C_, 1
	intensity $24
	note C_, 1
	intensity $14
	note D#, 1
	intensity $24
	note D#, 1
	intensity $14
	note G_, 1
	intensity $24
	note G_, 1
	intensity $14
	note C_, 1
	intensity $24
	note C_, 1
	intensity $14
	note D#, 1
	intensity $24
	note D#, 1
	intensity $14
	note G_, 1
	intensity $24
	note G_, 1
	intensity $14
	note C_, 2
	note D#, 2
	note G_, 2
	note D#, 2
	octave 2
	note B_, 1
	intensity $24
	note B_, 1
	intensity $14
	octave 3
	note D_, 1
	intensity $24
	note D_, 1
	intensity $14
	note G_, 1
	intensity $24
	note G_, 1
	intensity $14
	octave 2
	note B_, 1
	intensity $24
	note B_, 1
	intensity $14
	octave 3
	note D_, 1
	intensity $24
	note D_, 1
	intensity $14
	note G_, 1
	intensity $24
	note G_, 1
	intensity $14
	octave 2
	note B_, 1
	intensity $24
	note B_, 1
	intensity $14
	octave 3
	note D_, 1
	intensity $24
	note D_, 1
	intensity $14
	note G_, 1
	intensity $24
	note G_, 1
	intensity $14
	octave 2
	note B_, 1
	intensity $24
	note B_, 1
	intensity $14
	octave 3
	note D_, 1
	intensity $24
	note D_, 1
	intensity $14
	note G_, 1
	intensity $24
	note G_, 1
	intensity $14
	note G_, 2
	note F_, 2
	note D#, 2
	note G_, 2
	octave 2
	note G#, 1
	intensity $24
	note G#, 1
	intensity $14
	octave 3
	note C_, 1
	intensity $24
	note C_, 1
	intensity $14
	note D#, 1
	intensity $24
	note D#, 1
	intensity $14
	octave 2
	note G#, 1
	intensity $24
	note G#, 1
	intensity $14
	octave 3
	note C_, 1
	intensity $24
	note C_, 1
	intensity $14
	note D#, 1
	intensity $24
	note D#, 1
	intensity $14
	octave 2
	note G#, 1
	intensity $24
	note G#, 1
	intensity $14
	octave 3
	note C_, 1
	intensity $24
	note C_, 1
	intensity $14
	note D#, 1
	intensity $24
	note D#, 1
	intensity $14
	octave 2
	note G#, 1
	intensity $24
	note G#, 1
	intensity $14
	octave 3
	note C_, 1
	intensity $24
	note C_, 1
	intensity $14
	note D#, 1
	intensity $24
	note D#, 1
	intensity $14
	octave 2
	note G#, 2
	octave 3
	note C_, 2
	note D#, 2
	note C_, 2
	octave 2
	note B_, 1
	intensity $24
	note B_, 1
	intensity $14
	octave 3
	note D_, 1
	intensity $24
	note D_, 1
	intensity $14
	note G_, 1
	intensity $24
	note G_, 1
	intensity $14
	octave 2
	note B_, 1
	intensity $24
	note B_, 1
	intensity $14
	octave 3
	note D_, 1
	intensity $24
	note D_, 1
	intensity $14
	note G_, 1
	intensity $24
	note G_, 1
	intensity $14
	octave 2
	note B_, 1
	intensity $24
	note B_, 1
	intensity $14
	octave 3
	note D_, 1
	intensity $24
	note D_, 1
	intensity $14
	note G_, 2
	note D_, 2
	note F_, 2
	note G#, 2
	note G_, 2
	note F_, 2
	note D#, 2
	note D_, 2
	note C_, 4
	intensity $24
	note C_, 4
	note __, 16
	loopchannel 0, Music_Eventide_Ch3_loop

