Music_GlintCity: ; f57e8
	musicheader 4, 1, Music_GlintCity_Ch1
	musicheader 1, 2, Music_GlintCity_Ch2
	musicheader 1, 3, Music_GlintCity_Ch3
	musicheader 1, 4, Music_GlintCity_Ch4
; f57f4

Music_GlintCity_Ch1: ; f57f4
	tempo 170
	volume $77
	dutycycle $7
	stereopanning $f
	notetype $c, $c4
	intensity $84
	note __, 8
	octave 3
	note __, 2
	note F#, 1
	note __, 3
	note F#, 1
	note __, 3
	note F#, 1
	note __, 3
	note D#, 1
	note __, 1
Music_GlintCity_loop1:
	note __, 2
	note F#, 1
	note __, 3
	note F#, 1
	note __, 3
	note F#, 1
	note __, 3
	note D#, 1
	note __, 1
	note F#, 2
	note G#, 1
	note F#, 1
	note __, 2
	note F#, 1
	note __, 1
	note B_, 2
	note F#, 1
	note __, 1
	note F#, 2
	note F#, 1
	note __, 1
	note A#, 2
	note B_, 1
	note A#, 1
	note __, 2
	note F#, 1
	note __, 3
	note F#, 1
	note __, 3
	note F#, 1
	note __, 1
	note F#, 2
	note G#, 1
	note F#, 1
	note __, 2
	note F#, 1
	note __, 1
	note B_, 2
	note F#, 1
	note __, 1
	note F#, 2
	note F#, 1
	note __, 1
	note A#, 4
	note __, 2
	note F#, 1
	note __, 3
	note F#, 1
	note __, 1
	note F#, 4
	
	note E_, 2
	note F#, 1
	note E_, 1
	note __, 2
	note E_, 1
	note __, 1
	note G#, 2
	note E_, 1
	note F#, 2
	note __, 1
	note E_, 1
	note __, 1
	note D#, 3
	note __, 1
	octave 2
	note B_, 2
	octave 3
	note D#, 1
	note __, 1
	note F#, 2
	note D#, 1
	note E_, 3
	note D#, 2
	note C#, 2
	octave 2
	note B_, 1
	note A#, 1
	note __, 2
	note B_, 2
	octave 3
	note C#, 2
	note D#, 1
	note E_, 1
	note __, 2
	note F#, 2
	note C#, 4
	note __, 2
	note F#, 1
	note __, 3
	note F#, 1
	note __, 3
	note F#, 1
	note __, 1
	
	
	
	
	note F#, 2
	note G#, 1
	note F#, 1
	note __, 2
	note F#, 1
	note __, 1
	note B_, 2
	note F#, 1
	note __, 1
	note F#, 2
	note F#, 1
	note __, 1
	note A#, 2
	note B_, 1
	note A#, 1
	note __, 2
	note F#, 1
	note __, 3
	note F#, 1
	note __, 3
	note F#, 1
	note __, 1
	note F#, 2
	note G#, 1
	note F#, 1
	note __, 2
	note F#, 1
	note __, 1
	note B_, 2
	note F#, 1
	note __, 1
	note F#, 2
	note F#, 1
	note __, 1
	note A#, 4
	note __, 2
	note F#, 1
	note __, 3
	note F#, 1
	note __, 1
	note F#, 4
	
	note E_, 2
	note F#, 1
	note E_, 1
	note __, 2
	note E_, 1
	note __, 1
	note G#, 2
	note E_, 1
	note F#, 2
	note __, 1
	note E_, 1
	note __, 1
	note D#, 3
	note __, 1
	octave 2
	note B_, 2
	octave 3
	note D#, 1
	note __, 1
	note F#, 2
	note D#, 1
	note E_, 3
	note D#, 2
	note C#, 2
	octave 2
	note B_, 1
	note A#, 1
	note __, 2
	note B_, 2
	octave 3
	note C#, 2
	octave 2
	note B_, 1
	note A#, 1
	note __, 2
	note E_, 2
	note D#, 4
	note __, 2
	octave 3
	note F#, 1
	note __, 3
	note F#, 1
	note __, 3
	note F#, 1
	note __, 1
	
	note B_, 6
	note D#, 1
	note E_, 1
	note F#, 4
	note E_, 4
	note D#, 6
	note D#, 1
	note E_, 1
	note F#, 2
	note B_, 2
	note A#, 2
	note B_, 2
	note G#, 4
	note E_, 4
	note A#, 3
	note G#, 3
	note E_, 2
	note F#, 12
	note A#, 4
	note G#, 6
	note G#, 1
	note A#, 1
	note B_, 4
	note G#, 4
	note G_, 6
	note G_, 1
	note A#, 1
	note G_, 4
	note G_, 4
	note F#, 6
	note F#, 2
	note D#, 4
	note F#, 4
	note F_, 8
	note G#, 4
	note F_, 4
	note E_, 12
	octave 2
	note B_, 4
	octave 3
	note F#, 8
	note E_, 8
	note D#, 6
	note F#, 1
	note __, 3
	note F#, 1
	note __, 3
	note D#, 1
	note __, 1
	loopchannel 0, Music_GlintCity_loop1

Music_GlintCity_Ch2: ; f591d
	vibrato $12, $23
	dutycycle $7
	stereopanning $f0
	notetype $c, $c4
	intensity $84
	note __, 8
	octave 3
	note __, 2
	note B_, 1
	note __, 3
	note B_, 1
	note __, 3
	note B_, 1
	note __, 3
	note B_, 1
	note __, 1
Music_GlintCity_loop2:
	note __, 2
	note B_, 1
	note __, 3
	note B_, 1
	note __, 3
	note B_, 1
	note __, 1
	
	intensity $c4
	note B_, 2
	octave 4
	note C#, 2
	note D#, 2
	note E_, 1
	note D#, 1
	note __, 2
	
	intensity $84
	octave 3
	note B_, 1
	note __, 1
	
	intensity $c4
	octave 4
	note D#, 2
	note E_, 1
	note D#, 1
	note __, 2
	note F#, 2
	note C#, 2
	note D#, 1
	note C#, 1
	note __, 2
	
	intensity $84
	octave 3
	note A#, 1
	note __, 3
	note A#, 1
	note __, 1
	
	intensity $c4
	note B_, 2
	octave 4
	note C#, 2
	note D#, 2
	note E_, 1
	note D#, 1
	note __, 2
	
	intensity $84
	octave 3
	note B_, 1
	note __, 1
	
	intensity $c4
	octave 4
	note D#, 1
	note D#, 1
	note E_, 1
	note D#, 1
	note __, 2
	note F#, 2
	note C#, 4
	note __, 2
	
	intensity $84
	octave 3
	note A#, 1
	note __, 3

	intensity $c4
	octave 4
	note D#, 2
	note E_, 2
	note F#, 2
	note G#, 2
	note A#, 1
	note G#, 1
	note __, 2
	
	intensity $84
	octave 3
	note B_, 1
	note __, 1
	
	intensity $c4
	octave 4
	note B_, 1
	note B_, 1
	
	intensity $84
	octave 3
	note B_, 1
	
	intensity $c4
	octave 4
	note A#, 3
	note G#, 2
	note F#, 4
	note __, 2
	
	intensity $84
	octave 3
	note B_, 1
	note __, 1
	
	intensity $c4
	octave 4
	note A_, 1
	note A_, 1
	
	intensity $84
	octave 3
	note B_, 1
	
	intensity $c4
	octave 4
	note G#, 3
	note F#, 2
	note E_, 2
	note D#, 1
	note C#, 1
	note __, 2
	note D#, 2
	note E_, 2
	note F#, 1
	note G#, 1
	note __, 2
	note A#, 2
	note F#, 8
	note __, 2
	
	intensity $84
	octave 3
	note A#, 1
	note __, 1
	
	
	
	
	
	
	
	
	
	intensity $c4
	note B_, 2
	octave 4
	note C#, 2
	note D#, 2
	note E_, 1
	note D#, 1
	note __, 2
	
	intensity $84
	octave 3
	note B_, 1
	note __, 1
	
	intensity $c4
	octave 4
	note D#, 2
	note E_, 1
	note D#, 1
	note __, 2
	note F#, 2
	note C#, 2
	note D#, 1
	note C#, 1
	note __, 2
	
	intensity $84
	octave 3
	note A#, 1
	note __, 3
	note A#, 1
	note __, 1
	
	intensity $c4
	note B_, 2
	octave 4
	note C#, 2
	note D#, 2
	note E_, 1
	note D#, 1
	note __, 2
	
	intensity $84
	octave 3
	note B_, 1
	note __, 1
	
	intensity $c4
	octave 4
	note D#, 1
	note D#, 1
	note E_, 1
	note D#, 1
	note __, 2
	note F#, 2
	note C#, 4
	note __, 2
	
	intensity $84
	octave 3
	note A#, 1
	note __, 3

	intensity $c4
	octave 4
	note D#, 2
	note E_, 2
	note F#, 2
	note G#, 2
	note A#, 1
	note G#, 1
	note __, 2
	
	intensity $84
	octave 3
	note B_, 1
	note __, 1
	
	intensity $c4
	octave 4
	note B_, 1
	note B_, 1
	
	intensity $84
	octave 3
	note B_, 1
	
	intensity $c4
	octave 4
	note A#, 3
	note G#, 2
	note F#, 4
	note __, 2
	
	intensity $84
	octave 3
	note B_, 1
	note __, 1
	
	intensity $c4
	octave 4
	note A_, 1
	note A_, 1
	
	intensity $84
	octave 3
	note B_, 1
	
	intensity $c4
	octave 4
	note G#, 3
	note F#, 2
	note E_, 2
	note D#, 1
	note C#, 1
	note __, 2
	note D#, 2
	note E_, 2
	note D#, 1
	note C#, 1
	note __, 2
	octave 3
	note A#, 2
	note B_, 4
	note __, 2
	
	intensity $84
	note B_, 1
	note __, 3
	note B_, 1
	note __, 3
	
	intensity $c4
	octave 4
	note D#, 1
	note E_, 1
	note F#, 4
	note E_, 4
	note D#, 4
	note __, 2
	note D#, 1
	note E_, 1
	note F#, 2
	note B_, 2
	note A#, 2
	note B_, 2
	note F#, 4
	note D#, 4
	note E_, 4
	note C#, 4
	note F#, 3
	note E_, 3
	note C#, 2
	note D#, 8
	note __, 4
	note C#, 4
	octave 3
	note B_, 6
	octave 4
	note C#, 2
	note D#, 4
	octave 3
	note B_, 4
	octave 4
	note F#, 3
	note E_, 3
	note D#, 2
	octave 3
	note B_, 4
	octave 4
	note C#, 4
	note D#, 6
	note C#, 2
	octave 3
	note B_, 4
	octave 4
	note D#, 4
	note C#, 14
	octave 3
	note G#, 1
	note A#, 1
	note B_, 12
	note G#, 4
	octave 4
	note D#, 8
	octave 3
	note A#, 8
	note B_, 6
	
	intensity $84
	note B_, 1
	note __, 3
	note B_, 1
	note __, 3
	note B_, 1
	note __, 1
	
	loopchannel 0, Music_GlintCity_loop2
	
	
Music_GlintCity_Ch3: ; f5a08
	stereopanning $ff
	vibrato $0, $0
	notetype $c, $14
	octave 2
	note __, 8
	note B_, 2
	note __, 4
	note B_, 2
	note __, 2
	note B_, 2
	note F#, 2
	note __, 2
Music_GlintCity_loop3:
	note B_, 2
	note __, 4
	note B_, 2
	note __, 2
	note B_, 2
	note F#, 2
	note __, 2
	note B_, 2
	note __, 4
	note B_, 2
	note __, 2
	note B_, 2
	octave 3
	note F#, 2
	note __, 2
	octave 2
	note F#, 2
	note __, 4
	note F#, 2
	note __, 2
	note F#, 2
	octave 3
	note C#, 2
	note __, 2
	octave 2
	note B_, 2
	note __, 4
	note B_, 2
	note __, 2
	note B_, 2
	octave 3
	note F#, 2
	note __, 2
	octave 2
	note F#, 2
	note __, 4
	note F#, 2
	note __, 2
	note F#, 2
	octave 3
	note F#, 2
	note __, 2
	note E_, 2
	note __, 4
	octave 2
	note B_, 2
	note __, 2
	note B_, 2
	octave 3
	note E_, 2
	note __, 2
	note D#, 2
	note __, 4
	octave 2
	note B_, 2
	note __, 2
	note B_, 2
	octave 3
	note D#, 2
	note __, 2
	note C#, 2
	note __, 4
	note C#, 2
	note __, 2
	note C#, 2
	note E_, 2
	note __, 2
	octave 2
	note F#, 2
	note __, 4
	note F#, 2
	note __, 2
	note F#, 2
	octave 3
	note C#, 2
	note __, 2
	octave 2
	
	note B_, 2
	note __, 4
	note B_, 2
	note __, 2
	note B_, 2
	octave 3
	note F#, 2
	note __, 2
	octave 2
	note F#, 2
	note __, 4
	note F#, 2
	note __, 2
	note F#, 2
	octave 3
	note C#, 2
	note __, 2
	octave 2
	note B_, 2
	note __, 4
	note B_, 2
	note __, 2
	note B_, 2
	octave 3
	note F#, 2
	note __, 2
	octave 2
	note F#, 2
	note __, 4
	note F#, 2
	note __, 2
	note F#, 2
	octave 3
	note F#, 2
	note __, 2
	note E_, 2
	note __, 4
	octave 2
	note B_, 2
	note __, 2
	note B_, 2
	octave 3
	note E_, 2
	note __, 2
	note D#, 2
	note __, 4
	octave 2
	note B_, 2
	note __, 2
	note B_, 2
	octave 3
	note D#, 2
	note __, 2
	note C#, 2
	note __, 4
	note C#, 2
	note __, 2
	note C#, 2
	octave 2
	note F#, 2
	note __, 2
	note B_, 2
	note __, 4
	note B_, 2
	note __, 2
	note B_, 2
	octave 3
	note F#, 2
	note __, 2
	
	note E_, 6
	octave 2
	note B_, 6
	octave 3
	note E_, 4
	note D#, 6
	octave 2
	note B_, 6
	octave 3
	note D#, 2
	octave 2
	note B_, 2
	octave 3
	note C#, 6
	octave 2
	note A#, 6
	octave 3
	note C#, 2
	octave 2
	note A#, 2
	note B_, 8
	note A#, 8
	
	note G#, 2
	note __, 4
	note G#, 2
	note __, 2
	note G#, 2
	octave 3
	note D#, 4
	octave 2
	note G_, 2
	note __, 4
	note G_, 2
	note __, 2
	note G_, 2
	octave 3
	note D#, 4
	octave 2
	note F#, 2
	note __, 4
	note F#, 2
	note __, 2
	note F#, 2
	octave 3
	note D#, 4
	octave 2
	note F_, 4
	note G#, 4
	octave 3
	note F_, 4
	note C#, 4
	octave 2
	note E_, 2
	note __, 4
	note E_, 2
	note __, 2
	note E_, 2
	note B_, 2
	note __, 2
	note F#, 2
	note __, 4
	note F#, 2
	note __, 2
	note F#, 2
	octave 3
	note C#, 2
	note __, 2
	octave 2
	note B_, 2
	note __, 4
	note B_, 2
	note __, 2
	note B_, 2
	note F#, 2
	note __, 2
	
	
	loopchannel 0, Music_GlintCity_loop3


Music_GlintCity_Ch4: ; f5ae5
	togglenoise $3
	notetype $c
	note __, 2
	note D_, 1
	note __, 1
	note D#, 1
	note D#, 1
	note C_, 1
	note __, 1
	
	note D#, 1
	note __, 1
	note D#, 1
	note __, 1
	note D_, 1
	note __, 1
	note D#, 1
	note D_, 1
	note __, 1
	note D_, 1
	note D#, 1
	note __, 1
	note D_, 1
	note __, 1
	note D#, 1
	note D_, 1
Music_GlintCity_loop4:
	note D#, 1
	note __, 1
	note D#, 1
	note __, 1
	note D_, 1
	note __, 1
	note D#, 1
	note D_, 1
	note __, 1
	note D_, 1
	note D#, 1
	note __, 1
	note D_, 1
	note __, 1
	note D_, 1
	note __, 1
	
	note D#, 1
	note __, 1
	note D#, 1
	note __, 1
	note D_, 1
	note __, 1
	note D#, 1
	note D_, 1
	note __, 1
	note D_, 1
	note D#, 1
	note __, 1
	note D_, 1
	note __, 1
	note D#, 1
	note D_, 1
	note D#, 1
	note __, 1
	note D#, 1
	note __, 1
	note D_, 1
	note __, 1
	note D#, 1
	note D_, 1
	note __, 1
	note D_, 1
	note D#, 1
	note __, 1
	note D_, 1
	note __, 1
	note D_, 1
	note __, 1
	
	note D#, 1
	note __, 1
	note D#, 1
	note __, 1
	note D_, 1
	note __, 1
	note D#, 1
	note D_, 1
	note __, 1
	note D_, 1
	note D#, 1
	note __, 1
	note D_, 1
	note __, 1
	note D#, 1
	note D_, 1
	note D#, 1
	note __, 1
	note D#, 1
	note __, 1
	note D_, 1
	note __, 1
	note D#, 1
	note D_, 1
	note __, 1
	note D_, 1
	note D#, 1
	note __, 1
	note D_, 1
	note __, 1
	note D_, 1
	note __, 1
	
	note D#, 1
	note __, 1
	note D#, 1
	note __, 1
	note D_, 1
	note __, 1
	note D#, 1
	note D_, 1
	note __, 1
	note D_, 1
	note D#, 1
	note __, 1
	note D_, 1
	note __, 1
	note D#, 1
	note D_, 1
	note D#, 1
	note __, 1
	note D#, 1
	note __, 1
	note D_, 1
	note __, 1
	note D#, 1
	note D_, 1
	note __, 1
	note D_, 1
	note D#, 1
	note __, 1
	note D_, 1
	note __, 1
	note D_, 1
	note __, 1
	
	note D#, 1
	note __, 1
	note D#, 1
	note __, 1
	note D_, 1
	note __, 1
	note D#, 1
	note D_, 1
	note __, 1
	note D_, 1
	note D#, 1
	note __, 1
	note D_, 1
	note __, 1
	note D#, 1
	note D_, 1
	note D#, 1
	note __, 1
	note D#, 1
	note __, 1
	note D_, 1
	note __, 1
	note D#, 1
	note D_, 1
	note __, 1
	note D_, 1
	note D#, 1
	note __, 1
	note D_, 1
	note __, 1
	note D_, 1
	note __, 1
	
	note D#, 1
	note __, 1
	note D#, 1
	note __, 1
	note D_, 1
	note __, 1
	note D#, 1
	note D_, 1
	note __, 1
	note D_, 1
	note D#, 1
	note __, 1
	note D_, 1
	note __, 1
	note D#, 1
	note D_, 1
	note D#, 1
	note __, 1
	note D#, 1
	note __, 1
	note D_, 1
	note __, 1
	note D#, 1
	note D_, 1
	note __, 1
	note D_, 1
	note D#, 1
	note __, 1
	note D_, 1
	note __, 1
	note D_, 1
	note __, 1
	
	note D#, 1
	note __, 1
	note D#, 1
	note __, 1
	note D_, 1
	note __, 1
	note D#, 1
	note D_, 1
	note __, 1
	note D_, 1
	note D#, 1
	note __, 1
	note D_, 1
	note __, 1
	note D#, 1
	note D_, 1
	note D#, 1
	note __, 1
	note D#, 1
	note __, 1
	note D_, 1
	note __, 1
	note D#, 1
	note D_, 1
	note __, 1
	note D_, 1
	note D#, 1
	note __, 1
	note D_, 1
	note __, 1
	note D_, 1
	note __, 1
	
	note D#, 1
	note __, 1
	note D#, 1
	note __, 1
	note D_, 1
	note __, 1
	note D#, 1
	note D_, 1
	note __, 1
	note D_, 1
	note D#, 1
	note __, 1
	note D_, 1
	note __, 1
	note D#, 1
	note D_, 1
	note D#, 1
	note __, 1
	note D#, 1
	note __, 1
	note D_, 1
	note __, 1
	note D#, 1
	note D_, 1
	note __, 1
	note D_, 1
	note D#, 1
	note __, 1
	note D_, 1
	note __, 1
	note D_, 1
	note __, 1
	
	note D#, 1
	note __, 1
	note D#, 1
	note __, 1
	note D_, 1
	note __, 1
	note D#, 1
	note D_, 1
	note __, 1
	note D_, 1
	note D#, 1
	note __, 1
	note D_, 1
	note __, 1
	note D#, 1
	note D_, 1
	note D#, 1
	note __, 1
	note D#, 1
	note __, 1
	note D_, 1
	note __, 1
	note D#, 1
	note D_, 1
	note __, 1
	note D_, 1
	note D#, 1
	note __, 1
	note D_, 1
	note __, 1
	note D_, 1
	note __, 1
	
	note D#, 1
	note __, 3
	note D_, 1
	note __, 1
	note D#, 1
	note __, 3
	note D#, 1
	note __, 1
	note C_, 1
	note __, 1
	note C_, 1
	note __, 1
	note D#, 1
	note __, 3
	note D_, 1
	note __, 1
	note D#, 1
	note __, 3
	note D#, 1
	note __, 1
	note C_, 1
	note __, 1
	note C_, 1
	note __, 1
	note D#, 1
	note __, 3
	note D_, 1
	note __, 1
	note D#, 1
	note __, 3
	note D#, 1
	note __, 1
	note C_, 1
	note __, 1
	note C_, 1
	note __, 1
	note D#, 1
	note __, 3
	note D_, 1
	note __, 1
	note D#, 1
	note __, 3
	note D#, 1
	note __, 1
	note C_, 1
	note __, 1
	note C_, 1
	note __, 1
	
	note D#, 1
	note __, 3
	note D#, 1
	note __, 3
	note D#, 1
	note __, 3
	note C_, 1
	note __, 3
	note D#, 1
	note __, 3
	note D#, 1
	note __, 3
	note D#, 1
	note __, 3
	note C_, 1
	note __, 3
	note D#, 1
	note __, 3
	note D#, 1
	note __, 3
	note D#, 1
	note __, 3
	note C_, 1
	note __, 3
	note D#, 1
	note __, 3
	note D#, 1
	note __, 3
	note D#, 1
	note __, 3
	note C_, 1
	note C_, 1
	note __, 1
	note C_, 1
	
	note D#, 1
	note __, 1
	note D#, 1
	note __, 1
	note D_, 1
	note __, 1
	note D#, 1
	note D_, 1
	note __, 1
	note D_, 1
	note D#, 1
	note __, 1
	note D_, 1
	note __, 1
	note D#, 1
	note D_, 1
	note D#, 1
	note __, 1
	note D#, 1
	note __, 1
	note D_, 1
	note __, 1
	note D#, 1
	note D_, 1
	note __, 1
	note D_, 1
	note D#, 1
	note __, 1
	note D_, 1
	note __, 1
	note D_, 1
	note __, 1
	
	note D#, 1
	note __, 1
	note D#, 1
	note __, 1
	note D_, 1
	note __, 1
	note D#, 1
	note D_, 1
	note __, 1
	note D_, 1
	note D#, 1
	note __, 1
	note D_, 1
	note __, 1
	note D#, 1
	note D_, 1
	loopchannel 0, Music_GlintCity_loop4
