Music_GlintGrove: ; ef2d0
	musicheader 3, 1, Music_GlintGrove_Ch1
	musicheader 1, 2, Music_GlintGrove_Ch2
	musicheader 1, 3, Music_GlintGrove_Ch3
; ef2d9

Music_GlintGrove_Ch1: ; ef2d9
	tempo 100
	volume $77
	stereopanning $ff
	vibrato $12, $25
	dutycycle $2
	notetype $c, $57
	intensity $86
	octave 1
	note B_, 4
	octave 2
	note F#, 4
	note A#, 16
	note __, 2
	note A#, 2
	note F#, 2
	note D#, 2
	note C_, 4
	note F#, 4
	note A#, 16
	note __, 2
	note A#, 2
	note F#, 2
	note D#, 2
	note C#, 8
	note D#, 8
	note F_, 8
	note C#, 8
	octave 3
	note C#, 12
	note C_, 2
	octave 2
	note B_, 2
	note F_, 16
Music_GlintGrove_Ch1_Loop:
	intensity $66
	dutycycle $0
	octave 3
	note __, 4
	note F#, 2
	note A#, 2
	octave 4
	note C#, 2
	note __, 2
	octave 3
	note G#, 4
	note A#, 1
	note __, 1
	octave 4
	note C#, 1
	note __, 1
	octave 3
	note A#, 1
	note __, 1
	octave 4
	note C#, 1
	note __, 1
	octave 3
	note A#, 8
	
	note __, 4
	note G_, 2
	note A#, 2
	octave 4
	note C#, 2
	note __, 2
	octave 3
	note B_, 4
	note A#, 1
	note __, 1
	note B_, 1
	note __, 1
	note A#, 1
	note __, 1
	note B_, 1
	note __, 1
	note A#, 6
	octave 4
	note C#, 1
	note D_, 1
	note D#, 8
	note C#, 8
	octave 3
	note B_, 8
	note B_, 2
	octave 4
	note C#, 2
	note D#, 2
	note G#, 2
	note F#, 8
	note D_, 8
	note C#, 8
	octave 3
	note B_, 4
	note A#, 4
	
	note __, 4
	note F#, 2
	note A#, 2
	octave 4
	note C#, 2
	note __, 2
	octave 3
	note G#, 4
	note A#, 1
	note __, 1
	octave 4
	note C#, 1
	note __, 1
	octave 3
	note A#, 1
	note __, 1
	octave 4
	note C#, 1
	note __, 1
	octave 3
	note A#, 8
	note __, 4
	note G_, 2
	note A#, 2
	octave 4
	note C#, 2
	note __, 2
	octave 3
	note B_, 4
	note A#, 1
	note __, 1
	note B_, 1
	note __, 1
	note A#, 1
	note __, 1
	note B_, 1
	note __, 1
	note A#, 1
	note B_, 1
	note A#, 4
	octave 4
	note C#, 1
	note D_, 1
	note D#, 8
	note C#, 8
	octave 3
	note B_, 8
	note B_, 2
	octave 4
	note C#, 2
	note D#, 2
	note F#, 2
	note F#, 12
	note G#, 2
	note F#, 2
	note F#, 8
	note F_, 1
	note F#, 1
	note F_, 6
	
	octave 3
	note __, 4
	note B_, 2
	octave 4
	note C#, 2
	note D#, 4
	note F#, 2
	note __, 2
	note F#, 6
	note F#, 1
	note G_, 1
	note G#, 8
	note __, 4
	note G#, 2
	note D#, 2
	note F#, 4
	note F_, 2
	note __, 2
	note F_, 6
	note D#, 1
	note D_, 1
	note C#, 8
	note __, 4
	octave 3
	note A#, 2
	note B_, 2
	octave 4
	note C#, 4
	note D#, 2
	note __, 2
	note D#, 6
	note D#, 1
	note E_, 1
	note F_, 8
	
	note G#, 16
	note G_, 16
	note __, 4
	octave 3
	note B_, 2
	octave 4
	note C#, 2
	note D#, 4
	note F#, 2
	note __, 2
	note F#, 6
	note F#, 1
	note G_, 1
	note G#, 8
	note __, 4
	note B_, 2
	note F#, 2
	note G#, 4
	note C#, 2
	note __, 2
	note F_, 6
	note C#, 2
	note __, 4
	note C#, 2
	note F_, 2
	note F#, 16
	note __, 8
	note G#, 2
	note A#, 2
	note G#, 2
	note D#, 2
	note F_, 1
	note G_, 7
	note E_, 8
	note C#, 8
	note E_, 8
	
	note D#, 6
	octave 3
	note B_, 1
	octave 4
	note C#, 1
	note D#, 4
	note F#, 2
	note __, 2
	note F#, 6
	note F#, 1
	note G_, 1
	note G#, 8
	note __, 4
	note G#, 2
	note D#, 2
	note F#, 4
	note C#, 2
	note __, 2
	note B_, 6
	note A#, 1
	note A_, 1
	note G#, 8
	octave 3
	note __, 4
	note A#, 2
	note B_, 2
	octave 4
	note C#, 4
	note D#, 2
	note __, 2
	note D#, 6
	note D#, 1
	note E_, 1
	note F_, 8
	note G#, 15
	note __, 1
	note G#, 8
	note G_, 8
	note F#, 6
	note D#, 1
	note F#, 1
	note D#, 2
	note __, 2
	note C#, 2
	note __, 2
	octave 3
	note G#, 6
	note __, 2
	note __, 8
	octave 4
	note F#, 6
	note D#, 1
	note F#, 1
	note D#, 2
	note __, 2
	note C#, 4
	note C_, 8
	note __, 8
	
	octave 5
	note C#, 6
	octave 4
	note A#, 1
	note B_, 1
	note A#, 4
	note G#, 4
	note A#, 12
	octave 5
	note C#, 2
	note D_, 2
	note D#, 12
	note D_, 4
	note C#, 8
	note __, 8

	loopchannel 0, Music_GlintGrove_Ch1_Loop
	endchannel
; ef391



Music_GlintGrove_Ch2: ; ef3eb
	vibrato $b, $12
	dutycycle $1
	stereopanning $ff
	notetype $c, $b6
	
	octave 3
	note F#, 16
	intensity $b3
	note F#, 2
	note A#, 2
	note F#, 2
	note A#, 2
	note F#, 8
	intensity $b6
	note F#, 16
	intensity $b3
	note F#, 2
	note A#, 2
	note F#, 2
	note A#, 2
	note F#, 8
	notetype $c, $b6
	note G#, 16
	note __, 8
	note C#, 8
	octave 4
	note C_, 1
	note C#, 11
	note D#, 2
	note F_, 2
	note C#, 8
	octave 3
	note B_, 8
Music_GlintGrove_Ch2_Loop:
	notetype $c, $b6
	octave 3
	note A#, 16
	note __, 8
	note G#, 2
	note A#, 2
	note G#, 2
	note D#, 2
	note F#, 1
	note G_, 15
	note __, 4
	note D#, 4
	octave 4
	note D#, 4
	note D#, 4
	note __, 4
	note E_, 2
	note D#, 2
	octave 3
	note G#, 8
	note __, 4
	note D#, 4
	octave 4
	note C#, 4
	note C#, 4
	note __, 4
	note D_, 2
	note C#, 2
	octave 3
	note F#, 8
	note __, 6
	note F#, 1
	note F#, 1
	note F_, 2
	note G#, 2
	note __, 2
	note F_, 2
	note F#, 16
	note __, 8
	note G#, 2
	note A#, 2
	note G#, 2
	note D#, 2
	note F#, 1
	note G_, 15
	note __, 4
	note D#, 4
	octave 4
	note D#, 4
	note D#, 4
	note __, 4
	note E_, 2
	note D#, 2
	octave 3
	note G#, 8
	note __, 4
	note D#, 4
	octave 4
	note C#, 4
	note C#, 4
	note __, 4
	note D_, 2
	note C#, 2
	note F#, 8
	note C#, 8
	note F_, 4
	
	notetype $10, $b6
	octave 3
	note F#, 1
	note A#, 1
	octave 4
	note C#, 1
	
	notetype $c, $b6
	note D#, 16
	note __, 8
	octave 3
	note G#, 2
	note B_, 2
	octave 4
	note D#, 2
	note F#, 2
	note F#, 8
	note __, 8
	note G#, 12
	note F_, 4
	note C#, 16
	note __, 8
	note D#, 2
	note C#, 2
	octave 3
	note A#, 2
	note B_, 2
	note B_, 16
	note A#, 16
	note B_, 16
	note __, 8
	octave 4
	note C#, 2
	octave 3
	note B_, 2
	note A#, 2
	note B_, 2
	note B_, 12
	note F_, 2
	note G#, 2
	octave 4
	note D_, 1
	note D#, 11
	note C#, 4
	octave 3
	note A#, 16
	note __, 16
	octave 4
	note C#, 8
	note __, 8
	note E_, 8
	note __, 4
	
	notetype $10, $b6
	octave 3
	note F#, 1
	note A#, 1
	octave 4
	note C#, 1
	
	notetype $c, $b6
	note D#, 16
	note __, 8
	octave 3
	note G#, 2
	note B_, 2
	octave 4
	note D#, 2
	note F#, 2
	note F#, 8
	note __, 8
	note G#, 12
	note F_, 4
	note C#, 16
	note __, 8
	note D#, 2
	note C#, 2
	note C_, 2
	note C#, 2
	note C#, 10
	note C#, 2
	note C#, 2
	octave 3
	note A#, 2
	note B_, 8
	note A#, 8
	note B_, 12
	note F#, 2
	note B_, 2
	octave 4
	note F#, 16
	
	note C_, 12
	octave 3
	note F#, 2
	octave 4
	note C_, 2
	note F#, 14
	note G_, 2
	note G#, 16
	note __, 8
	note F#, 8
	note F_, 12
	note F#, 4
	note F_, 1
	note G#, 1
	note F_, 6
	octave 3
	note B_, 8
	loopchannel 0, Music_GlintGrove_Ch2_Loop

Music_GlintGrove_Ch3: ; ef4e1
	stereopanning $ff
;	vibrato $6, $26
	notetype $c, $35
	octave 4
	note __, 16
	note A#, 16
	note __, 16
	note A#, 16
	note __, 16
	note __, 16
	note __, 16
	note __, 16
	
Music_GlintGrove_Ch3_Loop:
	notetype $c, $a5
	octave 3
	note F#, 8
	note __, 4
	note C#, 2
	note __, 2
	note F#, 8
	note __, 4
	note C#, 2
	note __, 2
	note G_, 8
	note __, 4
	note C#, 2
	note __, 2
	note F#, 2
	note __, 2
	note G_, 4
	note __, 4
	note D#, 2
	note __, 2
	note G#, 8
	note __, 4
	note D#, 2
	note __, 2
	note G#, 8
	note __, 4
	note A#, 2
	note __, 2
	note B_, 8
	note __, 4
	note G#, 2
	note __, 2
	octave 4
	note C#, 8
	octave 3
	note C#, 8
	
	note F#, 8
	note __, 4
	note C#, 2
	note __, 2
	note F#, 8
	note __, 4
	note C#, 2
	note __, 2
	note G_, 8
	note __, 4
	note C#, 2
	note __, 2
	note F#, 2
	note __, 2
	note G_, 4
	note __, 4
	note D#, 2
	note __, 2
	note G#, 8
	note __, 4
	note D#, 2
	note __, 2
	note G#, 8
	note __, 4
	note B_, 2
	note __, 2
	octave 4
	note C#, 8
	note __, 4
	note C#, 2
	note __, 2
	octave 3
	note C#, 8
	note __, 8
	
	note B_, 8
	note __, 4
	note D#, 2
	note __, 2
	note D#, 8
	note __, 8
	note B_, 8
	note __, 4
	note F_, 2
	note __, 2
	note F_, 8
	note __, 8
	note A#, 8
	note __, 4
	note F_, 2
	note __, 2
	note F_, 8
	note __, 4
	octave 4
	note C#, 2
	note D#, 2
	
	notetype $10, $a6
	note E_, 2
	note C#, 2
	octave 3
	note A#, 2
	octave 4
	note C#, 2
	octave 3
	note A#, 2
	note G_, 2
	
	notetype $c, $a6
	octave 4
	note D_, 1
	note D#, 7
	note C#, 8
	octave 3
	note G#, 8
	note __, 4
	octave 2
	note B_, 2
	note __, 2
	octave 3
	note D#, 8
	note __, 4
	note G#, 2
	note F#, 2
	note F#, 8
	note __, 4
	note C#, 2
	note __, 2
	note F_, 8
	note __, 4
	note C#, 4
	note F#, 8
	note G#, 8
	note A#, 8
	note B_, 8
	octave 4
	note C#, 16
	note E_, 16
	octave 3
	note B_, 8
	note __, 4
	note D#, 2
	note __, 2
	note D#, 8
	note __, 8
	note B_, 8
	note __, 4
	note F_, 2
	note __, 2
	note F_, 8
	note __, 4
	note G_, 2
	note A_, 2
	note A#, 8
	note __, 4
	note F_, 2
	note __, 2
	note F_, 8
	note __, 4
	octave 4
	note C#, 2
	note D#, 2
	note E_, 12
	
	notetype $10, $a6
	note E_, 1
	note F#, 1
	note E_, 1
	
	notetype $c, $a6
	note E_, 8
	note D#, 1
	note E_, 1
	note D#, 6
	octave 3
	note G#, 8
	note __, 4
	note D#, 2
	note __, 2
	octave 2
	note G#, 8
	octave 3
	note D#, 8
	note G#, 8
	note __, 4
	note D#, 2
	note __, 2
	octave 2
	note G#, 8
	octave 3
	note G#, 8
	
	note F_, 16
	note F_, 8
	
	note __, 8
	note C#, 12
	note D#, 2
	note F_, 2
	note F_, 8
	note C#, 8
		
	loopchannel 0, Music_GlintGrove_Ch3_Loop
	endchannel