Music_Gym:
	musicheader 4, 1, Music_Gym_Ch1
	musicheader 1, 2, Music_Gym_Ch2
	musicheader 1, 3, Music_Gym_Ch3
	musicheader 1, 4, Music_Gym_Ch4

Music_Gym_Ch1:
	tempo $96
	volume $77
	stereopanning $77
	dutycycle 1
	vibrato $10, $23
	octave 3
	notetype $C, $A7
	note A_, 6
	note F#, 1
	note A_, 1
	note G_, 6
	note E_, 1
	note G_, 1
	note D_, 8
	dutycycle 2
	intensity $83
	octave 2
	note G_, 1
	note __, 1
	octave 1
	note G_, 1
	note __, 1
	octave 2
	note A_, 1
	octave 1
	note A_, 3
Music_Gym_Ch1_loop:
	dutycycle 2
	intensity $83
	octave 2
	note D_, 1
	note __, 1
	note D_, 1
	note __, 1
	octave 3
	note D_, 1
	octave 2
	note D_, 1
	note __, 1
	octave 3
	note D_, 1
	note __, 1
	octave 2
	note D_, 1
	octave 3
	note D_, 1
	note __, 1
	note D_, 1
	note __, 1
	octave 2
	note D_, 1
	note __, 1
	note C_, 1
	note __, 1
	note C_, 1
	note __, 1
	octave 3
	note C_, 1
	octave 2
	note C_, 1
	note __, 1
	octave 3
	note C_, 1
	note __, 1
	octave 2
	note C_, 1
	octave 3
	note C_, 1
	note __, 1
	note C_, 1
	note __, 1
	octave 2
	note C_, 1
	note __, 1
	octave 1
	note B_, 1
	note __, 1
	note B_, 1
	note __, 1
	octave 2
	note B_, 1
	octave 1
	note B_, 1
	note __, 1
	octave 2
	note B_, 1
	note __, 1
	octave 1
	note B_, 1
	octave 2
	note B_, 1
	note __, 1
	note B_, 1
	note __, 1
	octave 1
	note B_, 1
	note __, 1
	octave 2
	note C_, 1
	note __, 1
	note C_, 1
	note __, 1
	octave 3
	note C_, 1
	octave 2
	note C_, 1
	note __, 1
	octave 3
	note C_, 1
	note __, 1
	octave 2
	note C_, 1
	octave 3
	note C_, 1
	note __, 1
	note C_, 1
	note __, 1
	octave 2
	note C_, 1
	note __, 1
	note D_, 1
	note __, 1
	note D_, 1
	note __, 1
	octave 3
	note D_, 1
	octave 2
	note D_, 1
	note __, 1
	octave 3
	note D_, 1
	note __, 1
	octave 2
	note D_, 1
	octave 3
	note D_, 1
	note __, 1
	note D_, 1
	note __, 1
	octave 2
	note D_, 1
	note __, 1
	note C_, 1
	note __, 1
	note C_, 1
	note __, 1
	octave 3
	note C_, 1
	octave 2
	note C_, 1
	note __, 1
	octave 3
	note C_, 1
	note __, 1
	octave 2
	note C_, 1
	octave 3
	note C_, 1
	note __, 1
	note C_, 1
	note __, 1
	octave 2
	note C_, 1
	note __, 1
	octave 1
	note B_, 1
	note __, 1
	note B_, 1
	note __, 1
	octave 2
	note B_, 1
	octave 1
	note B_, 1
	note __, 1
	octave 2
	note B_, 1
	note __, 1
	octave 1
	note B_, 1
	octave 2
	note B_, 1
	note __, 1
	note B_, 1
	note __, 1
	octave 1
	note B_, 1
	note __, 1
	octave 2
	note C_, 1
	note __, 1
	note C_, 1
	note __, 1
	octave 3
	note C_, 1
	octave 2
	note C_, 1
	note __, 1
	octave 3
	note C_, 1
	note __, 1
	octave 2
	note C_, 1
	octave 3
	note C_, 1
	note __, 1
	note C_, 1
	note __, 1
	octave 2
	note C_, 1
	note __, 3
	octave 3
	note F#, 1
	note F#, 1
	note F#, 1
	note __, 3
	note F#, 1
	note F#, 1
	note F#, 1
	note __, 1
	note F#, 1
	note __, 1
	note F#, 1
	note F#, 1
	note __, 2
	note E_, 1
	note E_, 1
	note E_, 1
	note __, 3
	note E_, 1
	note E_, 1
	note E_, 1
	note __, 1
	note E_, 1
	note __, 1
	note E_, 1
	note E_, 1
	note __, 2
	note D_, 1
	note D_, 1
	note D_, 1
	note __, 3
	note D_, 1
	note D_, 1
	note D_, 1
	note __, 1
	note D_, 1
	note __, 1
	note D_, 1
	note D_, 1
	note __, 2
	note E_, 1
	note E_, 1
	note E_, 1
	note __, 3
	note E_, 1
	note E_, 1
	note E_, 1
	note __, 1
	note E_, 1
	note __, 1
	note E_, 1
	note E_, 1
	note __, 2
	note F#, 1
	note F#, 1
	note F#, 1
	note __, 3
	note F#, 1
	note F#, 1
	note F#, 1
	note __, 1
	note F#, 1
	note __, 1
	note F#, 1
	note F#, 1
	note __, 2
	note E_, 1
	note E_, 1
	note E_, 1
	note __, 3
	note E_, 1
	note E_, 1
	note E_, 1
	note __, 1
	note E_, 1
	note __, 1
	note E_, 1
	note E_, 1
	dutycycle 1
	intensity $C7
	note D_, 1
	note __, 1
	note D_, 1
	note E_, 1
	note F#, 6
	note E_, 1
	note F#, 1
	note G_, 4
	note F#, 1
	note __, 1
	note F#, 1
	note G_, 1
	intensity $C8
	note A_, 8
	intensity $6F
	note D_, 4
	loopchannel 0, Music_Gym_Ch1_loop

Music_Gym_Ch2:
	dutycycle 1
	vibrato $10, $23
	octave 4
	notetype $C, $C7
	note D_, 6
	octave 3
	note A_, 1
	octave 4
	note D_, 1
	note C_, 6
	octave 3
	note G_, 1
	octave 4
	note C_, 1
	intensity $C5
	octave 3
	note B_, 4
	intensity $6F
	note B_, 4
	intensity $C7
	note D_, 4
	note E_, 4
Music_Gym_Ch2_loop:
	octave 3
	intensity $75
	note A_, 1
	note F#, 1
	note __, 1
	note A_, 1
	note F#, 1
	note __, 1
	note A_, 1
	note F#, 1
	note __, 1
	note A_, 1
	note F#, 1
	note __, 1
	note A_, 1
	note F#, 1
	note __, 1
	note A_, 1
	note E_, 1
	note __, 1
	note G_, 1
	note E_, 1
	note __, 1
	note G_, 1
	note E_, 1
	note __, 1
	note G_, 1
	note E_, 1
	note __, 1
	note G_, 1
	note E_, 1
	note __, 1
	note G_, 1
	note E_, 1
	note __, 1
	note F#, 1
	note D_, 1
	note __, 1
	note F#, 1
	note D_, 1
	note __, 1
	note F#, 1
	note D_, 1
	note __, 1
	note F#, 1
	note D_, 1
	note __, 1
	note F#, 1
	note D_, 1
	note __, 1
	note G_, 1
	note E_, 1
	note __, 1
	note G_, 1
	note E_, 1
	note __, 1
	note G_, 1
	note E_, 1
	note __, 1
	note G_, 1
	note E_, 1
	note __, 1
	note G_, 1
	note E_, 1
	note __, 1
	note G_, 1
	note A_, 1
	note F#, 1
	note __, 1
	note A_, 1
	note F#, 1
	note __, 1
	note A_, 1
	note F#, 1
	note __, 1
	note A_, 1
	note F#, 1
	note __, 1
	note A_, 1
	note F#, 1
	note __, 1
	note A_, 1
	note E_, 1
	note __, 1
	note G_, 1
	note E_, 1
	note __, 1
	note G_, 1
	note E_, 1
	note __, 1
	note G_, 1
	note E_, 1
	note __, 1
	note G_, 1
	note E_, 1
	note __, 1
	note G_, 1
	note E_, 1
	note __, 1
	note F#, 1
	note D_, 1
	note __, 1
	note F#, 1
	note D_, 1
	note __, 1
	note F#, 1
	note D_, 1
	note __, 1
	note F#, 1
	note D_, 1
	note __, 1
	note F#, 1
	note D_, 1
	note __, 1
	note G_, 1
	note E_, 1
	note __, 1
	note G_, 1
	note E_, 1
	note __, 1
	note G_, 1
	note E_, 1
	note __, 1
	note G_, 1
	note E_, 1
	note __, 1
	note G_, 1
	note E_, 1
	note __, 1
	note G_, 1
	intensity $C7
	note A_, 6
	octave 4
	note D_, 6
	octave 3
	note A_, 4
	octave 4
	note C_, 4
	octave 3
	note B_, 4
	note A_, 4
	note G_, 4
	note F#, 1
	note __, 1
	note F#, 1
	note G_, 1
	note A_, 6
	note A_, 1
	note __, 1
	octave 4
	note D_, 1
	octave 3
	note A_, 3
	octave 4
	note C_, 4
	octave 3
	note B_, 4
	note A_, 4
	note F#, 1
	note G_, 3
	note A_, 6
	octave 4
	note D_, 6
	octave 3
	note A_, 4
	octave 4
	note C_, 4
	octave 3
	note B_, 4
	note A_, 4
	note G_, 4
	note F#, 1
	note __, 1
	note F#, 1
	note G_, 1
	note A_, 6
	note A_, 1
	note B_, 1
	octave 4
	note C_, 4
	note D_, 1
	note __, 1
	note D_, 1
	note E_, 1
	intensity $C8
	note F#, 8
	intensity $6F
	octave 3
	note G_, 4
	loopchannel 0, Music_Gym_Ch2_loop

Music_Gym_Ch3:
	dutycycle 6
	octave 3
	notetype $C, $16
	note D_, 8
	note C_, 8
	octave 2
	note G_, 8
	dutycycle 7
	intensity $19
	vibrato $12, $23
	octave 4
	note B_, 4
	octave 5
	note C#, 4
Music_Gym_Ch3_loop:
	notetype $C, $19
	note D_, 12
	octave 4
	note A_, 2
	octave 5
	note D_, 2
	note E_, 3
	notetype $6, $19
	note D#, 1
	note D_, 1
	note C_, 8
	note G_, 6
	note F#, 1
	note F_, 1
	note E_, 8
	notetype $C, $19
	note D_, 12
	notetype $6, $19
	octave 4
	note A_, 4
	octave 5
	note D_, 4
	note C_, 2
	note __, 2
	note C_, 2
	note D_, 2
	note E_, 16
	note E_, 6
	note E_, 1
	note F_, 1
	notetype $C, $19
	note F#, 12
	notetype $6, $19
	note E_, 4
	note F#, 4
	note G_, 6
	note F#, 1
	note F_, 1
	note E_, 8
	octave 6
	note C_, 5
	octave 5
	note B_, 1
	note A#, 1
	note A_, 1
	note G_, 8
	notetype $C, $19
	note F#, 12
	notetype $6, $19
	note E_, 4
	note F#, 4
	note G_, 2
	note __, 2
	note E_, 2
	note G_, 2
	octave 6
	note C_, 16
	octave 5
	note B_, 8
	dutycycle 5
	intensity $25
	octave 3
	note D_, 4
	octave 4
	note D_, 1
	note __, 1
	note D_, 1
	note __, 1
	note D_, 1
	note __, 3
	octave 3
	note D_, 4
	octave 4
	note D_, 1
	note __, 1
	note D_, 1
	note __, 1
	note D_, 1
	note __, 3
	note D_, 1
	note __, 1
	octave 3
	note D_, 1
	note __, 1
	octave 4
	note D_, 1
	note __, 1
	note D_, 1
	note __, 1
	octave 3
	note C_, 4
	octave 4
	note C_, 1
	note __, 1
	note C_, 1
	note __, 1
	note C_, 1
	note __, 3
	octave 3
	note C_, 4
	octave 4
	note C_, 1
	note __, 1
	note C_, 1
	note __, 1
	note C_, 1
	note __, 3
	note C_, 1
	note __, 1
	octave 3
	note C_, 1
	note __, 1
	octave 4
	note C_, 1
	note __, 1
	note C_, 1
	note __, 1
	octave 2
	note B_, 4
	octave 3
	note B_, 1
	note __, 1
	note B_, 1
	note __, 1
	note B_, 1
	note __, 3
	octave 2
	note B_, 4
	octave 3
	note B_, 1
	note __, 1
	note B_, 1
	note __, 1
	note B_, 1
	note __, 3
	note B_, 1
	note __, 1
	octave 2
	note B_, 1
	note __, 1
	octave 3
	note B_, 1
	note __, 1
	note B_, 1
	note __, 1
	note C_, 4
	octave 4
	note C_, 1
	note __, 1
	note C_, 1
	note __, 1
	note C_, 1
	note __, 3
	octave 3
	note C_, 4
	octave 4
	note C_, 1
	note __, 1
	note C_, 1
	note __, 1
	note C_, 1
	note __, 3
	note C_, 1
	note __, 1
	octave 3
	note C_, 1
	note __, 1
	octave 4
	note C_, 1
	note __, 1
	note C_, 1
	note __, 1
	octave 3
	note D_, 4
	octave 4
	note D_, 1
	note __, 1
	note D_, 1
	note __, 1
	note D_, 1
	note __, 3
	octave 3
	note D_, 4
	octave 4
	note D_, 1
	note __, 1
	note D_, 1
	note __, 1
	note D_, 1
	note __, 3
	note D_, 1
	note __, 1
	octave 3
	note D_, 1
	note __, 1
	octave 4
	note D_, 1
	note __, 1
	note D_, 1
	note __, 1
	octave 3
	note C_, 4
	octave 4
	note C_, 1
	note __, 1
	note C_, 1
	note __, 1
	note C_, 1
	note __, 3
	octave 3
	note C_, 4
	octave 4
	note C_, 1
	note __, 1
	note C_, 1
	note __, 1
	note C_, 1
	note __, 3
	note C_, 1
	note __, 1
	octave 3
	note C_, 1
	note __, 1
	octave 4
	note C_, 1
	note __, 1
	note C_, 1
	note __, 1
	octave 2
	note B_, 4
	octave 3
	note B_, 1
	note __, 1
	note B_, 1
	note __, 1
	note B_, 1
	note __, 3
	octave 2
	note B_, 4
	octave 3
	note C_, 1
	note __, 1
	note C_, 1
	note __, 1
	note C_, 1
	note __, 3
	octave 4
	note C_, 1
	note __, 1
	octave 3
	note C_, 1
	note __, 1
	octave 4
	note C_, 1
	note __, 1
	note C_, 1
	note __, 1
	octave 3
	note D_, 4
	octave 4
	note D_, 1
	note __, 1
	note D_, 1
	note __, 1
	note D_, 1
	note __, 3
	octave 3
	note D_, 4
	octave 4
	note D_, 1
	note __, 1
	note D_, 1
	note __, 1
	note D_, 1
	note __, 3
	dutycycle 7
	intensity $19
	octave 5
	note E_, 8
	loopchannel 0, Music_Gym_Ch3_loop

Music_Gym_Ch4:
	togglenoise 3
	notetype $C
	note B_, 4
	note __, 4
	note B_, 4
	note __, 4
	note B_, 2
	note C_, 1
	note C_, 1
	note C_, 1
	note __, 1
	note C_, 1
	note C_, 1
	note C_, 1
	note __, 1
	note C_, 1
	note C_, 1
	note C_, 1
	note C_, 1
	note C_, 1
	note C_, 1
Music_Gym_Ch4_loop:
	note B_, 2
	note G_, 1
	note G_, 1
	note C_, 1
	note G_, 1
	note G_, 1
	note G_, 1
	note A#, 2
	note G_, 1
	note G_, 1
	note C_, 1
	note C_, 1
	note G_, 1
	note B_, 1
	note A#, 2
	note G_, 1
	note G_, 1
	note C_, 1
	note G_, 1
	note G_, 1
	note G_, 1
	note A#, 2
	note G_, 1
	note G_, 1
	note C_, 1
	note A#, 1
	note A#, 1
	note C_, 1
	loopchannel 0, Music_Gym_Ch4_loop

