Music_GymBattle:
	musicheader 3, 1, Music_GymBattle_Ch1
	musicheader 1, 2, Music_GymBattle_Ch2
	musicheader 1, 3, Music_GymBattle_Ch3
	musicheader 1, 4, Music_GymBattle_Ch4

Music_GymBattle_Ch1:
	tempo $6A
	volume $77
	stereopanning $77
	dutycycle 1
	octave 3
	notetype $C, $B5
	note F_, 12
	note C#, 2
	octave 2
	note A#, 2
	octave 3
	note C_, 4
	octave 2
	note A_, 4
	octave 3
	note F_, 4
	note D#, 4
Music_GymBattle_Ch1_loop:
	dutycycle 1
	octave 3
	notetype $C, $B5
	intensity $A8
	note A#, 2
	note __, 4
	note A#, 2
	note __, 4
	note A#, 2
	note __, 2
	note G#, 8
	notetype $6, $A8
	note A#, 1
	note B_, 1
	octave 4
	note C_, 14
	octave 3
	note A#, 4
	note __, 8
	note A#, 4
	note __, 8
	note A#, 4
	note __, 4
	note A_, 8
	note F_, 8
	octave 4
	note C_, 1
	note C#, 7
	note C_, 8
	octave 3
	note A#, 4
	note __, 8
	note A#, 4
	note __, 8
	note A#, 4
	note __, 4
	note G#, 2
	note __, 2
	note G#, 2
	note __, 6
	note G#, 1
	note __, 1
	note G#, 1
	note __, 1
	octave 4
	note C_, 2
	note __, 2
	note C_, 2
	note __, 2
	octave 3
	note G#, 2
	note __, 2
	note G#, 2
	note __, 2
	note A#, 4
	note __, 8
	note A#, 4
	note __, 8
	note A#, 4
	note __, 4
	note A_, 2
	note __, 2
	note A_, 2
	note __, 6
	note A_, 1
	note __, 1
	note A_, 1
	note __, 1
	note A_, 2
	note __, 2
	note A_, 2
	note __, 2
	note A_, 2
	note __, 2
	note A_, 2
	note __, 2
	intensity $A6
	note C#, 4
	note __, 8
	note C#, 4
	note __, 8
	note C#, 4
	note __, 4
	octave 2
	note A_, 4
	note __, 8
	note A_, 4
	octave 3
	note A_, 4
	note F#, 4
	note F_, 4
	note D#, 4
	note C#, 4
	note __, 8
	note C#, 4
	note __, 8
	note C#, 4
	note __, 4
	octave 2
	note A_, 4
	octave 3
	note C_, 4
	note F_, 4
	note A_, 4
	octave 4
	note C_, 4
	octave 3
	note A_, 4
	note F_, 4
	note D#, 4
	note C#, 4
	note __, 8
	dutycycle 1
	octave 3
	note C#, 4
	note __, 8
	note C#, 4
	note __, 4
	octave 2
	note A_, 4
	note __, 8
	note A_, 4
	octave 4
	dutycycle 0
	note A_, 4
	note F#, 4
	note F_, 4
	note D#, 4
	octave 3
	note F_, 4
	note __, 8
	note C#, 4
	note __, 8
	dutycycle 1
	note F#, 4
	note __, 4
	note F_, 4
	octave 2
	note F_, 4
	note A_, 4
	octave 3
	note C_, 4
	note F_, 4
	note C_, 4
	note F_, 4
	note A_, 4
	dutycycle 2
	note A#, 12
	note F#, 12
	note A#, 8
	note G#, 8
	note F#, 8
	note F_, 8
	octave 2
	note G#, 8
	octave 3
	note C_, 12
	note D#, 4
	note G#, 8
	note F#, 8
	note F_, 4
	note D#, 4
	note F_, 4
	note F#, 4
	note G#, 4
	note F_, 4
	note G#, 4
	note A_, 4
	note A#, 12
	note F#, 12
	note A#, 8
	note G#, 8
	note F#, 8
	note F_, 8
	note G#, 8
	octave 4
	note C_, 2
	octave 3
	note A_, 2
	note F#, 2
	note A_, 2
	octave 4
	note C_, 2
	octave 3
	note A_, 2
	note F#, 2
	note A_, 2
	octave 4
	note C_, 2
	octave 3
	note A_, 2
	note F#, 2
	note A_, 2
	octave 4
	note C_, 2
	octave 3
	note A_, 2
	note F#, 2
	note A_, 2
	octave 4
	note C_, 2
	octave 3
	note A_, 2
	note F_, 2
	note A_, 2
	octave 4
	note C_, 2
	octave 3
	note A_, 2
	note F_, 2
	note A_, 2
	octave 4
	note C_, 2
	octave 3
	note A_, 2
	note F_, 2
	note A_, 2
	octave 4
	note C_, 2
	octave 3
	note A_, 2
	note F_, 2
	note D#, 2
	intensity $86
	note A#, 2
	intensity $46
	note A#, 2
	intensity $86
	note F#, 2
	intensity $46
	note F#, 2
	intensity $86
	octave 5
	note C#, 2
	intensity $46
	note C#, 2
	intensity $86
	octave 4
	note A#, 2
	intensity $46
	note A#, 2
	intensity $86
	octave 5
	note F#, 2
	intensity $46
	note F#, 2
	intensity $86
	note C#, 2
	intensity $46
	note C#, 2
	intensity $86
	note A#, 2
	intensity $46
	note A#, 2
	intensity $86
	note F#, 2
	intensity $46
	note F#, 2
	intensity $86
	note G#, 2
	intensity $46
	note G#, 2
	intensity $86
	note C#, 2
	intensity $46
	note C#, 2
	intensity $86
	note F_, 2
	intensity $46
	note F_, 2
	intensity $86
	octave 4
	note G#, 2
	intensity $46
	note G#, 2
	intensity $86
	octave 5
	note C#, 2
	intensity $46
	note C#, 2
	intensity $86
	octave 4
	note F_, 2
	intensity $46
	note F_, 2
	intensity $86
	note G#, 2
	intensity $46
	note G#, 2
	intensity $86
	note C#, 2
	intensity $46
	note C#, 2
	intensity $86
	note G#, 2
	intensity $46
	note G#, 2
	intensity $86
	note D#, 2
	intensity $46
	note D#, 2
	intensity $86
	octave 5
	note C_, 2
	intensity $46
	note C_, 2
	intensity $86
	octave 4
	note G#, 2
	intensity $46
	note G#, 2
	intensity $86
	octave 5
	note D#, 2
	intensity $46
	note D#, 2
	intensity $86
	note C_, 2
	intensity $46
	note C_, 2
	intensity $86
	note G#, 2
	intensity $46
	note G#, 2
	intensity $86
	note D#, 2
	intensity $46
	note D#, 2
	intensity $86
	note F_, 2
	intensity $46
	note F_, 2
	intensity $86
	note F#, 2
	intensity $46
	note F#, 2
	intensity $86
	note F_, 2
	intensity $46
	note F_, 2
	intensity $86
	note D#, 2
	intensity $46
	note D#, 2
	intensity $86
	note C#, 2
	intensity $46
	note C#, 2
	intensity $86
	octave 4
	note G#, 2
	intensity $46
	note G#, 2
	intensity $86
	note F_, 2
	intensity $46
	note F_, 2
	intensity $86
	note G#, 2
	intensity $46
	note G#, 2
	dutycycle 1
	intensity $A6
	octave 3
	note A#, 12
	note F#, 12
	note A#, 8
	note F_, 8
	note F#, 8
	note G#, 8
	note C#, 8
	note A#, 2
	note __, 2
	note A#, 2
	note __, 6
	note A#, 1
	note __, 1
	note A#, 1
	note __, 1
	note A#, 2
	note __, 2
	note A#, 2
	note __, 2
	note A#, 2
	note __, 2
	note A#, 2
	note __, 2
	note A_, 2
	note __, 2
	note A_, 2
	note __, 6
	note A_, 1
	note __, 1
	note A_, 1
	note __, 1
	note A_, 2
	note __, 2
	note A_, 2
	note __, 2
	note A_, 2
	note __, 2
	note A_, 2
	note __, 2
	dutycycle 2
	intensity $A8
	octave 1
	note A#, 1
	note __, 3
	note A#, 1
	note __, 7
	note A#, 1
	note __, 1
	note A#, 1
	note __, 1
	note A#, 1
	note __, 3
	note A#, 1
	note __, 3
	note A#, 1
	note __, 3
	note A#, 1
	note __, 7
	note A#, 1
	note __, 7
	note A#, 1
	note __, 1
	note A#, 1
	note __, 1
	note A#, 1
	note __, 3
	note A#, 1
	note __, 3
	note A#, 1
	note __, 3
	note A#, 1
	note __, 3
	note A#, 1
	note __, 3
	note A#, 1
	note __, 7
	note A#, 1
	note __, 1
	note A#, 1
	note __, 1
	note A#, 1
	note __, 3
	note A#, 1
	note __, 3
	note A#, 1
	note __, 3
	note A#, 1
	note __, 7
	note A#, 1
	note __, 7
	note A#, 1
	note __, 1
	note A#, 1
	note __, 1
	note A#, 1
	note __, 3
	note A#, 1
	note __, 3
	note A#, 1
	note __, 3
	note A#, 1
	note __, 3
	note B_, 1
	note __, 3
	note B_, 1
	note __, 7
	note B_, 1
	note __, 1
	note B_, 1
	note __, 1
	note B_, 1
	note __, 3
	note B_, 1
	note __, 3
	note B_, 1
	note __, 3
	note B_, 1
	note __, 7
	note B_, 1
	note __, 7
	note B_, 1
	note __, 1
	note B_, 1
	note __, 1
	note B_, 1
	note __, 3
	note B_, 1
	note __, 3
	note B_, 1
	note __, 3
	note B_, 1
	note __, 3
	note B_, 1
	note __, 3
	note B_, 1
	note __, 7
	note B_, 1
	note __, 1
	note B_, 1
	note __, 1
	note B_, 1
	note __, 3
	note B_, 1
	note __, 3
	note B_, 1
	note __, 3
	note B_, 1
	note __, 7
	octave 2
	note C_, 1
	note __, 7
	note C#, 1
	note __, 1
	note C#, 1
	note __, 1
	note D_, 1
	note __, 3
	note D_, 1
	note __, 3
	note D#, 1
	note __, 3
	note D#, 1
	note __, 3
	dutycycle 1
	intensity $A6
	octave 3
	note E_, 12
	octave 2
	note B_, 12
	note G_, 8
	note A_, 2
	note G#, 2
	note A_, 2
	note B_, 2
	octave 3
	note C_, 2
	octave 2
	note B_, 2
	octave 3
	note C_, 2
	note C#, 2
	note D_, 2
	note C#, 2
	note D_, 2
	note D#, 2
	note E_, 2
	note D#, 2
	note E_, 2
	note F_, 2
	note F#, 12
	note C#, 12
	octave 2
	note A#, 8
	note B_, 2
	note A#, 2
	note B_, 2
	octave 3
	note C_, 2
	note C#, 2
	note C_, 2
	note C#, 2
	note D_, 2
	note D#, 2
	note D_, 2
	note D#, 2
	note E_, 2
	note F_, 2
	note E_, 2
	note F_, 2
	note F#, 2
	note G_, 12
	note E_, 12
	note G_, 8
	note G#, 12
	note F_, 12
	note G#, 8
	note A#, 12
	note G_, 12
	note A#, 8
	note B_, 12
	note G#, 12
	note B_, 8
	intensity $A8
	vibrato $00, $23
	octave 4
	note C#, 16
	note C#, 16
	note C_, 16
	octave 3
	note A_, 16
	note A#, 16
	note A#, 12
	octave 4
	note C_, 2
	octave 3
	note A#, 2
	note A_, 16
	octave 4
	note C_, 16
	loopchannel 0, Music_GymBattle_Ch1_loop

Music_GymBattle_Ch2:
	dutycycle 1
	vibrato $08, $23
	octave 4
	notetype $C, $C8
	note F_, 1
	note C#, 1
	octave 3
	note A#, 1
	octave 4
	note C#, 1
	note F_, 1
	note C#, 1
	octave 3
	note A#, 1
	octave 4
	note C#, 1
	note F_, 1
	note C#, 1
	octave 3
	note A#, 1
	octave 4
	note C#, 1
	note F_, 1
	note C#, 1
	octave 3
	note A#, 1
	octave 4
	note F_, 1
	note D#, 1
	note C_, 1
	octave 3
	note A_, 1
	octave 4
	note C_, 1
	note D#, 1
	note C_, 1
	octave 3
	note A_, 1
	octave 4
	note C_, 1
	note D#, 1
	note C_, 1
	octave 3
	note A_, 1
	octave 4
	note C_, 1
	note D#, 1
	note C_, 1
	octave 3
	note A_, 1
	note F_, 1
Music_GymBattle_Ch2_loop:
	dutycycle 1
	notetype $C, $C8
	octave 4
	note C#, 2
	note __, 4
	note C#, 2
	note __, 4
	note C#, 2
	note __, 2
	note C_, 8
	notetype $6, $C8
	note C#, 1
	note D_, 1
	note D#, 14
	note C#, 4
	note __, 8
	note C#, 4
	note __, 8
	note C#, 4
	note __, 4
	note C_, 8
	octave 3
	note A_, 8
	octave 4
	note E_, 1
	note F_, 7
	note D#, 8
	note C#, 4
	note __, 8
	note C#, 4
	note __, 8
	note C#, 4
	note __, 4
	note C_, 2
	note __, 2
	note C_, 2
	note __, 6
	note C_, 1
	note __, 1
	note C_, 1
	note __, 1
	note D#, 2
	note __, 2
	note D#, 2
	note __, 2
	note C_, 2
	note __, 2
	note C_, 2
	note __, 2
	note C#, 4
	note __, 8
	note C#, 4
	note __, 8
	note D#, 4
	note __, 4
	note F_, 2
	note __, 2
	note F_, 2
	note __, 6
	note F_, 1
	note __, 1
	note F_, 1
	note __, 1
	note F_, 2
	note __, 2
	note F_, 2
	note __, 2
	note F_, 2
	note __, 2
	note F_, 2
	note __, 2
	intensity $C6
	octave 3
	note A#, 16
	octave 4
	note F_, 4
	note F#, 4
	note F_, 4
	note D#, 4
	note C_, 4
	octave 3
	note A_, 4
	octave 4
	note C_, 4
	note D#, 4
	note F_, 4
	note D#, 4
	note C#, 4
	note C_, 4
	octave 3
	note A#, 16
	octave 4
	note F_, 4
	note F#, 4
	note F_, 4
	note D#, 4
	note C_, 4
	octave 3
	note A_, 4
	octave 4
	note C_, 4
	note D#, 4
	note F_, 4
	note D#, 4
	note C#, 4
	note C_, 4
	octave 3
	note A#, 16
	dutycycle 0
	octave 5
	note F_, 4
	note F#, 4
	note F_, 4
	note D#, 4
	note C_, 4
	octave 4
	note A_, 4
	octave 5
	note C_, 4
	note D#, 4
	note F_, 4
	note D#, 4
	note C#, 4
	note C_, 4
	octave 4
	note A#, 16
	dutycycle 1
	note C#, 4
	note C_, 4
	octave 3
	note A#, 4
	octave 4
	note C_, 4
	octave 3
	note A_, 4
	note F_, 4
	note A_, 4
	octave 4
	note C_, 4
	note F_, 4
	octave 3
	note A_, 4
	octave 4
	note C_, 4
	note F_, 4
	dutycycle 2
	note F#, 12
	note C#, 4
	note A#, 4
	note G#, 4
	note F#, 4
	note D#, 4
	note F_, 12
	note D#, 4
	note C#, 16
	note D_, 1
	note D#, 11
	octave 3
	note G#, 4
	octave 4
	note F_, 4
	note D#, 4
	note C#, 4
	note C_, 4
	note C#, 4
	note C_, 4
	note C#, 4
	note D#, 4
	note E_, 1
	note F_, 12
	note D#, 1
	note E_, 1
	note F_, 1
	note F#, 12
	note C#, 4
	note A#, 4
	note G#, 4
	note F#, 4
	note D#, 4
	note F_, 8
	note D#, 8
	note C#, 8
	note F_, 8
	intensity $C8
	note F#, 8
	intensity $C6
	note F#, 12
	note G#, 4
	note F#, 4
	note D#, 4
	intensity $C8
	note F_, 16
	intensity $C6
	note F_, 8
	dutycycle 1
	octave 3
	note F_, 2
	note A_, 2
	octave 4
	note C_, 2
	note F_, 2
	note F#, 12
	note C#, 4
	note A#, 4
	note G#, 4
	note F#, 4
	note D#, 4
	note F_, 12
	note F#, 4
	note G#, 16
	note D_, 1
	note D#, 11
	note C_, 4
	note D#, 4
	note F_, 4
	note F#, 4
	note A#, 4
	note G#, 4
	note A#, 4
	note G#, 4
	note F#, 4
	note F_, 13
	note D#, 1
	note E_, 1
	note F_, 1
	note F#, 12
	note C#, 4
	note A#, 4
	note G#, 4
	note F#, 4
	note A#, 4
	note G#, 8
	octave 5
	note C_, 8
	note C#, 8
	octave 4
	note F_, 8
	intensity $C8
	note F#, 8
	intensity $C6
	note F#, 12
	note G#, 4
	note F#, 4
	note D#, 4
	note F_, 16
	note D#, 16
	intensity $C8
	note F_, 16
	intensity $A8
	note F_, 16
	intensity $88
	note F_, 16
	intensity $68
	note F_, 16
	intensity $48
	note F_, 16
	intensity $58
	note F_, 16
	intensity $68
	note F_, 16
	intensity $7D
	note F_, 9
	note __, 1
	intensity $C8
	note F_, 1
	note __, 1
	note F_, 1
	note __, 1
	note F_, 1
	note __, 1
	note F#, 16
	intensity $A8
	note F#, 16
	intensity $88
	note F#, 16
	intensity $68
	note F#, 16
	intensity $48
	octave 3
	note F#, 16
	intensity $58
	note F#, 16
	intensity $68
	note G_, 8
	note G#, 8
	intensity $7D
	note A_, 9
	note __, 1
	intensity $C8
	note A#, 1
	note __, 1
	note A#, 1
	note __, 1
	note A#, 1
	note __, 1
	intensity $C7
	note A#, 1
	note B_, 15
	note E_, 4
	note D#, 4
	note E_, 4
	note B_, 4
	intensity $C8
	octave 4
	note C_, 16
	intensity $C7
	note C_, 16
	note C_, 1
	note C#, 15
	octave 3
	note F#, 4
	note F_, 4
	note F#, 4
	octave 4
	note C#, 4
	intensity $C8
	note D_, 16
	intensity $C7
	note D_, 16
	note D#, 1
	note E_, 15
	note C_, 4
	octave 3
	note B_, 4
	octave 4
	note C_, 4
	note E_, 4
	note F_, 16
	note C#, 4
	note C_, 4
	note C#, 4
	note F_, 4
	note F#, 1
	note G_, 15
	note D#, 4
	note D_, 4
	note D#, 4
	note G_, 4
	note G#, 16
	note E_, 4
	note D#, 4
	note E_, 4
	note G#, 4
	intensity $C8
	note A#, 16
	note A#, 12
	octave 5
	note C_, 2
	octave 4
	note A#, 2
	note A_, 16
	note B_, 1
	octave 5
	note C_, 15
	note C#, 16
	note C#, 12
	note D#, 2
	note C#, 2
	note C_, 16
	note E_, 1
	note F_, 11
	note F_, 4
	loopchannel 0, Music_GymBattle_Ch2_loop

Music_GymBattle_Ch3:
	dutycycle 4
	octave 2
	notetype $C, $14
	note F_, 8
	octave 3
	note F_, 8
	note A_, 4
	note F_, 4
	note D#, 4
	note C_, 2
	octave 2
	note A_, 2
Music_GymBattle_Ch3_loop:
	notetype $C, $14
	note A#, 2
	octave 3
	note F_, 2
	octave 2
	note A#, 2
	octave 3
	note F_, 2
	octave 2
	note A#, 2
	octave 3
	note F_, 2
	octave 2
	note A#, 2
	octave 3
	note F_, 2
	octave 2
	note G#, 2
	octave 3
	note D#, 2
	octave 2
	note G#, 2
	octave 3
	note D#, 2
	octave 2
	note G#, 2
	octave 3
	note D#, 2
	octave 2
	note G#, 2
	octave 3
	note D#, 2
	octave 2
	note F#, 2
	octave 3
	note C#, 2
	octave 2
	note F#, 2
	octave 3
	note C#, 2
	octave 2
	note F#, 2
	octave 3
	note C#, 2
	octave 2
	note F#, 2
	octave 3
	note C#, 2
	octave 2
	note F_, 2
	octave 3
	note C_, 2
	octave 2
	note F_, 2
	octave 3
	note C_, 2
	octave 2
	note A_, 2
	octave 3
	note C_, 2
	note F_, 2
	octave 2
	note F_, 2
	note A#, 2
	octave 3
	note F_, 2
	octave 2
	note A#, 2
	octave 3
	note F_, 2
	octave 2
	note A#, 2
	octave 3
	note F_, 2
	octave 2
	note A#, 2
	octave 3
	note F_, 2
	octave 2
	note G#, 2
	octave 3
	note D#, 2
	octave 2
	note G#, 2
	octave 3
	note D#, 2
	octave 2
	note G#, 2
	octave 3
	note D#, 2
	octave 2
	note G#, 2
	octave 3
	note D#, 2
	octave 2
	note F#, 2
	octave 3
	note C#, 2
	octave 2
	note F#, 2
	octave 3
	note C#, 2
	octave 2
	note F#, 2
	octave 3
	note C#, 2
	octave 2
	note F#, 2
	octave 3
	note C#, 2
	octave 2
	note F_, 1
	note __, 1
	note F_, 1
	note __, 3
	octave 3
	notetype $6, $14
	note F_, 1
	note __, 1
	note F_, 1
	note __, 1
	note F_, 2
	note __, 2
	note F_, 2
	note __, 2
	note F_, 2
	note __, 2
	octave 2
	note A_, 4
	note A#, 4
	octave 3
	note F_, 4
	octave 2
	note A#, 4
	octave 3
	note F_, 4
	octave 2
	note A#, 4
	octave 3
	note F_, 4
	octave 2
	note A#, 4
	octave 3
	note F_, 4
	octave 2
	note F_, 4
	octave 3
	note C_, 4
	octave 2
	note F_, 4
	octave 3
	note C_, 4
	octave 2
	note F_, 4
	octave 3
	note C_, 4
	octave 2
	note F_, 4
	octave 3
	note C_, 4
	octave 2
	note A#, 4
	octave 3
	note F_, 4
	octave 2
	note A#, 4
	octave 3
	note F_, 4
	octave 2
	note A#, 4
	octave 3
	note F_, 4
	octave 2
	note A#, 4
	octave 3
	note F_, 4
	octave 2
	note F_, 4
	note A_, 4
	octave 3
	note C_, 4
	note F_, 4
	note A_, 4
	note F_, 4
	note C_, 4
	octave 2
	note A_, 4
	note A#, 4
	octave 3
	note F_, 4
	octave 2
	note A#, 4
	octave 3
	note F_, 4
	octave 2
	note A#, 4
	octave 3
	note F_, 4
	octave 2
	note A#, 4
	octave 3
	note F_, 4
	octave 2
	note F_, 4
	octave 3
	note C_, 4
	octave 2
	note F_, 4
	octave 3
	note C_, 4
	octave 2
	note F_, 4
	octave 3
	note C_, 4
	octave 2
	note F_, 4
	octave 3
	note C_, 4
	octave 2
	note A#, 4
	octave 3
	note F_, 4
	octave 2
	note A#, 4
	octave 3
	note F_, 4
	octave 2
	note A#, 4
	octave 3
	note F_, 4
	octave 2
	note A#, 4
	octave 3
	note F_, 4
	octave 2
	note F_, 8
	note A_, 8
	octave 3
	note C_, 8
	note F_, 8
	note C#, 4
	note F#, 4
	note C#, 4
	note F#, 4
	note C#, 4
	note F#, 4
	note C#, 4
	note F#, 4
	note C#, 4
	note G#, 4
	note C#, 4
	note G#, 4
	note C#, 4
	note G#, 4
	note C#, 4
	note G#, 4
	note D#, 4
	note G#, 4
	note D#, 4
	note G#, 4
	octave 2
	note G#, 4
	octave 3
	note C_, 4
	note D#, 4
	octave 2
	note G#, 4
	octave 3
	note C#, 4
	note G#, 4
	note C#, 4
	note G#, 4
	note C#, 4
	note G#, 4
	note C#, 4
	note G#, 4
	octave 2
	note F#, 4
	octave 3
	note F#, 4
	note C#, 4
	note F#, 4
	note C#, 4
	note F#, 4
	note C#, 4
	note F#, 4
	note C#, 4
	note G#, 4
	note C#, 4
	note G#, 4
	note C#, 4
	note G#, 4
	note C#, 4
	note G#, 4
	octave 2
	note F#, 4
	octave 3
	note D#, 4
	octave 2
	note F#, 4
	octave 3
	note D#, 4
	octave 2
	note F#, 4
	octave 3
	note D#, 4
	octave 2
	note F#, 4
	octave 3
	note D#, 4
	octave 2
	note F_, 4
	octave 3
	note C_, 4
	octave 2
	note F_, 4
	octave 3
	note C_, 4
	octave 2
	note F_, 4
	octave 3
	note C_, 4
	octave 2
	note F_, 4
	octave 3
	note C_, 4
	octave 2
	note F#, 12
	octave 3
	note F#, 12
	octave 2
	note F#, 8
	octave 3
	note C#, 12
	note G#, 12
	note C#, 8
	note C_, 12
	octave 2
	note G#, 12
	octave 3
	note G#, 8
	note C#, 4
	octave 4
	note C#, 4
	note C_, 4
	octave 3
	note A#, 4
	note G#, 4
	note F#, 4
	note F_, 4
	note D#, 4
	note C#, 4
	note F#, 4
	note C#, 4
	note F#, 4
	note C#, 4
	note F#, 4
	note C#, 4
	note F#, 4
	note C#, 4
	note G#, 4
	note C#, 4
	note G#, 4
	note C#, 4
	note G#, 4
	note C#, 4
	note G#, 4
	octave 2
	note A#, 4
	octave 3
	note D#, 4
	octave 2
	note A#, 4
	octave 3
	note D#, 4
	octave 2
	note A#, 4
	octave 3
	note D#, 4
	octave 2
	note A#, 4
	octave 3
	note D#, 4
	note C_, 4
	note F_, 4
	note C_, 4
	note F_, 4
	note C_, 4
	note F_, 4
	octave 2
	note A_, 4
	octave 3
	note C_, 4
	octave 2
	note A#, 4
	octave 4
	note F_, 2
	note __, 2
	note F#, 2
	note F_, 2
	note D#, 2
	note __, 2
	note F_, 2
	note __, 2
	note C#, 2
	note __, 2
	note D#, 2
	note __, 2
	note C_, 2
	note __, 2
	note C#, 2
	note __, 2
	octave 3
	note A#, 2
	note __, 2
	octave 4
	note C_, 2
	note __, 2
	note C#, 2
	note __, 2
	note C_, 2
	note __, 2
	octave 3
	note G#, 2
	note __, 2
	note A#, 2
	note __, 2
	octave 4
	note C_, 2
	note __, 2
	octave 3
	note A#, 2
	note __, 2
	octave 4
	note F_, 2
	note __, 2
	note F#, 2
	note F_, 2
	note D#, 2
	note __, 2
	note F_, 2
	note __, 2
	note C#, 2
	note __, 2
	note D#, 2
	note __, 2
	note C_, 2
	note __, 2
	note C#, 2
	note __, 2
	octave 3
	note A#, 2
	note __, 2
	octave 4
	note C_, 2
	note __, 2
	note C#, 2
	note __, 2
	note C_, 2
	note __, 2
	octave 3
	note G#, 2
	note __, 2
	note A#, 2
	note __, 2
	octave 4
	note C_, 2
	note __, 2
	octave 2
	note B_, 4
	octave 4
	note F#, 2
	note __, 2
	note G_, 2
	note F#, 2
	note E_, 2
	note __, 2
	note F#, 2
	note __, 2
	note D_, 2
	note __, 2
	note E_, 2
	note __, 2
	note C#, 2
	note __, 2
	note D_, 2
	note __, 2
	octave 3
	note B_, 2
	note __, 2
	octave 4
	note C#, 2
	note __, 2
	note D_, 2
	note __, 2
	note C#, 2
	note __, 2
	octave 3
	note A_, 2
	note __, 2
	note B_, 2
	note __, 2
	octave 4
	note C#, 2
	note __, 2
	octave 3
	note B_, 2
	note __, 2
	octave 4
	note F#, 2
	note __, 2
	note G_, 2
	note F#, 2
	note E_, 2
	note __, 2
	note F#, 2
	note __, 2
	note D_, 2
	note __, 2
	note E_, 2
	note __, 2
	note C#, 2
	note __, 2
	note C_, 2
	note __, 2
	note E_, 2
	note __, 2
	note C#, 2
	note __, 2
	note F_, 2
	note __, 2
	note D_, 2
	note __, 2
	note F#, 2
	note __, 2
	note D#, 2
	note __, 2
	note G_, 2
	notetype $D, $14
	note __, 12
	octave 3
	notetype $6, $14
	note G#, 1
	note G_, 1
	note F#, 1
	note F_, 1
	note E_, 1
	note D#, 1
	note D_, 1
	note C#, 1
	notetype $C, $14
	octave 3
	note C_, 2
	note F_, 2
	note C_, 2
	note F_, 2
	note C_, 2
	note F_, 2
	note C_, 2
	note F_, 2
	note C#, 2
	note F#, 2
	note C#, 2
	note F#, 2
	note C#, 2
	note F#, 2
	note C#, 2
	note F#, 2
	note D_, 2
	note G_, 2
	note D_, 2
	note G_, 2
	note D_, 2
	note G_, 2
	note D_, 2
	note G_, 2
	note C_, 2
	note G_, 2
	octave 4
	note C_, 2
	octave 3
	note C_, 2
	note G_, 2
	octave 4
	note C_, 2
	octave 3
	note C_, 2
	note G_, 2
	note C#, 2
	note G#, 2
	octave 4
	note C#, 2
	octave 3
	note C#, 2
	note G#, 2
	octave 4
	note C#, 2
	octave 3
	note C#, 2
	note G#, 2
	note D#, 2
	note A#, 2
	octave 4
	note D#, 2
	octave 3
	note D#, 2
	note A#, 2
	octave 4
	note D#, 2
	octave 3
	note D#, 2
	note A#, 2
	note E_, 2
	note B_, 2
	octave 4
	note E_, 2
	octave 3
	note E_, 2
	note B_, 2
	octave 4
	note E_, 2
	octave 3
	note E_, 2
	note B_, 2
	note F#, 1
	octave 4
	note F#, 1
	note C#, 1
	octave 3
	note F#, 1
	octave 4
	note F#, 1
	note C#, 1
	octave 3
	note F#, 1
	octave 4
	note F#, 1
	note C#, 1
	octave 3
	note F#, 1
	octave 4
	note F#, 1
	note C#, 1
	octave 3
	note F#, 1
	octave 4
	note F#, 1
	note C#, 1
	octave 3
	note F#, 1
	note F_, 1
	octave 4
	note F_, 1
	note C_, 1
	octave 3
	note F_, 1
	octave 4
	note F_, 1
	note C_, 1
	octave 3
	note F_, 1
	octave 4
	note F_, 1
	note C_, 1
	octave 3
	note F_, 1
	octave 4
	note F_, 1
	note C_, 1
	octave 3
	note F_, 1
	octave 4
	note F_, 1
	note C_, 1
	octave 3
	note F_, 1
	note E_, 1
	octave 4
	note E_, 1
	octave 3
	note A#, 1
	note E_, 1
	octave 4
	note E_, 1
	octave 3
	note A#, 1
	note E_, 1
	octave 4
	note E_, 1
	octave 3
	note A#, 1
	note E_, 1
	octave 4
	note E_, 1
	octave 3
	note A#, 1
	note E_, 1
	octave 4
	note E_, 1
	octave 3
	note A#, 1
	note E_, 1
	note F_, 1
	octave 4
	note F_, 1
	note C_, 1
	octave 3
	note F_, 1
	octave 4
	note F_, 1
	note C_, 1
	octave 3
	note F_, 1
	octave 4
	note F_, 1
	note C_, 1
	octave 3
	note F_, 1
	octave 4
	note F_, 1
	note C_, 1
	octave 3
	note F_, 1
	octave 4
	note F_, 1
	note C_, 1
	octave 3
	note F_, 1
	loopchannel 0, Music_GymBattle_Ch3_loop


Music_GymBattle_Ch4:	
	endchannel 0
