Music_GymBattleOld: ; f5dc5
	musicheader 3, 1, Music_GymBattleOld_Ch1
	musicheader 1, 2, Music_GymBattleOld_Ch2
	musicheader 1, 3, Music_GymBattleOld_Ch3
; f5dce
Music_GymBattleOld_Ch1: ; f5ea2
	tempo 265
	volume $77
	dutycycle $3
	vibrato $8, $36
	tone $0001
	notetype $5, $b5
	octave 3
	note F_, 12
	note C#, 2
	octave 2
	note A#, 2
	octave 3
	note C_, 4
	octave 2
	note A_, 4
	octave 3
	note F_, 4
	note D#, 4
	
	octave 2
	note A#, 2
	note __, 4
	note A#, 2
	note __, 4
	note A#, 2
	note __, 2
	note F_, 8
	note A_, 8
	
	note A#, 2
	note __, 4
	note A#, 2
	note __, 4
	note A#, 2
	note __, 2
	note A_, 4
	note F_, 4
	octave 3
	note C_, 4
	octave 2
	note A_, 4
	
	note A#, 2
	note __, 4
	note A#, 2
	note __, 4
	note A#, 2
	note __, 2
	note A_, 1
	note __, 1
	note A_, 1
	note __, 3
	note A_, 1
	note A_, 1
	octave 3
	note C_, 1
	note __, 1
	note C_, 1
	note __, 1
	octave 2
	note A_, 1
	note __, 1
	note A_, 1
	note __, 1
	
	note A#, 2
	note __, 4
	note A#, 2
	note __, 4
	note A#, 2
	note __, 2
	octave 4
	note C_, 1
	note __, 1
	note C_, 1
	note __, 3
	note C_, 1
	note C_, 1
	note C_, 1
	note __, 1
	note C_, 1
	note __, 1
	note C_, 1
	note __, 1
	note C_, 1
	note __, 1
	
Music_GymBattleOld_loop1:

	octave 3
	note C#, 2
	note __, 4
	note C#, 2
	note __, 4
	note C#, 2
	note __, 2
	octave 2
	note A_, 2
	note __, 4
	note A_, 2
	octave 3
	note A_, 2
	note F#, 2
	note F_, 2
	note D#, 2
	note C#, 2
	note __, 4
	note C#, 2
	note __, 4
	note C#, 2
	note __, 2
	octave 2
	note A_, 2
	octave 3
	note C_, 2
	note F_, 2
	note A_, 2
	octave 4
	note C_, 2
	octave 3
	note A_, 2
	note F_, 2
	note D#, 2
	
	note C#, 2
	note __, 4
	note C#, 2
	note __, 4
	note C#, 2
	note __, 2
	octave 2
	note A_, 2
	note __, 4
	note A_, 2
	octave 3
	note A_, 2
	note F#, 2
	note F_, 2
	note D#, 2
	note F_, 6
	note C#, 2
	note __, 4
	note C#, 2
	note __, 2
	octave 2
	note A_, 2
	note F_, 2
	note A_, 2
	octave 3
	note C_, 2
	note F_, 2
	note C_, 2
	note F_, 2
	note A_, 2
	
	note A#, 6
	note F#, 6
	note A#, 4
	note G#, 6
	note F#, 2
	note F_, 4
	note C#, 4
	note C_, 6
	note D#, 2
	note G#, 4
	note F#, 4
	note F_, 2
	note D#, 2
	note F_, 2
	note F#, 2
	note G#, 4
	note F_, 4
	note A#, 6
	note F#, 2
	octave 4
	note C#, 2
	note C_, 2
	octave 3
	note A#, 2
	note F#, 2
	note G#, 4
	note F#, 4
	note F_, 4
	note G#, 4
	octave 4
	
	note C_, 1
	octave 3
	note A_, 1
	note F#, 1
	note A_, 1
	octave 4
	note C_, 1
	octave 3
	note A_, 1
	note F#, 1
	note A_, 1
	octave 4
	note C_, 1
	octave 3
	note A_, 1
	note F#, 1
	note A_, 1
	octave 4
	note C_, 1
	octave 3
	note A_, 1
	note F#, 1
	note A_, 1
	octave 4
	note C_, 1
	octave 3
	note A_, 1
	note F_, 1
	note A_, 1
	octave 4
	note C_, 1
	octave 3
	note A_, 1
	note F_, 1
	note A_, 1
	octave 4
	note C_, 1
	octave 3
	note A_, 1
	note F_, 1
	note A_, 1
	octave 4
	note C_, 1
	octave 3
	note A_, 1
	note F_, 1
	note D#, 1
	
	octave 3
	note C#, 6
	note F#, 6
	note A#, 4
	note G#, 6
	octave 4
	note C_, 2
	note C#, 4
	octave 3
	note G#, 4
	note C_, 6
	note D#, 2
	note G#, 4
	note F#, 4
	note F_, 4
	note F#, 4
	note G#, 4
	note F_, 4
	note A#, 6
	note F#, 2
	octave 4
	note C#, 2
	note C_, 2
	octave 3
	note A#, 2
	note F#, 2
	note G#, 4
	note F#, 4
	note F_, 4
	note G#, 4
	octave 4
	
	note C_, 1
	octave 3
	note A_, 1
	note F#, 1
	note A_, 1
	octave 4
	note C_, 1
	octave 3
	note A_, 1
	note F#, 1
	note A_, 1
	octave 4
	note C_, 1
	octave 3
	note A_, 1
	note F#, 1
	note A_, 1
	octave 4
	note C_, 1
	octave 3
	note A_, 1
	note F#, 1
	note A_, 1
	octave 4
	note C_, 1
	octave 3
	note A_, 1
	note F_, 1
	note A_, 1
	octave 4
	note C_, 1
	octave 3
	note A_, 1
	note F_, 1
	note A_, 1
	octave 4
	note C_, 1
	octave 3
	note A_, 1
	note F_, 1
	note A_, 1
	octave 4
	note C_, 1
	octave 3
	note A_, 1
	note F_, 1
	note D#, 1
	
	octave 4
	note C#, 8
	octave 3
	note C#, 2
	note D#, 2
	note F_, 2
	note C#, 2
	note D#, 4
	note C_, 4
	note A_, 2
	note F_, 2
	note D#, 2
	note C_, 2
	note C#, 2
	note D#, 2
	note F_, 2
	note C#, 2
	note C_, 2
	note C#, 2
	note D#, 2
	note F#, 2
	note A_, 2
	note F#, 2
	note D#, 2
	note C_, 2
	octave 2
	note A_, 2
	note A#, 2
	octave 3
	note C_, 2
	octave 2
	note A_, 2
	note A#, 4
	note F_, 4
	octave 3
	note A_, 2
	note A#, 2
	octave 4
	note C_, 2
	octave 3
	note A_, 2
	note A#, 4
	note F_, 4
	note D#, 4
	note F#, 4
	note F_, 4
	note D#, 4
	note C#, 4
	note C_, 4
	note C#, 10
	note C#, 1
	note __, 1
	note C#, 1
	note __, 1
	note C#, 1
	note __, 1
	
	
	
	intensity $94
	note __, 2
	note A#, 1
	note __, 1
	note __, 2
	note A#, 1
	note __, 1
	note __, 2
	note A#, 1
	note __, 1
	note __, 2
	note A#, 1
	note __, 1
	note __, 2
	note A_, 1
	note __, 1
	note __, 2
	note A_, 1
	note __, 1
	note __, 2
	note A_, 1
	note __, 1
	octave 4
	note __, 2
	note C_, 1
	note __, 1
	octave 3
	
	note __, 2
	note A#, 1
	note __, 1
	note __, 2
	note A#, 1
	note __, 1
	note __, 2
	note A#, 1
	note __, 1
	note __, 2
	note A#, 1
	note __, 1
	note __, 2
	note A_, 1
	note __, 1
	note __, 2
	note A_, 1
	note __, 1
	octave 4
	note __, 2
	note C_, 1
	note __, 1
	octave 2
	note A_, 1
	octave 3
	note C_, 1
	note F_, 1
	note A_, 1
	
	intensity $c4
	octave 4
	note C#, 2
	note __, 4
	note C#, 2
	note __, 4
	octave 3
	note A#, 2
	note __, 2
	
	octave 4
	note C_, 1
	note __, 1
	note C_, 1
	note __, 3
	note C_, 1
	note C_, 1
	note D#, 1
	note __, 1
	note D#, 1
	note __, 1
	note C_, 1
	note __, 1
	note C_, 1
	note __, 1
	
	note C#, 2
	note __, 4
	note C#, 2
	note __, 4
	octave 3
	note A#, 2
	note __, 2
	
	octave 4
	note C_, 1
	note __, 1
	note C_, 1
	note __, 3
	note C_, 1
	note C_, 1
	note C_, 1
	note __, 1
	note C_, 1
	note __, 1
	note C_, 1
	note __, 1
	note C_, 1
	note __, 1
	
	
	loopchannel 0, Music_GymBattleOld_loop1
; f5f91


Music_GymBattleOld_Ch2: ; f5dce
	dutycycle $3
	tone $0002
	vibrato $12, $15
	notetype $5, $c4
	octave 4
	note F_, 1
	note C#, 1
	octave 3
	note A#, 1
	octave 4
	note C#, 1
	note F_, 1
	note C#, 1
	octave 3
	note A#, 1
	octave 4
	note C#, 1
	note F_, 1
	note C#, 1
	octave 3
	note A#, 1
	octave 4
	note C#, 1
	note F_, 1
	note C#, 1
	octave 3
	note A#, 1
	octave 4
	note F_, 1
	
	note D#, 1
	note C_, 1
	octave 3
	note A_, 1
	octave 4
	note C_, 1
	note D#, 1
	note C_, 1
	octave 3
	note A_, 1
	octave 4
	note C_, 1
	note D#, 1
	note C_, 1
	octave 3
	note A_, 1
	octave 4
	note C_, 1
	note D#, 1
	note C_, 1
	octave 3
	note A_, 1
	note F_, 1
	
	octave 4
	note C#, 2
	note __, 4
	note C#, 2
	note __, 4
	note C#, 2
	note __, 2
	note C_, 8
	note D#, 8
	
	note C#, 2
	note __, 4
	note C#, 2
	note __, 4
	note C#, 2
	note __, 2
	note C_, 4
	octave 3
	note A_, 4
	octave 4
	note F_, 4
	note D#, 4
	
	note C#, 2
	note __, 4
	note C#, 2
	note __, 4
	note C#, 2
	note __, 2
	note C_, 1
	note __, 1
	note C_, 1
	note __, 3
	note C_, 1
	note C_, 1
	note D#, 1
	note __, 1
	note D#, 1
	note __, 1
	note C_, 1
	note __, 1
	note C_, 1
	note __, 1
	
	note C#, 2
	note __, 4
	note C#, 2
	note __, 4
	note C#, 2
	note __, 2
	note F_, 1
	note __, 1
	note F_, 1
	note __, 3
	note F_, 1
	note F_, 1
	note F_, 1
	note __, 1
	note F_, 1
	note __, 1
	note F_, 1
	note __, 1
	note F_, 1
	note __, 1
	
Music_GymBattleOld_loop2:

	tone $0000
	octave 3
	note A#, 8
	octave 4
	note F_, 2
	note F#, 2
	note F_, 2
	note D#, 2
	note C_, 2
	octave 3
	note A_, 2
	octave 4
	note C_, 2
	note D#, 2
	note F_, 2
	note D#, 2
	note C#, 2
	note C_, 2
	octave 3
	note A#, 8
	octave 4
	note F_, 2
	note F#, 2
	note F_, 2
	note D#, 2
	note C_, 2
	octave 3
	note A_, 2
	octave 4
	note C_, 2
	note D#, 2
	note F_, 2
	note D#, 2
	note C#, 2
	note C_, 2
	
	octave 3
	note A#, 8
	octave 4
	note F_, 2
	note F#, 2
	note F_, 2
	note D#, 2
	note C_, 2
	octave 3
	note A_, 2
	octave 4
	note C_, 2
	note D#, 2
	note F_, 2
	note D#, 2
	note C#, 2
	note C_, 2
	octave 3
	note A#, 8
	octave 4
	note F_, 2
	note F#, 2
	note F_, 2
	note D#, 2
	note C_, 2
	octave 3
	note A_, 2
	octave 4
	note C_, 2
	note D#, 2
	note F_, 2
	note D#, 2
	note C#, 2
	note F_, 2
	
	note F#, 6
	note C#, 2
	note A#, 2
	note G#, 2
	note F#, 2
	note D#, 2
	note F_, 6
	note D#, 2
	note C#, 8
	note D#, 6
	note C_, 2
	note F_, 2
	note D#, 2
	note C#, 2
	note C_, 2
	note C#, 2
	note C_, 2
	note C#, 2
	note D#, 2
	note F_, 8
	note F#, 6
	note C#, 2
	note A#, 2
	note G#, 2
	note F#, 2
	note D#, 2
	note F_, 4
	note D#, 4
	note C#, 4
	note F_, 4
	
	note F#, 16
	note F_, 16
	
	octave 4
	note F#, 6
	note C#, 2
	note A#, 2
	note G#, 2
	note F#, 2
	note D#, 2
	note F_, 6
	note F#, 2
	note G#, 8
	note D#, 6
	note C_, 2
	note D#, 2
	note F_, 2
	note F#, 2
	note A#, 2
	note G#, 2
	note A#, 2
	note G#, 2
	note F#, 2
	note F_, 8
	note F#, 6
	note C#, 2
	note A#, 2
	note G#, 2
	note F#, 2
	note A#, 2
	note G#, 4
	octave 5
	note C_, 4
	note C#, 4
	octave 4
	note G#, 4
	

	note F#, 16
	note F_, 8
	note D#, 8
	
	octave 3
	note F_, 1
	note C#, 1
	note F_, 1
	note A#, 1
	note F_, 1
	note C#, 1
	note F_, 1
	note A#, 1
	octave 4
	note C#, 1
	note C_, 1
	octave 3
	note A#, 1
	note A_, 1
	note A#, 1
	octave 4
	note C_, 1
	note C#, 1
	octave 3
	note A#, 1
	octave 4
	note C_, 4
	octave 3
	note A_, 4
	octave 4
	note D#, 2
	note F_, 2
	note F#, 2
	note D#, 2
	note F_, 4
	note C#, 4
	note A#, 2
	note F_, 2
	note D#, 2
	note F_, 2
	note F#, 2
	note D#, 2
	note C_, 2
	note D#, 2
	note F_, 2
	note D#, 2
	note C#, 2
	note C_, 2
	
	note C#, 4
	octave 3
	note A#, 4
	octave 4
	note D#, 1
	note C#, 1
	note C_, 1
	note C#, 1
	note D#, 1
	note F_, 1
	note F#, 1
	note D#, 1
	note F_, 4
	note C#, 4
	note A#, 1
	note G#, 1
	note F#, 1
	note F_, 1
	note F#, 1
	note F_, 1
	note D#, 1
	note C#, 1
	note D#, 1
	note C#, 1
	note C_, 1
	octave 3
	note A#, 1
	note A_, 1
	note F#, 1
	note F_, 1
	note D#, 1
	note C#, 1
	note C_, 1
	octave 2
	note A#, 1
	note A_, 1
	note A#, 1
	note A_, 1
	note G_, 1
	note A_, 1
	note A#, 10
	octave 3
	note A#, 1
	note __, 1
	note A#, 1
	note __, 1
	note A#, 1
	note __, 1
	
	
	intensity $94
	octave 4
	note __, 2
	note C#, 1
	note __, 1
	note __, 2
	note C#, 1
	note __, 1
	note __, 2
	note C#, 1
	note __, 1
	note __, 2
	note C#, 1
	note __, 1
	note __, 2
	note C_, 1
	note __, 1
	note __, 2
	note C_, 1
	note __, 1
	note __, 2
	note C_, 1
	note __, 1
	note __, 2
	note D#, 1
	note __, 1
	
	note __, 2
	note C#, 1
	note __, 1
	note __, 2
	note C#, 1
	note __, 1
	note __, 2
	note C#, 1
	note __, 1
	note __, 2
	note C#, 1
	note __, 1
	note __, 2
	note C_, 1
	note __, 1
	note __, 2
	note C_, 1
	note __, 1
	note __, 2
	note D#, 1
	note __, 1
	octave 3
	note C_, 1
	note F_, 1
	note A_, 1
	octave 4
	note C_, 1
	
	dutycycle $0
	notetype $f, $70
	vibrato $0, $0
	octave 5
	note F_, 16
	
	dutycycle $3
	notetype $5, $c4
	octave 4
	note F_, 1
	note __, 1
	note F_, 1
	note __, 3
	note F_, 1
	note F_, 1
	note F_, 1
	note __, 1
	note F_, 1
	note __, 1
	note F_, 1
	note __, 1
	note F_, 1
	note __, 1
	
	loopchannel 0, Music_GymBattleOld_loop2
; f5ea2

Music_GymBattleOld_Ch3: ; f5f91
	notetype $5, $14
	octave 2
	note A#, 8
	octave 3
	note F_, 8
	note A_, 4
	note F_, 4
	note D#, 4
	note C_, 2
	octave 2
	note A_, 2
	
	note A#, 2
	octave 3
	note F_, 2
	octave 2
	note A#, 2
	octave 3
	note F_, 2
	octave 2
	note A#, 2
	octave 3
	note F_, 2
	octave 2
	note A#, 2
	octave 3
	note F_, 2
	octave 2
	note F_, 2
	octave 3
	note C_, 2
	octave 2
	note F_, 2
	octave 3
	note C_, 2
	octave 2
	note F_, 2
	octave 3
	note C_, 2
	octave 2
	note F_, 2
	octave 3
	note C_, 2
	octave 2
	
	note A#, 2
	octave 3
	note F_, 2
	octave 2
	note A#, 2
	octave 3
	note F_, 2
	octave 2
	note A#, 2
	octave 3
	note F_, 2
	octave 2
	note A#, 2
	octave 3
	note F_, 2
	octave 2
	note F_, 2
	octave 3
	note C_, 2
	octave 2
	note F_, 2
	octave 3
	note C_, 2
	note F_, 2
	note D#, 2
	note C#, 2
	note C_, 2
	octave 2
	
	note A#, 2
	octave 3
	note F_, 2
	octave 2
	note A#, 2
	octave 3
	note F_, 2
	octave 2
	note A#, 2
	octave 3
	note F_, 2
	octave 2
	note A#, 2
	octave 3
	note F_, 2
	octave 2
	note F_, 2
	octave 3
	note C_, 2
	octave 2
	note F_, 2
	octave 3
	note C_, 2
	octave 2
	note F_, 2
	octave 3
	note C_, 2
	octave 2
	note F_, 2
	octave 3
	note C_, 2
	octave 2
	
	note A#, 2
	octave 3
	note F_, 2
	octave 2
	note A#, 2
	octave 3
	note F_, 2
	octave 2
	note A#, 2
	octave 3
	note F_, 2
	octave 2
	note A#, 2
	octave 3
	note F_, 2
	octave 2
	note F_, 1
	note __, 1
	note F_, 1
	note __, 3
	note F_, 1
	note F_, 1
	note F_, 1
	note __, 1
	note F_, 1
	note __, 1
	note F_, 2
	note A_, 2
	
Music_GymBattleOld_loop3:

	note A#, 2
	octave 3
	note F_, 2
	octave 2
	note A#, 2
	octave 3
	note F_, 2
	octave 2
	note A#, 2
	octave 3
	note F_, 2
	octave 2
	note A#, 2
	octave 3
	note F_, 2
	octave 2
	note F_, 2
	octave 3
	note C_, 2
	octave 2
	note F_, 2
	octave 3
	note C_, 2
	octave 2
	note F_, 2
	octave 3
	note C_, 2
	octave 2
	note F_, 2
	octave 3
	note C_, 2
	octave 2
	
	note A#, 2
	octave 3
	note F_, 2
	octave 2
	note A#, 2
	octave 3
	note F_, 2
	octave 2
	note A#, 2
	octave 3
	note F_, 2
	octave 2
	note A#, 2
	octave 3
	note F_, 2
	octave 2
	note F_, 2
	note A_, 2
	octave 3
	note C_, 2
	note F_, 2
	note A_, 2
	note F_, 2
	note C_, 2
	octave 2
	note A_, 2
	
	note A#, 2
	octave 3
	note F_, 2
	octave 2
	note A#, 2
	octave 3
	note F_, 2
	octave 2
	note A#, 2
	octave 3
	note F_, 2
	octave 2
	note A#, 2
	octave 3
	note F_, 2
	octave 2
	note F_, 2
	octave 3
	note C_, 2
	octave 2
	note F_, 2
	octave 3
	note C_, 2
	octave 2
	note F_, 2
	octave 3
	note C_, 2
	octave 2
	note F_, 2
	octave 3
	note C_, 2
	octave 2
	
	note A#, 2
	octave 3
	note F_, 2
	octave 2
	note A#, 2
	octave 3
	note F_, 2
	octave 2
	note A#, 2
	octave 3
	note F_, 2
	octave 2
	note A#, 2
	octave 3
	note F_, 2
	octave 2
	note F_, 4
	note A_, 4
	octave 3
	note C_, 4
	note F_, 4
	
	octave 2
	note F#, 2
	octave 3
	note C#, 2
	octave 2
	note F#, 2
	octave 3
	note C#, 2
	octave 2
	note F#, 2
	octave 3
	note C#, 2
	octave 2
	note F#, 2
	octave 3
	note C#, 2
	note C#, 2
	note G#, 2
	note C#, 2
	note G#, 2
	note C#, 2
	note G#, 2
	note C#, 2
	note G#, 2
	octave 2
	note G#, 2
	octave 3
	note F#, 2
	octave 2
	note G#, 2
	octave 3
	note F#, 2
	octave 2
	note G#, 2
	octave 3
	note F#, 2
	octave 2
	note G#, 2
	octave 3
	note F#, 2
	note C#, 2
	note G#, 2
	note C#, 2
	note G#, 2
	note C#, 2
	note G#, 2
	note C#, 2
	note G#, 2
	
	octave 2
	note A#, 2
	octave 3
	note F#, 2
	octave 2
	note A#, 2
	octave 3
	note F#, 2
	octave 2
	note A#, 2
	octave 3
	note F#, 2
	octave 2
	note A#, 2
	octave 3
	note F#, 2
	octave 2
	note G#, 2
	octave 3
	note F_, 2
	octave 2
	note G#, 2
	octave 3
	note F_, 2
	octave 2
	note G#, 2
	octave 3
	note F_, 2
	octave 2
	note G#, 2
	octave 3
	note F_, 2
	
	octave 2
	note F#, 2
	octave 3
	note D#, 2
	octave 2
	note F#, 2
	octave 3
	note D#, 2
	octave 2
	note F#, 2
	octave 3
	note D#, 2
	octave 2
	note F#, 2
	octave 3
	note D#, 2
	octave 2
	note F_, 2
	octave 3
	note C_, 2
	octave 2
	note F_, 2
	octave 3
	note C_, 2
	octave 2
	note F_, 2
	octave 3
	note C_, 2
	octave 2
	note F_, 2
	octave 3
	note C_, 2
	
	octave 2
	note F#, 2
	octave 3
	note C#, 2
	octave 2
	note F#, 2
	octave 3
	note C#, 2
	octave 2
	note F#, 2
	octave 3
	note C#, 2
	octave 2
	note F#, 2
	octave 3
	note C#, 2
	note C#, 2
	note G#, 2
	note C#, 2
	note G#, 2
	note C#, 2
	note G#, 2
	note C#, 2
	note G#, 2
	octave 2
	note G#, 2
	octave 3
	note F#, 2
	octave 2
	note G#, 2
	octave 3
	note F#, 2
	octave 2
	note G#, 2
	octave 3
	note F#, 2
	octave 2
	note G#, 2
	octave 3
	note F#, 2
	note C#, 2
	note G#, 2
	note C#, 2
	note G#, 2
	note C#, 2
	note G#, 2
	note C#, 2
	note G#, 2
	
	octave 2
	note A#, 2
	octave 3
	note F#, 2
	octave 2
	note A#, 2
	octave 3
	note F#, 2
	octave 2
	note A#, 2
	octave 3
	note F#, 2
	octave 2
	note A#, 2
	octave 3
	note F#, 2
	octave 2
	note G#, 2
	octave 3
	note F_, 2
	octave 2
	note G#, 2
	octave 3
	note F_, 2
	octave 2
	note G#, 2
	octave 3
	note F_, 2
	octave 2
	note G#, 2
	octave 3
	note F_, 2
	
	octave 2
	note F#, 2
	octave 3
	note D#, 2
	octave 2
	note F#, 2
	octave 3
	note D#, 2
	octave 2
	note F#, 2
	octave 3
	note D#, 2
	octave 2
	note F#, 2
	octave 3
	note D#, 2
	octave 2
	note F_, 2
	octave 3
	note C_, 2
	octave 2
	note F_, 2
	octave 3
	note C_, 2
	octave 2
	note F_, 2
	octave 3
	note C_, 2
	octave 2
	note F_, 2
	note A_, 2
	
	
	
	note A#, 1
	note __, 1
	note A#, 1
	note __, 3
	note A#, 1
	note A#, 1
	note A#, 1
	note __, 1
	note A#, 1
	note __, 3
	note A#, 1
	note A#, 1
	note F_, 1
	note __, 1
	note F_, 1
	note __, 3
	note F_, 1
	note F_, 1
	note F_, 1
	note __, 1
	note F_, 1
	note __, 3
	note F_, 1
	note F_, 1
	note F#, 1
	note __, 1
	note F#, 1
	note __, 3
	note F#, 1
	note F#, 1
	note F#, 1
	note __, 1
	note F#, 1
	note __, 3
	note F#, 1
	note F#, 1
	note F_, 1
	note __, 1
	note F_, 1
	note __, 3
	note F_, 1
	note F_, 1
	octave 3
	note C_, 2
	note C#, 2
	note D#, 2
	note C_, 2
	
	octave 2
	note A#, 2
	note __, 4
	note A#, 2
	note __, 4
	note A#, 2
	note __, 2
	octave 3
	note C#, 2
	note __, 4
	note C#, 2
	note F#, 2
	note F_, 2
	note D#, 2
	note C#, 2
	note F_, 2
	note D#, 2
	note C#, 2
	note C_, 2
	note C#, 2
	note C_, 2
	octave 2
	note A#, 2
	note A_, 2
	note A#, 14
	note __, 2
	
	
	
	
	notetype $5, $19
	octave 2
	note A#, 8
	octave 3
	note F_, 2
	note F#, 2
	note F_, 2
	note D#, 2
	note C_, 2
	octave 2
	note A_, 2
	octave 3
	note C_, 2
	note D#, 2
	note F_, 2
	note D#, 2
	note C#, 2
	note C_, 2
	
	octave 2
	note A#, 8
	octave 3
	note F_, 2
	note F#, 2
	note F_, 2
	note D#, 2
	note C_, 2
	octave 2
	note A_, 2
	octave 3
	note C_, 2
	note D#, 2
	note F_, 2
	note D#, 2
	note C#, 2
	note C_, 2
	
	
	notetype $5, $14
	note F_, 1
	note C#, 1
	octave 2
	note A#, 1
	octave 3
	note F_, 1
	note C#, 1
	octave 2
	note A#, 1
	octave 3
	note F_, 1
	note C#, 1
	octave 2
	note A#, 1
	octave 3
	note F_, 1
	note C#, 1
	octave 2
	note A#, 1
	octave 3
	note F_, 1
	note C#, 1
	octave 2
	note A#, 1
	octave 3
	note C#, 1
	
	note F_, 1
	note C#, 1
	octave 2
	note F_, 1
	octave 3
	note F_, 1
	note C#, 1
	octave 2
	note F_, 1
	octave 3
	note F_, 1
	note C#, 1
	octave 2
	note F_, 1
	octave 3
	note F_, 1
	note C#, 1
	octave 2
	note F_, 1
	octave 3
	note F_, 1
	note C#, 1
	octave 2
	note F_, 1
	octave 3
	note C_, 1
	
	note F_, 1
	note C#, 1
	octave 2
	note A#, 1
	octave 3
	note F_, 1
	note C#, 1
	octave 2
	note A#, 1
	octave 3
	note F_, 1
	note C#, 1
	octave 2
	note A#, 1
	octave 3
	note F_, 1
	note C#, 1
	octave 2
	note A#, 1
	octave 3
	note F_, 1
	note C#, 1
	octave 2
	note A#, 1
	octave 3
	note C#, 1
	
	octave 2
	note F_, 1
	note __, 1
	note F_, 1
	note __, 3
	note F_, 1
	note F_, 1
	note F_, 1
	note __, 1
	note F_, 1
	note __, 1
	note F_, 2
	note A_, 2

	loopchannel 0, Music_GymBattleOld_loop3

	
; f605c
