Music_Lava: ; ea2be
	musicheader 4, 1, Music_Lava_Ch1
	musicheader 1, 2, Music_Lava_Ch2
	musicheader 1, 3, Music_Lava_Ch3
	musicheader 1, 4, Music_Lava_Ch4

Music_Lava_Ch1:
	tempo $5A
	volume $77
	stereopanning $77
	tone $0004
	octave 2
	notetype $C, $87
	note F_, 1
	note __, 1
	note F_, 1
	note __, 1
	note F_, 4
	note F_, 1
	note __, 1
	note F_, 1
	note __, 1
	note F_, 4
	note F_, 1
	note __, 1
	note F_, 1
	note __, 1
	note F_, 4
	note D#, 1
	note __, 1
	note D#, 1
	note __, 3
	note F_, 1
	note __, 3
	intensity $85
	note F_, 2
	intensity $87
	note F_, 4
	note F_, 1
	note __, 1
	note F_, 1
	note __, 1
	note F_, 4
	note F_, 1
	note __, 1
	note F_, 1
	note __, 1
	note F_, 4
	note F#, 1
	note __, 1
	note D#, 1
	note __, 3
	note D_, 1
	note __, 3
	intensity $85
	note D_, 2
	intensity $87
	note D_, 4
	note D_, 1
	note __, 1
	note D_, 1
	note __, 1
	note D_, 4
	note D#, 1
	note __, 1
	note D#, 1
	note __, 1
	note D#, 4
	octave 1
	note G#, 1
	note __, 1
	note G#, 1
	note __, 3
	note A#, 1
	note __, 3
	intensity $85
	note A#, 2
	intensity $87
	note A#, 4
	note A#, 1
	note __, 1
	note A#, 1
	note __, 1
	note A#, 4
	note __, 16
Music_Lava_Ch1_loop:
	dutycycle 0
	intensity $87
	octave 2
	note F_, 1
	note __, 1
	note F_, 2
	note F_, 4
	note F_, 1
	note __, 1
	note F_, 1
	note __, 1
	note F_, 4
	note F_, 1
	note __, 1
	note F_, 1
	note __, 1
	note F_, 4
	note D#, 1
	note __, 1
	note D#, 1
	note __, 3
	note F_, 1
	note __, 3
	intensity $85
	note F_, 2
	intensity $87
	note F_, 4
	note F_, 1
	note __, 1
	note F_, 1
	note __, 1
	note F_, 4
	note F_, 1
	note __, 1
	note F_, 1
	note __, 1
	note F_, 4
	note F#, 1
	note __, 1
	note D#, 1
	note __, 3
	note D_, 1
	note __, 3
	intensity $85
	note D_, 2
	intensity $87
	note D_, 4
	note D_, 1
	note __, 1
	note D_, 1
	note __, 1
	note D_, 4
	note D#, 1
	note __, 1
	note D#, 1
	note __, 1
	note D#, 4
	octave 1
	note G#, 1
	note __, 1
	note G#, 1
	note __, 3
	note A#, 1
	note __, 3
	intensity $85
	note A#, 2
	intensity $87
	note A#, 4
	note A#, 1
	note __, 1
	note A#, 1
	note __, 1
	note A#, 4
	note A#, 1
	note __, 1
	note A#, 1
	note __, 1
	note A#, 4
	note A#, 1
	note __, 1
	note A#, 1
	note __, 3
	octave 2
	note F_, 1
	note __, 3
	note F_, 2
	note F_, 4
	note F_, 1
	note __, 1
	note F_, 1
	note __, 1
	note F_, 4
	note F_, 1
	note __, 1
	note F_, 1
	note __, 1
	note F_, 4
	note D#, 1
	note __, 1
	note D#, 1
	note __, 3
	note F_, 1
	note __, 3
	intensity $85
	note F_, 2
	intensity $87
	note F_, 4
	note F_, 1
	note __, 1
	note F_, 1
	note __, 1
	note F_, 4
	note F_, 1
	note __, 1
	note F_, 1
	note __, 1
	note F_, 4
	note F#, 1
	note __, 1
	note D#, 1
	note __, 3
	note D_, 1
	note __, 3
	intensity $85
	note D_, 2
	intensity $87
	note D_, 4
	note D_, 1
	note __, 1
	note D_, 1
	note __, 1
	note D_, 4
	note D#, 1
	note __, 1
	note D#, 1
	note __, 1
	note D#, 4
	octave 1
	note G#, 1
	note __, 1
	note G#, 1
	note __, 3
	note A#, 1
	note __, 3
	intensity $85
	note A#, 2
	intensity $87
	note A#, 4
	note A#, 1
	note __, 1
	note A#, 1
	note __, 1
	note A#, 4
	note A#, 1
	note __, 1
	note A#, 1
	note __, 1
	note A#, 4
	note A#, 1
	note __, 1
	note A#, 1
	note __, 3
	octave 2
	note F_, 1
	note __, 3
	note F_, 2
	note F_, 4
	note F_, 1
	note __, 1
	note F_, 1
	note __, 1
	note F_, 4
	note F_, 1
	note __, 1
	note F_, 1
	note __, 1
	note F_, 4
	note D#, 1
	note __, 1
	note D#, 1
	note __, 3
	note F_, 1
	note __, 3
	intensity $85
	note F_, 2
	intensity $87
	note F_, 4
	note F_, 1
	note __, 1
	note F_, 1
	note __, 1
	note F_, 4
	note F_, 1
	note __, 1
	note F_, 1
	note __, 1
	note F_, 4
	note F#, 1
	note __, 1
	note D#, 1
	note __, 3
	note D_, 1
	note __, 3
	intensity $85
	note D_, 2
	intensity $87
	note D_, 4
	note D_, 1
	note __, 1
	note D_, 1
	note __, 1
	note D_, 4
	note D#, 1
	note __, 1
	note D#, 1
	note __, 1
	note D#, 4
	octave 1
	note G#, 1
	note __, 1
	note G#, 1
	note __, 3
	note A#, 1
	note __, 3
	intensity $85
	note A#, 2
	intensity $87
	note A#, 4
	note A#, 1
	note __, 1
	note A#, 1
	note __, 1
	note A#, 4
	note A#, 1
	note __, 1
	note A#, 1
	note __, 1
	note A#, 4
	note __, 8
	dutycycle 1
	octave 2
	note A#, 1
	note __, 1
	note A#, 1
	note __, 1
	note A#, 4
	note A#, 1
	note __, 1
	note A#, 1
	note __, 1
	note A#, 4
	note A#, 1
	note __, 1
	note A#, 1
	note __, 1
	note A#, 4
	note A#, 1
	note __, 1
	note A#, 1
	note __, 3
	note A#, 1
	note __, 3
	intensity $85
	note A_, 2
	intensity $87
	note A_, 4
	note A_, 1
	note __, 1
	note A_, 1
	note __, 1
	note A_, 4
	note A_, 1
	note __, 1
	note A_, 1
	note __, 1
	note A_, 4
	note A_, 1
	note __, 1
	note A_, 1
	note __, 3
	note A_, 1
	note __, 3
	intensity $85
	note A#, 2
	intensity $87
	note A#, 4
	note A#, 1
	note __, 1
	note A#, 1
	note __, 1
	note A#, 4
	note A#, 1
	note __, 1
	note A#, 1
	note __, 1
	note A#, 4
	note A#, 1
	note __, 1
	note A#, 1
	note __, 3
	note A#, 1
	note __, 3
	intensity $85
	octave 3
	note D_, 2
	intensity $87
	note D_, 4
	note D_, 1
	note __, 1
	note D_, 1
	note __, 1
	note D_, 4
	note C#, 1
	note __, 1
	note C#, 1
	note __, 1
	note C#, 4
	note C_, 1
	note __, 1
	note C_, 1
	note __, 3
	note C_, 1
	note __, 3
	octave 2
	note A#, 1
	note __, 1
	note A#, 4
	note A#, 1
	note __, 1
	note A#, 1
	note __, 1
	note A#, 4
	note A#, 1
	note __, 1
	note A#, 1
	note __, 1
	note A#, 4
	note A#, 1
	note __, 1
	note A#, 1
	note __, 3
	note A#, 1
	note __, 3
	intensity $85
	note A_, 2
	intensity $87
	note A_, 4
	note A_, 1
	note __, 1
	note A_, 1
	note __, 1
	note A_, 4
	note A_, 1
	note __, 1
	note A_, 1
	note __, 1
	note A_, 4
	note A_, 1
	note __, 1
	note A_, 1
	note __, 3
	note A_, 1
	note __, 3
	intensity $85
	note A#, 2
	intensity $87
	note A#, 4
	note A#, 1
	note __, 1
	note A#, 1
	note __, 1
	note A#, 4
	note A#, 1
	note __, 1
	note A#, 1
	note __, 1
	note A#, 4
	note A#, 1
	note __, 1
	note A#, 1
	note __, 3
	note A#, 1
	note __, 3
	intensity $85
	octave 3
	note D_, 2
	intensity $87
	note D_, 4
	note D_, 1
	note __, 1
	note D_, 1
	note __, 1
	note D_, 4
	note C#, 1
	note __, 1
	note C#, 1
	note __, 1
	note C#, 4
	note C_, 1
	note __, 1
	note C_, 1
	note __, 3
	note C_, 1
	note __, 1
	intensity $0D
	vibrato $00, $53
	octave 2
	note B_, 12
	intensity $A8
	note B_, 12
	intensity $A6
	note B_, 8
	dutycycle 2
	intensity $72
	octave 4
	slidepitchto 3, 7, C#
	note A_, 2
	note __, 4
	slidepitchto 3, 7, C#
	note A_, 1
	slidepitchto 3, 7, C#
	note A_, 1
	slidepitchto 3, 7, C#
	note A_, 2
	slidepitchto 3, 7, C#
	note A_, 2
	slidepitchto 3, 7, C#
	note B_, 2
	slidepitchto 3, 7, C#
	note A_, 2
	note __, 2
	slidepitchto 3, 7, C#
	note A_, 2
	note __, 2
	slidepitchto 3, 7, C#
	note A_, 1
	slidepitchto 3, 7, C#
	note A_, 1
	slidepitchto 3, 7, C#
	note B_, 2
	slidepitchto 3, 7, C#
	note A_, 2
	slidepitchto 3, 7, C#
	note B_, 2
	slidepitchto 3, 7, C#
	note A_, 2
	slidepitchto 3, 7, C#
	note B_, 2
	slidepitchto 3, 7, C#
	note B_, 2
	slidepitchto 3, 7, C#
	note B_, 2
	slidepitchto 3, 7, C#
	note A_, 2
	slidepitchto 3, 7, C#
	note A_, 2
	slidepitchto 3, 7, C#
	note A_, 2
	slidepitchto 3, 7, C#
	note F_, 2
	slidepitchto 3, 7, C#
	note F_, 2
	slidepitchto 3, 7, C#
	note F_, 2
	slidepitchto 3, 7, C#
	note A_, 1
	slidepitchto 3, 7, C#
	note A_, 1
	slidepitchto 3, 7, C#
	note A_, 2
	slidepitchto 3, 7, C#
	note A_, 2
	slidepitchto 3, 7, C#
	note A_, 2
	slidepitchto 3, 7, C#
	note A_, 2
	slidepitchto 3, 7, C#
	note A_, 2
	slidepitchto 3, 7, C#
	note A_, 2
	slidepitchto 3, 7, C#
	note A_, 2
	slidepitchto 3, 7, C#
	note A_, 2
	slidepitchto 3, 7, C#
	note A_, 2
	slidepitchto 3, 7, C#
	note B_, 2
	slidepitchto 3, 7, C#
	note B_, 2
	slidepitchto 3, 7, C#
	note B_, 2
	slidepitchto 3, 7, C#
	note A_, 2
	slidepitchto 3, 7, C#
	note A_, 2
	slidepitchto 3, 7, C#
	note A_, 2
	slidepitchto 3, 7, C#
	note F_, 1
	slidepitchto 3, 7, C#
	note F_, 1
	slidepitchto 3, 7, C#
	note F_, 2
	slidepitchto 3, 7, C#
	note F_, 2
	slidepitchto 3, 7, C#
	note B_, 2
	slidepitchto 3, 7, C#
	note B_, 2
	slidepitchto 3, 7, C#
	note B_, 2
	slidepitchto 3, 7, C#
	note B_, 2
	loopchannel 0, Music_Lava_Ch1_loop

Music_Lava_Ch2:
	octave 1
	notetype $C, $87
	note A#, 1
	note __, 1
	note A#, 1
	note __, 1
	note A#, 4
	note A#, 1
	note __, 1
	note A#, 1
	note __, 1
	note A#, 4
	note A#, 1
	note __, 1
	note A#, 1
	note __, 1
	note A#, 4
	note G#, 1
	note __, 1
	note G#, 1
	note __, 3
	note A#, 1
	note __, 3
	intensity $85
	note A#, 2
	intensity $87
	note A#, 4
	note A#, 1
	note __, 1
	note A#, 1
	note __, 1
	note A#, 4
	note A#, 1
	note __, 1
	note A#, 1
	note __, 1
	note A#, 4
	note B_, 1
	note __, 1
	note G#, 1
	note __, 3
	note A#, 1
	note __, 3
	intensity $85
	note A#, 2
	intensity $87
	note A#, 4
	note A#, 1
	note __, 1
	note A#, 1
	note __, 1
	note A#, 4
	note B_, 1
	note __, 1
	note B_, 1
	note __, 1
	note B_, 4
	note D#, 1
	note __, 1
	note D#, 1
	note __, 3
	note F_, 1
	note __, 3
	intensity $85
	note F_, 2
	intensity $87
	note F_, 4
	note F_, 1
	note __, 1
	note F_, 1
	note __, 1
	note F_, 4
	note __, 16
Music_Lava_Ch2_loop:
	dutycycle 0
	octave 1
	intensity $87
	note A#, 1
	note __, 1
	note A#, 2
	note A#, 4
	note A#, 1
	note __, 1
	note A#, 1
	note __, 1
	note A#, 4
	note A#, 1
	note __, 1
	note A#, 1
	note __, 1
	note A#, 4
	note G#, 1
	note __, 1
	note G#, 1
	note __, 3
	note A#, 1
	note __, 3
	intensity $85
	note A#, 2
	intensity $87
	note A#, 4
	note A#, 1
	note __, 1
	note A#, 1
	note __, 1
	note A#, 4
	note A#, 1
	note __, 1
	note A#, 1
	note __, 1
	note A#, 4
	note B_, 1
	note __, 1
	note G#, 1
	note __, 3
	note A#, 1
	note __, 3
	intensity $85
	note A#, 2
	intensity $87
	note A#, 4
	note A#, 1
	note __, 1
	note A#, 1
	note __, 1
	note A#, 4
	note B_, 1
	note __, 1
	note B_, 1
	note __, 1
	note B_, 4
	note D#, 1
	note __, 1
	note D#, 1
	note __, 3
	note F_, 1
	note __, 3
	intensity $85
	note F_, 2
	intensity $87
	note F_, 4
	note F_, 1
	note __, 1
	note F_, 1
	note __, 1
	note F_, 4
	note F_, 1
	note __, 1
	note F_, 1
	note __, 1
	note F_, 4
	note F_, 1
	note __, 1
	note F_, 1
	note __, 3
	note A#, 1
	note __, 3
	note A#, 2
	note A#, 4
	note A#, 1
	note __, 1
	note A#, 1
	note __, 1
	note A#, 4
	note A#, 1
	note __, 1
	note A#, 1
	note __, 1
	note A#, 4
	note G#, 1
	note __, 1
	note G#, 1
	note __, 3
	note A#, 1
	note __, 3
	intensity $85
	note A#, 2
	intensity $87
	note A#, 4
	note A#, 1
	note __, 1
	note A#, 1
	note __, 1
	note A#, 4
	note A#, 1
	note __, 1
	note A#, 1
	note __, 1
	note A#, 4
	note B_, 1
	note __, 1
	note G#, 1
	note __, 3
	note A#, 1
	note __, 3
	intensity $85
	note A#, 2
	intensity $87
	note A#, 4
	note A#, 1
	note __, 1
	note A#, 1
	note __, 1
	note A#, 4
	note B_, 1
	note __, 1
	note B_, 1
	note __, 1
	note B_, 4
	note D#, 1
	note __, 1
	note D#, 1
	note __, 3
	note F_, 1
	note __, 3
	intensity $85
	note F_, 2
	intensity $87
	note F_, 4
	note F_, 1
	note __, 1
	note F_, 1
	note __, 1
	note F_, 4
	note F_, 1
	note __, 1
	note F_, 1
	note __, 1
	note F_, 4
	note F_, 1
	note __, 1
	note F_, 1
	note __, 3
	note A#, 1
	note __, 3
	note A#, 2
	note A#, 4
	note A#, 1
	note __, 1
	note A#, 1
	note __, 1
	note A#, 4
	note A#, 1
	note __, 1
	note A#, 1
	note __, 1
	note A#, 4
	note G#, 1
	note __, 1
	note G#, 1
	note __, 3
	note A#, 1
	note __, 3
	intensity $85
	note A#, 2
	intensity $87
	note A#, 4
	note A#, 1
	note __, 1
	note A#, 1
	note __, 1
	note A#, 4
	note A#, 1
	note __, 1
	note A#, 1
	note __, 1
	note A#, 4
	note B_, 1
	note __, 1
	note G#, 1
	note __, 3
	note A#, 1
	note __, 3
	intensity $85
	note A#, 2
	intensity $87
	note A#, 4
	note A#, 1
	note __, 1
	note A#, 1
	note __, 1
	note A#, 4
	note B_, 1
	note __, 1
	note B_, 1
	note __, 1
	note B_, 4
	note D#, 1
	note __, 1
	note D#, 1
	note __, 3
	note F_, 1
	note __, 3
	intensity $85
	note F_, 2
	intensity $87
	note F_, 4
	note F_, 1
	note __, 1
	note F_, 1
	note __, 1
	note F_, 4
	note F_, 1
	note __, 1
	note F_, 1
	note __, 1
	note F_, 4
	dutycycle 1
	octave 2
	note F_, 1
	note F#, 1
	note G#, 1
	note A#, 1
	note B_, 1
	octave 3
	note D_, 1
	note D#, 1
	note E_, 1
	note F_, 1
	note __, 1
	note F_, 1
	note __, 1
	note F_, 4
	note F_, 1
	note __, 1
	note F_, 1
	note __, 1
	note F_, 4
	note F_, 1
	note __, 1
	note F_, 1
	note __, 1
	note F_, 4
	note F_, 1
	note __, 1
	note F_, 1
	note __, 3
	note F_, 1
	note __, 3
	intensity $85
	note F_, 2
	intensity $87
	note F_, 4
	note F_, 1
	note __, 1
	note F_, 1
	note __, 1
	note F_, 4
	note F_, 1
	note __, 1
	note F_, 1
	note __, 1
	note F_, 4
	note F_, 1
	note __, 1
	note F_, 1
	note __, 3
	note F_, 1
	note __, 3
	intensity $85
	note F#, 2
	intensity $87
	note F#, 4
	note F#, 1
	note __, 1
	note F#, 1
	note __, 1
	note F#, 4
	note F#, 1
	note __, 1
	note F#, 1
	note __, 1
	note F#, 4
	note F#, 1
	note __, 1
	note F#, 1
	note __, 3
	note F#, 1
	note __, 3
	intensity $85
	note G_, 2
	intensity $87
	note G_, 4
	note G_, 1
	note __, 1
	note G_, 1
	note __, 1
	note G_, 4
	note F#, 1
	note __, 1
	note F#, 1
	note __, 1
	note F#, 4
	note F_, 1
	note __, 1
	note F_, 1
	note __, 3
	note F_, 1
	note __, 3
	note F_, 1
	note __, 1
	note F_, 4
	note F_, 1
	note __, 1
	note F_, 1
	note __, 1
	note F_, 4
	note F_, 1
	note __, 1
	note F_, 1
	note __, 1
	note F_, 4
	note F_, 1
	note __, 1
	note F_, 1
	note __, 3
	note F_, 1
	note __, 3
	intensity $85
	note F_, 2
	intensity $87
	note F_, 4
	note F_, 1
	note __, 1
	note F_, 1
	note __, 1
	note F_, 4
	note F_, 1
	note __, 1
	note F_, 1
	note __, 1
	note F_, 4
	note F_, 1
	note __, 1
	note F_, 1
	note __, 3
	note F_, 1
	note __, 3
	intensity $85
	note F#, 2
	intensity $87
	note F#, 4
	note F#, 1
	note __, 1
	note F#, 1
	note __, 1
	note F#, 4
	note F#, 1
	note __, 1
	note F#, 1
	note __, 1
	note F#, 4
	note F#, 1
	note __, 1
	note F#, 1
	note __, 3
	note F#, 1
	note __, 3
	intensity $85
	note G_, 2
	intensity $87
	note G_, 4
	note G_, 1
	note __, 1
	note G_, 1
	note __, 1
	note G_, 4
	note F#, 1
	note __, 1
	note F#, 1
	note __, 1
	note F#, 4
	note F_, 1
	note __, 1
	note F_, 1
	note __, 3
	note F_, 1
	note __, 1
	intensity $0D
	vibrato $00, $53
	note F#, 12
	intensity $A8
	note F#, 12
	intensity $A6
	note F#, 8
	note __, 16
	note __, 16
	note __, 16
	note __, 16
	note __, 16
	note __, 16
	loopchannel 0, Music_Lava_Ch2_loop

Music_Lava_Ch3:
	notetype $C, $00
	note __, 16
	note __, 16
	note __, 16
	note __, 16
	note __, 16
	note __, 16
	note __, 16
	note __, 16
Music_Lava_Ch3_loop:
	dutycycle 6
	intensity $36
	octave 6
	note F_, 1
	note __, 1
	octave 5
	note F_, 1
	note __, 1
	octave 6
	note F_, 1
	note __, 1
	octave 5
	note F_, 1
	note __, 3
	octave 6
	note F_, 1
	note __, 1
	octave 5
	note F_, 1
	note __, 1
	octave 6
	note F_, 1
	note __, 1
	octave 5
	note F_, 1
	note __, 3
	octave 6
	note F_, 1
	note __, 1
	octave 5
	note F_, 1
	note __, 1
	octave 6
	note F_, 1
	note __, 1
	octave 5
	note F_, 1
	note __, 3
	octave 6
	note F_, 1
	note __, 1
	octave 5
	note F_, 1
	note __, 1
	octave 6
	note F_, 1
	note __, 1
	octave 5
	note F_, 1
	note __, 3
	octave 6
	note F_, 1
	note __, 1
	octave 5
	note F_, 1
	note __, 1
	octave 6
	note F_, 1
	note __, 1
	octave 5
	note F_, 1
	note __, 3
	octave 6
	note F_, 1
	note __, 1
	octave 5
	note F_, 1
	note __, 1
	octave 6
	note F_, 1
	note __, 1
	octave 5
	note F_, 1
	note __, 3
	octave 6
	note F_, 1
	note __, 1
	octave 5
	note F_, 1
	note __, 1
	octave 6
	note F_, 1
	note __, 1
	octave 5
	note F_, 1
	note __, 3
	octave 6
	note F_, 1
	note __, 1
	octave 5
	note F_, 1
	note __, 1
	octave 6
	note F_, 1
	note __, 1
	octave 5
	note F_, 1
	note __, 3
	octave 6
	note F_, 1
	note __, 1
	octave 5
	note F_, 1
	note __, 1
	octave 6
	note F_, 1
	note __, 1
	octave 5
	note F_, 1
	note __, 3
	octave 6
	note F_, 1
	note __, 1
	octave 5
	note F_, 1
	note __, 1
	octave 6
	note F_, 1
	note __, 1
	octave 5
	note F_, 1
	note __, 3
	octave 6
	note F_, 1
	note __, 1
	octave 5
	note F_, 1
	note __, 1
	octave 6
	note F_, 1
	note __, 1
	octave 5
	note F_, 1
	note __, 3
	octave 6
	note F_, 1
	note __, 1
	octave 5
	note F_, 1
	note __, 1
	octave 6
	note F_, 1
	note __, 1
	octave 5
	note F_, 1
	note __, 3
	dutycycle 5
	intensity $25
	vibrato $08, $23
	octave 3
	note A#, 1
	octave 4
	note D_, 1
	note D#, 1
	note F_, 1
	note F#, 1
	note G#, 1
	note A#, 1
	note B_, 1
	octave 5
	note D_, 6
	note D#, 6
	note F_, 4
	note G#, 1
	note A#, 11
	note G#, 4
	note F_, 6
	note D#, 6
	note F_, 4
	note D_, 12
	note E_, 1
	note F_, 3
	note D#, 6
	note D_, 6
	note D#, 4
	octave 4
	note G#, 6
	note __, 2
	note G#, 14
	note B_, 2
	note A#, 12
	note A#, 4
	dutycycle 6
	note A#, 1
	note B_, 1
	octave 5
	note D_, 1
	note D#, 1
	note F_, 1
	note F#, 1
	note G#, 1
	note A_, 1
	note A#, 6
	note G#, 6
	note A#, 4
	note F_, 8
	note F#, 1
	note G#, 7
	note F#, 6
	note F_, 6
	note F#, 4
	note F_, 8
	note D#, 8
	note D_, 6
	note D#, 6
	note F_, 4
	octave 4
	note G#, 8
	note A#, 1
	note B_, 6
	note __, 1
	note B_, 4
	note __, 2
	octave 5
	note D#, 2
	octave 4
	note A#, 8
	note A#, 8
	note __, 8
	dutycycle 9
	intensity $19
	octave 3
	note F#, 16
	note C#, 8
	note F#, 8
	note F_, 16
	note C_, 8
	note F_, 8
	note E_, 16
	note G_, 8
	note E_, 8
	note D#, 16
	note D_, 8
	note C#, 8
	note F#, 16
	note C#, 8
	note F#, 8
	note F_, 16
	note C_, 8
	note F_, 8
	note E_, 16
	note G_, 8
	note E_, 8
	note D#, 16
	note D_, 8
	note C#, 8
	octave 2
	note G#, 16
	intensity $29
	note G#, 8
	intensity $39
	note G#, 8
	note __, 16
	note __, 16
	note __, 4
	dutycycle 6
	intensity $36
	octave 6
	note F_, 1
	note __, 1
	octave 5
	note F_, 1
	note __, 1
	octave 6
	note F_, 1
	note __, 1
	octave 5
	note F_, 1
	note __, 3
	octave 6
	note F_, 1
	note __, 1
	octave 5
	note F_, 1
	note __, 1
	octave 6
	note F_, 1
	note __, 1
	octave 5
	note F_, 1
	note __, 3
	octave 6
	note F_, 1
	note __, 1
	octave 5
	note F_, 1
	note __, 1
	octave 6
	note F_, 1
	note __, 1
	octave 5
	note F_, 1
	note __, 3
	octave 6
	note F_, 1
	note __, 1
	octave 5
	note F_, 1
	note __, 1
	octave 6
	note F_, 1
	note __, 1
	octave 5
	note F_, 1
	note __, 3
	octave 6
	note F_, 1
	note __, 1
	octave 5
	note F_, 1
	note __, 1
	octave 6
	note F_, 1
	note __, 1
	octave 5
	note F_, 1
	note __, 3
	octave 6
	note F_, 1
	note __, 1
	octave 5
	note F_, 1
	note __, 1
	octave 6
	note F_, 1
	note __, 1
	octave 5
	note F_, 1
	note __, 3
	loopchannel 0, Music_Lava_Ch3_loop

Music_Lava_Ch4:
	togglenoise 3
	notetype $C
	note __, 2
	note __, 6
	note G_, 2
	note __, 6
	note __, 2
	note __, 6
	note G_, 2
	note __, 6
	note __, 2
	note __, 6
	note G_, 2
	note __, 6
	note __, 2
	note __, 6
	note G_, 2
	note __, 6
	note __, 2
	note __, 6
	note G_, 2
	note __, 6
	note __, 2
	note __, 6
	note G_, 2
	note __, 6
	note __, 2
	note __, 6
	note G_, 2
	note __, 6
	note G_, 2
	note D_, 1
	note __, 1
	note A#, 1
	note __, 1
	note A#, 1
	note __, 1
	note D_, 1
	note __, 1
	note A#, 1
	note __, 1
	note A#, 1
	note __, 1
	note D_, 1
	note __, 1
Music_Lava_Ch4_loop:
	note B_, 2
	note G_, 2
	note G_, 2
	note G_, 2
	note C_, 2
	note G_, 2
	note G_, 2
	note C_, 2
	note A#, 2
	note G#, 1
	note G#, 1
	note G#, 2
	note G_, 2
	note C_, 2
	note A#, 2
	note A#, 2
	note B_, 2
	note A#, 2
	note G_, 2
	note G_, 2
	note G_, 2
	note C_, 2
	note G_, 2
	note G_, 2
	note C_, 2
	note A#, 2
	note G#, 1
	note G#, 1
	note G#, 2
	note G_, 2
	note C_, 2
	note C_, 2
	note C_, 2
	note C_, 2
	loopchannel 0, Music_Lava_Ch4_loop

