Music_LusterSewer:
	musicheader 4, 1, Music_LusterSewer_Ch1
	musicheader 1, 2, Music_LusterSewer_Ch2
	musicheader 1, 3, Music_LusterSewer_Ch3
	musicheader 1, 4, Music_LusterSewer_Ch4

Music_LusterSewer_Ch1:
	tempo $11A
	volume $77
	stereopanning $77
Music_LusterSewer_Ch1_loop:
	notetype $C, $00
	note __, 16
	note __, 16
	note __, 16
	note __, 16
	dutycycle 2
	intensity $A2
	vibrato $00, $22
	octave 4
	note C_, 1
	intensity $82
	note C_, 1
	intensity $62
	note C_, 1
	intensity $42
	note C_, 1
	intensity $A2
	note A#, 1
	intensity $82
	note A#, 1
	intensity $62
	note A#, 1
	intensity $42
	note A#, 1
	intensity $A2
	note F_, 1
	intensity $82
	note F_, 1
	intensity $62
	note F_, 1
	intensity $42
	note F_, 1
	intensity $A2
	note G_, 1
	intensity $82
	note G_, 1
	intensity $62
	note G_, 1
	intensity $42
	note G_, 1
	intensity $A2
	note D#, 1
	intensity $82
	note D#, 1
	intensity $62
	note D#, 1
	intensity $42
	note D#, 1
	intensity $A2
	note F_, 1
	intensity $82
	note F_, 1
	intensity $62
	note F_, 1
	intensity $42
	note F_, 1
	intensity $A2
	note C#, 1
	intensity $82
	note C#, 1
	intensity $62
	note C#, 1
	intensity $42
	note C#, 1
	intensity $A2
	note D#, 1
	intensity $82
	note D#, 1
	intensity $62
	note D#, 1
	intensity $42
	note D#, 1
	intensity $A2
	note C_, 1
	intensity $82
	note C_, 1
	intensity $62
	note C_, 1
	intensity $42
	note C_, 1
	intensity $A2
	note A#, 1
	intensity $82
	note A#, 1
	intensity $62
	note A#, 1
	intensity $42
	note A#, 1
	intensity $A2
	note F_, 1
	intensity $82
	note F_, 1
	intensity $62
	note F_, 1
	intensity $42
	note F_, 1
	intensity $A2
	note G_, 1
	intensity $82
	note G_, 1
	intensity $62
	note G_, 1
	intensity $42
	note G_, 1
	intensity $A2
	note D#, 1
	intensity $82
	note D#, 1
	intensity $62
	note D#, 1
	intensity $42
	note D#, 1
	intensity $A2
	note F_, 1
	intensity $82
	note F_, 1
	intensity $62
	note F_, 1
	intensity $42
	note F_, 1
	intensity $A2
	note C#, 1
	intensity $82
	note C#, 1
	intensity $62
	note C#, 1
	intensity $42
	note C#, 1
	intensity $A2
	note D#, 1
	intensity $82
	note D#, 1
	intensity $62
	note D#, 1
	intensity $42
	note D#, 1
	intensity $A2
	note C_, 1
	intensity $82
	note C_, 1
	intensity $62
	note C_, 1
	intensity $42
	note C_, 1
	intensity $A2
	note A#, 1
	intensity $82
	note A#, 1
	intensity $62
	note A#, 1
	intensity $42
	note A#, 1
	intensity $A2
	note F_, 1
	intensity $82
	note F_, 1
	intensity $62
	note F_, 1
	intensity $42
	note F_, 1
	intensity $A2
	note G_, 1
	intensity $82
	note G_, 1
	intensity $62
	note G_, 1
	intensity $42
	note G_, 1
	intensity $A2
	note D#, 1
	intensity $82
	note D#, 1
	intensity $62
	note D#, 1
	intensity $42
	note D#, 1
	intensity $A2
	note F_, 1
	intensity $82
	note F_, 1
	intensity $62
	note F_, 1
	intensity $42
	note F_, 1
	intensity $A2
	note C#, 1
	intensity $82
	note C#, 1
	intensity $62
	note C#, 1
	intensity $42
	note C#, 1
	intensity $A2
	note D#, 1
	intensity $82
	note D#, 1
	intensity $62
	note D#, 1
	intensity $42
	note D#, 1
	intensity $A2
	note C_, 1
	intensity $82
	note C_, 1
	intensity $62
	note C_, 1
	intensity $42
	note C_, 1
	intensity $A2
	note A#, 1
	intensity $82
	note A#, 1
	intensity $62
	note A#, 1
	intensity $42
	note A#, 1
	intensity $A2
	note F_, 1
	intensity $82
	note F_, 1
	intensity $62
	note F_, 1
	intensity $42
	note F_, 1
	intensity $A2
	note G_, 1
	intensity $82
	note G_, 1
	intensity $62
	note G_, 1
	intensity $42
	note G_, 1
	intensity $A2
	note D#, 1
	intensity $82
	note D#, 1
	intensity $62
	note D#, 1
	intensity $42
	note D#, 1
	intensity $A2
	note F_, 1
	intensity $82
	note F_, 1
	intensity $62
	note F_, 1
	intensity $42
	note F_, 1
	intensity $A2
	note C#, 1
	intensity $82
	note C#, 1
	intensity $62
	note C#, 1
	intensity $42
	note C#, 1
	intensity $A2
	note D#, 1
	intensity $82
	note D#, 1
	intensity $62
	note D#, 1
	intensity $42
	note D#, 1
	intensity $A2
	note C_, 1
	intensity $82
	note C_, 1
	intensity $62
	note C_, 1
	intensity $42
	note C_, 1
	intensity $A2
	note D_, 1
	intensity $82
	note D_, 1
	intensity $62
	note D_, 1
	intensity $42
	note D_, 1
	intensity $A2
	note C_, 1
	intensity $82
	note C_, 1
	intensity $62
	note C_, 1
	intensity $42
	note C_, 1
	intensity $A2
	note D_, 1
	intensity $82
	note D_, 1
	intensity $62
	note D_, 1
	intensity $42
	note D_, 1
	intensity $A2
	note C_, 1
	intensity $82
	note C_, 1
	intensity $62
	note C_, 1
	intensity $42
	note C_, 1
	intensity $A2
	note D_, 1
	intensity $82
	note D_, 1
	intensity $62
	note D_, 1
	intensity $42
	note D_, 1
	intensity $A2
	note C_, 1
	intensity $82
	note C_, 1
	intensity $62
	note C_, 1
	intensity $42
	note C_, 1
	intensity $A2
	note D_, 1
	intensity $82
	note D_, 1
	intensity $62
	note D_, 1
	intensity $42
	note D_, 1
	intensity $A2
	note C_, 1
	intensity $82
	note C_, 1
	intensity $62
	note C_, 1
	intensity $42
	note C_, 1
	intensity $A2
	note D_, 1
	intensity $82
	note D_, 1
	intensity $62
	note D_, 1
	intensity $42
	note D_, 1
	intensity $A2
	note C_, 1
	intensity $82
	note C_, 1
	intensity $62
	note C_, 1
	intensity $42
	note C_, 1
	intensity $A2
	note D_, 1
	intensity $82
	note D_, 1
	intensity $62
	note D_, 1
	intensity $42
	note D_, 1
	intensity $A2
	note C_, 1
	intensity $82
	note C_, 1
	intensity $62
	note C_, 1
	intensity $42
	note C_, 1
	intensity $A2
	note D_, 1
	intensity $82
	note D_, 1
	intensity $62
	note D_, 1
	intensity $42
	note D_, 1
	intensity $A2
	note C#, 1
	intensity $82
	note C#, 1
	intensity $62
	note C#, 1
	intensity $42
	note C#, 1
	intensity $A2
	octave 5
	note C#, 1
	intensity $82
	note C#, 1
	intensity $62
	note C#, 1
	intensity $42
	note C#, 1
	dutycycle 1
	intensity $77
	octave 1
	note G#, 1
	octave 2
	note D_, 1
	octave 1
	note G#, 1
	octave 2
	note D_, 1
	octave 1
	note G#, 1
	octave 2
	note D_, 1
	octave 1
	note G#, 1
	octave 2
	note D_, 1
	octave 1
	note G#, 1
	octave 2
	note D_, 1
	octave 1
	note G#, 1
	octave 2
	note D_, 1
	octave 1
	note G#, 1
	octave 2
	note D_, 1
	octave 1
	note G#, 1
	octave 2
	note D_, 1
	octave 1
	note G_, 1
	octave 2
	note D_, 1
	octave 1
	note G_, 1
	octave 2
	note D_, 1
	octave 1
	note G_, 1
	octave 2
	note D_, 1
	octave 1
	note G_, 1
	octave 2
	note D_, 1
	octave 1
	note G_, 1
	octave 2
	note D_, 1
	octave 1
	note G_, 1
	octave 2
	note D_, 1
	octave 1
	note G_, 1
	octave 2
	note D_, 1
	octave 1
	note G_, 1
	octave 2
	note D_, 1
	note D#, 1
	note D_, 1
	note D#, 1
	note D_, 1
	note D#, 1
	note D_, 1
	note D#, 1
	note D_, 1
	note D#, 1
	note D_, 1
	note D#, 1
	note D_, 1
	note D#, 1
	note D_, 1
	note D#, 1
	note D_, 1
	octave 1
	note D_, 1
	octave 2
	note D_, 1
	octave 1
	note D_, 1
	octave 2
	note D_, 1
	octave 1
	note D_, 1
	octave 2
	note D_, 1
	octave 1
	note D_, 1
	octave 2
	note D_, 1
	note __, 8
	loopchannel 0, Music_LusterSewer_Ch1_loop

Music_LusterSewer_Ch2:
Music_LusterSewer_Ch2_loop:
	notetype $C, $00
	note __, 16
	note __, 16
	note __, 16
	note __, 16
	note __, 16
	note __, 16
	note __, 16
	note __, 16
	dutycycle 1
	intensity $5A
	vibrato $00, $22
	octave 4
	note A#, 7
	notetype $6, $F8
	note A_, 1
	note G#, 1
	note G_, 14
	note D#, 2
	note C#, 2
	note D#, 2
	note C#, 2
	note C_, 2
	octave 3
	note A#, 2
	octave 4
	note C_, 2
	note C#, 2
	note C_, 10
	intensity $F6
	octave 3
	note G_, 8
	intensity $5A
	note A#, 16
	octave 4
	note C_, 16
	intensity $F6
	note D#, 2
	note C#, 2
	note C_, 2
	note F_, 4
	note G_, 2
	note G#, 4
	intensity $F7
	octave 5
	note C_, 16
	intensity $57
	octave 4
	note C_, 2
	intensity $77
	octave 3
	note G_, 2
	intensity $97
	note F_, 2
	intensity $B7
	octave 4
	note C_, 2
	intensity $C7
	octave 3
	note G_, 2
	intensity $B7
	note F_, 2
	intensity $97
	octave 4
	note C_, 2
	intensity $77
	octave 3
	note G_, 2
	intensity $57
	note F_, 2
	intensity $77
	octave 4
	note C_, 2
	intensity $97
	octave 3
	note G_, 2
	intensity $B7
	note F_, 2
	intensity $C7
	octave 4
	note C_, 2
	intensity $B7
	octave 3
	note G_, 2
	intensity $97
	note F_, 2
	intensity $77
	octave 4
	note C_, 2
	intensity $57
	octave 3
	note G_, 2
	intensity $77
	note F_, 2
	intensity $97
	octave 4
	note C_, 2
	intensity $B7
	octave 3
	note G_, 2
	intensity $C7
	note F_, 2
	intensity $B7
	octave 4
	note C_, 2
	intensity $97
	octave 3
	note G_, 2
	intensity $77
	note F_, 2
	intensity $57
	octave 4
	note C_, 2
	intensity $77
	octave 3
	note G_, 2
	intensity $97
	note F_, 2
	intensity $B7
	octave 4
	note C_, 2
	intensity $C7
	octave 3
	note G_, 2
	intensity $B7
	note F_, 2
	intensity $97
	octave 4
	note C_, 2
	intensity $77
	octave 3
	note G_, 2
	intensity $57
	note F_, 2
	intensity $77
	octave 4
	note C_, 2
	intensity $97
	octave 3
	note G_, 2
	intensity $B7
	note F_, 2
	intensity $C7
	octave 4
	note C_, 2
	intensity $B7
	octave 3
	note G_, 2
	intensity $97
	note F_, 2
	intensity $77
	octave 4
	note C_, 2
	intensity $57
	octave 3
	note G_, 2
	intensity $77
	note F_, 2
	intensity $97
	octave 4
	note C_, 2
	intensity $B7
	octave 3
	note G_, 2
	intensity $C7
	note F_, 2
	intensity $B7
	octave 4
	note C_, 2
	intensity $97
	octave 3
	note G_, 2
	intensity $77
	note F_, 2
	intensity $57
	octave 4
	note C_, 2
	intensity $77
	octave 3
	note G_, 2
	intensity $97
	note F_, 2
	intensity $B7
	octave 4
	note C_, 2
	intensity $C7
	octave 3
	note G_, 2
	intensity $B7
	note F_, 2
	intensity $97
	octave 4
	note C_, 2
	intensity $77
	octave 3
	note G_, 2
	intensity $57
	note F_, 2
	intensity $77
	octave 4
	note C_, 2
	intensity $97
	octave 3
	note G_, 2
	intensity $B7
	note F_, 2
	intensity $C7
	octave 4
	note C_, 2
	intensity $B7
	octave 3
	note G_, 2
	intensity $97
	note F_, 2
	intensity $77
	octave 4
	note C_, 2
	octave 2
	note C_, 2
	note F_, 2
	note G_, 2
	note C_, 2
	note F_, 2
	note G_, 2
	note C_, 2
	note F_, 2
	note G_, 2
	note C_, 2
	note F_, 2
	note G_, 2
	note C_, 2
	note F_, 2
	note G_, 2
	note C_, 2
	note F_, 2
	note G_, 2
	note C_, 2
	note F_, 2
	note G_, 2
	note C_, 2
	note F_, 2
	note G_, 2
	note C_, 2
	note F_, 2
	note G_, 2
	note C_, 2
	note F_, 2
	note G_, 2
	note C_, 2
	note F_, 2
	note G_, 2
	note C_, 2
	note F_, 2
	note G_, 2
	note C_, 2
	note F_, 2
	note G_, 2
	note C_, 2
	note F_, 2
	note G_, 2
	note C_, 2
	note F_, 2
	note G_, 2
	note C_, 2
	note F_, 2
	note G_, 2
	note C_, 2
	note F_, 2
	note G_, 2
	note C_, 2
	note F_, 2
	note G_, 2
	note C_, 2
	note F_, 2
	note __, 16
	loopchannel 0, Music_LusterSewer_Ch2_loop

Music_LusterSewer_Ch3:
Music_LusterSewer_Ch3_loop:
	octave 2
	notetype $C, $00
	intensity $10
	note C_, 1
	note __, 1
	note C_, 1
	note C#, 1
	note C_, 1
	note __, 1
	note C_, 1
	note C#, 1
	note __, 1
	octave 1
	note A#, 1
	note __, 1
	octave 2
	note A#, 1
	note __, 1
	note F_, 1
	note G_, 2
	note C_, 1
	note __, 1
	note C_, 1
	note C#, 1
	note C_, 1
	note __, 1
	note C_, 1
	note C#, 1
	note __, 1
	octave 1
	note G_, 1
	note __, 1
	note G_, 1
	note A#, 1
	note G_, 1
	note A#, 1
	octave 2
	note C#, 1
	note C_, 1
	note __, 1
	note C_, 1
	note C#, 1
	note C_, 1
	note __, 1
	note C_, 1
	note C#, 1
	note __, 1
	octave 1
	note A#, 1
	note __, 1
	octave 2
	note A#, 1
	note __, 1
	note F_, 1
	note G_, 2
	note G#, 3
	note G_, 1
	note F_, 1
	note C_, 1
	note D#, 1
	note C#, 1
	note __, 1
	note C#, 1
	note C_, 1
	octave 1
	note A#, 1
	note __, 1
	octave 2
	note C_, 1
	note C#, 1
	note __, 1
	note C_, 1
	note __, 1
	note C_, 1
	note C#, 1
	note C_, 1
	note __, 1
	note C_, 1
	note C#, 1
	note __, 1
	octave 1
	note A#, 1
	note __, 1
	octave 2
	note A#, 1
	note __, 1
	note F_, 1
	note G_, 2
	note C_, 1
	note __, 1
	note C_, 1
	note C#, 1
	note C_, 1
	note __, 1
	note C_, 1
	note C#, 1
	note __, 1
	octave 1
	note G_, 1
	note __, 1
	note G_, 1
	note A#, 1
	note G_, 1
	note A#, 1
	octave 2
	note C#, 1
	note C_, 1
	note __, 1
	note C_, 1
	note C#, 1
	note C_, 1
	note __, 1
	note C_, 1
	note C#, 1
	note __, 1
	octave 1
	note A#, 1
	note __, 1
	octave 2
	note A#, 1
	note __, 1
	note F_, 1
	note G_, 2
	note G#, 3
	note G_, 1
	note F_, 1
	note C_, 1
	note D#, 1
	note C#, 1
	note __, 1
	intensity $10
	note C#, 1
	note C_, 1
	octave 1
	note A#, 1
	note __, 1
	octave 2
	note C_, 1
	note C#, 1
	note __, 1
	note C_, 1
	note __, 1
	note C_, 1
	note C#, 1
	note C_, 1
	note __, 1
	note C_, 1
	note C#, 1
	note __, 1
	octave 1
	note A#, 1
	note __, 1
	octave 2
	note A#, 1
	note __, 1
	note F_, 1
	note G_, 2
	note C_, 1
	note __, 1
	note C_, 1
	note C#, 1
	note C_, 1
	note __, 1
	note C_, 1
	note C#, 1
	note __, 1
	octave 1
	note G_, 1
	note __, 1
	note G_, 1
	note A#, 1
	note G_, 1
	note A#, 1
	octave 2
	note C#, 1
	note C_, 1
	note __, 1
	note C_, 1
	note C#, 1
	note C_, 1
	note __, 1
	note C_, 1
	note C#, 1
	note __, 1
	octave 1
	note A#, 1
	note __, 1
	octave 2
	note A#, 1
	note __, 1
	note F_, 1
	note G_, 2
	note G#, 3
	note G_, 1
	note F_, 1
	note C_, 1
	note D#, 1
	note C#, 1
	note __, 8
	vibrato $00, $22
	octave 4
	note G#, 13
	note A#, 1
	octave 5
	note C_, 1
	octave 4
	note G_, 9
	octave 5
	note G_, 5
	note F_, 1
	note E_, 1
	note D#, 14
	note F_, 1
	note G_, 1
	note D_, 9
	note C#, 5
	octave 4
	note F_, 1
	note G_, 1
	note G#, 14
	note A#, 1
	octave 5
	note C_, 1
	octave 4
	note G_, 9
	octave 5
	note G_, 5
	note F#, 1
	note G_, 1
	octave 6
	note D#, 14
	note D_, 1
	note C_, 1
	note D_, 9
	note C#, 2
	note __, 1
	octave 2
	note D#, 1
	note F_, 1
	octave 1
	note A#, 1
	octave 2
	note C#, 1
	note C_, 1
	loopchannel 0, Music_LusterSewer_Ch3_loop

Music_LusterSewer_Ch4:
	togglenoise $3
Music_LusterSewer_Ch4_loop:	
	notetype $C
	note C_, 1
	note D#, 1
	note D#, 1
	note D#, 1

	note D_, 1

	note D#, 1
	note D#, 1
	note C_, 1
	note D#, 1
	note C_, 1
	note D#, 1
	note C_, 1

	note D_, 1

	note D#, 1
	note D#, 1

	note D_, 1

	note C_, 1
	note D#, 1
	note D#, 1
	note D#, 1

	note D_, 1

	note D#, 1
	note D#, 1
	note C_, 1
	note D#, 1
	note C_, 1
	note D#, 1
	note C_, 1

	note D_, 1

	note D#, 1
	note D#, 1

	note D_, 1

	note C_, 1
	note D#, 1
	note D#, 1
	note D#, 1

	note D_, 1

	note D#, 1
	note D#, 1
	note C_, 1
	note D#, 1
	note C_, 1
	note D#, 1
	note C_, 1

	note D_, 1

	note D#, 1
	note D#, 1

	note D_, 1

	note D#, 1
	note D#, 1
	note D#, 1
	note D#, 1
	note D#, 1
	note D#, 1
	note D#, 1

	note D_, 1
	note __, 5

	note C_, 1

	note D_, 2

	note C_, 1
	note D#, 1
	note D#, 1
	note D#, 1

	note D_, 1

	note D#, 1
	note D#, 1
	note C_, 1
	note D#, 1
	note C_, 1
	note D#, 1
	note C_, 1

	note D_, 1

	note D#, 1
	note D#, 1

	note D_, 1

	note C_, 1
	note D#, 1
	note D#, 1
	note D#, 1

	note D_, 1

	note D#, 1
	note D#, 1
	note C_, 1
	note D#, 1
	note C_, 1
	note D#, 1
	note C_, 1

	note D_, 1

	note D#, 1
	note D#, 1

	note D_, 1

	note C_, 1
	note D#, 1
	note D#, 1
	note D#, 1

	note D_, 1

	note D#, 1
	note D#, 1
	note C_, 1
	note D#, 1
	note C_, 1
	note D#, 1
	note C_, 1

	note D_, 1

	note D#, 1
	note D#, 1

	note D_, 1

	note D#, 1
	note D#, 1
	note D#, 1
	note D#, 1
	note D#, 1
	note D#, 1
	note D#, 1

	note D_, 1
	note __, 5

	note C_, 1

	note D_, 2
	note C_, 1
	note D#, 1
	note D#, 1
	note D#, 1

	note D_, 1

	note D#, 1
	note D#, 1
	note C_, 1
	note D#, 1
	note C_, 1
	note D#, 1
	note C_, 1

	note D_, 1

	note D#, 1
	note D#, 1

	note D_, 1

	note C_, 1
	note D#, 1
	note D#, 1
	note D#, 1

	note D_, 1

	note D#, 1
	note D#, 1
	note C_, 1
	note D#, 1
	note C_, 1
	note D#, 1
	note C_, 1

	note D_, 1

	note D#, 1
	note D#, 1

	note D_, 1

	note C_, 1
	note D#, 1
	note D#, 1
	note D#, 1

	note D_, 1

	note D#, 1
	note D#, 1
	note C_, 1
	note D#, 1
	note C_, 1
	note D#, 1
	note C_, 1

	note D_, 1

	note D#, 1
	note D#, 1

	note D_, 1

	note D#, 1
	note D#, 1
	note D#, 1
	note D#, 1
	note D#, 1
	note D#, 1
	note D#, 1

	note D_, 1
	note __, 5

	note C_, 1

	note D_, 2
	notetype $6
	note G_, 1
	note G_, 1
	note G_, 1
	note G_, 1
	note G_, 1
	note G_, 1
	note G_, 1
	note G_, 1
	note G_, 1
	note G_, 1
	note G_, 1
	note G_, 1
	note G_, 1
	note G_, 1
	note G_, 1
	note G_, 1
	note G_, 1
	note G_, 1
	note G_, 1
	note G_, 1
	note G_, 1
	note G_, 1
	note G_, 1
	note G_, 1
	note G_, 1
	note G_, 1
	note G_, 1
	note G_, 1
	note G_, 1
	note G_, 1
	note G_, 1
	note G_, 1
	note G_, 1
	note G_, 1
	note G_, 1
	note G_, 1
	note G_, 1
	note G_, 1
	note G_, 1
	note G_, 1
	note G_, 1
	note G_, 1
	note G_, 1
	note G_, 1
	note G_, 1
	note G_, 1
	note G_, 1
	note G_, 1
	note G_, 1
	note G_, 1
	note G_, 1
	note G_, 1
	note G_, 1
	note G_, 1
	note G_, 1
	note G_, 1
	note G_, 1
	note G_, 1
	note G_, 1
	note G_, 1
	note G_, 1
	note G_, 1
	note G_, 1
	note G_, 1
	note G_, 1
	note G_, 1
	note G_, 1
	note G_, 1
	note G_, 1
	note G_, 1
	note G_, 1
	note G_, 1
	note G_, 1
	note G_, 1
	note G_, 1
	note G_, 1
	note G_, 1
	note G_, 1
	note G_, 1
	note G_, 1
	note G_, 1
	note G_, 1
	note G_, 1
	note G_, 1
	note G_, 1
	note G_, 1
	note G_, 1
	note G_, 1
	note G_, 1
	note G_, 1
	note G_, 1
	note G_, 1
	note G_, 1
	note G_, 1
	note G_, 1
	note G_, 1
	note G_, 1
	note G_, 1
	note G_, 1
	note G_, 1
	note G_, 1
	note G_, 1
	note G_, 1
	note G_, 1
	note G_, 1
	note G_, 1
	note G_, 1
	note G_, 1
	note G_, 1
	note G_, 1
	note G_, 1
	note G_, 1
	note G_, 1
	note G_, 1
	note G_, 1
	note G_, 1
	note G_, 1
	note G_, 1
	note G_, 1
	note G_, 1
	note G_, 1
	note G_, 1
	note G_, 1
	note G_, 1
	note G_, 1
	note G_, 1
	note G_, 1
	note G_, 1
	note C_, 2
	note G_, 1
	note G_, 1
	note G_, 1
	note G_, 1
	note G_, 1
	note G_, 1

	note D_, 2

	note G_, 1
	note G_, 1
	note G_, 1
	note G_, 1
	note G_, 1
	note G_, 1
	note C_, 2
	note G_, 1
	note G_, 1
	note G_, 1
	note G_, 1
	note G_, 1
	note G_, 1

	note D_, 2

	note G_, 1
	note G_, 1
	note G_, 1
	note G_, 1
	note G_, 1
	note G_, 1
	note C_, 2
	note G_, 1
	note G_, 1
	note G_, 1
	note G_, 1
	note G_, 1
	note G_, 1

	note D_, 2

	note G_, 1
	note G_, 1
	note G_, 1
	note G_, 1
	note G_, 1
	note G_, 1
	note C_, 2
	note G_, 1
	note G_, 1
	note G_, 1
	note G_, 1
	note G_, 1
	note G_, 1

	note D_, 2

	note G_, 1
	note G_, 1
	note G_, 1
	note G_, 1
	note G_, 1
	note G_, 1
	note C_, 2
	note G_, 1
	note G_, 1
	note G_, 1
	note G_, 1
	note G_, 1
	note G_, 1

	note D_, 2

	note G_, 1
	note G_, 1
	note G_, 1
	note G_, 1
	note G_, 1
	note G_, 1
	note C_, 2
	note G_, 1
	note G_, 1
	note G_, 1
	note G_, 1
	note G_, 1
	note G_, 1

	note D_, 2

	note G_, 1
	note G_, 1
	note G_, 1
	note G_, 1
	note G_, 1
	note G_, 1
	note G_, 1
	note G_, 1
	note G_, 1
	note G_, 1
	note G_, 1
	note G_, 1
	note G_, 1
	note G_, 1
	note G_, 1
	note G_, 1
	note G_, 1
	note G_, 1
	note G_, 1
	note G_, 1
	note G_, 1
	note G_, 1

	note D_, 2
	note __, 14
	loopchannel 0, Music_LusterSewer_Ch4_loop

