Music_LusterCity:
	musicheader 4, 1, Music_LusterCity_Ch1
	musicheader 1, 2, Music_LusterCity_Ch2
	musicheader 1, 3, Music_LusterCity_Ch3
	musicheader 1, 4, Music_LusterCity_Ch4

Music_LusterCity_Ch1:
	tempo $AB
	volume $77
	stereopanning $77
	notetype $C, $00
	note __, 16
Music_LusterCity_Ch1_loop:
	notetype $C, $00
	intensity $95
	octave 3
	note A#, 1
	note __, 1
	note F_, 1
	note G_, 1
	note A#, 1
	note F_, 1
	note G_, 1
	note A#, 1
	note __, 1
	note F_, 1
	note G_, 1
	note A#, 1
	note __, 1
	note F_, 1
	note G_, 1
	note A#, 1
	octave 4
	note D#, 1
	note __, 1
	octave 3
	note A#, 1
	octave 4
	note C_, 1
	note D#, 1
	octave 3
	note A#, 1
	octave 4
	note C_, 1
	note D#, 1
	note __, 1
	octave 3
	note A#, 1
	octave 4
	note C_, 1
	note D#, 1
	note __, 1
	octave 3
	note A#, 1
	octave 4
	note C_, 1
	note D#, 1
	note C_, 1
	note __, 1
	octave 3
	note G_, 1
	note A#, 1
	octave 4
	note C_, 1
	octave 3
	note G_, 1
	note A#, 1
	octave 4
	note C_, 1
	note __, 1
	octave 3
	note F_, 1
	octave 4
	note C_, 1
	note F_, 1
	note __, 1
	note C_, 1
	note D#, 1
	note F_, 1
	octave 3
	note A#, 1
	note __, 1
	note F_, 1
	note G_, 1
	dutycycle 1
	octave 2
	note G_, 3
	note F_, 1
	note __, 1
	dutycycle 0
	octave 4
	note F_, 1
	note D_, 1
	octave 3
	note A#, 1
	note __, 1
	note F_, 1
	note G_, 1
	note A#, 1
	note A#, 1
	note __, 1
	note F_, 1
	note G_, 1
	note A#, 1
	note F_, 1
	note G_, 1
	note A#, 1
	note __, 1
	note F_, 1
	note G_, 1
	note A#, 1
	note __, 1
	note F_, 1
	note G_, 1
	note A#, 1
	octave 4
	note D#, 1
	note __, 1
	octave 3
	note A#, 1
	octave 4
	note C_, 1
	note D#, 1
	octave 3
	note A#, 1
	octave 4
	note C_, 1
	note D#, 1
	note __, 1
	octave 3
	note A#, 1
	octave 4
	note C_, 1
	note D#, 1
	note __, 1
	octave 3
	note A#, 1
	octave 4
	note C_, 1
	dutycycle 2
	note D#, 1
	note D#, 2
	note E_, 2
	note F_, 2
	note A_, 4
	note E_, 2
	note D#, 2
	note D_, 6
	dutycycle 1
	octave 2
	note G_, 3
	note F_, 1
	note __, 4
	note A_, 3
	note G_, 1
	note __, 4
	note E_, 3
	note E_, 1
	note __, 16
	note __, 16
	note __, 8
	dutycycle 0
	vibrato $00, $33
	octave 3
	intensity $A8
	note D#, 2
	note __, 2
	note D_, 3
	note C_, 1
	
	
	note __, 8
	note __, 16
	
	notetype $6, $A8
	note F_, 4
	note __, 4
	note D#, 6
	note D_, 2
	note __, 16
	note __, 16 
	note __, 16
	dutycycle 0
	octave 3
	note D#, 4
	note __, 4
	note D_, 6
	note C_, 2
	note __, 16
	note __, 16
	note __, 16
	dutycycle 0
	octave 3
	note A#, 4
	note __, 4
	note A_, 6
	note G_, 2
	note __, 16
	dutycycle 0
	octave 3
	note G#, 4
	note __, 4
	note G_, 6
	note F_, 2
	note __, 16
	vibrato $00, $00
	note A_, 2
	note E_, 2
	note __, 2
	note G_, 2
	note __, 2
	note G#, 2
	note __, 2
	note A_, 2
	note __, 2
	note E_, 2
	note G_, 2
	note __, 2
	note G#, 2
	note __, 2
	note A_, 2
	note __, 2
	note E_, 2
	note G_, 2
	note __, 2
	note G#, 2
	note __, 2
	note A_, 2
	note __, 2
	note E_, 2
	note G_, 2
	note __, 2
	note G#, 2
	note __, 2
	note A_, 2
	note __, 6
	loopchannel 0, Music_LusterCity_Ch1_loop

Music_LusterCity_Ch2:	
	notetype $C, $00
	note __, 12
	dutycycle 2
	octave 3
	notetype $6, $C5
	note F_, 1
	note G_, 1
	note A_, 1
	note A#, 1
	octave 4
	note C_, 1
	note D_, 1
	note D#, 1
	note E_, 1
Music_LusterCity_Ch2_loop:
	notetype $F, $C5
	vibrato $00, $33
	note F_, 8
	notetype $6, $C5
	note F#, 1
	note G_, 11
	note C_, 1
	note C#, 7
	note C_, 2
	note __, 2
	octave 3
	note A#, 16
	note F_, 4
	octave 4
	note C_, 4
	note C#, 4
	note C_, 4
	note C#, 4
	note C_, 4
	octave 3
	note F_, 4
	note G_, 4
	note A#, 12
	dutycycle 1
	octave 2
	note D#, 6
	note D_, 2
	note __, 8
	dutycycle 2
	octave 3
	note F_, 1
	note G_, 1
	note A_, 1
	note A#, 1
	octave 4
	note C_, 1
	note D_, 1
	note D#, 1
	note E_, 1
	notetype $F, $C5
	note F_, 8
	notetype $6, $C5
	note F#, 1
	note G_, 7
	note F_, 4
	note F#, 8
	note G_, 4
	note A#, 16
	note A#, 4
	octave 5
	note C_, 4
	note C#, 4
	note D_, 4
	note F_, 8
	note C#, 4
	note C_, 4
	octave 4
	note A#, 12
	dutycycle 1
	octave 2
	note D#, 6
	note D_, 2
	note __, 8
	note F_, 6
	note E_, 2
	note __, 8
	octave 3
	note C_, 6
	note C_, 2
	note __, 16
	note __, 16
	note __, 16
	note __, 16
	note __, 16
	dutycycle 0
	intensity $C8
	note G#, 4
	note __, 4
	note G_, 6
	note F_, 2
	note __, 16
	dutycycle 2
	notetype $6, $A5
	note B_, 1
	octave 4
	note C_, 9
	octave 3
	note A#, 2
	note G#, 2
	note F_, 2
	octave 4
	note C_, 2
	octave 3
	note B_, 2
	note A#, 2
	note G#, 2
	note F_, 2
	note C_, 2
	note D#, 2
	note F_, 2
	dutycycle 0
	intensity $C8
	note G#, 4
	note __, 4
	note G_, 6
	note F_, 2
	note __, 16
	octave 5
	intensity $A5
	dutycycle 2
	note D#, 2
	note C_, 2
	note __, 2
	note D#, 2
	note __, 2
	note C_, 2
	note __, 2
	note F_, 4
	note E_, 2
	note D#, 2
	note C_, 2
	octave 4
	note B_, 2
	note A#, 2
	note G#, 2
	note F_, 2
	intensity $C8
	dutycycle 0
	octave 3
	note G#, 4
	note __, 4
	note G_, 6
	note F_, 2
	note __, 16
	dutycycle 2
	octave 5
	intensity $A5
	note E_, 1
	note F_, 7
	note E_, 1
	note F_, 7
	note G#, 2
	note F_, 2
	note __, 2
	note G#, 2
	note __, 2
	note F_, 2
	note D#, 2
	note C_, 2
	dutycycle 0
	octave 4
	intensity $C8
	note D#, 4
	note __, 4
	note D_, 6
	note C_, 2
	note __, 8
	dutycycle 2
	octave 4
	intensity $A6
	note C_, 1
	octave 5
	note C_, 7
	dutycycle 0
	octave 4
	intensity $C8
	note C#, 4
	note __, 4
	note C_, 6
	octave 3
	note A#, 2
	note __, 8
	dutycycle 2
	intensity $A6
	note A#, 1
	octave 4
	note A#, 7
	dutycycle 0
	octave 4
	intensity $C8
	vibrato $00, $00
	note F_, 2
	note C_, 2
	note __, 2
	note D#, 2
	note __, 2
	note E_, 2
	note __, 2
	note F_, 2
	note __, 2
	note C_, 2
	note D#, 2
	note __, 2
	note E_, 2
	note __, 2
	note F_, 2
	note __, 2
	note C_, 2
	note D#, 2
	note __, 2
	note E_, 2
	note __, 2
	note F_, 2
	note __, 2
	note C_, 2
	note D#, 2
	note __, 2
	note E_, 2
	note __, 2
	note F_, 2
	note __, 2
	dutycycle 2
	note C_, 1
	note D_, 1
	note D#, 1
	note E_, 1
	loopchannel 0, Music_LusterCity_Ch2_loop

Music_LusterCity_Ch3:
	notetype $C, $00
	note __, 16
Music_LusterCity_Ch3_loop:
	intensity $10
	octave 2
	note A#, 3
	octave 3
	note F_, 1
	octave 2
	note D_, 3
	note D#, 1
	note __, 1
	note E_, 1
	note __, 1
	note F_, 1
	note __, 1
	note G_, 1
	note A#, 2
	note D#, 4
	octave 3
	note D#, 1
	note C_, 1
	octave 2
	note A#, 1
	octave 3
	note D#, 1
	note __, 1
	note C_, 1
	note __, 1
	octave 2
	note A#, 1
	note __, 1
	note D#, 1
	note D_, 1
	note C_, 5
	octave 3
	note C_, 1
	octave 2
	note A#, 1
	note G_, 1
	note F_, 1
	note __, 1
	octave 3
	note F_, 1
	note __, 1
	note G_, 1
	note __, 1
	note G#, 1
	note A_, 1
	note __, 1
	note A#, 2
	note __, 2
	octave 2
	note A#, 2
	note __, 1
	octave 1
	note A#, 1
	note __, 1
	octave 2
	note A#, 1
	note __, 1
	octave 3
	note F_, 1
	note __, 1
	octave 2
	note F_, 1
	octave 3
	note F_, 1
	note __, 1
	octave 2
	note A#, 3
	octave 3
	note F_, 1
	octave 2
	note D_, 3
	note D#, 1
	note __, 1
	note E_, 1
	note __, 1
	note F_, 1
	note __, 1
	note G_, 1
	note A#, 2
	note D#, 4
	octave 3
	note D#, 1
	note C_, 1
	octave 2
	note A#, 1
	octave 3
	note D#, 1
	note __, 1
	note C_, 1
	note __, 1
	octave 2
	note A#, 1
	note __, 1
	note D#, 1
	note D_, 1
	note C_, 5
	octave 3
	note C_, 1
	octave 2
	note A#, 1
	note G_, 1
	note F_, 1
	note __, 1
	note F#, 1
	note __, 1
	note G_, 1
	note __, 1
	note G#, 1
	note A_, 2
	note A#, 2
	note __, 2
	note A#, 2
	note __, 1
	octave 1
	note A#, 1
	note __, 4
	octave 3
	note C_, 2
	note __, 1
	octave 2
	note C_, 1
	note __, 4
	octave 3
	note C_, 2
	note __, 1
	note C_, 1
	note __, 1
	octave 2
	note C_, 1
	note __, 1
	octave 3
	note C_, 1
	note __, 1
	octave 2
	note A#, 1
	note G_, 1
	note __, 1
	note F_, 1
	note __, 1
	note F_, 1
	note __, 2
	octave 3
	note F_, 1
	note __, 1
	note D#, 1
	note __, 1
	octave 2
	note A_, 1
	note __, 1
	note A#, 1
	note __, 1
	note B_, 1
	octave 3
	note C_, 2
	octave 2
	note F_, 1
	note __, 1
	note F_, 1
	note __, 2
	octave 3
	note F_, 1
	note __, 1
	note D#, 1
	note __, 1
	octave 2
	note A_, 1
	note __, 1
	note A#, 1
	note __, 1
	note B_, 1
	octave 3
	note C_, 2
	octave 2
	note F_, 1
	note __, 1
	note F_, 1
	note __, 2
	octave 3
	note F_, 1
	note __, 1
	note D#, 1
	note __, 1
	octave 2
	note A_, 1
	note __, 1
	note A#, 1
	note __, 1
	note B_, 1
	octave 3
	note C_, 2
	octave 2
	note F_, 1
	note __, 1
	note F_, 1
	note __, 2
	octave 3
	note F_, 1
	note __, 1
	note D#, 1
	note __, 1
	octave 2
	note A_, 1
	note __, 1
	note A#, 1
	note __, 1
	note B_, 1
	octave 3
	note C_, 2
	octave 2
	note A#, 1
	note __, 1
	note A#, 1
	note __, 2
	octave 3
	note A#, 1
	note __, 1
	note G#, 1
	note __, 1
	note D_, 1
	note __, 1
	note D#, 1
	note __, 1
	note E_, 1
	note F_, 2
	octave 2
	note A#, 1
	note __, 1
	note A#, 1
	note __, 2
	octave 3
	note A#, 1
	note __, 1
	note G#, 1
	note __, 1
	note D_, 1
	note __, 1
	note D#, 1
	note __, 1
	note E_, 1
	note F_, 2
	octave 2
	note F_, 1
	note __, 1
	note F_, 1
	note __, 2
	octave 3
	note F_, 1
	note __, 1
	note D#, 1
	note __, 1
	octave 2
	note A_, 1
	note __, 1
	note A#, 1
	note __, 1
	note B_, 1
	octave 3
	note C_, 2
	octave 2
	note F_, 1
	note __, 1
	note F_, 1
	note __, 2
	octave 3
	note F_, 1
	note __, 1
	note D#, 1
	note __, 1
	octave 2
	note A_, 1
	note __, 1
	note A#, 1
	note __, 1
	note B_, 1
	octave 3
	note C_, 2
	note C_, 1
	note __, 1
	note C_, 1
	note __, 2
	octave 4
	note C_, 1
	note __, 1
	octave 3
	note A#, 1
	note __, 1
	note E_, 1
	note __, 1
	note F_, 1
	note __, 1
	note F#, 1
	note G_, 2
	octave 2
	note A#, 1
	note __, 1
	note A#, 1
	note __, 2
	octave 3
	note A#, 1
	note __, 1
	note G#, 1
	note __, 1
	note D_, 1
	note __, 1
	note D#, 1
	note __, 1
	note E_, 1
	note F_, 2
	octave 2
	note F_, 1
	octave 3
	note C_, 1
	note __, 1
	note D#, 1
	note __, 1
	note E_, 1
	note __, 1
	note F_, 1
	note __, 1
	note C_, 1
	note D#, 1
	note __, 1
	note E_, 1
	note __, 1
	note F_, 1
	note __, 1
	note C_, 1
	note D#, 1
	note __, 1
	note E_, 1
	note __, 1
	note F_, 1
	note __, 1
	note C_, 1
	note D#, 1
	note __, 1
	note E_, 1
	note __, 1
	note F_, 1
	note __, 3
	loopchannel 0, Music_LusterCity_Ch3_loop

Music_LusterCity_Ch4:
	togglenoise 3
	notetype $C
	note C_, 1
	note __, 1
	note A#, 1
	note A#, 1
	note C_, 1
	note __, 1
	note A#, 1
	note C_, 1
	note __, 1
	note C_, 1
	note __, 1
	note C_, 1
	note __, 1
	note C_, 1
	note C_, 1
	note __, 1
Music_LusterCity_Ch4_loop:
	note F#, 2
	note F#, 1
	note __, 1
	note C_, 1
	note __, 1
	note G_, 1
	note A#, 1
	note G_, 1
	note A#, 1
	note G_, 1
	note C_, 1
	note G_, 1
	note A#, 1
	note C_, 1
	note __, 1
	note A#, 1
	note __, 1
	note G_, 1
	note __, 1
	note C_, 1
	note __, 1
	note G_, 1
	note A#, 1
	note G_, 1
	note A#, 1
	note G_, 1
	note C_, 1
	note G_, 1
	note A#, 1
	note C_, 1
	note __, 1
	note F#, 2
	note F#, 1
	note __, 1
	note C_, 1
	note __, 1
	note G_, 1
	note A#, 1
	note G_, 1
	note A#, 1
	note G_, 1
	note C_, 1
	note G_, 1
	note A#, 1
	note C_, 1
	note __, 1
	note A#, 1
	note __, 1
	note G_, 1
	note __, 1
	note C_, 1
	note __, 1
	note G_, 1
	note A#, 1
	note G_, 1
	note A#, 1
	note G_, 1
	note C_, 1
	note G_, 1
	note A#, 1
	note C_, 1
	note __, 1
	note F#, 2
	note F#, 1
	note __, 1
	note C_, 1
	note __, 1
	note G_, 1
	note A#, 1
	note G_, 1
	note A#, 1
	note G_, 1
	note C_, 1
	note G_, 1
	note A#, 1
	note C_, 1
	note __, 1
	note A#, 1
	note __, 1
	note G_, 1
	note __, 1
	note C_, 1
	note __, 1
	note G_, 1
	note A#, 1
	note G_, 1
	note A#, 1
	note G_, 1
	note C_, 1
	note G_, 1
	note A#, 1
	note C_, 1
	note __, 1
	note F#, 2
	note G_, 1
	note __, 1
	note C_, 1
	note __, 1
	note G_, 1
	note A#, 1
	note G_, 1
	note A#, 1
	note G_, 1
	note C_, 1
	note G_, 1
	note A#, 1
	note C_, 1
	note __, 1
	note A#, 1
	note __, 1
	note G_, 1
	note __, 1
	note C_, 1
	note __, 1
	note G_, 1
	note A#, 1
	note A#, 1
	note __, 1
	note G_, 1
	note __, 1
	note C_, 1
	note __, 1
	note G_, 1
	note A#, 1
	note A#, 1
	note __, 1
	note G_, 1
	note __, 1
	note C_, 1
	note __, 1
	note G_, 1
	note A#, 1
	note G_, 1
	note A#, 1
	note G_, 1
	note C_, 1
	note G_, 1
	note A#, 1
	note C_, 1
	note __, 1
	note A#, 1
	note G_, 1
	note A#, 1
	note G_, 1
	note C_, 1
	note G_, 1
	note G_, 1
	note G_, 1
	note G_, 1
	note G_, 1
	note A#, 1
	note G_, 1
	note C_, 1
	note A#, 1
	note G_, 1
	note A#, 1
	note A#, 1
	note G_, 1
	note A#, 1
	note G_, 1
	note C_, 1
	note G_, 1
	note G_, 1
	note G_, 1
	note G_, 1
	note G_, 1
	note A#, 1
	note G_, 1
	note C_, 1
	note A#, 1
	note G_, 1
	note C_, 1
	note A#, 1
	note G_, 1
	note A#, 1
	note G_, 1
	note C_, 1
	note G_, 1
	note G_, 1
	note G_, 1
	note G_, 1
	note G_, 1
	note A#, 1
	note G_, 1
	note C_, 1
	note A#, 1
	note G_, 1
	note A#, 1
	note A#, 1
	note G_, 1
	note A#, 1
	note G_, 1
	note C_, 1
	note G_, 1
	note G_, 1
	note G_, 1
	note G_, 1
	note G_, 1
	note A#, 1
	note G_, 1
	note C_, 1
	note A#, 1
	note G_, 1
	note C_, 1
	note A#, 1
	note G_, 1
	note A#, 1
	note G_, 1
	note C_, 1
	note G_, 1
	note G_, 1
	note G_, 1
	note G_, 1
	note G_, 1
	note A#, 1
	note G_, 1
	note C_, 1
	note A#, 1
	note G_, 1
	note A#, 1
	note A#, 1
	note G_, 1
	note A#, 1
	note G_, 1
	note C_, 1
	note G_, 1
	note G_, 1
	note G_, 1
	note G_, 1
	note G_, 1
	note A#, 1
	note G_, 1
	note C_, 1
	note A#, 1
	note G_, 1
	note C_, 1
	note A#, 1
	note G_, 1
	note A#, 1
	note G_, 1
	note C_, 1
	note G_, 1
	note G_, 1
	note G_, 1
	note G_, 1
	note G_, 1
	note A#, 1
	note G_, 1
	note C_, 1
	note A#, 1
	note G_, 1
	note A#, 1
	note A#, 1
	note G_, 1
	note A#, 1
	note G_, 1
	note C_, 1
	note G_, 1
	note G_, 1
	note G_, 1
	note G_, 1
	note G_, 1
	note A#, 1
	note G_, 1
	note C_, 1
	note A#, 1
	note G_, 1
	note C_, 1
	note A#, 1
	note G_, 1
	note A#, 1
	note G_, 1
	note C_, 1
	note G_, 1
	note G_, 1
	note G_, 1
	note G_, 1
	note G_, 1
	note A#, 1
	note G_, 1
	note C_, 1
	note A#, 1
	note G_, 1
	note A#, 1
	note A#, 1
	note G_, 1
	note A#, 1
	note G_, 1
	note C_, 1
	note G_, 1
	note G_, 1
	note G_, 1
	note G_, 1
	note G_, 1
	note A#, 1
	note G_, 1
	note C_, 1
	note A#, 1
	note G_, 1
	note C_, 1
	note A#, 1
	note A#, 1
	note __, 1
	note A#, 1
	note __, 1
	note A#, 1
	note __, 1
	note A#, 1
	note __, 1
	note A#, 1
	note A#, 1
	note __, 1
	note A#, 1
	note __, 1
	note A#, 1
	note __, 1
	note C_, 1
	note C_, 1
	note __, 1
	note C_, 1
	note __, 1
	note C_, 1
	note __, 1
	note C_, 1
	note C_, 1
	note __, 1
	note C_, 1
	note __, 1
	note C_, 1
	note __, 3
	loopchannel 0, Music_LusterCity_Ch4_loop