Music_MinibossBattle:
	musicheader 4, 1, Music_MinibossBattle_Ch1
	musicheader 1, 2, Music_MinibossBattle_Ch2
	musicheader 1, 3, Music_MinibossBattle_Ch3
	musicheader 1, 4, Music_MinibossBattle_Ch4

Music_MinibossBattle_Ch1:
	tempo $64
	volume $77
	stereopanning $77
	dutycycle 1
	slidepitchto 3, 4, G_
	octave 4
	notetype $C, $C2
	note F#, 2
	slidepitchto 3, 4, G_
	note G_, 2
	slidepitchto 3, 4, G_
	note G_, 2
	slidepitchto 3, 4, G_
	note F#, 2
	slidepitchto 3, 4, G_
	note G_, 2
	slidepitchto 3, 4, G_
	note G_, 2
	slidepitchto 3, 4, G_
	note F#, 2
	slidepitchto 3, 4, G_
	note G_, 2
	note A#, 1
	note G_, 1
	note F#, 1
	note F_, 1
	note E_, 1
	note D#, 1
	note D_, 1
	note C#, 1
	note D_, 1
	note C#, 1
	note C_, 1
	octave 3
	note B_, 1
	octave 4
	note C_, 1
	octave 3
	note B_, 1
	note A#, 1
	note B_, 1
	octave 4
	note C_, 1
	note __, 3
	intensity $A6
	octave 2
	note G_, 1
	note __, 3
	note F_, 1
	note __, 3
	note F#, 2
	note G_, 2
	note __, 4
	note G_, 1
	note __, 3
	note F_, 1
	note __, 3
	note F#, 2
	note G_, 2
	note __, 4
	note G_, 1
	note __, 3
	note F_, 1
	note __, 3
	note F#, 2
	note G_, 4
	note F_, 2
	note E_, 4
	note C_, 4
	octave 3
	note E_, 2
	note G_, 2
	note __, 4
	octave 2
	note A#, 1
	note __, 3
	note G#, 1
	note __, 3
	note A_, 2
	note A#, 2
	note __, 4
	note A#, 1
	note __, 3
	octave 3
	note D_, 1
	note __, 3
	octave 2
	note A#, 2
	note G_, 2
	note __, 4
	note G_, 1
	note __, 3
	note F_, 1
	note __, 3
	note F#, 2
	note G_, 4
	note E_, 2
	note C_, 4
	octave 3
	note C_, 4
	note E_, 2
	note G_, 2
Music_MinibossBattle_Ch1_loop:
	notetype $C, $86
	dutycycle 1
	octave 3
	intensity $86
	note A#, 6
	note C#, 2
	note D_, 2
	note F_, 2
	note C#, 2
	note D_, 4
	octave 2
	note G_, 2
	note A#, 2
	octave 3
	note C_, 2
	note D_, 2
	note F_, 2
	note F#, 2
	note G_, 2
	note A_, 2
	note G#, 2
	note G_, 2
	note F_, 4
	note C_, 2
	note D#, 2
	dutycycle 2
	octave 4
	note F_, 3
	note __, 1
	note F_, 2
	note G#, 2
	note A_, 2
	note F_, 2
	dutycycle 1
	octave 3
	note G_, 2
	note G#, 2
	note A_, 2
	note A#, 6
	note C#, 2
	note D_, 2
	note F_, 2
	note C#, 2
	note D_, 4
	octave 2
	note B_, 2
	note A#, 2
	note A_, 2
	note G#, 2
	note G_, 2
	note F#, 2
	note F_, 2
	note F_, 6
	note D#, 6
	note E_, 2
	dutycycle 2
	octave 3
	note F_, 3
	note __, 1
	note F_, 2
	note G#, 2
	note A_, 2
	note F_, 2
	note __, 6
	note G_, 8
	octave 2
	note G_, 4
	note G#, 4
	note A#, 4
	note G#, 4
	note G_, 4
	note D#, 4
	note F_, 8
	octave 4
	note C_, 4
	octave 3
	note A#, 4
	note A_, 1
	note __, 1
	dutycycle 1
	octave 4
	note A_, 2
	note A#, 2
	octave 5
	note C_, 2
	octave 4
	note A_, 2
	dutycycle 2
	octave 3
	note F_, 2
	note G_, 2
	note A_, 2
	note A#, 8
	octave 2
	note A#, 4
	octave 3
	note C_, 4
	note D_, 4
	note C_, 4
	octave 2
	note A#, 4
	note G#, 4
	note A_, 8
	octave 4
	note C_, 4
	octave 3
	note A#, 4
	note A_, 1
	note __, 1
	dutycycle 1
	note A_, 2
	note A#, 2
	octave 4
	note C_, 2
	octave 3
	note A_, 2
	note __, 6
	note G#, 1
	note __, 1
	note D#, 1
	note __, 1
	octave 4
	note C_, 1
	note __, 1
	octave 3
	note D#, 1
	note __, 1
	note G#, 1
	note __, 1
	note D#, 1
	note __, 1
	octave 4
	note D#, 1
	note __, 1
	octave 3
	note D#, 1
	note __, 1
	note G#, 1
	note __, 1
	note D#, 1
	note __, 1
	octave 4
	note C_, 1
	note __, 1
	octave 3
	note D#, 1
	note __, 1
	note G#, 1
	note __, 1
	note D#, 1
	note __, 1
	octave 4
	note D#, 1
	note __, 1
	octave 3
	note D#, 1
	note __, 1
	note G#, 1
	note __, 1
	note D#, 1
	note __, 1
	octave 4
	note C_, 1
	note __, 1
	octave 3
	note D#, 1
	note __, 1
	note G#, 1
	note __, 1
	note D#, 1
	note __, 1
	octave 4
	note D#, 1
	note __, 1
	octave 3
	note D#, 1
	note __, 1
	note G#, 1
	note __, 1
	note G#, 2
	note A#, 2
	octave 4
	note C_, 2
	octave 3
	note G#, 2
	note D#, 1
	note __, 1
	octave 4
	note D#, 1
	note __, 1
	octave 3
	note D#, 1
	note __, 1
	note G#, 1
	note __, 1
	note D#, 1
	note __, 1
	octave 4
	note C_, 1
	note __, 1
	octave 3
	note D#, 1
	note __, 1
	note G#, 1
	note __, 1
	note D#, 1
	note __, 1
	octave 4
	note D#, 1
	note __, 1
	octave 3
	note D#, 1
	note __, 1
	note G#, 1
	note __, 1
	note D#, 1
	note __, 1
	octave 4
	note C_, 1
	note __, 1
	octave 3
	note D#, 1
	note __, 1
	note G#, 1
	note __, 1
	note D#, 1
	note __, 1
	octave 4
	note D#, 1
	note __, 1
	dutycycle 0
	intensity $78
	octave 3
	note F#, 6
	note D#, 2
	octave 2
	note B_, 6
	octave 3
	note C#, 2
	note D#, 6
	note F_, 2
	note F#, 6
	octave 2
	note B_, 2
	octave 3
	note C#, 6
	note D#, 2
	note F_, 6
	note F#, 2
	note G#, 2
	octave 4
	note F_, 1
	note __, 1
	note F_, 2
	note F#, 2
	note G#, 2
	note F_, 2
	note C#, 2
	octave 3
	note G#, 2
	note F_, 2
	note F#, 4
	note E_, 2
	note D_, 6
	note E_, 2
	note F#, 6
	note G#, 2
	note A_, 6
	note A#, 2
	note B_, 8
	octave 4
	note C_, 1
	note C#, 1
	note D_, 10
	dutycycle 2
	intensity $87
	octave 2
	note G_, 1
	note __, 3
	note G_, 1
	note __, 3
	note G_, 1
	note __, 3
	note G_, 1
	note __, 5
	note G_, 1
	note __, 5
	note G#, 1
	note __, 3
	note G#, 1
	note __, 5
	note A_, 1
	note __, 5
	note A#, 1
	note __, 3
	note B_, 1
	note __, 5
	octave 3
	note C_, 1
	note __, 3
	octave 2
	note A#, 1
	note __, 3
	note B_, 2
	octave 3
	note C_, 2
	note __, 4
	note C_, 1
	note __, 3
	octave 2
	note A#, 1
	note __, 3
	note B_, 2
	octave 3
	note C_, 2
	note __, 4
	note C_, 1
	note __, 3
	octave 2
	note A#, 1
	note __, 3
	note B_, 2
	octave 3
	note C_, 4
	octave 2
	note F_, 2
	note E_, 4
	note C_, 4
	octave 3
	note E_, 2
	note G_, 2
	note __, 4
	note C#, 1
	note __, 3
	octave 2
	note B_, 1
	note __, 3
	octave 3
	note C_, 2
	note C#, 2
	note __, 4
	note C#, 1
	note __, 3
	note F_, 1
	note __, 3
	note E_, 2
	note C_, 2
	note __, 4
	note C_, 1
	note __, 3
	octave 2
	note A#, 1
	note __, 3
	note B_, 2
	octave 3
	note C_, 4
	octave 2
	note E_, 2
	note C_, 4
	octave 3
	note C_, 4
	note E_, 2
	note G_, 2
	loopchannel 0, Music_MinibossBattle_Ch1_loop

Music_MinibossBattle_Ch2:
	notetype $C, $00
	note __, 16
	dutycycle 1
	intensity $87
	octave 2
	note G_, 1
	octave 3
	note D_, 1
	note C#, 1
	note D_, 1
	octave 2
	note G#, 1
	octave 3
	note D#, 1
	note D_, 1
	note D#, 1
	octave 2
	note A_, 1
	octave 3
	note E_, 1
	note D#, 1
	note E_, 1
	octave 2
	note A#, 1
	octave 3
	note E_, 1
	note F_, 1
	note F#, 1
	note G_, 1
	note __, 3
	dutycycle 2
	intensity $A6
	note C_, 1
	note __, 3
	octave 2
	note A#, 1
	note __, 3
	note B_, 2
	octave 3
	note C_, 2
	note __, 4
	note C_, 1
	note __, 3
	octave 2
	note A#, 1
	note __, 3
	note B_, 2
	octave 3
	note C_, 2
	note __, 4
	note C_, 1
	note __, 3
	octave 2
	note A#, 1
	note __, 3
	note B_, 2
	octave 3
	note C_, 4
	octave 2
	note A#, 2
	note G_, 2
	note A#, 2
	note G_, 2
	note F_, 2
	note E_, 2
	note C_, 2
	note __, 4
	octave 3
	note D_, 1
	note __, 3
	note C_, 1
	note __, 3
	note C#, 2
	note D_, 2
	note __, 4
	note D_, 1
	note __, 3
	note F_, 1
	note __, 3
	note G_, 2
	note E_, 2
	note __, 4
	note E_, 1
	note __, 3
	note D_, 1
	note __, 3
	note D#, 2
	note E_, 4
	note C_, 2
	note G_, 2
	note F_, 2
	note E_, 2
	note F_, 2
	note G_, 2
	octave 4
	note C_, 2
Music_MinibossBattle_Ch2_loop:
	octave 4
	dutycycle 1
	notetype $6, $C6
	note C#, 1
	note D_, 11
	octave 3
	note G_, 12
	note A#, 12
	note D_, 4
	note A#, 4
	note A_, 4
	note G_, 4
	note A_, 4
	note A#, 4
	note B_, 4
	octave 4
	note C_, 2
	note __, 2
	note C_, 4
	note D_, 4
	note D#, 4
	note C_, 4
	note __, 8
	dutycycle 2
	note C_, 6
	note __, 2
	note C_, 4
	note D_, 4
	note D#, 4
	note C_, 4
	note __, 8
	dutycycle 1
	octave 3
	note A_, 1
	note A#, 1
	note B_, 1
	octave 4
	note C_, 1
	note C#, 1
	note D_, 11
	octave 3
	note G_, 12
	note A_, 1
	note A#, 11
	note G_, 4
	note F#, 4
	note F_, 4
	note E_, 4
	note D#, 4
	note D_, 4
	note C#, 4
	note C_, 2
	note __, 2
	note C_, 4
	octave 2
	note A#, 4
	note G_, 4
	octave 3
	note C_, 4
	note __, 8
	dutycycle 2
	note C_, 6
	note __, 2
	note C_, 4
	note D_, 4
	note D#, 4
	note C_, 4
	note A_, 4
	note A#, 4
	octave 4
	note C_, 4
	note C#, 1
	note D_, 11
	octave 3
	note A#, 12
	note G_, 12
	note D#, 12
	note A_, 1
	note A#, 7
	note G_, 8
	note A_, 12
	note C_, 12
	note F_, 8
	dutycycle 0
	intensity $A6
	octave 4
	note C_, 2
	note __, 2
	note C_, 4
	note D_, 4
	note D#, 4
	note C_, 4
	dutycycle 2
	intensity $C6
	octave 3
	note A_, 4
	note A#, 4
	octave 4
	note C_, 4
	note C#, 1
	note D_, 11
	octave 3
	note G_, 12
	note A#, 12
	note G_, 12
	note A_, 1
	note A#, 7
	note B_, 8
	octave 4
	note C_, 12
	note F_, 16
	dutycycle 1
	note F_, 6
	note __, 2
	note F_, 4
	note G_, 4
	note G#, 4
	note F_, 4
	dutycycle 2
	intensity $A5
	vibrato $00, $13
	octave 5
	note C_, 4
	note C#, 4
	note D_, 4
	note D#, 12
	note C_, 12
	octave 4
	note G#, 12
	note D#, 12
	note G#, 2
	note __, 2
	note A#, 2
	note __, 2
	note B_, 2
	note __, 2
	octave 5
	note C_, 12
	note C#, 4
	note D#, 8
	octave 4
	note G#, 8
	octave 5
	note C_, 6
	note __, 2
	dutycycle 1
	vibrato $00, $00
	note C_, 4
	note C#, 4
	note D#, 4
	note C_, 2
	note __, 2
	dutycycle 2
	vibrato $00, $13
	note C#, 2
	note __, 2
	note D_, 2
	note __, 2
	note D#, 16
	note C_, 12
	octave 4
	note G#, 12
	note D#, 12
	octave 5
	note C_, 2
	note __, 2
	note C#, 2
	note __, 2
	note D_, 2
	note __, 2
	note D#, 12
	intensity $5D
	octave 3
	note F#, 8
	octave 4
	note D#, 8
	note C#, 8
	octave 3
	note B_, 8
	octave 4
	note C#, 8
	note D#, 8
	note F#, 8
	note F_, 12
	intensity $B7
	note E_, 2
	note D#, 2
	note C#, 16
	dutycycle 0
	octave 5
	note C#, 2
	note __, 2
	note C#, 4
	note D#, 4
	note F_, 4
	note C#, 4
	notetype $F, $B7
	note __, 8
	dutycycle 2
	octave 3
	notetype $C, $5D
	note A_, 4
	octave 4
	note F#, 4
	note E_, 4
	note D_, 4
	note E_, 4
	note F#, 4
	note D_, 4
	note G_, 6
	intensity $B7
	note A_, 1
	note A#, 1
	note B_, 10
	octave 2
	note B_, 1
	note __, 3
	note B_, 1
	note __, 3
	note B_, 1
	note __, 3
	note B_, 1
	note __, 5
	note B_, 1
	note __, 5
	octave 3
	note C_, 1
	note __, 3
	note C_, 1
	note __, 5
	note C#, 1
	note __, 5
	note D_, 1
	note __, 3
	note D#, 1
	note __, 5
	note E_, 1
	note __, 3
	note D_, 1
	note __, 3
	note D#, 2
	note E_, 2
	note __, 4
	note E_, 1
	note __, 3
	note D_, 1
	note __, 3
	note D#, 2
	note E_, 2
	note __, 4
	note E_, 1
	note __, 3
	note D_, 1
	note __, 3
	note D#, 2
	note E_, 4
	note D_, 2
	note C_, 2
	note D_, 2
	note C_, 2
	octave 2
	note A#, 2
	note G_, 2
	octave 3
	note C_, 2
	note __, 4
	note F_, 1
	note __, 3
	note D#, 1
	note __, 3
	note E_, 2
	note F_, 2
	note __, 4
	note F_, 1
	note __, 3
	note G#, 1
	note __, 3
	note G_, 2
	note E_, 2
	note __, 4
	note E_, 1
	note __, 3
	note D_, 1
	note __, 3
	note D#, 2
	note E_, 4
	note C_, 2
	note G_, 2
	note F_, 2
	note E_, 2
	note F_, 2
	note G_, 2
	octave 4
	note C_, 2
	loopchannel 0, Music_MinibossBattle_Ch2_loop

Music_MinibossBattle_Ch3:
	dutycycle 4
	octave 2
	notetype $C, $14
	note G_, 6
	note G_, 6
	note G_, 4
	note G_, 2
	note G#, 2
	note A_, 2
	note A#, 2
	note B_, 2
	octave 3
	note C_, 2
	note C#, 2
	octave 2
	note B_, 2
	note C_, 1
	note __, 1
	note C_, 1
	note __, 1
	octave 3
	note C_, 1
	note __, 1
	octave 2
	note G_, 1
	note __, 1
	note A#, 1
	note __, 1
	note A#, 1
	note __, 1
	note B_, 2
	octave 3
	note C_, 2
	octave 2
	note C_, 1
	note __, 1
	note C_, 1
	note __, 1
	octave 3
	note C_, 1
	note __, 1
	octave 2
	note G_, 1
	note __, 1
	note A#, 1
	note __, 1
	note A#, 1
	note __, 1
	note B_, 2
	octave 3
	note C_, 2
	octave 2
	note C_, 1
	note __, 1
	note C_, 1
	note __, 1
	octave 3
	note C_, 1
	note __, 1
	octave 2
	note G_, 1
	note __, 1
	note A#, 1
	note __, 1
	note A#, 1
	note __, 1
	note B_, 2
	octave 3
	note C_, 2
	octave 2
	note C_, 1
	note __, 1
	note C_, 1
	note __, 1
	octave 3
	note C_, 1
	note __, 1
	octave 2
	note G_, 1
	note __, 1
	note A#, 1
	note __, 1
	note A#, 1
	note __, 1
	note B_, 2
	octave 3
	note C_, 2
	octave 1
	note A#, 1
	note __, 1
	note A#, 1
	note __, 1
	octave 2
	note A#, 1
	note __, 1
	note F_, 1
	note __, 1
	note G#, 1
	note __, 1
	note G#, 1
	note __, 1
	note A_, 2
	note A#, 2
	octave 1
	note A#, 1
	note __, 1
	note A#, 1
	note __, 1
	octave 2
	note A#, 1
	note __, 1
	note F_, 1
	note __, 1
	note G#, 1
	note __, 1
	note G#, 1
	note __, 1
	note A#, 2
	note B_, 2
	note C_, 1
	note __, 1
	note C_, 1
	note __, 1
	octave 3
	note C_, 1
	note __, 1
	octave 2
	note G_, 1
	note __, 1
	note A#, 1
	note __, 1
	note A#, 1
	note __, 1
	note B_, 2
	octave 3
	note C_, 2
	octave 2
	note C_, 2
	octave 4
	note E_, 2
	note C_, 2
	octave 3
	note A#, 2
	note G_, 2
	note F_, 2
	note E_, 2
	note C_, 2
Music_MinibossBattle_Ch3_loop:
	octave 2
	note G_, 1
	note __, 1
	note G_, 1
	note __, 1
	octave 3
	note G_, 1
	note __, 1
	note D_, 1
	note __, 1
	note F_, 1
	note __, 1
	note F_, 1
	note __, 1
	note F#, 2
	note G_, 2
	octave 2
	note G_, 1
	note __, 1
	note G_, 1
	note __, 1
	octave 3
	note G_, 1
	note __, 1
	note D_, 1
	note __, 1
	note F_, 1
	note __, 1
	note F_, 1
	note __, 1
	note F#, 2
	note G_, 2
	octave 2
	note F_, 1
	note __, 1
	note F_, 1
	note __, 1
	octave 3
	note F_, 1
	note __, 1
	note C_, 1
	note __, 1
	note D#, 1
	note __, 1
	note D#, 1
	note __, 1
	note E_, 2
	note F_, 2
	octave 2
	note F_, 1
	note __, 1
	note F_, 1
	note __, 1
	octave 3
	note F_, 1
	note __, 1
	note C_, 1
	note __, 1
	note D#, 1
	note __, 1
	note D#, 1
	note __, 1
	note E_, 2
	note F_, 2
	octave 2
	note G_, 1
	note __, 1
	note G_, 1
	note __, 1
	octave 3
	note G_, 1
	note __, 1
	note D_, 1
	note __, 1
	note F_, 1
	note __, 1
	note F_, 1
	note __, 1
	note F#, 2
	note G_, 2
	octave 2
	note G_, 1
	note __, 1
	note G_, 1
	note __, 1
	octave 3
	note G_, 1
	note __, 1
	note D_, 1
	note __, 1
	note F_, 1
	note __, 1
	note F_, 1
	note __, 1
	note F#, 2
	note G_, 2
	octave 2
	note F_, 1
	note __, 1
	note F_, 1
	note __, 1
	octave 3
	note F_, 1
	note __, 1
	note C_, 1
	note __, 1
	note D#, 1
	note __, 1
	note D#, 1
	note __, 1
	note E_, 2
	note F_, 2
	note A_, 2
	note F_, 2
	note D#, 2
	note F_, 2
	note D#, 2
	note C_, 2
	octave 2
	note A_, 2
	note F_, 2
	note D#, 2
	note A#, 2
	octave 3
	note D#, 2
	octave 2
	note D#, 2
	note A#, 2
	octave 3
	note D#, 2
	octave 2
	note D#, 2
	octave 3
	note G_, 4
	note F_, 2
	note D#, 2
	note C_, 2
	octave 2
	note A#, 2
	note G_, 2
	note D#, 2
	note E_, 2
	note F_, 2
	octave 3
	note C_, 2
	note F_, 2
	octave 2
	note F_, 2
	octave 3
	note C_, 2
	note F_, 2
	octave 2
	note F_, 2
	octave 3
	note F_, 3
	note __, 1
	note F_, 2
	note G_, 2
	note G#, 2
	note F_, 2
	note C_, 2
	octave 2
	note A_, 2
	note F_, 2
	note D#, 2
	note A#, 2
	octave 3
	note D#, 2
	octave 2
	note D#, 2
	note A#, 2
	octave 3
	note D#, 2
	octave 2
	note D#, 2
	octave 3
	note G_, 4
	note F_, 2
	note D#, 2
	note C_, 2
	octave 2
	note A#, 2
	note G_, 2
	note D#, 2
	note E_, 2
	note F_, 2
	octave 3
	note C_, 2
	note F_, 2
	octave 2
	note F_, 2
	octave 3
	note C_, 2
	note F_, 2
	octave 2
	note F_, 2
	octave 3
	note F_, 3
	note __, 1
	note F_, 2
	note G_, 2
	note G#, 2
	note F_, 1
	note __, 1
	note F_, 1
	note __, 1
	dutycycle 6
	intensity $16
	note F#, 1
	note __, 1
	note G_, 1
	note __, 1
	note G#, 4
	note D#, 2
	octave 2
	note G#, 6
	octave 3
	note D#, 2
	note G#, 6
	note D#, 2
	octave 2
	note G#, 2
	octave 3
	note G#, 1
	note __, 1
	note G#, 1
	note __, 1
	note G_, 1
	note __, 1
	note F#, 6
	note D#, 2
	octave 2
	note F#, 6
	octave 3
	note D#, 2
	note F#, 6
	note D#, 2
	octave 2
	note F#, 2
	octave 3
	note F#, 1
	note __, 1
	note F#, 1
	note __, 1
	note G_, 1
	note __, 1
	note G#, 6
	note D#, 2
	octave 2
	note G#, 6
	octave 3
	note D#, 2
	note G#, 6
	note D#, 2
	octave 2
	note G#, 2
	octave 3
	note G#, 2
	note A_, 2
	note A#, 2
	note B_, 2
	dutycycle 4
	intensity $14
	octave 2
	note F#, 2
	note B_, 2
	note F#, 2
	note B_, 2
	note F#, 2
	note B_, 2
	note F#, 2
	note B_, 2
	note F#, 2
	note B_, 2
	note F#, 2
	note B_, 2
	note F#, 2
	note B_, 2
	note F#, 2
	note B_, 2
	note G#, 2
	octave 3
	note C#, 2
	note F_, 2
	octave 2
	note G#, 2
	octave 3
	note C#, 2
	note F_, 2
	octave 2
	note G#, 2
	octave 4
	note C#, 4
	octave 3
	note B_, 1
	note __, 1
	note G#, 1
	note __, 1
	note F#, 1
	note __, 1
	note F_, 1
	note __, 1
	note C#, 1
	note __, 1
	note F_, 1
	note __, 1
	note C#, 1
	note __, 1
	note D_, 2
	note A_, 2
	octave 4
	note D_, 2
	octave 3
	note D_, 2
	note A_, 2
	octave 4
	note D_, 2
	octave 3
	note D_, 2
	octave 4
	note D_, 2
	octave 3
	note D_, 2
	note A_, 2
	octave 4
	note D_, 2
	octave 3
	note D_, 2
	note A_, 2
	octave 4
	note D_, 2
	octave 3
	note D_, 2
	octave 4
	note D_, 2
	octave 2
	note G_, 1
	note __, 1
	note G_, 1
	note __, 1
	octave 3
	note G_, 1
	note __, 1
	octave 2
	note G_, 1
	note __, 1
	note G_, 1
	note __, 1
	note G_, 1
	note __, 1
	octave 3
	note G_, 1
	note __, 1
	octave 2
	note G_, 1
	note __, 1
	note G_, 1
	note __, 1
	octave 3
	note G_, 1
	note __, 1
	octave 2
	note G_, 1
	note __, 1
	octave 3
	note G_, 1
	note __, 1
	octave 2
	note G_, 1
	note __, 1
	octave 3
	note G_, 1
	note __, 1
	octave 2
	note G_, 1
	note __, 1
	octave 3
	note G_, 1
	note __, 1
	octave 2
	note G_, 1
	note __, 1
	note G_, 1
	note __, 1
	octave 3
	note G_, 1
	note __, 1
	octave 2
	note G_, 1
	note __, 1
	note G_, 1
	note __, 1
	octave 3
	note G#, 1
	note __, 1
	octave 2
	note G_, 1
	note __, 1
	octave 3
	note G#, 1
	note __, 1
	octave 2
	note G_, 1
	note __, 1
	note G_, 1
	note __, 1
	octave 3
	note A_, 1
	note __, 1
	octave 2
	note G_, 1
	note __, 1
	note G_, 1
	note __, 1
	octave 3
	note A#, 1
	note __, 1
	octave 2
	note G_, 1
	note __, 1
	octave 3
	note B_, 1
	octave 2
	note __, 1
	note C_, 1
	note __, 1
	note C_, 1
	note __, 1
	octave 3
	note C_, 1
	note __, 1
	octave 2
	note G_, 1
	note __, 1
	note A#, 1
	note __, 1
	note A#, 1
	note __, 1
	note B_, 2
	octave 3
	note C_, 2
	octave 2
	note C_, 1
	note __, 1
	note C_, 1
	note __, 1
	octave 3
	note C_, 1
	note __, 1
	octave 2
	note G_, 1
	note __, 1
	note A#, 1
	note __, 1
	note A#, 1
	note __, 1
	note B_, 2
	octave 3
	note C_, 2
	octave 2
	note C_, 1
	note __, 1
	note C_, 1
	note __, 1
	octave 3
	note C_, 1
	note __, 1
	octave 2
	note G_, 1
	note __, 1
	note A#, 1
	note __, 1
	note A#, 1
	note __, 1
	note B_, 2
	octave 3
	note C_, 2
	octave 2
	note C_, 2
	octave 3
	note E_, 2
	note C_, 2
	octave 2
	note A#, 2
	note G_, 2
	note F_, 2
	note E_, 2
	note C_, 2
	note C#, 1
	note __, 1
	note C#, 1
	note __, 1
	octave 3
	note C#, 1
	note __, 1
	octave 2
	note G#, 1
	note __, 1
	note B_, 1
	note __, 1
	note B_, 1
	note __, 1
	octave 3
	note C_, 2
	note C#, 2
	octave 2
	note C#, 1
	note __, 1
	note C#, 1
	note __, 1
	octave 3
	note C#, 1
	note __, 1
	octave 2
	note G#, 1
	note __, 1
	note B_, 1
	note __, 1
	note B_, 1
	note __, 1
	octave 3
	note C#, 2
	note C_, 2
	octave 2
	note C_, 1
	note __, 1
	note C_, 1
	note __, 1
	octave 3
	note C_, 1
	note __, 1
	octave 2
	note G_, 1
	note __, 1
	note A#, 1
	note __, 1
	note A#, 1
	note __, 1
	note B_, 2
	octave 3
	note C_, 2
	octave 2
	note C_, 2
	octave 3
	note E_, 2
	note C_, 2
	octave 2
	note A#, 2
	note G_, 2
	note F_, 2
	note E_, 2
	note C_, 2
	loopchannel 0, Music_MinibossBattle_Ch3_loop
	
Music_MinibossBattle_Ch4:
	endchannel 0	

