Music_Oasis:
	musicheader 3, 1, Music_Oasis_Ch1
	musicheader 1, 2, Music_Oasis_Ch2
	musicheader 1, 3, Music_Oasis_Ch3
;	musicheader 1, 4, Music_Mountaintop_Ch3
	
Music_Oasis_Ch1:
	tempo $FE
	volume $77
	stereopanning $77
	note __, 12
	notetype $C, $00
Music_Oasis_Ch1_loop:
	note __, 8
	note __, 16
	dutycycle 2
	intensity $82
	octave 1
	note F_, 3
	note __, 1
	note F_, 4
	note __, 2
	note F_, 2
	note F_, 4
	note __, 6
	dutycycle 0
	intensity $75
	octave 4
	note C_, 1
	note F_, 1
	note A_, 8
	note __, 2
	octave 3
	note A_, 1
	octave 4
	note C_, 1
	note F_, 8
	note __, 4
	dutycycle 2
	intensity $82
	octave 1
	note A#, 3
	note __, 1
	note A#, 4
	note __, 2
	note A#, 2
	note A#, 4
	note __, 6
	dutycycle 0
	intensity $75
	octave 4
	note F_, 1
	note A#, 1
	octave 5
	note D_, 8
	note __, 2
	octave 4
	note D_, 1
	note F_, 1
	note A#, 8
	note __, 4
	dutycycle 2
	intensity $82
	octave 1
	note F_, 3
	note __, 1
	note F_, 4
	note __, 2
	note F_, 2
	note F_, 4
	note __, 6
	dutycycle 0
	intensity $75
	octave 4
	note C_, 1
	note F_, 1
	note A_, 8
	note __, 2
	octave 3
	note A_, 1
	octave 4
	note C_, 1
	note F_, 8
	note __, 4
	dutycycle 2
	intensity $82
	octave 1
	note F_, 3
	note __, 1
	note F_, 4
	note __, 2
	note F_, 2
	note F_, 4
	note __, 6
	dutycycle 0
	intensity $75
	octave 4
	note C_, 1
	note F_, 1
	note A_, 8
	note __, 2
	octave 3
	note A_, 1
	octave 4
	note C_, 1
	note F_, 8
	note __, 4
	dutycycle 2
	intensity $82
	octave 1
	note D_, 3
	note __, 1
	note D_, 4
	note __, 2
	note D_, 2
	note D_, 4
	note __, 6
	dutycycle 0
	intensity $75
	octave 4
	note D_, 1
	note F_, 1
	note A_, 8
	note __, 2
	octave 3
	note A_, 1
	octave 4
	note D_, 1
	note F_, 8
	note __, 4
	dutycycle 2
	intensity $82
	octave 1
	note G_, 3
	note __, 1
	note G_, 4
	note __, 2
	note G_, 2
	note G_, 4
	note __, 6
	dutycycle 0
	intensity $75
	octave 4
	note D_, 1
	note G_, 1
	note A#, 8
	note __, 2
	octave 3
	note A#, 1
	octave 4
	note E_, 1
	note G_, 8
	note __, 4
	dutycycle 2
	intensity $82
	octave 1
	note F_, 3
	note __, 1
	note F_, 4
	note __, 2
	note F_, 2
	note F_, 4
	note __, 8
	loopchannel 0, Music_Oasis_Ch1_loop
	
Music_Oasis_Ch2:
	notetype $C, $00
Music_Oasis_Ch2_loop:
	note __, 8
	note __, 16
	dutycycle 2
	intensity $A2
	octave 1
	note F_, 3
	note __, 1
	note F_, 4
	note __, 2
	note F_, 2
	note F_, 4
	note __, 6
	dutycycle 0
	intensity $85
	octave 4
	note C_, 1
	note F_, 1
	note A_, 8
	note __, 2
	octave 3
	note A_, 1
	octave 4
	note C_, 1
	note F_, 8
	note __, 4
	dutycycle 2
	intensity $A2
	octave 1
	note A#, 3
	note __, 1
	note A#, 4
	note __, 2
	note A#, 2
	note A#, 4
	note __, 6
	dutycycle 0
	intensity $85
	octave 4
	note F_, 1
	note A#, 1
	octave 5
	note D_, 8
	note __, 2
	octave 4
	note D_, 1
	note F_, 1
	note A#, 8
	note __, 4
	dutycycle 2
	intensity $A2
	octave 1
	note F_, 3
	note __, 1
	note F_, 4
	note __, 2
	note F_, 2
	note F_, 4
	note __, 6
	dutycycle 0
	intensity $85
	octave 4
	note C_, 1
	note F_, 1
	note A_, 8
	note __, 2
	octave 3
	note A_, 1
	octave 4
	note C_, 1
	note F_, 8
	note __, 4
	dutycycle 2
	intensity $A2
	octave 1
	note F_, 3
	note __, 1
	note F_, 4
	note __, 2
	note F_, 2
	note F_, 4
	note __, 6
	dutycycle 0
	intensity $85
	octave 4
	note C_, 1
	note F_, 1
	note A_, 8
	note __, 2
	octave 3
	note A_, 1
	octave 4
	note C_, 1
	note F_, 8
	note __, 4
	dutycycle 2
	intensity $A2
	octave 1
	note D_, 3
	note __, 1
	note D_, 4
	note __, 2
	note D_, 2
	note D_, 4
	note __, 6
	dutycycle 0
	intensity $85
	octave 4
	note D_, 1
	note F_, 1
	note A_, 8
	note __, 2
	octave 3
	note A_, 1
	octave 4
	note D_, 1
	note F_, 8
	note __, 4
	dutycycle 2
	intensity $A2
	octave 1
	note G_, 3
	note __, 1
	note G_, 4
	note __, 2
	note G_, 2
	note G_, 4
	note __, 6
	dutycycle 0
	intensity $85
	octave 4
	note D_, 1
	note G_, 1
	note A#, 8
	note __, 2
	octave 3
	note A#, 1
	octave 4
	note E_, 1
	note G_, 8
	note __, 4
	dutycycle 2
	intensity $A2
	octave 1
	note F_, 3
	note __, 1
	note F_, 4
	note __, 2
	note F_, 2
	note F_, 4
	note __, 8
	loopchannel 0, Music_Oasis_Ch2_loop
	
Music_Oasis_Ch3:
	vibrato $9, $27
	dutycycle $20
	notetype $c, $c7
Music_Oasis_Ch3_loop:
	intensity $11
	octave 3
	note F_, 2
	intensity $31
	note F_, 2
	note __, 2
	loopchannel 0, Music_Oasis_Ch3_loop
