Music_Obscura:
	channel_count 4
	channel 1, Music_Obscura_Ch1
	channel 2, Music_Obscura_Ch2
	channel 3, Music_Obscura_Ch3
	channel 4, Music_Obscura_Ch4

Music_Obscura_Ch1:
	volume 7, 7
	note_type 12, 11, 7
	tempo 147
	octave 2
	vibrato 16, 4, 6
	duty_cycle 2
	note C#, 4
	rest 2
	note C#, 1
	rest 1
	note G#, 4
	rest 2
	note G#, 1
	rest 1
	note C#, 4
	rest 2
	note C#, 1
	rest 1
	note F_, 1
	rest 1
	note G#, 1
	rest 1
	note F_, 3
	rest 1
	octave 1
	note B_, 4
	rest 2
	note B_, 1
	rest 1
	octave 2
	note F#, 4
	rest 2
	note F#, 1
	rest 3
	note D#, 1
	rest 3
	octave 1
	note B_, 6
	rest 4
.mainloop:
	octave 2
	note C#, 4
	rest 2
	note C#, 1
	rest 1
	note G#, 4
	rest 2
	note G#, 1
	rest 1
	note C#, 4
	rest 2
	note C#, 1
	rest 1
	note F_, 1
	rest 1
	note G#, 1
	rest 1
	note F_, 4
	note A#, 4
	rest 2
	note A#, 1
	rest 1
	note D#, 4
	rest 2
	note D#, 1
	rest 1
	note A#, 4
	rest 2
	note A#, 1
	rest 3
	note D#, 1
	rest 1
	note D#, 4
	note A#, 4
	rest 2
	note A#, 1
	rest 1
	note D#, 4
	rest 2
	note A#, 1
	rest 1
	note A#, 4
	rest 2
	note A#, 1
	rest 1
	note A#, 1
	rest 1
	note D#, 4
	note F#, 1
	rest 1
	note G#, 4
	rest 2
	note G#, 1
	rest 1
	note G#, 1
	rest 1
	note D#, 2
	rest 2
	note G#, 2
	rest 16
	note C#, 4
	rest 2
	note C#, 1
	rest 1
	note G#, 4
	rest 2
	note G#, 1
	rest 1
	note C#, 4
	rest 2
	note C#, 1
	rest 1
	note F_, 1
	rest 1
	note G#, 1
	rest 1
	note F_, 4
	note A#, 4
	rest 2
	note A#, 1
	rest 1
	note D#, 4
	rest 2
	note D#, 1
	rest 1
	note A#, 4
	rest 2
	note A#, 1
	rest 3
	note D#, 1
	rest 1
	note D#, 4
	note A#, 4
	rest 2
	note A#, 1
	rest 1
	note D#, 4
	rest 2
	note A#, 1
	rest 1
	note A#, 4
	rest 2
	note A#, 1
	rest 1
	note A#, 1
	rest 1
	note D#, 4
	note F#, 1
	rest 1
	note G#, 4
	rest 2
	note G#, 1
	rest 1
	note G#, 1
	rest 1
	note D#, 2
	rest 2
	note G#, 2
	rest 16
	note F#, 4
	rest 2
	note F#, 1
	rest 1
	note C#, 4
	rest 2
	note C#, 1
	rest 3
	note C#, 2
	rest 2
	note F#, 2
	note A#, 2
	note F#, 1
	rest 1
	note C#, 3
	rest 1
	note G#, 4
	rest 2
	note G#, 1
	rest 1
	note D#, 4
	rest 2
	note D#, 1
	rest 1
	note A#, 4
	rest 2
	note A#, 1
	rest 3
	note F_, 2
	note A#, 1
	rest 1
	note F_, 1
	rest 1
	note F#, 4
	rest 2
	note F#, 1
	rest 1
	note C#, 4
	rest 2
	note F#, 1
	rest 3
	note F#, 1
	rest 3
	note F#, 3
	rest 1
	note F#, 3
	rest 1
	note F#, 2
	note F_, 4
	rest 2
	note C#, 1
	rest 1
	note C#, 4
	rest 2
	note C#, 1
	rest 1
	note C_, 4
	rest 2
	note D#, 1
	rest 1
	note G#, 4
	rest 2
	note G#, 1
	rest 1
	note F#, 4
	rest 2
	note F#, 1
	rest 1
	note C#, 4
	rest 2
	note C#, 1
	rest 3
	note C#, 2
	rest 2
	note F#, 2
	note A#, 2
	note F#, 1
	rest 1
	note C#, 3
	rest 1
	note G#, 4
	rest 2
	note G#, 1
	rest 1
	note D#, 4
	rest 2
	note D#, 1
	rest 1
	note A#, 4
	rest 2
	note A#, 1
	rest 3
	note F_, 2
	note A#, 1
	rest 1
	note F_, 1
	rest 1
	note F#, 4
	rest 2
	note F#, 1
	rest 1
	note C#, 4
	rest 2
	note F#, 1
	rest 3
	note D#, 2
	rest 2
	note D#, 1
	rest 3
	note G_, 2
	rest 2
	note G_, 1
	rest 1
	note G#, 4
	rest 2
	note C#, 1
	rest 3
	note C#, 2
	rest 2
	note D#, 1
	rest 1
	note C_, 4
	rest 2
	note D#, 1
	rest 1
	note G#, 4
	rest 2
	note G#, 1
	rest 1
	sound_loop 0, .mainloop

Music_Obscura_Ch2:
	note_type 12, 9, 7
	octave 3
	vibrato 18, 3, 4
	duty_cycle 1
	note G#, 1
	rest 3
	note G#, 2
	rest 4
	note F_, 2
	rest 2
	note G#, 1
	rest 3
	note G#, 1
	rest 3
	note G#, 2
	rest 2
	note F_, 2
	rest 2
	note F_, 1
	rest 1
	note F#, 1
	rest 3
	note F#, 2
	rest 4
	note D#, 2
	rest 2
	note F#, 1
	rest 3
	note F#, 1
	rest 3
	note F#, 6
	rest 4
.mainloop:
	note G#, 1
	rest 3
	note G#, 2
	rest 4
	note F_, 2
	rest 2
	note G#, 1
	rest 3
	note G#, 1
	rest 3
	note G#, 2
	rest 2
	note F_, 2
	rest 2
	note F_, 1
	rest 1
	note G_, 1
	rest 3
	note G_, 2
	rest 4
	note D#, 2
	rest 2
	note G_, 1
	rest 3
	note G_, 1
	rest 3
	note G_, 2
	rest 2
	note A#, 2
	rest 2
	note G_, 1
	rest 1
	note F#, 1
	rest 3
	note F#, 2
	rest 4
	note D#, 2
	rest 2
	note F#, 1
	rest 3
	note F#, 1
	rest 3
	note F#, 2
	rest 2
	note A#, 2
	rest 2
	note F#, 1
	rest 1
	note G#, 1
	rest 3
	note D#, 2
	rest 4
	note C_, 2
	rest 2
	note C_, 1
	rest 16
	rest 1
	note G#, 1
	rest 3
	note G#, 2
	rest 4
	note F_, 2
	rest 2
	note G#, 1
	rest 3
	note G#, 1
	rest 3
	note G#, 2
	rest 2
	note F_, 2
	rest 2
	note F_, 1
	rest 1
	note G_, 1
	rest 3
	note G_, 2
	rest 4
	note D#, 2
	rest 2
	note G_, 1
	rest 3
	note G_, 1
	rest 3
	note G_, 2
	rest 2
	note A#, 2
	rest 2
	note G_, 1
	rest 1
	note F#, 1
	rest 3
	note F#, 2
	rest 4
	note D#, 2
	rest 2
	note F#, 1
	rest 3
	note F#, 1
	rest 3
	note F#, 2
	rest 2
	note A#, 2
	rest 2
	note F#, 1
	rest 1
	note G#, 1
	rest 3
	note D#, 2
	rest 4
	note C_, 2
	rest 2
	note C_, 1
	rest 16
	rest 1
	note F#, 1
	rest 3
	note F#, 2
	rest 4
	note C#, 2
	rest 2
	note C#, 1
	rest 3
	note A#, 1
	rest 3
	note A#, 2
	rest 2
	note F#, 2
	rest 2
	note F#, 1
	rest 1
	note D#, 1
	rest 3
	note D#, 2
	rest 4
	note G#, 2
	rest 2
	note G#, 1
	rest 1
	note A#, 1
	rest 1
	note F_, 2
	rest 2
	note D_, 2
	rest 2
	octave 2
	note A#, 2
	rest 2
	octave 3
	note F_, 1
	rest 1
	note A#, 1
	rest 3
	note A#, 2
	rest 4
	note F#, 2
	rest 2
	note C#, 1
	rest 3
	note F#, 1
	rest 3
	note D#, 2
	rest 2
	note C_, 2
	rest 2
	note C_, 1
	rest 1
	note C#, 1
	rest 3
	note C#, 2
	rest 4
	note F_, 2
	rest 2
	note C#, 1
	rest 3
	note D#, 1
	rest 3
	note D#, 2
	rest 2
	note D#, 2
	rest 2
	note F_, 2
	note F#, 1
	rest 3
	note F#, 2
	rest 4
	note C#, 2
	rest 2
	note C#, 1
	rest 3
	note A#, 1
	rest 3
	note A#, 2
	rest 2
	note F#, 2
	rest 2
	note F#, 1
	rest 1
	note D#, 1
	rest 3
	note D#, 2
	rest 4
	note G#, 2
	rest 2
	note G#, 1
	rest 1
	note A#, 1
	rest 1
	note F_, 2
	rest 2
	note D_, 2
	rest 2
	octave 2
	note A#, 2
	rest 2
	octave 3
	note F_, 1
	rest 1
	note A#, 1
	rest 3
	note A#, 2
	rest 4
	note F#, 2
	rest 2
	note C#, 1
	rest 3
	note A#, 1
	rest 3
	note G_, 2
	rest 2
	note D#, 2
	rest 2
	note D#, 1
	rest 1
	note G#, 1
	rest 3
	note G#, 2
	rest 4
	note C#, 2
	rest 2
	note C#, 1
	rest 3
	note D#, 1
	rest 3
	note D#, 2
	rest 2
	note D#, 2
	rest 2
	note C_, 2
	sound_loop 0, .mainloop

Music_Obscura_Ch3:
	note_type 12, 1, 2
	octave 5
	vibrato 18, 2, 4
	note C#, 1
	rest 3
	note C#, 2
	rest 4
	octave 4
	note G#, 2
	rest 2
	octave 5
	note C#, 1
	rest 3
	note C#, 1
	rest 3
	note C#, 2
	rest 2
	octave 4
	note G#, 2
	rest 2
	note A#, 1
	rest 1
	note B_, 1
	rest 3
	note B_, 2
	rest 4
	note F#, 2
	rest 2
	note B_, 1
	rest 3
	note B_, 1
	rest 3
	vibrato 24, 2, 4
	note B_, 6
	rest 4
.mainloop:
	octave 5
	volume_envelope 1, 3
	vibrato 18, 2, 4
	note C#, 2
	rest 4
	note C_, 2
	note C#, 2
	octave 4
	note G#, 2
	rest 2
	octave 5
	note D#, 2
	rest 2
	note C#, 2
	rest 2
	note C_, 2
	rest 2
	octave 4
	note A#, 6
	octave 5
	note D#, 2
	rest 4
	note C#, 2
	note D#, 2
	octave 4
	note A#, 2
	rest 2
	octave 5
	note F_, 2
	rest 2
	note D#, 2
	rest 2
	note C#, 2
	rest 2
	note C_, 6
	note D#, 2
	rest 4
	note F_, 2
	note D#, 2
	octave 4
	note A#, 2
	rest 2
	octave 5
	note F_, 2
	rest 2
	note F#, 2
	note F_, 2
	octave 4
	note A#, 2
	rest 2
	octave 5
	note C#, 6
	note C_, 2
	rest 4
	note C#, 2
	note C_, 2
	octave 4
	note A#, 2
	rest 2
	note G#, 2
	rest 16
	octave 5
	note C#, 2
	rest 4
	note C_, 2
	note C#, 2
	octave 4
	note G#, 2
	rest 2
	octave 5
	note D#, 2
	rest 2
	note C#, 2
	rest 2
	note C_, 2
	rest 2
	octave 4
	note A#, 6
	octave 5
	note D#, 2
	rest 4
	note C#, 2
	note D#, 2
	octave 4
	note A#, 2
	rest 2
	octave 5
	note F_, 2
	rest 2
	note D#, 2
	rest 2
	note C#, 2
	rest 2
	note C_, 6
	note D#, 2
	rest 4
	note F_, 2
	note D#, 2
	octave 4
	note A#, 2
	rest 2
	octave 5
	note F_, 2
	rest 2
	note F#, 2
	note F_, 2
	octave 4
	note A#, 2
	rest 2
	octave 5
	note C#, 6
	note C_, 2
	rest 4
	note C#, 2
	note C_, 2
	octave 4
	note A#, 2
	rest 2
	octave 5
	note G#, 2
	octave 4
	vibrato 24, 2, 5
	volume_envelope 2, 5
	rest 8
	octave 4
	note G#, 1
	octave 5
	note C_, 1
	note D#, 1
	note G#, 1
	note C_, 1
	note D#, 1
	note G#, 1
	octave 6
	note C_, 1
	octave 5
	note A#, 10
	note C#, 2
	note D#, 2
	note F_, 2
	note F#, 2
	note F_, 1
	rest 3
	note F#, 5
	note_type 6, 2, 5
	note G#, 1
	note A_, 1
	note_type 12, 2, 5
	note A#, 4
	note G#, 10
	note C_, 2
	note D_, 2
	note D#, 2
	note D_, 2
	note C_, 2
	rest 2
	octave 4
	note A#, 10
	octave 5
	note F#, 10
	octave 4
	note A#, 2
	octave 5
	note C_, 2
	note C#, 2
	note D#, 2
	note C#, 1
	rest 3
	note D#, 5
	note_type 6, 2, 5
	note E_, 1
	note F_, 1
	note_type 12, 2, 5
	note F#, 4
	note F_, 6
	note D#, 6
	note C#, 4
	note G#, 16
	note A#, 10
	note C#, 2
	note D#, 2
	note F_, 2
	note F#, 2
	note F_, 1
	rest 3
	note F#, 5
	note_type 6, 2, 5
	note G#, 1
	note A_, 1
	note_type 12, 2, 5
	note A#, 4
	note G#, 10
	note C_, 2
	note D_, 2
	note D#, 2
	note D_, 2
	note C_, 2
	rest 2
	octave 4
	note A#, 10
	octave 5
	note F#, 7
	rest 3
	octave 4
	note A#, 2
	octave 5
	note C#, 2
	note F#, 2
	note G_, 2
	note F_, 1
	rest 3
	note D#, 6
	octave 4
	note A#, 4
	octave 5
	note C#, 6
	note D#, 6
	note C#, 4
	note C_, 6
	octave 4
	note A#, 1
	octave 5
	note C_, 1
	octave 4
	note G#, 8
	sound_loop 0, .mainloop

Music_Obscura_Ch4:
	toggle_noise 1
	drum_speed 12
	toggle_noise
	toggle_noise 3
	drum_note 3, 4
	drum_note 7, 6
	drum_note 7, 4
	drum_note 3, 4
	drum_note 7, 2
	drum_note 7, 2
	octave 8
	drum_note 3, 4
	drum_note 7, 4
	drum_note 3, 2
	drum_note 3, 4
	drum_note 7, 6
	drum_note 7, 4
	drum_note 3, 4
	drum_note 7, 4
	drum_note 7, 6
	drum_note 3, 2
	drum_note 3, 2
.mainloop:
	drum_note 4, 2
	drum_note 7, 2
	drum_note 3, 2
	octave 8
	drum_note 4, 2
	drum_note 4, 2
	drum_note 7, 2
	drum_note 3, 2
	drum_note 7, 2
	drum_note 4, 2
	drum_note 7, 2
	drum_note 3, 2
	drum_note 4, 2
	drum_note 4, 2
	drum_note 7, 2
	drum_note 3, 2
	drum_note 3, 2
	drum_note 4, 2
	drum_note 7, 2
	drum_note 3, 2
	octave 8
	drum_note 4, 2
	drum_note 4, 2
	drum_note 7, 2
	drum_note 3, 2
	drum_note 7, 2
	drum_note 4, 2
	drum_note 7, 2
	drum_note 3, 2
	drum_note 4, 2
	drum_note 4, 2
	drum_note 7, 2
	drum_note 3, 2
	drum_note 3, 2
	drum_note 4, 2
	drum_note 7, 2
	drum_note 3, 2
	octave 8
	drum_note 4, 2
	drum_note 4, 2
	drum_note 7, 2
	drum_note 3, 2
	drum_note 7, 2
	drum_note 4, 2
	drum_note 7, 2
	drum_note 3, 2
	drum_note 4, 2
	drum_note 4, 2
	drum_note 7, 2
	drum_note 3, 2
	drum_note 3, 2
	drum_note 4, 2
	drum_note 7, 2
	drum_note 3, 2
	octave 8
	drum_note 4, 2
	drum_note 4, 2
	drum_note 7, 2
	drum_note 3, 2
	drum_note 7, 2
	drum_note 4, 2
	drum_note 7, 2
	drum_note 3, 2
	drum_note 4, 2
	drum_note 4, 2
	drum_note 7, 2
	drum_note 3, 2
	drum_note 3, 2
	drum_note 4, 2
	drum_note 7, 2
	drum_note 3, 2
	octave 8
	drum_note 4, 2
	drum_note 4, 2
	drum_note 7, 2
	drum_note 3, 2
	drum_note 7, 2
	drum_note 4, 2
	drum_note 7, 2
	drum_note 3, 2
	drum_note 4, 2
	drum_note 4, 2
	drum_note 7, 2
	drum_note 3, 2
	drum_note 3, 2
	drum_note 4, 2
	drum_note 7, 2
	drum_note 3, 2
	octave 8
	drum_note 4, 2
	drum_note 4, 2
	drum_note 7, 2
	drum_note 3, 2
	drum_note 7, 2
	drum_note 4, 2
	drum_note 7, 2
	drum_note 3, 2
	drum_note 4, 2
	drum_note 4, 2
	drum_note 7, 2
	drum_note 3, 2
	drum_note 3, 2
	drum_note 4, 2
	drum_note 7, 2
	drum_note 3, 2
	octave 8
	drum_note 4, 2
	drum_note 4, 2
	drum_note 7, 2
	drum_note 3, 2
	drum_note 7, 2
	drum_note 4, 2
	drum_note 7, 2
	drum_note 3, 2
	drum_note 4, 2
	drum_note 4, 2
	drum_note 7, 2
	drum_note 3, 2
	drum_note 3, 2
	drum_note 4, 2
	drum_note 7, 2
	drum_note 3, 2
	octave 8
	drum_note 4, 2
	drum_note 4, 2
	drum_note 7, 2
	drum_note 3, 2
	drum_note 7, 2
	drum_note 4, 2
	drum_note 7, 2
	drum_note 3, 2
	drum_note 4, 2
	drum_note 4, 2
	drum_note 7, 2
	drum_note 3, 2
	drum_note 3, 2
	drum_note 4, 2
	drum_note 7, 2
	drum_note 3, 2
	octave 8
	drum_note 4, 2
	drum_note 4, 2
	drum_note 7, 2
	drum_note 3, 2
	drum_note 7, 2
	drum_note 4, 2
	drum_note 7, 2
	drum_note 3, 2
	drum_note 4, 2
	drum_note 4, 2
	drum_note 7, 2
	drum_note 3, 2
	drum_note 3, 2
	drum_note 4, 2
	drum_note 7, 2
	drum_note 3, 2
	octave 8
	drum_note 4, 2
	drum_note 4, 2
	drum_note 7, 2
	drum_note 3, 2
	drum_note 7, 2
	drum_note 4, 2
	drum_note 7, 2
	drum_note 3, 2
	drum_note 4, 2
	drum_note 4, 2
	drum_note 7, 2
	drum_note 3, 2
	drum_note 3, 2
	drum_note 4, 2
	drum_note 7, 2
	drum_note 3, 2
	octave 8
	drum_note 4, 2
	drum_note 4, 2
	drum_note 7, 2
	drum_note 3, 2
	drum_note 7, 2
	drum_note 4, 2
	drum_note 7, 2
	drum_note 3, 2
	drum_note 4, 2
	drum_note 4, 2
	drum_note 7, 2
	drum_note 3, 2
	drum_note 3, 2
	drum_note 4, 2
	drum_note 7, 2
	drum_note 3, 2
	octave 8
	drum_note 4, 2
	drum_note 4, 2
	drum_note 7, 2
	drum_note 3, 2
	drum_note 7, 2
	drum_note 4, 2
	drum_note 7, 2
	drum_note 3, 2
	drum_note 4, 2
	drum_note 4, 2
	drum_note 7, 2
	drum_note 3, 2
	drum_note 3, 2
	drum_note 4, 2
	drum_note 7, 2
	drum_note 3, 2
	octave 8
	drum_note 4, 2
	drum_note 4, 2
	drum_note 7, 2
	drum_note 3, 2
	drum_note 7, 2
	drum_note 4, 2
	drum_note 7, 2
	drum_note 3, 2
	drum_note 4, 2
	drum_note 4, 2
	drum_note 7, 2
	drum_note 3, 2
	drum_note 3, 2
	drum_note 4, 2
	drum_note 7, 2
	drum_note 3, 2
	octave 8
	drum_note 4, 2
	drum_note 4, 2
	drum_note 7, 2
	drum_note 3, 2
	drum_note 7, 2
	drum_note 4, 2
	drum_note 7, 2
	drum_note 3, 2
	drum_note 4, 2
	drum_note 4, 2
	drum_note 7, 2
	drum_note 3, 2
	drum_note 3, 2
	drum_note 4, 2
	drum_note 7, 2
	drum_note 3, 2
	octave 8
	drum_note 4, 2
	drum_note 4, 2
	drum_note 7, 2
	drum_note 3, 2
	drum_note 7, 2
	drum_note 4, 2
	drum_note 7, 2
	drum_note 3, 2
	drum_note 4, 2
	drum_note 4, 2
	drum_note 7, 2
	drum_note 3, 2
	drum_note 3, 2
	drum_note 4, 2
	drum_note 7, 2
	drum_note 3, 2
	octave 8
	drum_note 4, 2
	drum_note 4, 2
	drum_note 7, 2
	drum_note 3, 2
	drum_note 7, 2
	drum_note 4, 2
	drum_note 7, 2
	drum_note 3, 2
	drum_note 4, 2
	drum_note 4, 2
	drum_note 7, 2
	drum_note 3, 2
	drum_note 3, 2
	sound_loop 0, .mainloop
