Music_PokemonCenter:
	musicheader 4, 1, Music_PokemonCenter_Ch1
	musicheader 1, 2, Music_PokemonCenter_Ch2
	musicheader 1, 3, Music_PokemonCenter_Ch3
	musicheader 1, 4, Music_PokemonCenter_Ch4

Music_PokemonCenter_Ch1:
	tempo 160
	volume $77
	stereopanning $77
Music_PokemonCenter_Ch1_loop:
	octave 3
	notetype $C, $75
	note F#, 1
	note __, 1
	note F#, 1
	note __, 1
	note F#, 1
	note __, 1
	note F#, 1
	note __, 1
	note F#, 1
	note __, 1
	note F#, 1
	note __, 1
	note D_, 1
	note __, 1
	note D_, 1
	note __, 1
	note E_, 1
	note __, 1
	note E_, 1
	note __, 1
	note E_, 1
	note __, 1
	note G_, 1
	note __, 1
	note G_, 1
	note __, 1
	note G_, 1
	note __, 1
	note F#, 1
	note __, 1
	note F#, 1
	note __, 1
	note E_, 1
	note __, 1
	note E_, 1
	note __, 1
	note E_, 1
	note __, 1
	note A_, 1
	note __, 1
	note A_, 1
	note __, 1
	note A_, 1
	note __, 1
	note G_, 1
	note __, 1
	note G_, 1
	note __, 1
	note F#, 1
	note __, 1
	note F#, 1
	note __, 1
	note F#, 1
	note __, 1
	note A_, 1
	note __, 1
	note A_, 1
	note __, 1
	note A_, 1
	note __, 1
	note D_, 1
	note __, 1
	note D_, 1
	note __, 1
	note F#, 1
	note __, 1
	note F#, 1
	note __, 1
	note F#, 1
	note __, 1
	note F#, 1
	note __, 1
	note F#, 1
	note __, 1
	note F#, 1
	note __, 1
	note D_, 1
	note __, 1
	note D_, 1
	note __, 1
	note E_, 1
	note __, 1
	note E_, 1
	note __, 1
	note E_, 1
	note __, 1
	note G_, 1
	note __, 1
	note G_, 1
	note __, 1
	note G_, 1
	note __, 1
	note F#, 1
	note __, 1
	note F#, 1
	note __, 1
	note E_, 1
	note __, 1
	note E_, 1
	note __, 1
	note E_, 1
	note __, 1
	note A_, 1
	note __, 1
	note A_, 1
	note __, 1
	note A_, 1
	note __, 1
	note G_, 1
	note __, 1
	note G_, 1
	note __, 1
	note F#, 1
	note __, 1
	note F#, 1
	note __, 1
	note F#, 1
	note __, 1
	note A_, 1
	note __, 1
	note A_, 1
	note __, 1
	note A_, 1
	note __, 1
	note D_, 1
	note __, 1
	note D_, 1
	note __, 1
	intensity $A7
	note A_, 6
	octave 4
	note F#, 4
	dutycycle 2
	note A_, 2
	octave 5
	note D_, 4
	intensity $75
	octave 3
	note B_, 1
	note __, 1
	note B_, 1
	note __, 1
	note B_, 1
	note __, 1
	note G_, 1
	note __, 1
	note G_, 1
	note __, 1
	note G_, 1
	note __, 1
	note E_, 1
	note __, 1
	note E_, 1
	note __, 1
	dutycycle 1
	intensity $A7
	note A_, 6
	octave 4
	note C#, 4
	dutycycle 2
	note E_, 2
	note A_, 4
	dutycycle 0
	intensity $75
	octave 3
	note A_, 1
	note __, 1
	note A_, 1
	note __, 1
	note A_, 1
	note __, 1
	note F#, 1
	note __, 1
	note F#, 1
	note __, 1
	note F#, 1
	note __, 1
	note D_, 1
	note __, 1
	note D_, 1
	note __, 1
	dutycycle 1
	intensity $A7
	note A_, 6
	octave 4
	note F#, 4
	dutycycle 2
	note A_, 2
	octave 5
	note D_, 4
	dutycycle 0
	intensity $75
	octave 3
	note B_, 1
	note __, 1
	note B_, 1
	note __, 1
	note B_, 1
	note __, 1
	octave 4
	note C#, 1
	note __, 1
	note D_, 1
	note __, 1
	note D_, 1
	note __, 1
	octave 3
	note G#, 1
	note __, 1
	note G#, 1
	note __, 1
	octave 4
	note C#, 1
	note __, 1
	note C#, 1
	note __, 1
	note C#, 1
	note __, 1
	octave 3
	note A_, 1
	note __, 1
	note A_, 1
	note __, 1
	octave 4
	note C#, 1
	note __, 1
	octave 3
	note B_, 1
	note __, 1
	note A_, 1
	note __, 1
	octave 4
	note D_, 1
	note __, 1
	note D_, 1
	note __, 1
	note D_, 1
	note __, 1
	octave 3
	note A_, 1
	note __, 1
	note A_, 1
	note __, 1
	note A_, 1
	note __, 1
	note D_, 1
	note __, 1
	note E_, 1
	note __, 1
	loopchannel 0, Music_PokemonCenter_Ch1_loop

Music_PokemonCenter_Ch2:
Music_PokemonCenter_Ch2_loop:
	dutycycle 2
	vibrato $00, $22
	octave 4
	notetype $C, $C7
	note D_, 2
	octave 3
	note A_, 2
	octave 4
	note D_, 2
	note A_, 4
	note G_, 4
	note F#, 2
	note E_, 2
	note C#, 2
	note __, 2
	dutycycle 1
	intensity $97
	vibrato $00, $00
	note A_, 2
	note __, 2
	octave 5
	note A_, 2
	octave 4
	note A_, 2
	note __, 2
	dutycycle 2
	intensity $C7
	vibrato $00, $22
	note C#, 2
	octave 3
	note A_, 2
	octave 4
	note C#, 2
	note F#, 4
	note E_, 4
	note C#, 2
	note D_, 2
	note F#, 2
	note __, 2
	dutycycle 1
	intensity $97
	vibrato $00, $00
	note A_, 2
	note __, 2
	octave 5
	note A_, 2
	octave 4
	note A_, 2
	note __, 2
	dutycycle 2
	intensity $C7
	vibrato $00, $22
	note D_, 2
	octave 3
	note A_, 2
	octave 4
	note D_, 2
	note A_, 4
	note G_, 4
	note F#, 2
	note E_, 2
	note C#, 2
	note __, 2
	dutycycle 1
	intensity $97
	vibrato $00, $00
	note A_, 2
	note __, 2
	octave 5
	note A_, 2
	octave 4
	note A_, 2
	note __, 2
	dutycycle 2
	intensity $C7
	vibrato $00, $22
	note C#, 2
	octave 3
	note A_, 2
	octave 4
	note C#, 2
	note F#, 4
	note E_, 4
	note C#, 2
	note D_, 8
	note __, 8
	dutycycle 1
	note F#, 6
	note A_, 10
	note G_, 2
	note A_, 2
	note G_, 2
	note F#, 2
	note E_, 8
	note C#, 6
	note E_, 10
	note F#, 2
	note G_, 2
	note F#, 2
	note E_, 2
	note D_, 8
	note F#, 6
	note A_, 10
	note G_, 2
	note F#, 2
	note G_, 2
	note A_, 2
	note B_, 8
	note A_, 4
	note G_, 2
	note F#, 2
	note G_, 8
	note F#, 2
	note G_, 2
	note F#, 2
	note E_, 2
	note D_, 8
	loopchannel 0, Music_PokemonCenter_Ch2_loop

Music_PokemonCenter_Ch3:
Music_PokemonCenter_Ch3_loop:
	dutycycle 4
	octave 3
	notetype $C, $14
	note D_, 2
	note __, 2
	octave 4
	note D_, 2
	octave 3
	note D_, 2
	note __, 2
	octave 4
	note D_, 2
	octave 3
	note A_, 2
	note D_, 2
	octave 2
	note A_, 2
	note __, 2
	octave 3
	note A_, 2
	octave 2
	note A_, 2
	note B_, 2
	octave 3
	note C#, 2
	note D_, 2
	note E_, 2
	octave 2
	note A_, 2
	note __, 2
	octave 3
	note A_, 2
	octave 2
	note A_, 2
	note __, 2
	octave 3
	note A_, 2
	note C#, 2
	note E_, 2
	note D_, 2
	note __, 2
	octave 4
	note D_, 2
	octave 3
	note D_, 2
	note F#, 2
	note G_, 2
	note F#, 2
	note E_, 2
	note D_, 2
	note __, 2
	octave 4
	note D_, 2
	octave 3
	note D_, 2
	note __, 2
	octave 4
	note D_, 2
	octave 3
	note A_, 2
	note D_, 2
	octave 2
	note A_, 2
	note __, 2
	octave 3
	note A_, 2
	octave 2
	note A_, 2
	note B_, 2
	octave 3
	note C#, 2
	note D_, 2
	note E_, 2
	octave 2
	note A_, 2
	note __, 2
	octave 3
	note A_, 2
	octave 2
	note A_, 2
	note __, 2
	octave 3
	note A_, 2
	note C#, 2
	note E_, 2
	note D_, 2
	note __, 2
	octave 4
	note D_, 2
	octave 3
	note D_, 2
	note F#, 2
	note G_, 2
	note F#, 2
	note E_, 2
	note D_, 1
	note __, 1
	note D_, 1
	note __, 3
	note D_, 2
	note F#, 2
	note G_, 2
	note F#, 2
	note D_, 2
	note E_, 1
	note __, 1
	note E_, 1
	note __, 3
	note E_, 2
	note G_, 2
	note A_, 2
	note G_, 2
	note E_, 2
	octave 2
	note A_, 1
	note __, 1
	note A_, 1
	note __, 3
	note A_, 2
	octave 3
	note C#, 2
	note E_, 2
	note D_, 2
	note C#, 2
	note D_, 1
	note __, 1
	note D_, 1
	note __, 3
	note D_, 2
	note F#, 2
	note G_, 2
	note F#, 2
	note E_, 2
	note D_, 1
	note __, 1
	note D_, 1
	note __, 3
	note D_, 2
	note C_, 1
	note __, 1
	note C_, 1
	note __, 3
	note C_, 2
	octave 2
	note B_, 4
	note A_, 4
	note G#, 4
	note E_, 4
	note A_, 1
	note __, 1
	note A_, 1
	note __, 3
	note A_, 2
	octave 3
	note C#, 2
	note E_, 2
	note D_, 2
	note C#, 2
	note D_, 2
	note __, 2
	octave 4
	note D_, 2
	octave 3
	note D_, 2
	note __, 2
	octave 4
	note D_, 2
	octave 3
	note A_, 2
	note F#, 2
	loopchannel 0, Music_PokemonCenter_Ch3_loop

Music_PokemonCenter_Ch4:
	togglenoise 3
Music_PokemonCenter_Ch4_loop:
	notetype $C
	note A#, 2
	note __, 2
	note G_, 2
	note G_, 2
	note __, 2
	note A#, 2
	note E_, 2
	note __, 2
	note A#, 2
	note __, 2
	note G_, 1
	note G_, 1
	note G_, 2
	note __, 2
	note A#, 2
	note B_, 2
	note __, 2
	loopchannel 0, Music_PokemonCenter_Ch4_loop

