Music_RivalBattle2:
	channel_count 3
	channel 1, Music_RivalBattle2_Ch1
	channel 2, Music_RivalBattle2_Ch2
	channel 3, Music_RivalBattle2_Ch3

Music_RivalBattle2_Ch1:
	stereo_panning TRUE, TRUE
	tempo 90
	volume 7, 7
	duty_cycle 3
	vibrato 18, 1, 5
	note_type 12, 11, 2
	octave 4
	sound_call .sub1
	sound_call .sub1
	sound_call .sub1
	sound_call .sub1
	sound_call .sub1
	sound_call .sub1
	octave 3
	volume_envelope 11, 4
	note G_, 4
	octave 4
	note C_, 4
	volume_envelope 11, 3
	sound_call .sub2
	note B_, 2
	note A#, 2
	note G#, 2
	note G_, 2
	sound_call .sub2
	octave 3
	note B_, 4
	octave 4
	note E_, 4
	sound_call .sub3
	note B_, 2
	note A#, 2
	note G#, 2
	note G_, 2
	octave 4
	note G#, 6
	note G#, 6
	note G#, 6
	note G#, 6
	note G#, 4
	note D#, 4
.mainloop:
	octave 4
	volume_envelope 11, 6
	note C#, 2
	octave 3
	note G#, 2
	note E_, 1
	rest 1
	note G#, 4
	note E_, 2
	note G#, 2
	octave 4
	note C#, 2
	octave 3
	note B_, 2
	note F#, 2
	rest 2
	note F#, 10
	note G#, 2
	note E_, 2
	octave 2
	note B_, 1
	octave 3
	rest 1
	note E_, 4
	octave 2
	note B_, 2
	octave 3
	note E_, 2
	note G#, 2
	note F#, 4
	note D#, 4
	note F#, 4
	note B_, 4
	note E_, 2
	octave 2
	note B_, 2
	note E_, 1
	rest 1
	note B_, 4
	note E_, 2
	note B_, 2
	octave 3
	note D#, 2
	note E_, 2
	octave 2
	note B_, 2
	octave 3
	note E_, 1
	rest 1
	note G#, 4
	note E_, 2
	note G#, 2
	octave 4
	note C#, 2
	octave 3
	note A#, 2
	note F#, 2
	rest 2
	note A#, 4
	note F#, 2
	octave 4
	note E_, 2
	octave 3
	note A#, 2
	octave 4
	note C_, 6
	octave 3
	note D#, 4
	note G#, 2
	octave 4
	note C_, 2
	note D#, 2
	note E_, 2
	octave 3
	note A_, 2
	rest 2
	octave 4
	note C#, 6
	note E_, 4
	note E_, 6
	octave 3
	note B_, 10
	octave 4
	note C_, 2
	octave 3
	note F#, 2
	rest 2
	octave 4
	note C_, 6
	note D#, 4
	note C#, 2
	octave 3
	note G#, 2
	rest 2
	octave 4
	note C#, 10
	note C#, 2
	octave 3
	note A_, 2
	rest 2
	note A_, 4
	note A_, 2
	octave 4
	note C#, 2
	octave 3
	note A_, 2
	octave 4
	note C_, 6
	octave 3
	note G#, 6
	note B_, 2
	octave 4
	note C_, 2
	note C#, 2
	octave 3
	note F#, 2
	note G#, 2
	octave 4
	note C#, 2
	octave 3
	note F#, 2
	note G#, 2
	octave 4
	note E_, 2
	octave 3
	note G#, 2
	octave 4
	note D#, 2
	octave 3
	note G#, 2
	octave 4
	note C_, 2
	note D#, 2
	octave 3
	note G#, 2
	octave 4
	note D#, 2
	note C_, 2
	octave 3
	note G#, 2
	volume_envelope 11, 6
	octave 3
	sound_call .sub4
	rest 2
	note A#, 8
	note F_, 4
	note C#, 2
	note C_, 2
	note C#, 2
	note F_, 2
	note C#, 2
	note F#, 2
	note C#, 2
	note F_, 4
	note C#, 2
	note D_, 1
	note E_, 1
	note F_, 2
	note A_, 2
	note F_, 1
	rest 1
	octave 4
	note C_, 4
	octave 3
	note A#, 2
	note A_, 2
	octave 4
	note C#, 1
	note E_, 1
	note F_, 4
	note C#, 2
	octave 3
	note A_, 1
	rest 1
	octave 4
	note C_, 4
	octave 3
	note A_, 4
	note F_, 2
	note C#, 1
	rest 1
	note F_, 1
	rest 1
	note A#, 4
	note C#, 2
	note F_, 2
	note A_, 2
	note A#, 2
	note F_, 1
	rest 1
	note A#, 1
	rest 1
	octave 4
	note D_, 4
	note F_, 2
	note D_, 2
	octave 3
	note A#, 2
	octave 3
	sound_call .sub4
	rest 2
	note A#, 4
	note F_, 2
	note A#, 2
	rest 2
	octave 4
	note C_, 2
	rest 2
	note C_, 2
	note D_, 4
	octave 3
	note B_, 2
	note A#, 2
	note G#, 4
	note F_, 1
	rest 1
	note G#, 2
	note D_, 2
	note C#, 2
	note F#, 2
	note C#, 1
	rest 1
	note A#, 4
	note G#, 2
	note F#, 2
	note G#, 2
	note F_, 4
	note D#, 4
	note C#, 4
	note F_, 4
	note C#, 2
	octave 2
	note A#, 2
	octave 3
	note C#, 1
	rest 1
	note F_, 4
	note D#, 2
	note C#, 2
	note F_, 1
	rest 1
	note F_, 2
	note C#, 1
	rest 1
	note F_, 1
	rest 1
	note F_, 6
	note A#, 4
	octave 2
	sound_call .sub5
	note E_, 6
	note D#, 6
	note E_, 4
	note C#, 8
	octave 2
	note B_, 8
	sound_call .sub5
	octave 3
	note E_, 6
	note G#, 6
	note A#, 4
	note G#, 4
	note F_, 4
	note D_, 4
	note F_, 4
	sound_call .sub6
	note D#, 4
	note E_, 4
	note C#, 2
	note E_, 6
	note G#, 4
	note F#, 4
	note C#, 4
	note D#, 4
	octave 2
	note B_, 2
	octave 3
	note F#, 2
	sound_call .sub6
	note B_, 4
	note B_, 6
	note A#, 6
	note B_, 4
	note G#, 12
	note D#, 2
	note G#, 2
	sound_loop 0, .mainloop
.sub1:
	volume_envelope 11, 2
	octave 4
	note G#, 1
	note G_, 1
	note G#, 1
	octave 5
	note C#, 1
	octave 4
	sound_ret
.sub2:
	volume_envelope 11, 3
	octave 3
	note G#, 6
	note G#, 6
	note G#, 6
	note G#, 2
	note D#, 2
	note G#, 2
	sound_ret
.sub3:
	volume_envelope 11, 3
	octave 4
	note G#, 6
	note G#, 6
	note G#, 6
	note G#, 2
	note D#, 2
	note G#, 2
	sound_ret
.sub4:
	volume_envelope 11, 6
	octave 3
	note C#, 2
	note F#, 2
	note C#, 1
	rest 1
	note A#, 4
	note G#, 2
	note F#, 2
	note G#, 2
	note F_, 2
	note C_, 2
	note A_, 2
	note F_, 1
	rest 1
	octave 4
	note C_, 2
	note C_, 2
	octave 3
	sound_ret
.sub5:
	octave 2
	note A_, 6
	octave 3
	note C#, 6
	note E_, 4
	octave 2
	note B_, 8
	octave 3
	note F#, 4
	note D#, 4
	sound_ret
.sub6:
	octave 2
	note A_, 4
	note E_, 2
	octave 3
	note C#, 4
	octave 2
	note A_, 2
	octave 3
	note E_, 4
	octave 2
	note B_, 4
	note F#, 2
	octave 3
	note D#, 4
	note F#, 2
	sound_ret


Music_RivalBattle2_Ch2:
	stereo_panning TRUE, TRUE
	duty_cycle 3
	vibrato 18, 2, 6
	note_type 12, 12, 4
	octave 4
	note C#, 6
	octave 3
	note G#, 6
	octave 4
	note E_, 6
	note C#, 6
	note C_, 4
	note D#, 4
	volume_envelope 12, 3
	sound_call .sub1
	note E_, 2
	note D#, 2
	note C#, 2
	note C_, 2
	sound_call .sub1
	note E_, 4
	note G_, 4
	sound_call .sub2
	note E_, 2
	note D#, 2
	note C#, 2
	note C_, 2
	octave 5
	note C#, 6
	note C#, 6
	note C#, 6
	note C#, 6
	note C#, 2
	octave 4
	note B_, 2
	note A_, 2
	note G#, 2
.mainloop:
	volume_envelope 12, 6
	octave 4
	note E_, 2
	note D#, 2
	rest 2
	note C#, 6
	note E_, 4
	note D#, 6
	octave 3
	note B_, 10
	octave 4
	note C#, 2
	octave 3
	note B_, 2
	rest 2
	note G#, 6
	octave 4
	note C#, 4
	octave 3
	note B_, 16
	note A_, 2
	note G#, 2
	rest 2
	note F#, 6
	note A_, 4
	note G#, 6
	octave 4
	note C#, 10
	note C#, 2
	note D#, 2
	rest 2
	note E_, 6
	note G#, 4
	note F#, 16
	note A_, 2
	note G#, 2
	rest 2
	note F#, 6
	note A_, 4
	note G#, 6
	note E_, 10
	note F#, 2
	note E_, 2
	rest 2
	note D#, 6
	note F#, 4
	note E_, 16
	note E_, 2
	note D#, 2
	rest 2
	note C#, 6
	note E_, 4
	note D#, 6
	note C_, 6
	note D#, 2
	note F#, 2
	note G#, 16
	note G#, 16
	sound_call .sub3
	octave 4
	note C#, 8
	octave 3
	note A#, 10
	note A#, 16
	note A_, 2
	octave 4
	note C_, 2
	rest 2
	note D#, 6
	note F_, 4
	note A_, 4
	note F_, 4
	note D#, 4
	note C_, 4
	note C#, 16
	note F_, 16
	sound_call .sub3
	octave 4
	note C#, 10
	note D#, 2
	rest 2
	note D#, 2
	note F_, 10
	note D_, 8
	octave 3
	note F#, 2
	note A#, 2
	rest 2
	octave 4
	note C#, 6
	octave 3
	note A#, 4
	note A_, 4
	note F#, 4
	note F_, 4
	note A_, 4
	note A#, 16
	octave 4
	note A#, 16
	sound_call .sub4
	octave 3
	volume_envelope 12, 8
	note G#, 10
	volume_envelope 12, 7
	note G#, 16
	sound_call .sub4
	octave 3
	volume_envelope 12, 8
	octave 4
	note D#, 10
	volume_envelope 12, 7
	note D#, 16
	sound_call .sub4
	octave 3
	note G#, 6
	octave 4
	note D#, 4
	octave 3
	volume_envelope 12, 7
	note B_, 16
	volume_envelope 12, 6
	octave 3
	note B_, 12
	note G#, 2
	note B_, 2
	note F#, 4
	note A#, 4
	octave 4
	note C#, 4
	note F#, 4
	volume_envelope 12, 7
	note D#, 16
	note C#, 12
	octave 3
	volume_envelope 12, 6
	note G#, 1
	note B_, 1
	octave 4
	note C#, 1
	note D#, 1
	sound_loop 0, .mainloop
.sub1:
	volume_envelope 12, 3
	octave 4
	note C#, 6
	note C#, 6
	note C#, 6
	note C#, 2
	octave 3
	note G#, 2
	octave 4
	note C#, 2
	sound_ret
.sub2:
	volume_envelope 12, 3
	octave 5
	note C#, 6
	note C#, 6
	note C#, 6
	note C#, 2
	octave 4
	note G#, 2
	octave 5
	note C#, 2
	sound_ret
.sub3:
	volume_envelope 12, 6
	octave 3
	note F#, 2
	note A#, 2
	rest 2
	octave 4
	note C#, 6
	octave 3
	note A#, 4
	octave 4
	note C_, 4
	note D#, 2
	rest 2
	note F_, 2
	note D#, 2
	rest 2
	sound_ret
.sub4:
	volume_envelope 12, 6
	octave 3
	note B_, 12
	note G#, 2
	note B_, 2
	note F#, 4
	note A#, 4
	octave 4
	note C#, 4
	octave 3
	note A#, 4
	note B_, 6
	sound_ret


Music_RivalBattle2_Ch3:
	stereo_panning TRUE, TRUE
	note_type 12, 1, -1
	octave 3
	sound_call .sub1
	sound_call .sub1
	sound_call .sub1
	note G_, 2
	note D#, 1
	rest 1
	note C_, 2
	octave 2
	note G#, 1
	rest 1
	sound_call .sub2
	sound_call .sub2
	sound_call .sub2
	sound_call .sub2
.mainloop:
	octave 3
	sound_call .sub3
	sound_call .sub4
	sound_call .sub5
	sound_call .sub4
	sound_call .sub5
	note E_, 2
	note B_, 2
	note E_, 2
	note B_, 2
	note E_, 2
	note B_, 2
	note E_, 2
	note B_, 2
	sound_call .sub6
	sound_call .sub7
	octave 2
	sound_call .sub5
	note G#, 2
	octave 3
	note E_, 2
	octave 2
	note G#, 2
	octave 3
	note E_, 2
	octave 2
	note G#, 2
	octave 3
	note E_, 2
	octave 2
	note G#, 2
	octave 3
	note E_, 2
	octave 2
.loop0:
	note F#, 2
	octave 3
	note D#, 2
	octave 2
	sound_loop 4, .loop0
.loop1:
	note G#, 2
	octave 3
	note C#, 2
	octave 2
	sound_loop 4, .loop1
	sound_call .sub5
	sound_call .sub7
	sound_call .sub6
	sound_call .sub7
	octave 2
	sound_call .sub8
	note F_, 2
	note A#, 4
	octave 3
	note F_, 2
	octave 2
.loop2:
	note A#, 2
	octave 3
	note F_, 2
	octave 2
	sound_loop 3, .loop2
.loop3:
	note A#, 2
	octave 3
	note F_, 2
	octave 2
	sound_loop 4, .loop3
.loop4:
	note F_, 2
	octave 3
	note C_, 2
	octave 2
	sound_loop 4, .loop4
.loop5:
	note A_, 2
	octave 3
	note F_, 2
	octave 2
	sound_loop 4, .loop5
.loop6:
	note A#, 2
	octave 3
	note F_, 2
	octave 2
	sound_loop 3, .loop6
	octave 3
	note C#, 2
	note F_, 2
	octave 2
.loop7:
	note A#, 2
	octave 3
	note F_, 2
	octave 2
	sound_loop 3, .loop7
	octave 3
	note D_, 2
	note G#, 2
	octave 2
	sound_call .sub8
	rest 2
	note A#, 4
	octave 3
	note F_, 2
	octave 2
.loop8:
	note A#, 2
	octave 3
	note F_, 2
	octave 2
	sound_loop 3, .loop8
.loop9:
	note A#, 2
	octave 3
	note F_, 2
	octave 2
	sound_loop 4, .loop9
	sound_call .sub6
.loop10:
	note A_, 2
	octave 3
	note F_, 2
	octave 2
	sound_loop 4, .loop10
.loop11:
	note A#, 2
	octave 3
	note F_, 2
	octave 2
	sound_loop 3, .loop11
	octave 3
	note C#, 2
	note F_, 2
.loop12:
	note A#, 2
	octave 2
	note A#, 2
	note F_, 2
	octave 3
	sound_loop 2, .loop12
	note A#, 2
	octave 2
	note A#, 2
	octave 2
	note A_, 16
	note B_, 16
	octave 3
	note C#, 16
	octave 2
	note B_, 16
	note A_, 16
	note B_, 16
	octave 3
	note C#, 16
	note D_, 4
	note F_, 4
	note G#, 2
	note F_, 2
	note G#, 1
	note F_, 1
	note D_, 1
	octave 2
	note G#, 1
	octave 3
	sound_call .sub5
	sound_call .sub4
	sound_call .sub3
	sound_call .sub4
	sound_call .sub5
	sound_call .sub4
	sound_call .sub3
	note C#, 2
	note C#, 2
	octave 2
	note G#, 4
	octave 3
	note C#, 2
	note C#, 2
	note E_, 2
	note G#, 2
	sound_loop 0, .mainloop
.sub1:
	octave 3
	note C#, 1
	rest 1
	octave 4
	note C#, 1
	octave 3
	rest 1
	note C#, 1
	rest 1
	octave 4
	note C#, 1
	octave 3
	rest 1
	sound_ret
.sub2:
	octave 3
	note G#, 2
	note C#, 2
	note D#, 2
	note E_, 2
	note C#, 2
	note D#, 2
	note E_, 2
	note C#, 2
	note C#, 1
	rest 1
	note C#, 2
	note D#, 2
	note E_, 2
	note C#, 2
	note E_, 2
	note F#, 2
	note C_, 2
	sound_ret
.sub3:
	octave 3
	note C#, 2
	note G#, 2
	note C#, 2
	note G#, 2
	note C#, 2
	note G#, 2
	note C#, 2
	note G#, 2
	sound_ret
.sub4:
	octave 2
	note B_, 2
	octave 3
	note F#, 2
	octave 2
	note B_, 2
	octave 3
	note F#, 2
	octave 2
	note B_, 2
	octave 3
	note F#, 2
	octave 2
	note B_, 2
	octave 3
	note F#, 2
	octave 2
	sound_ret
.sub5:
	octave 2
	note A_, 2
	octave 3
	note E_, 2
	octave 2
	note A_, 2
	octave 3
	note E_, 2
	octave 2
	note A_, 2
	octave 3
	note E_, 2
	octave 2
	note A_, 2
	octave 3
	note E_, 2
	octave 2
	sound_ret
.sub6:
	octave 2
	note F#, 2
	octave 3
	note C#, 2
	octave 2
	note F#, 2
	octave 3
	note C#, 2
	octave 2
	note F#, 2
	octave 3
	note C#, 2
	octave 2
	note F#, 2
	octave 3
	note C#, 2
	octave 2
	sound_ret
.sub7:
	octave 2
	note G#, 2
	octave 3
	note D#, 2
	octave 2
	note G#, 2
	octave 3
	note D#, 2
	octave 2
	note G#, 2
	octave 3
	note D#, 2
	octave 2
	note G#, 2
	octave 3
	note D#, 2
	octave 2
	sound_ret
.sub8:
	octave 2
	note F#, 2
	octave 3
	note C#, 2
	octave 2
	note F#, 2
	octave 3
	note C#, 2
	octave 2
	note F#, 2
	octave 3
	note C#, 2
	octave 2
	note F#, 2
	octave 3
	note C#, 2
	octave 2
	note F_, 2
	octave 3
	note C_, 2
	octave 2
	note F_, 2
	octave 3
	note C_, 2
	octave 2
	note F_, 2
	octave 3
	note C_, 2
	octave 2
	sound_ret

