Music_Route26:
	channel_count 4
	channel 1, Music_Route26_Ch1
	channel 2, Music_Route26_Ch2
	channel 3, Music_Route26_Ch3
	channel 4, Music_Route26_Ch4

Music_Route26_Ch1:
	volume 7, 7
	note_type 12, 11, 2
	tempo 145
	octave 3
	duty_cycle 3
	vibrato 16, 1, 5
	note F_, 6
	note F_, 1
	note F_, 1
	note F_, 2
	note F_, 2
	note F_, 4
	note G#, 6
	note G#, 1
	note G#, 1
	note G#, 2
	note G#, 2
	note G#, 4
.mainloop:
	octave 3
	volume_envelope 11, 3
	note A#, 2
	note A#, 2
	note A#, 2
	volume_envelope 11, 7
	note F_, 2
	note D_, 2
	note F_, 6
	octave 4
	note C_, 3
	octave 3
	note A#, 3
	note G#, 4
	note D#, 2
	note C_, 2
	note D#, 2
	note F_, 6
	note D_, 2
	octave 2
	note A#, 3
	octave 3
	note D_, 3
	note F_, 2
	octave 4
	duty_cycle 2
	volume_envelope 9, 2
	note D_, 1
	octave 3
	note A#, 1
	note F_, 1
	note D_, 1
	note A#, 1
	note F_, 1
	note D_, 1
	octave 2
	note A#, 1
	octave 3
	note F_, 1
	note D_, 1
	octave 2
	note A#, 1
	note F_, 1
	note A#, 1
	octave 3
	note D_, 1
	note F_, 1
	note A#, 1
	duty_cycle 3
	volume_envelope 11, 3
	note A#, 2
	note A#, 2
	note A#, 2
	volume_envelope 11, 7
	note F_, 2
	note D#, 2
	note F_, 6
	octave 4
	note C_, 3
	octave 3
	note A#, 3
	note G#, 4
	note D#, 2
	note C_, 2
	note D#, 2
	note A#, 2
	note G#, 2
	note A#, 2
	octave 4
	note C#, 4
	note C#, 2
	note F_, 2
	note G#, 2
	volume_envelope 9, 2
	duty_cycle 2
	note A_, 1
	note F_, 1
	note C_, 1
	octave 3
	note A_, 1
	octave 4
	note F_, 1
	note C_, 1
	octave 3
	note A_, 1
	note F_, 1
	octave 4
	note C_, 1
	octave 3
	note A_, 1
	note F_, 1
	note C_, 1
	note F_, 1
	note A_, 1
	octave 4
	note C_, 1
	note F_, 1
	volume_envelope 11, 7
	duty_cycle 3
	note G_, 3
	note F_, 3
	note D#, 2
	octave 3
	note A#, 3
	note G_, 3
	note A#, 2
	note G_, 3
	note D#, 3
	note G_, 6
	note A#, 4
	octave 4
	note C_, 3
	note D#, 3
	note F_, 2
	note C_, 3
	octave 3
	note A_, 3
	octave 4
	note C_, 2
	note D_, 3
	note C_, 3
	note D_, 2
	octave 3
	note G_, 2
	note A_, 2
	note G_, 4
	octave 4
	note C_, 3
	octave 3
	note G_, 3
	note A#, 2
	octave 4
	note C_, 6
	octave 3
	note A#, 2
	octave 4
	note D_, 3
	octave 3
	note F_, 3
	note A#, 2
	octave 4
	note D_, 4
	octave 3
	note F_, 2
	note A#, 2
	octave 4
	note C#, 3
	octave 3
	note A#, 3
	octave 4
	note C#, 2
	note D#, 3
	note F_, 3
	note F#, 2
	note F_, 3
	note C_, 3
	octave 3
	note A_, 2
	octave 4
	note C_, 8
	sound_loop 0, .mainloop

Music_Route26_Ch2:
	duty_cycle 1
	note_type 12, 12, 2
	octave 3
	vibrato 16, 3, 6
	note A#, 6
	note A#, 1
	note A#, 1
	note A#, 2
	note A#, 2
	note A#, 4
	octave 4
	note C_, 6
	note C_, 1
	note C_, 1
	note C_, 2
	note C_, 2
	note C_, 4
.mainloop:
	octave 4
	volume_envelope 12, 3
	note F_, 2
	note F_, 2
	note F_, 2
	octave 3
	volume_envelope 12, 7
	note A#, 4
	octave 4
	note D_, 6
	note D#, 3
	note D_, 3
	note C_, 4
	octave 3
	note A#, 6
	octave 4
	note D_, 6
	octave 3
	note A#, 2
	volume_envelope 10, 8
	note F_, 8
	volume_envelope 12, 7
	note F_, 16
	octave 4
	volume_envelope 12, 3
	note F_, 2
	note F_, 2
	note F_, 2
	octave 3
	volume_envelope 12, 7
	note A#, 4
	octave 4
	note D_, 6
	note D#, 3
	note D_, 3
	note C_, 4
	octave 3
	note A#, 4
	volume_envelope 12, 2
	note A#, 1
	octave 4
	note C_, 1
	volume_envelope 12, 7
	note C#, 2
	note C_, 2
	note C#, 2
	note F#, 4
	note G#, 2
	note A#, 4
	octave 5
	note C_, 6
	octave 4
	volume_envelope 12, 2
	note B_, 1
	note A#, 1
	volume_envelope 12, 7
	note A_, 8
	note A#, 3
	note A_, 3
	note G_, 2
	note D#, 6
	volume_envelope 12, 2
	note D#, 1
	note D#, 1
	octave 3
	volume_envelope 10, 8
	note A#, 6
	volume_envelope 6, -5
	note A#, 6
	octave 4
	volume_envelope 12, 7
	note D#, 4
	note F_, 3
	note G_, 3
	note A_, 2
	note F_, 6
	volume_envelope 12, 2
	note F_, 1
	note F_, 1
	volume_envelope 12, 7
	note G_, 6
	volume_envelope 12, 2
	note G_, 1
	note G_, 1
	volume_envelope 12, 7
	note D_, 4
	octave 3
	note B_, 4
	octave 4
	note D#, 3
	note C_, 3
	note D_, 2
	note D#, 6
	volume_envelope 12, 2
	note D#, 1
	note E_, 1
	volume_envelope 12, 7
	note F_, 3
	note D_, 3
	note D#, 2
	note F_, 6
	volume_envelope 12, 2
	note D#, 1
	note F_, 1
	volume_envelope 12, 7
	note F#, 3
	note D#, 3
	note F_, 2
	note F#, 3
	note G#, 3
	note A#, 2
	note A_, 6
	volume_envelope 12, 2
	note A_, 1
	note G_, 1
	volume_envelope 12, 7
	note F_, 8
	sound_loop 0, .mainloop

Music_Route26_Ch3:
	note_type 12, 2, 5
	octave 2
	note A#, 2
	rest 2
	octave 3
	note F_, 2
	octave 2
	note A#, 1
	note A#, 1
	note A#, 1
	rest 1
	note A#, 1
	rest 1
	note A#, 2
	rest 2
	note G#, 2
	rest 2
	octave 3
	note D#, 2
	octave 2
	note G#, 1
	note G#, 1
	note G#, 1
	rest 1
	note G#, 1
	rest 1
	note G#, 2
	rest 2
.mainloop:
	octave 2
	note A#, 2
	rest 2
	octave 3
	note F_, 2
	octave 2
	note A#, 1
	note A#, 1
	note A#, 1
	rest 1
	note A#, 1
	rest 1
	note A#, 2
	rest 2
	note G#, 2
	rest 2
	octave 3
	note D#, 2
	octave 2
	note G#, 1
	note G#, 1
	note G#, 1
	rest 1
	note G#, 1
	rest 1
	note G#, 2
	rest 2
	note A#, 2
	rest 2
	octave 3
	note F_, 2
	octave 2
	note A#, 1
	note A#, 1
	note A#, 1
	rest 1
	note A#, 1
	rest 1
	note A#, 2
	rest 2
	note A#, 2
	rest 2
	octave 3
	note F_, 2
	octave 2
	note A#, 1
	note A#, 1
	note A#, 1
	rest 1
	note A#, 1
	rest 1
	note A#, 2
	rest 2
	note A#, 2
	rest 2
	octave 3
	note F_, 2
	octave 2
	note A#, 1
	note A#, 1
	note A#, 1
	rest 1
	note A#, 1
	rest 1
	note A#, 2
	rest 2
	note G#, 2
	rest 2
	octave 3
	note D#, 2
	octave 2
	note G#, 1
	note G#, 1
	note G#, 1
	rest 1
	note G#, 1
	rest 1
	note G#, 2
	rest 2
	note F#, 2
	rest 2
	octave 3
	note C#, 2
	octave 2
	note F#, 1
	note F#, 1
	note F#, 1
	rest 1
	note F#, 1
	rest 1
	note F#, 2
	rest 2
	note F_, 2
	rest 2
	octave 3
	note C_, 2
	octave 2
	note F_, 1
	note F_, 1
	note F_, 1
	rest 1
	note F_, 1
	rest 1
	note F_, 2
	rest 2
	note D#, 6
	note G_, 6
	note A#, 2
	note D#, 1
	note G_, 1
	note A#, 6
	octave 3
	note D#, 6
	octave 2
	note A#, 4
	note A_, 6
	octave 3
	note C_, 6
	note F_, 2
	note C_, 1
	octave 2
	note A_, 1
	octave 3
	note C_, 3
	octave 2
	note G_, 3
	octave 3
	note C_, 2
	octave 2
	note B_, 4
	octave 3
	note D_, 4
	note D#, 4
	octave 2
	note A#, 2
	octave 3
	note D#, 4
	octave 2
	note A#, 2
	octave 3
	note D#, 2
	octave 2
	note A#, 2
	octave 3
	note D_, 4
	octave 2
	note A#, 2
	octave 3
	note D_, 4
	octave 2
	note A#, 2
	octave 3
	note D_, 2
	octave 2
	note A#, 2
	octave 3
	note C#, 4
	octave 2
	note A#, 2
	octave 3
	note C#, 4
	octave 2
	note A#, 2
	octave 3
	note C#, 2
	octave 2
	note A#, 2
	octave 3
	note C_, 4
	octave 2
	note A_, 2
	octave 3
	note C_, 4
	octave 2
	note A_, 2
	octave 3
	note C_, 2
	octave 2
	note A_, 2
	sound_loop 0, .mainloop

Music_Route26_Ch4:
	toggle_noise 1
	drum_speed 12
	drum_note 10, 6
	drum_note 10, 1
	drum_note 10, 1
	drum_note 10, 2
	drum_note 11, 2
	drum_note 10, 4
	drum_note 10, 6
	drum_note 10, 1
	drum_note 10, 1
	drum_note 10, 2
	drum_note 11, 2
	drum_speed 6
	drum_note 10, 1
	drum_note 10, 1
	drum_note 10, 1
	drum_note 10, 1
	drum_note 10, 1
	drum_note 10, 1
	drum_note 10, 1
	drum_note 10, 1
	drum_speed 12
.mainloop:
	drum_note 10, 6
	drum_note 11, 1
	drum_note 11, 1
	drum_note 10, 2
	drum_note 11, 2
	drum_note 10, 4
	drum_note 10, 6
	drum_note 11, 1
	drum_note 11, 1
	drum_note 10, 2
	drum_note 11, 2
	drum_speed 6
	drum_note 10, 1
	drum_note 10, 1
	drum_note 10, 1
	drum_note 10, 1
	drum_note 10, 1
	drum_note 10, 1
	drum_note 10, 1
	drum_note 10, 1
	drum_speed 12
	drum_note 10, 6
	drum_note 11, 1
	drum_note 11, 1
	drum_note 10, 2
	drum_note 11, 2
	drum_note 10, 4
	drum_note 10, 6
	drum_note 11, 1
	drum_note 11, 1
	drum_note 10, 2
	drum_note 11, 2
	drum_speed 6
	drum_note 10, 1
	drum_note 10, 1
	drum_note 10, 1
	drum_note 10, 1
	drum_note 10, 1
	drum_note 10, 1
	drum_note 10, 1
	drum_note 10, 1
	drum_speed 12
	drum_note 10, 6
	drum_note 11, 1
	drum_note 11, 1
	drum_note 10, 2
	drum_note 11, 2
	drum_note 10, 4
	drum_note 10, 6
	drum_note 11, 1
	drum_note 11, 1
	drum_note 10, 2
	drum_note 11, 2
	drum_speed 6
	drum_note 10, 1
	drum_note 10, 1
	drum_note 10, 1
	drum_note 10, 1
	drum_note 10, 1
	drum_note 10, 1
	drum_note 10, 1
	drum_note 10, 1
	drum_speed 12
	drum_note 10, 6
	drum_note 11, 1
	drum_note 11, 1
	drum_note 10, 2
	drum_note 11, 2
	drum_note 10, 4
	drum_note 10, 6
	drum_note 11, 1
	drum_note 11, 1
	drum_note 10, 2
	drum_note 11, 2
	drum_speed 6
	drum_note 10, 1
	drum_note 10, 1
	drum_note 10, 1
	drum_note 10, 1
	drum_note 10, 1
	drum_note 10, 1
	drum_note 10, 1
	drum_note 10, 1
	drum_speed 12
	drum_note 10, 6
	drum_note 11, 4
	drum_note 10, 1
	drum_note 11, 1
	drum_note 10, 4
	drum_note 10, 6
	drum_note 11, 6
	drum_note 10, 2
	drum_note 11, 1
	drum_note 11, 1
	drum_note 10, 6
	drum_note 11, 6
	drum_note 10, 2
	drum_speed 6
	drum_note 11, 1
	drum_note 11, 1
	drum_note 11, 1
	drum_note 11, 1
	drum_speed 12
	drum_note 10, 6
	drum_note 11, 1
	drum_note 11, 1
	drum_note 11, 2
	drum_note 10, 2
	drum_note 11, 4
	drum_note 10, 4
	drum_note 10, 6
	drum_note 11, 1
	drum_note 11, 1
	drum_note 10, 2
	drum_note 11, 2
	drum_note 10, 4
	drum_note 10, 6
	drum_speed 6
	drum_note 11, 1
	drum_note 11, 1
	drum_note 11, 1
	drum_note 11, 1
	drum_speed 12
	drum_note 10, 2
	drum_note 11, 1
	drum_note 10, 1
	drum_note 10, 4
	drum_note 10, 6
	drum_note 11, 1
	drum_note 11, 1
	drum_note 10, 2
	drum_note 11, 2
	drum_note 10, 4
	drum_note 10, 6
	drum_speed 6
	drum_note 11, 1
	drum_note 11, 1
	drum_note 11, 1
	drum_note 11, 1
	drum_speed 12
	drum_note 10, 2
	drum_note 11, 1
	drum_note 10, 1
	sound_loop 0, .mainloop
