Music_Route10:
	musicheader 4, 1, Music_Route10_Ch1
	musicheader 1, 2, Music_Route10_Ch2
	musicheader 1, 3, Music_Route10_Ch3
	musicheader 1, 4, Music_Route10_Ch4

Music_Route10_Ch1:
	tempo $4C
	volume $77
	stereopanning $77
	notetype $C, $00
	note __, 16
	note __, 16
	note __, 16
	note __, 16
	note __, 16
	note __, 16
	dutycycle 2
	intensity $A2
	octave 1
	note F_, 3
	note __, 1
	note F_, 4
	note __, 2
	note F_, 2
	note F_, 4
	note __, 6
	dutycycle 0
	intensity $85
	octave 4
	note C_, 1
	note F_, 1
	note A_, 8
	note __, 2
	octave 3
	note A_, 1
	octave 4
	note C_, 1
	note F_, 8
	note __, 4
	dutycycle 2
	intensity $A2
	octave 1
	note A#, 3
	note __, 1
	note A#, 4
	note __, 2
	note A#, 2
	note A#, 4
	note __, 6
	dutycycle 0
	intensity $85
	octave 4
	note F_, 1
	note A#, 1
	octave 5
	note D_, 8
	note __, 2
	octave 4
	note D_, 1
	note F_, 1
	note A#, 8
	note __, 4
	dutycycle 2
	intensity $A2
	octave 1
	note F_, 3
	note __, 1
	note F_, 4
	note __, 2
	note F_, 2
	note F_, 4
	note __, 6
	dutycycle 0
	intensity $85
	octave 4
	note C_, 1
	note F_, 1
	note A_, 8
	note __, 2
	octave 3
	note A_, 1
	octave 4
	note C_, 1
	note F_, 8
	note __, 4
	dutycycle 2
	intensity $A2
	octave 1
	note F_, 3
	note __, 1
	note F_, 4
	note __, 2
	note F_, 2
	note F_, 4
	note __, 6
	dutycycle 0
	intensity $85
	octave 4
	note C_, 1
	note F_, 1
	note A_, 8
	note __, 2
	octave 3
	note A_, 1
	octave 4
	note C_, 1
	note F_, 8
	note __, 4
	dutycycle 2
	intensity $A2
	octave 1
	note D_, 3
	note __, 1
	note D_, 4
	note __, 2
	note D_, 2
	note D_, 4
	note __, 6
	dutycycle 0
	intensity $85
	octave 4
	note D_, 1
	note F_, 1
	note A_, 8
	note __, 2
	octave 3
	note A_, 1
	octave 4
	note D_, 1
	note F_, 8
	note __, 4
	dutycycle 2
	intensity $A2
	octave 1
	note G_, 3
	note __, 1
	note G_, 4
	note __, 2
	note G_, 2
	note G_, 4
	note __, 6
	dutycycle 0
	intensity $85
	octave 4
	note D_, 1
	note G_, 1
	note A#, 8
	note __, 2
	octave 3
	note A#, 1
	octave 4
	note E_, 1
	note G_, 8
	note __, 4
	dutycycle 2
	intensity $A2
	octave 1
	note F_, 3
	note __, 1
	note F_, 4
	note __, 2
	note F_, 2
	note F_, 4
	note __, 6
	dutycycle 0
	intensity $85
	octave 4
	note C_, 1
	note F_, 1
	note A_, 8
	note __, 2
	octave 3
	note A_, 1
	octave 4
	note C_, 1
	note F_, 8
	note __, 4
	dutycycle 2
	intensity $A2
	octave 1
	note F_, 3
	note __, 1
	note F_, 4
	note __, 2
	note F_, 2
	note F_, 4
	note __, 16
	note __, 12
	octave 4
	intensity $FF
	note E_, 1
	note F_, 1
	note G_, 1
	note G#, 1
Music_Route10_Ch1_loop:
	vibrato $00, $33
	note A_, 16
	note A_, 16
	note A_, 8
	octave 5
	note C_, 8
	intensity $F7
	octave 4
	note G_, 16
	note A_, 4
	note __, 4
	note F_, 12
	note D_, 12
	note G_, 16
	note A_, 4
	note __, 2
	note F_, 14
	note D_, 12
	note E_, 3
	note __, 3
	note F_, 3
	note __, 3
	note E_, 4
	note D_, 3
	note __, 3
	note D_, 16
	note __, 6
	note E_, 1
	note F_, 1
	note G_, 1
	note G#, 1
	intensity $FF
	note A_, 16
	note A_, 16
	intensity $F7
	note A_, 8
	octave 5
	note C_, 8
	octave 4
	note B_, 16
	octave 5
	note C_, 4
	note __, 4
	note D_, 12
	note D#, 1
	note E_, 11
	note F_, 16
	note E_, 4
	note __, 2
	note D_, 12
	octave 4
	note A_, 1
	note F_, 1
	note D_, 12
	note E_, 3
	note __, 3
	note F_, 3
	note __, 3
	note E_, 4
	note D_, 3
	note __, 3
	note D_, 16
	note __, 8
	dutycycle 1
	intensity $FA
	note C#, 1
	note C_, 1
	octave 3
	note B_, 15
	octave 4
	note C#, 1
	note D_, 6
	note C_, 1
	octave 3
	note B_, 1
	note A#, 15
	octave 4
	note C#, 1
	note D_, 8
	octave 3
	note A_, 16
	note G_, 4
	note __, 2
	note F#, 14
	note D_, 10
	note D#, 1
	note E_, 1
	note F_, 16
	note G_, 4
	note __, 2
	note A_, 14
	note D_, 11
	note D#, 1
	note E_, 3
	note __, 3
	note F_, 3
	note __, 3
	note E_, 4
	note D_, 3
	note __, 3
	note D_, 16
	note __, 8
	note A_, 1
	note A#, 1
	note B_, 15
	octave 4
	note C#, 1
	note D_, 6
	note C_, 1
	octave 3
	note B_, 1
	note A#, 15
	octave 4
	note C#, 1
	note D_, 8
	octave 3
	note A_, 16
	note G_, 4
	note __, 2
	note F#, 14
	note D_, 10
	note D#, 1
	note E_, 1
	note F_, 16
	note G_, 4
	note __, 2
	note A_, 14
	note A#, 12
	intensity $F5
	note A_, 12
	dutycycle 2
	intensity $5A
	vibrato $00, $44
	note E_, 12
	note F#, 16
	note F#, 8
	note G_, 16
	note G_, 8
	note A_, 16
	note A_, 8
	loopchannel 0, Music_Route10_Ch1_loop

Music_Route10_Ch2:
	dutycycle 2
	octave 5
	notetype $C, $37
	note C_, 2
	note __, 2
	octave 4
	note G_, 2
	dutycycle 1
	intensity $17
	octave 5
	note C_, 2
	dutycycle 2
	intensity $47
	octave 4
	note A_, 2
	dutycycle 1
	intensity $17
	note G_, 2
	dutycycle 2
	intensity $47
	note F_, 2
	dutycycle 1
	intensity $27
	note A_, 2
	dutycycle 2
	intensity $57
	note G_, 2
	dutycycle 1
	intensity $27
	note F_, 2
	dutycycle 2
	intensity $57
	note D_, 2
	dutycycle 1
	intensity $37
	note G_, 2
	dutycycle 2
	intensity $47
	note F_, 2
	dutycycle 1
	intensity $37
	note D_, 2
	dutycycle 2
	intensity $47
	note C_, 2
	dutycycle 1
	intensity $27
	note F_, 2
	dutycycle 2
	intensity $37
	note D_, 2
	dutycycle 1
	intensity $27
	note C_, 2
	dutycycle 2
	intensity $37
	octave 3
	note A_, 2
	dutycycle 1
	intensity $17
	octave 4
	note D_, 2
	dutycycle 2
	intensity $27
	note C_, 2
	dutycycle 1
	intensity $17
	octave 3
	note A_, 2
	dutycycle 2
	intensity $27
	note F_, 2
	dutycycle 1
	intensity $17
	octave 4
	note C_, 2
	dutycycle 2
	intensity $37
	octave 5
	note C_, 2
	dutycycle 1
	intensity $17
	octave 3
	note F_, 2
	dutycycle 2
	intensity $37
	octave 4
	note G_, 2
	dutycycle 1
	intensity $17
	octave 5
	note C_, 2
	dutycycle 2
	intensity $47
	octave 4
	note A_, 2
	dutycycle 1
	intensity $17
	note G_, 2
	dutycycle 2
	intensity $47
	note F_, 2
	dutycycle 1
	intensity $27
	note A_, 2
	dutycycle 2
	intensity $57
	note G_, 2
	dutycycle 1
	intensity $27
	note F_, 2
	dutycycle 2
	intensity $57
	note D_, 2
	dutycycle 1
	intensity $37
	note G_, 2
	dutycycle 2
	intensity $47
	note F_, 2
	dutycycle 1
	intensity $37
	note D_, 2
	dutycycle 2
	intensity $47
	note C_, 2
	dutycycle 1
	intensity $27
	note F_, 2
	dutycycle 2
	intensity $37
	note D_, 2
	dutycycle 1
	intensity $27
	note C_, 2
	dutycycle 2
	intensity $37
	octave 3
	note A_, 2
	dutycycle 1
	intensity $17
	octave 4
	note D_, 2
	dutycycle 2
	intensity $27
	note C_, 2
	dutycycle 1
	intensity $17
	octave 3
	note A_, 2
	dutycycle 2
	intensity $27
	note F_, 2
	dutycycle 1
	intensity $17
	octave 4
	note C_, 2
	dutycycle 2
	intensity $37
	octave 5
	note C_, 2
	dutycycle 1
	intensity $17
	octave 3
	note F_, 2
	dutycycle 2
	intensity $37
	octave 4
	note G_, 2
	dutycycle 1
	intensity $17
	octave 5
	note C_, 2
	dutycycle 2
	intensity $47
	octave 4
	note A_, 2
	dutycycle 1
	intensity $17
	note G_, 2
	dutycycle 2
	intensity $47
	note F_, 2
	dutycycle 1
	intensity $27
	note A_, 2
	dutycycle 2
	intensity $57
	note G_, 2
	dutycycle 1
	intensity $27
	note F_, 2
	dutycycle 2
	intensity $57
	note D_, 2
	dutycycle 1
	intensity $37
	note G_, 2
	dutycycle 2
	intensity $47
	note F_, 2
	dutycycle 1
	intensity $37
	note D_, 2
	dutycycle 2
	intensity $47
	note C_, 2
	dutycycle 1
	intensity $27
	note F_, 2
	dutycycle 2
	intensity $37
	note D_, 2
	dutycycle 1
	intensity $27
	note C_, 2
	dutycycle 2
	intensity $37
	octave 3
	note A_, 2
	dutycycle 1
	intensity $17
	octave 4
	note D_, 2
	dutycycle 2
	intensity $27
	note C_, 2
	dutycycle 1
	intensity $17
	octave 3
	note A_, 2
	dutycycle 2
	intensity $27
	note F_, 2
	dutycycle 1
	intensity $17
	octave 4
	note C_, 2
	dutycycle 2
	intensity $37
	octave 5
	note C_, 2
	dutycycle 1
	intensity $17
	octave 3
	note F_, 2
	dutycycle 2
	intensity $37
	octave 4
	note G_, 2
	dutycycle 1
	intensity $17
	octave 5
	note C_, 2
	dutycycle 2
	intensity $47
	octave 4
	note A_, 2
	dutycycle 1
	intensity $17
	note G_, 2
	dutycycle 2
	intensity $47
	note F_, 2
	dutycycle 1
	intensity $27
	note A_, 2
	dutycycle 2
	intensity $57
	note G_, 2
	dutycycle 1
	intensity $27
	note F_, 2
	dutycycle 2
	intensity $57
	note D_, 2
	dutycycle 1
	intensity $37
	note G_, 2
	dutycycle 2
	intensity $47
	note F_, 2
	dutycycle 1
	intensity $37
	note D_, 2
	dutycycle 2
	intensity $47
	note C_, 2
	dutycycle 1
	intensity $27
	note F_, 2
	dutycycle 2
	intensity $37
	note D_, 2
	dutycycle 1
	intensity $27
	note C_, 2
	dutycycle 2
	intensity $37
	octave 3
	note A_, 2
	dutycycle 1
	intensity $17
	octave 4
	note D_, 2
	dutycycle 2
	intensity $27
	note C_, 2
	dutycycle 1
	intensity $17
	octave 3
	note A_, 2
	dutycycle 2
	intensity $27
	note F_, 2
	dutycycle 1
	intensity $17
	octave 4
	note C_, 2
	dutycycle 2
	intensity $37
	octave 5
	note C_, 2
	dutycycle 1
	intensity $17
	octave 3
	note F_, 2
	dutycycle 2
	intensity $37
	octave 4
	note G_, 2
	dutycycle 1
	intensity $17
	octave 5
	note C_, 2
	dutycycle 2
	intensity $47
	octave 4
	note A_, 2
	dutycycle 1
	intensity $17
	note G_, 2
	dutycycle 2
	intensity $47
	note F_, 2
	dutycycle 1
	intensity $27
	note A_, 2
	dutycycle 2
	intensity $57
	note G_, 2
	dutycycle 1
	intensity $27
	note F_, 2
	dutycycle 2
	intensity $57
	note D_, 2
	dutycycle 1
	intensity $37
	note G_, 2
	dutycycle 2
	intensity $47
	note F_, 2
	dutycycle 1
	intensity $37
	note D_, 2
	dutycycle 2
	intensity $47
	note C_, 2
	dutycycle 1
	intensity $27
	note F_, 2
	dutycycle 2
	intensity $37
	note D_, 2
	dutycycle 1
	intensity $27
	note C_, 2
	dutycycle 2
	intensity $37
	octave 3
	note A_, 2
	dutycycle 1
	intensity $17
	octave 4
	note D_, 2
	dutycycle 2
	intensity $27
	note C_, 2
	dutycycle 1
	intensity $17
	octave 3
	note A_, 2
	dutycycle 2
	intensity $27
	note F_, 2
	dutycycle 1
	intensity $17
	octave 4
	note C_, 2
	dutycycle 2
	intensity $37
	octave 5
	note C_, 2
	dutycycle 1
	intensity $17
	octave 3
	note F_, 2
	dutycycle 2
	intensity $37
	octave 4
	note G_, 2
	dutycycle 1
	intensity $17
	octave 5
	note C_, 2
	dutycycle 2
	intensity $47
	octave 4
	note A_, 2
	dutycycle 1
	intensity $17
	note G_, 2
	dutycycle 2
	intensity $47
	note F_, 2
	dutycycle 1
	intensity $27
	note A_, 2
	dutycycle 2
	intensity $57
	note G_, 2
	dutycycle 1
	intensity $27
	note F_, 2
	dutycycle 2
	intensity $57
	note D_, 2
	dutycycle 1
	intensity $37
	note G_, 2
	dutycycle 2
	intensity $47
	note F_, 2
	dutycycle 1
	intensity $37
	note D_, 2
	dutycycle 2
	intensity $47
	note C_, 2
	dutycycle 1
	intensity $27
	note F_, 2
	dutycycle 2
	intensity $37
	note D_, 2
	dutycycle 1
	intensity $27
	note C_, 2
	dutycycle 2
	intensity $37
	octave 3
	note A_, 2
	dutycycle 1
	intensity $17
	octave 4
	note D_, 2
	dutycycle 2
	intensity $27
	note C_, 2
	dutycycle 1
	intensity $17
	octave 3
	note A_, 2
	dutycycle 2
	intensity $27
	note F_, 2
	dutycycle 1
	intensity $17
	octave 4
	note C_, 2
	dutycycle 2
	intensity $37
	octave 5
	note C_, 2
	dutycycle 1
	intensity $17
	octave 3
	note F_, 2
	dutycycle 2
	intensity $37
	octave 4
	note G_, 2
	dutycycle 1
	intensity $17
	octave 5
	note C_, 2
	dutycycle 2
	intensity $47
	octave 4
	note A_, 2
	dutycycle 1
	intensity $17
	note G_, 2
	dutycycle 2
	intensity $47
	note F_, 2
	dutycycle 1
	intensity $27
	note A_, 2
	dutycycle 2
	intensity $57
	note G_, 2
	dutycycle 1
	intensity $27
	note F_, 2
	dutycycle 2
	intensity $57
	note D_, 2
	dutycycle 1
	intensity $37
	note G_, 2
	dutycycle 2
	intensity $47
	note F_, 2
	dutycycle 1
	intensity $37
	note D_, 2
	dutycycle 2
	intensity $47
	note C_, 2
	dutycycle 1
	intensity $27
	note F_, 2
	dutycycle 2
	intensity $37
	note D_, 2
	dutycycle 1
	intensity $27
	note C_, 2
	dutycycle 2
	intensity $37
	octave 3
	note A_, 2
	dutycycle 1
	intensity $17
	octave 4
	note D_, 2
	dutycycle 2
	intensity $27
	note C_, 2
	dutycycle 1
	intensity $17
	octave 3
	note A_, 2
	dutycycle 2
	intensity $27
	note F_, 2
	dutycycle 1
	intensity $17
	octave 4
	note C_, 2
	dutycycle 2
	intensity $37
	octave 5
	note C_, 2
	dutycycle 1
	intensity $17
	octave 3
	note F_, 2
	dutycycle 2
	intensity $37
	octave 4
	note G_, 2
	dutycycle 1
	intensity $17
	octave 5
	note C_, 2
	dutycycle 2
	intensity $47
	octave 4
	note A_, 2
	dutycycle 1
	intensity $17
	note G_, 2
	dutycycle 2
	intensity $47
	note F_, 2
	dutycycle 1
	intensity $27
	note A_, 2
	dutycycle 2
	intensity $57
	note G_, 2
	dutycycle 1
	intensity $27
	note F_, 2
	dutycycle 2
	intensity $57
	note D_, 2
	dutycycle 1
	intensity $37
	note G_, 2
	dutycycle 2
	intensity $47
	note F_, 2
	dutycycle 1
	intensity $37
	note D_, 2
	dutycycle 2
	intensity $47
	note C_, 2
	dutycycle 1
	intensity $27
	note F_, 2
	dutycycle 2
	intensity $37
	note D_, 2
	dutycycle 1
	intensity $27
	note C_, 2
	dutycycle 2
	intensity $37
	octave 3
	note A_, 2
	dutycycle 1
	intensity $17
	octave 4
	note D_, 2
	dutycycle 2
	intensity $27
	note C_, 2
	dutycycle 1
	intensity $17
	octave 3
	note A_, 2
	dutycycle 2
	intensity $27
	note F_, 2
	dutycycle 1
	intensity $17
	octave 4
	note C_, 2
	dutycycle 2
	intensity $37
	octave 5
	note C_, 2
	dutycycle 1
	intensity $17
	octave 3
	note F_, 2
	dutycycle 2
	intensity $37
	octave 4
	note G_, 2
	dutycycle 1
	intensity $17
	octave 5
	note C_, 2
	dutycycle 2
	intensity $47
	octave 4
	note A_, 2
	dutycycle 1
	intensity $17
	note G_, 2
	dutycycle 2
	intensity $47
	note F_, 2
	dutycycle 1
	intensity $27
	note A_, 2
	dutycycle 2
	intensity $57
	note G_, 2
	dutycycle 1
	intensity $27
	note F_, 2
	dutycycle 2
	intensity $57
	note D_, 2
	dutycycle 1
	intensity $37
	note G_, 2
	dutycycle 2
	intensity $47
	note F_, 2
	dutycycle 1
	intensity $37
	note D_, 2
	dutycycle 2
	intensity $47
	note C_, 2
	dutycycle 1
	intensity $27
	note F_, 2
	dutycycle 2
	intensity $37
	note D_, 2
	dutycycle 1
	intensity $27
	note C_, 2
	dutycycle 2
	intensity $37
	octave 3
	note A_, 2
	dutycycle 1
	intensity $17
	octave 4
	note D_, 2
	dutycycle 2
	intensity $27
	note C_, 2
	dutycycle 1
	intensity $17
	octave 3
	note A_, 2
	dutycycle 2
	intensity $27
	note F_, 2
	dutycycle 1
	intensity $17
	octave 4
	note C_, 2
	dutycycle 2
	intensity $37
	octave 5
	note C_, 2
	dutycycle 1
	intensity $17
	octave 3
	note F_, 2
	note F_, 2
	dutycycle 2
	intensity $37
	octave 4
	note G_, 2
	dutycycle 1
	intensity $17
	octave 5
	note C_, 2
	dutycycle 2
	intensity $47
	octave 4
	note A_, 2
	dutycycle 1
	intensity $17
	note G_, 2
	dutycycle 2
	intensity $47
	note F_, 2
	dutycycle 1
	intensity $27
	note A_, 2
	dutycycle 2
	intensity $57
	note G_, 2
	dutycycle 1
	intensity $27
	note F_, 2
	dutycycle 2
	intensity $57
	note D_, 2
	dutycycle 1
	intensity $37
	note G_, 2
	dutycycle 2
	intensity $47
	note F_, 2
	dutycycle 1
	intensity $37
	note D_, 2
	dutycycle 2
	intensity $47
	note C_, 2
	dutycycle 1
	intensity $27
	note F_, 2
	dutycycle 2
	intensity $37
	note D_, 2
	dutycycle 1
	intensity $27
	note C_, 2
	dutycycle 2
	intensity $37
	octave 3
	note A_, 2
	dutycycle 1
	intensity $17
	octave 4
	note D_, 2
	dutycycle 2
	intensity $27
	note C_, 2
	intensity $A7
	note C_, 1
	note D_, 1
	note E_, 1
	note F_, 1
Music_Route10_Ch2_loop:
	note F#, 4
	note A_, 2
	octave 5
	note D_, 2
	note C#, 2
	octave 4
	note A_, 2
	note D_, 2
	note F#, 2
	note A_, 2
	octave 5
	note D_, 2
	note C#, 2
	octave 4
	note A_, 2
	note D_, 2
	note F#, 2
	note A_, 2
	octave 5
	note D_, 2
	note C#, 2
	octave 4
	note A_, 2
	note D_, 2
	note F#, 2
	note A_, 2
	octave 5
	note D_, 2
	note C#, 2
	octave 4
	note A_, 2
	note D_, 2
	note G_, 2
	note B_, 2
	octave 5
	note D_, 2
	octave 4
	note B_, 2
	note G_, 2
	note D_, 2
	note G_, 2
	note B_, 2
	octave 5
	note D_, 2
	octave 4
	note B_, 2
	note G_, 2
	note D_, 2
	note F_, 2
	note A_, 2
	octave 5
	note C_, 2
	octave 4
	note A_, 2
	note F_, 2
	note D_, 2
	note F_, 2
	note A_, 2
	octave 5
	note C_, 2
	octave 4
	note A_, 2
	note F_, 2
	octave 3
	note B_, 2
	octave 4
	note D_, 2
	note G_, 2
	note B_, 2
	note G_, 2
	note D_, 2
	octave 3
	note B_, 2
	octave 4
	note D_, 2
	note G_, 2
	note B_, 2
	note G_, 2
	note D_, 2
	octave 3
	note A#, 2
	octave 4
	note D_, 2
	note F_, 2
	note A#, 2
	note F_, 2
	note D_, 2
	octave 3
	note A#, 2
	octave 4
	note D_, 2
	note F_, 2
	note A#, 2
	note F_, 2
	note D_, 2
	octave 3
	note C_, 2
	octave 4
	note C_, 2
	note E_, 2
	note C_, 2
	note E_, 2
	note C_, 2
	note C_, 4
	octave 3
	note A_, 4
	note __, 2
	note A#, 4
	octave 4
	note D_, 2
	note F_, 2
	note A#, 2
	note F_, 2
	note D_, 2
	note C_, 2
	note E_, 2
	note G_, 2
	octave 5
	note C_, 2
	note E_, 2
	note G_, 2
	octave 4
	note F#, 4
	note A_, 2
	octave 5
	note D_, 2
	note C#, 2
	octave 4
	note A_, 2
	note D_, 2
	note F#, 2
	note A_, 2
	octave 5
	note D_, 2
	note C#, 2
	octave 4
	note A_, 2
	note D_, 2
	note F#, 2
	note A_, 2
	octave 5
	note D_, 2
	note C#, 2
	octave 4
	note A_, 2
	note D_, 2
	note F#, 2
	note A_, 2
	octave 5
	note D_, 2
	note C#, 2
	octave 4
	note A_, 2
	note D_, 2
	note G_, 2
	note B_, 2
	octave 5
	note D_, 2
	octave 4
	note B_, 2
	note G_, 2
	note D_, 2
	note G_, 2
	note B_, 2
	octave 5
	note D_, 2
	octave 4
	note B_, 2
	note G_, 2
	note D_, 2
	note F_, 2
	note A_, 2
	octave 5
	note C_, 2
	octave 4
	note A_, 2
	note F_, 2
	note D_, 2
	note F_, 2
	note A_, 2
	octave 5
	note C_, 2
	octave 4
	note A_, 2
	note F_, 2
	octave 3
	note B_, 2
	octave 4
	note D_, 2
	note G_, 2
	note B_, 2
	note G_, 2
	note D_, 2
	octave 3
	note B_, 2
	octave 4
	note D_, 2
	note G_, 2
	note B_, 2
	note G_, 2
	note D_, 2
	octave 3
	note A#, 2
	octave 4
	note D_, 2
	note F_, 2
	note A#, 2
	note F_, 2
	note D_, 2
	octave 3
	note A#, 2
	octave 4
	note D_, 2
	note F_, 2
	note A#, 2
	note F_, 2
	note D_, 2
	octave 3
	note C_, 2
	octave 4
	note C_, 2
	note E_, 2
	note C_, 2
	note E_, 2
	note C_, 2
	note C_, 4
	octave 3
	note A_, 4
	note __, 2
	note A#, 4
	octave 4
	note D_, 2
	note F_, 2
	note A#, 2
	note F_, 2
	note D_, 2
	note C_, 2
	note E_, 2
	note G_, 2
	octave 5
	note C_, 2
	note E_, 2
	note G_, 2
	intensity $BA
	dutycycle 1
	octave 3
	note G_, 12
	note D_, 3
	note A#, 1
	note B_, 6
	note A#, 1
	note A_, 1
	note G_, 12
	note D_, 3
	note A_, 1
	note A#, 8
	note F#, 12
	octave 2
	note A_, 3
	octave 3
	note D#, 1
	note E_, 4
	note __, 2
	note D_, 14
	octave 2
	note F#, 6
	note A_, 6
	octave 3
	note D_, 12
	octave 2
	note A#, 4
	octave 3
	note E_, 4
	note __, 2
	note C_, 8
	octave 2
	note F_, 6
	note A_, 6
	note F_, 6
	note A#, 4
	note __, 2
	note A#, 4
	note __, 2
	octave 3
	note C_, 4
	note C_, 4
	note __, 2
	octave 2
	note F_, 12
	note E_, 14
	octave 3
	note G_, 12
	note D_, 3
	note A#, 1
	note B_, 6
	note A#, 1
	note A_, 1
	note G_, 12
	note D_, 3
	note A_, 1
	note A#, 8
	note F#, 12
	octave 2
	note A_, 3
	octave 3
	note D#, 1
	note E_, 4
	note __, 2
	note D_, 14
	octave 2
	note F#, 6
	note A_, 6
	octave 3
	note D_, 12
	octave 2
	note A#, 4
	octave 3
	note E_, 6
	note F_, 8
	octave 2
	note G_, 6
	note A#, 6
	octave 3
	note D_, 6
	intensity $B5
	note C#, 12
	dutycycle 2
	intensity $5A
	vibrato $00, $44
	note C#, 12
	note D#, 16
	intensity $F7
	note D#, 8
	note E_, 12
	note D_, 12
	notetype $F, $5A
	note C#, 16
	octave 4
	notetype $C, $5A
	note C_, 1
	note D_, 1
	note E_, 1
	note F_, 1
	loopchannel 0, Music_Route10_Ch2_loop

Music_Route10_Ch3:
	notetype $C, $00
	note __, 16
	note __, 16
	note __, 16
	note __, 16
	note __, 16
	note __, 12
	intensity $10
	octave 3
	note A_, 2
	note A#, 2
	vibrato $00, $33
	octave 4
	note C_, 12
	note C_, 16
	note C_, 11
	note F_, 9
	note D_, 12
	note D_, 16
	note D_, 11
	note C_, 7
	octave 3
	note A_, 2
	octave 4
	notetype $F, $10
	note C_, 16
	note C_, 15
	notetype $3, $10
	note C_, 1
	octave 3
	notetype $C, $10
	note A#, 9
	note A_, 16
	note A_, 16
	note A_, 12
	note F_, 2
	note G_, 2
	note A_, 12
	note A_, 16
	note A_, 11
	note A#, 7
	octave 4
	note C_, 2
	octave 3
	note A#, 16
	note A#, 8
	octave 4
	note F_, 12
	note E_, 12
	note A_, 16
	note A_, 16
	note A_, 16
	octave 5
	note A_, 16
	note A_, 8
	octave 3
	note F_, 4
	octave 4
	note F_, 2
	octave 3
	note F_, 4
	note E_, 2
	octave 4
	note E_, 4
	octave 3
	note E_, 2
	note C_, 4
	octave 4
	note C_, 2
Music_Route10_Ch3_loop:
	octave 3
	note D_, 4
	note __, 2
	note D_, 2
	note __, 2
	note D_, 2
	octave 4
	note D_, 4
	octave 3
	note D_, 2
	note __, 4
	note D_, 4
	note __, 8
	note D_, 2
	octave 4
	note D_, 10
	octave 3
	note G_, 2
	note D_, 4
	note __, 2
	note D_, 2
	note __, 2
	note D_, 2
	octave 4
	note D_, 4
	octave 3
	note D_, 2
	note __, 4
	note D_, 4
	note __, 8
	note D_, 2
	octave 4
	note D_, 10
	octave 3
	note G_, 2
	octave 2
	note G_, 4
	note __, 2
	note G_, 2
	note __, 2
	note G_, 2
	octave 3
	note G_, 4
	octave 2
	note A_, 2
	note __, 4
	note A#, 4
	note __, 8
	note A#, 2
	octave 3
	note A#, 10
	note D#, 2
	octave 2
	note A_, 4
	note __, 2
	note A_, 2
	note __, 2
	note A_, 2
	octave 3
	note A_, 4
	octave 2
	note A_, 2
	note __, 4
	note A#, 6
	octave 3
	note A#, 2
	octave 2
	note A#, 4
	octave 3
	note C_, 6
	octave 4
	note C_, 2
	octave 3
	note C_, 6
	note D_, 4
	note __, 2
	note D_, 2
	note __, 2
	note D_, 2
	octave 4
	note D_, 4
	octave 3
	note D_, 2
	note __, 4
	note D_, 4
	note __, 8
	note D_, 2
	octave 4
	note D_, 10
	octave 3
	note G_, 2
	note D_, 4
	note __, 2
	note D_, 2
	note __, 2
	note D_, 2
	octave 4
	note D_, 4
	octave 3
	note D_, 2
	note __, 4
	note D_, 4
	note __, 8
	note D_, 2
	octave 4
	note D_, 10
	octave 3
	note G_, 2
	octave 2
	note G_, 4
	note __, 2
	note G_, 2
	note __, 2
	note G_, 2
	octave 3
	note G_, 4
	octave 2
	note A_, 2
	note __, 4
	note A#, 4
	note __, 8
	note A#, 2
	octave 3
	note A#, 10
	note D#, 2
	octave 2
	note A_, 4
	note __, 2
	note A_, 2
	note __, 2
	note A_, 2
	octave 3
	note A_, 4
	octave 2
	note A_, 2
	note __, 4
	note A#, 6
	octave 3
	note A#, 2
	octave 2
	note A#, 4
	octave 3
	note C_, 6
	octave 4
	note C_, 2
	octave 3
	note C_, 6
	octave 2
	note G_, 8
	note __, 2
	note G_, 2
	octave 3
	note G_, 4
	note D_, 4
	note __, 2
	octave 2
	note G_, 6
	note __, 6
	note G_, 2
	octave 3
	note G_, 4
	note D_, 2
	note G_, 4
	octave 2
	note G_, 2
	octave 3
	note D_, 8
	note __, 2
	note D_, 2
	octave 4
	note D_, 4
	octave 3
	note A_, 4
	note __, 2
	note D_, 6
	note __, 6
	note D_, 2
	octave 4
	note D_, 4
	octave 3
	note A_, 2
	octave 4
	note D_, 4
	octave 3
	note D_, 2
	octave 2
	note A#, 8
	note __, 2
	note A#, 2
	octave 3
	note A#, 4
	octave 2
	note A#, 4
	note __, 2
	note F_, 6
	note __, 6
	note F_, 2
	octave 3
	note F_, 4
	note C_, 2
	note F_, 4
	octave 2
	note F_, 2
	note G_, 6
	octave 3
	note G_, 4
	octave 2
	note G_, 2
	note A_, 6
	octave 3
	note A_, 4
	octave 2
	note A_, 2
	note A#, 4
	octave 3
	note A#, 2
	octave 2
	note A#, 4
	octave 3
	note C_, 6
	octave 4
	note C_, 2
	octave 3
	note C_, 6
	octave 2
	note G_, 8
	note __, 2
	note G_, 2
	octave 3
	note G_, 4
	note D_, 4
	note __, 2
	octave 2
	note G_, 6
	note __, 6
	note G_, 2
	octave 3
	note G_, 4
	note D_, 2
	note G_, 4
	octave 2
	note G_, 2
	octave 3
	note D_, 8
	note __, 2
	note D_, 2
	octave 4
	note D_, 4
	octave 3
	note A_, 4
	note __, 2
	note D_, 6
	note __, 6
	note D_, 2
	octave 4
	note D_, 4
	octave 3
	note A_, 2
	octave 4
	note D_, 4
	octave 3
	note D_, 2
	octave 2
	note A#, 8
	note __, 2
	note A#, 2
	octave 3
	note A#, 4
	octave 2
	note A#, 4
	note __, 2
	note G_, 6
	note __, 6
	note G_, 2
	octave 3
	note G_, 4
	note D_, 2
	note G_, 4
	octave 2
	note G_, 2
	note A_, 12
	note __, 4
	note A_, 2
	note __, 4
	octave 3
	note A_, 12
	note E_, 2
	note A_, 4
	note E_, 2
	octave 2
	note A_, 4
	note __, 2
	note A_, 12
	note __, 4
	note A_, 2
	note __, 4
	octave 3
	note A_, 12
	note E_, 2
	note A_, 4
	note E_, 2
	octave 2
	note A_, 4
	note __, 2
	loopchannel 0, Music_Route10_Ch3_loop

Music_Route10_Ch4:
	notetype $C
	note __, 16
	note __, 16
	note __, 16
	note __, 16
	note __, 16
	note __, 16
	note __, 16
	note __, 16
	note __, 16
	note __, 16
	note __, 16
	note __, 16
	note __, 16
	note __, 16
	note __, 16
	note __, 16
	note __, 16
	note __, 16
	note __, 16
	note __, 16
	note __, 16
	note __, 16
	note __, 16
	note __, 16
	note __, 16
	note __, 16
	note __, 16
	note __, 16
	note __, 8
	togglenoise 3
	note C_, 2
	note G_, 2
	note C_, 2
	note G_, 2
	note C_, 2
	note C_, 2
	note D_, 2
	note C_, 2
	note C_, 2
	note D_, 2
	note C_, 2
	note C_, 2
Music_Route10_Ch4_loop:
	note C_, 2
	note G_, 2
	note G_, 2
	note G_, 2
	note G_, 2
	note C_, 2
	note D_, 4
	note G_, 2
	note G_, 2
	note G_, 2
	note C_, 2
	note G_, 2
	note G_, 2
	note C_, 2
	note G_, 2
	note G_, 2
	note C_, 2
	note D_, 4
	note G_, 2
	note G_, 2
	note G_, 2
	note G_, 2
	note C_, 2
	note G_, 2
	note G_, 2
	note G_, 2
	note G_, 2
	note C_, 2
	note D_, 4
	note G_, 2
	note G_, 2
	note G_, 2
	note C_, 2
	note G_, 2
	note G_, 2
	note C_, 2
	note G_, 2
	note G_, 2
	note C_, 2
	note D_, 4
	note G_, 2
	note G_, 2
	note G_, 2
	note G_, 2
	note C_, 2
	note G_, 2
	note G_, 2
	note G_, 2
	note G_, 2
	note C_, 2
	note D_, 4
	note G_, 2
	note G_, 2
	note G_, 2
	note C_, 2
	note G_, 2
	note G_, 2
	note C_, 2
	note G_, 2
	note G_, 2
	note C_, 2
	note D_, 4
	note G_, 2
	note G_, 2
	note G_, 2
	note G_, 2
	note C_, 2
	note G_, 2
	note G_, 2
	note G_, 2
	note G_, 2
	note C_, 2
	note D_, 4
	note G_, 2
	note G_, 2
	note G_, 2
	note C_, 2
	note G_, 2
	note G_, 2
	note C_, 2
	note G_, 2
	note G_, 2
	note C_, 2
	note D_, 4
	note G_, 2
	note G_, 2
	note G_, 2
	note G_, 2
	note C_, 2
	note G_, 2
	note G_, 2
	note G_, 2
	note G_, 2
	note C_, 2
	note D_, 4
	note G_, 2
	note G_, 2
	note G_, 2
	note C_, 2
	note G_, 2
	note G_, 2
	note C_, 2
	note G_, 2
	note G_, 2
	note C_, 2
	note D_, 4
	note G_, 2
	note G_, 2
	note G_, 2
	note G_, 2
	note C_, 2
	note G_, 2
	note G_, 2
	note G_, 2
	note G_, 2
	note C_, 2
	note D_, 4
	note G_, 2
	note G_, 2
	note G_, 2
	note C_, 2
	note G_, 2
	note G_, 2
	note C_, 2
	note G_, 2
	note G_, 2
	note C_, 2
	note D_, 4
	note G_, 2
	note G_, 2
	note G_, 2
	note G_, 2
	note C_, 2
	note G_, 2
	note G_, 2
	note G_, 2
	note G_, 2
	note C_, 2
	note D_, 4
	note G_, 2
	note G_, 2
	note G_, 2
	note C_, 2
	note G_, 2
	note G_, 2
	note C_, 2
	note G_, 2
	note G_, 2
	note C_, 2
	note D_, 4
	note G_, 2
	note G_, 2
	note G_, 2
	note G_, 2
	note C_, 2
	note G_, 2
	note G_, 2
	note G_, 2
	note G_, 2
	note C_, 2
	note D_, 4
	note G_, 2
	note G_, 2
	note G_, 2
	note C_, 2
	note G_, 2
	note G_, 2
	note C_, 2
	note G_, 2
	note G_, 2
	note C_, 2
	note D_, 4
	note G_, 2
	note G_, 2
	note G_, 2
	note G_, 2
	note C_, 2
	note G_, 2
	note G_, 2
	note G_, 2
	note G_, 2
	note C_, 2
	note D_, 4
	note G_, 2
	note G_, 2
	note G_, 2
	note C_, 2
	note G_, 2
	note G_, 2
	note C_, 2
	note G_, 2
	note G_, 2
	note C_, 2
	note D_, 4
	note G_, 2
	note G_, 2
	note G_, 2
	note G_, 2
	note C_, 2
	note G_, 2
	note G_, 2
	note G_, 2
	note G_, 2
	note C_, 2
	note D_, 4
	note G_, 2
	note G_, 2
	note G_, 2
	note C_, 2
	note G_, 2
	note G_, 2
	note C_, 2
	note G_, 2
	note G_, 2
	note C_, 2
	note D_, 4
	note G_, 2
	note G_, 2
	note G_, 2
	note G_, 2
	note C_, 2
	note G_, 2
	note G_, 2
	note G_, 2
	note G_, 2
	note C_, 2
	note D_, 4
	note G_, 2
	note G_, 2
	note G_, 2
	note C_, 2
	note G_, 2
	note G_, 2
	note C_, 2
	note G_, 2
	note G_, 2
	note C_, 2
	note D_, 4
	note G_, 2
	note G_, 2
	note G_, 2
	note G_, 2
	note C_, 2
	note G_, 2
	note G_, 2
	note G_, 2
	note G_, 2
	note C_, 2
	note D_, 4
	note G_, 2
	note G_, 2
	note G_, 2
	note C_, 2
	note G_, 2
	note G_, 2
	note C_, 2
	note G_, 2
	note G_, 2
	note C_, 2
	note D_, 4
	note G_, 2
	note G_, 2
	note G_, 2
	note G_, 2
	note C_, 2
	note G_, 2
	note G_, 2
	note G_, 2
	note G_, 2
	note C_, 2
	note D_, 4
	note G_, 2
	note G_, 2
	note G_, 2
	note C_, 2
	note G_, 2
	note G_, 2
	note C_, 2
	note G_, 2
	note G_, 2
	note C_, 2
	note D_, 4
	note G_, 2
	note G_, 2
	note G_, 2
	note G_, 2
	note C_, 2
	note G_, 2
	note G_, 2
	note G_, 2
	note G_, 2
	note C_, 2
	note D_, 4
	note G_, 2
	note G_, 2
	note G_, 2
	note C_, 2
	note G_, 2
	note G_, 2
	note C_, 2
	note G_, 2
	note G_, 2
	note C_, 2
	note D_, 4
	note G_, 2
	note G_, 2
	note G_, 2
	note G_, 2
	note C_, 2
	note G_, 2
	note G_, 2
	note G_, 2
	note G_, 2
	note C_, 2
	note D_, 4
	note G_, 2
	note G_, 2
	note G_, 2
	note C_, 2
	note G_, 2
	note G_, 2
	note C_, 2
	note G_, 2
	note G_, 2
	note C_, 2
	note D_, 4
	note G_, 2
	note G_, 2
	note G_, 2
	note G_, 2
	note C_, 2
	note G_, 2
	note G_, 2
	note G_, 2
	note G_, 2
	note C_, 2
	note D_, 4
	note G_, 2
	note G_, 2
	note G_, 2
	note C_, 2
	note G_, 2
	note G_, 2
	note C_, 2
	note G_, 2
	note G_, 2
	note C_, 2
	note D_, 4
	note G_, 2
	note G_, 2
	note G_, 2
	note G_, 2
	note C_, 2
	note G_, 2
	note G_, 2
	note G_, 2
	note G_, 2
	note C_, 2
	note D_, 4
	note G_, 2
	note G_, 2
	note G_, 2
	note C_, 2
	note G_, 2
	note G_, 2
	note C_, 2
	note G_, 2
	note G_, 2
	note C_, 2
	note D_, 4
	note G_, 2
	note G_, 2
	note G_, 2
	note G_, 2
	loopchannel 0, Music_Route10_Ch4_loop

