Music_ShimmerCity:
	musicheader 4, 1, Music_ShimmerCity_Ch1
	musicheader 1, 2, Music_ShimmerCity_Ch2
	musicheader 1, 3, Music_ShimmerCity_Ch3
	musicheader 1, 4, Music_ShimmerCity_Ch4

Music_ShimmerCity_Ch1:
	tempo $BC
	volume $77
	stereopanning $77
	dutycycle 1
	octave 3
	notetype $C, $88
	note C_, 8
	octave 4
	note C_, 1
	octave 3
	note G#, 1
	note D#, 1
	note C_, 1
	note __, 1
	note C#, 1
	note __, 1
	note D#, 4
	notetype $6, $88
	note F_, 1
	note F#, 1
	note G_, 6
	note G#, 1
	note A_, 1
	note A#, 4
	note G_, 2
	note D#, 2
	note __, 2
	note D_, 2
	note __, 2
	note C#, 16
	note D#, 1
	note F_, 1
	note G_, 8
	note D#, 8
	intensity $98
	octave 2
	note B_, 8
	intensity $95
	octave 3
	note D#, 8
	note C#, 8
	octave 2
	note G_, 8
Music_ShimmerCity_Ch1_loop:
	notetype $6, $88
	dutycycle 2
	intensity $94
	octave 3
	note D#, 4
	octave 4
	note F_, 2
	note D#, 2
	note __, 2
	note F_, 2
	note __, 2
	note D#, 12
	note __, 10
	note F_, 2
	note D#, 2
	note __, 2
	note F_, 2
	note __, 2
	octave 3
	note A#, 6
	octave 4
	note C_, 2
	note C#, 2
	note __, 2
	octave 3
	note F_, 2
	note __, 2
	note D#, 6
	note A#, 2
	note A_, 2
	note __, 2
	note A#, 2
	note __, 2
	octave 4
	note D#, 6
	note C#, 2
	note C_, 2
	note __, 2
	octave 3
	note A#, 2
	note __, 2
	note D#, 10
	note G#, 8
	note G_, 8
	note D#, 8
	note __, 4
	octave 4
	note F_, 2
	note D#, 2
	note __, 2
	note F_, 2
	note __, 2
	octave 3
	note G#, 4
	octave 4
	note C_, 2
	note __, 2
	octave 3
	note A#, 2
	note __, 2
	note D#, 4
	note E_, 6
	note G_, 2
	note E_, 2
	note __, 2
	note G_, 2
	note __, 2
	note F_, 6
	note C_, 2
	note F_, 2
	note __, 2
	note D#, 2
	note __, 2
	note C#, 10
	note E_, 8
	octave 2
	note B_, 8
	octave 3
	note D#, 8
	dutycycle 0
	intensity $92
	note G#, 2
	note F#, 2
	octave 4
	note C#, 2
	octave 3
	note G#, 2
	octave 4
	note D#, 2
	note C#, 2
	note D#, 2
	note F_, 2
	note G#, 2
	note F_, 2
	note C#, 2
	note F_, 2
	note C#, 2
	octave 3
	note G#, 2
	note F_, 2
	note C#, 2
	dutycycle 1
	intensity $95
	vibrato $00, $22
	note F#, 8
	note G#, 8
	note A#, 4
	note G#, 2
	note __, 2
	note F#, 2
	note __, 2
	note G#, 2
	note __, 2
	note A#, 8
	note F#, 8
	intensity $2F
	note B_, 16
	intensity $95
	note F#, 8
	note F_, 4
	note E_, 4
	note D#, 6
	note A#, 8
	intensity $88
	note D#, 10
	note F#, 8
	note F_, 8
	note C#, 8
	intensity $98
	octave 4
	note C#, 8
	intensity $97
	note C#, 8
	octave 3
	note F#, 6
	note D#, 2
	note __, 2
	note F_, 2
	note __, 2
	note F#, 10
	note F_, 8
	note D#, 4
	note __, 2
	note F_, 2
	note __, 2
	note G_, 2
	note __, 2
	intensity $88
	note G#, 16
	note F#, 2
	note F#, 16
	intensity $96
	note F#, 8
	intensity $68
	note F_, 8
	intensity $78
	note F#, 8
	intensity $88
	note G#, 8
	intensity $97
	octave 4
	note C#, 8
	octave 3
	note B_, 8
	note A#, 8
	note E_, 8
	loopchannel 0, Music_ShimmerCity_Ch1_loop

Music_ShimmerCity_Ch2:
	notetype $C, $00
	note __, 2
	dutycycle 2
	intensity $C5
	vibrato $05, $33
	octave 4
	note F_, 1
	note D#, 1
	note __, 1
	note F_, 1
	note __, 1
	intensity $C8
	note D#, 3
	intensity $C5
	note D#, 6
	note __, 2
	note F_, 1
	note D#, 1
	note __, 1
	note F_, 1
	note __, 1
	intensity $C8
	note D#, 3
	intensity $C5
	note D#, 6
	note __, 2
	note F_, 1
	note D#, 1
	note __, 1
	note F_, 1
	note __, 1
	note D#, 3
	note C#, 1
	note C_, 1
	note __, 1
	octave 3
	note A#, 1
	note __, 1
	note G#, 5
	note G_, 4
	note F_, 4
	note D#, 4
Music_ShimmerCity_Ch2_loop:
	notetype $C, $C5
	dutycycle 1
	note C_, 5
	note C#, 1
	note D_, 1
	note D#, 1
	note __, 1
	note G#, 1
	note __, 1
	note G_, 1
	note __, 1
	note G#, 1
	note __, 1
	octave 4
	note C_, 6
	octave 3
	note A#, 1
	note G#, 1
	note C#, 6
	octave 2
	note A#, 1
	octave 3
	note C_, 1
	note C#, 6
	note D_, 1
	note D#, 1
	note G_, 1
	note __, 1
	note F_, 1
	note __, 1
	note D#, 1
	note __, 1
	note C#, 1
	note __, 1
	note C_, 6
	note C#, 1
	note C_, 1
	octave 2
	note A#, 5
	note B_, 4
	octave 3
	note C_, 5
	note C#, 1
	note D_, 1
	note D#, 1
	note __, 1
	note G#, 1
	note __, 1
	note G_, 1
	note __, 1
	note G#, 1
	note __, 1
	octave 4
	note C_, 6
	octave 3
	note A#, 1
	intensity $C2
	note G#, 1
	intensity $C5
	note G#, 6
	note F_, 1
	note G_, 1
	note G#, 6
	note F#, 1
	note E_, 1
	note F#, 1
	note __, 1
	note E_, 1
	note __, 1
	note D#, 1
	note __, 1
	octave 2
	note B_, 1
	note __, 1
	intensity $4F
	octave 3
	note F#, 6
	intensity $C5
	note G#, 1
	note F#, 1
	intensity $C7
	note F_, 7
	dutycycle 0
	note F#, 1
	note G#, 1
	note A#, 2
	note B_, 1
	octave 4
	note C#, 1
	note __, 1
	note D#, 1
	note __, 1
	note C#, 3
	octave 3
	note B_, 1
	note __, 1
	note A#, 1
	note __, 1
	note B_, 1
	note __, 1
	octave 4
	note C#, 5
	note D#, 1
	note C#, 1
	octave 3
	note F#, 5
	notetype $6, $C7
	note G_, 1
	note G#, 7
	note A#, 12
	note B_, 2
	note A#, 2
	note __, 2
	note F#, 2
	note __, 2
	note D#, 2
	note __, 2
	note F#, 2
	note __, 2
	note G_, 1
	intensity $C5
	note G#, 6
	intensity $5F
	note G#, 9
	intensity $C7
	note A#, 1
	note B_, 1
	intensity $C5
	octave 4
	note C#, 8
	octave 3
	note B_, 8
	note A#, 12
	note B_, 2
	note A#, 2
	note __, 2
	note G#, 2
	note __, 2
	note F#, 2
	note __, 2
	note G#, 2
	note __, 2
	note A#, 14
	note B_, 2
	note G_, 2
	note __, 2
	note G_, 2
	note __, 2
	note G#, 2
	note __, 2
	note A#, 2
	note __, 2
	intensity $C8
	note B_, 12
	note A#, 2
	note G#, 2
	octave 4
	note C_, 4
	note __, 2
	note C_, 2
	note __, 2
	octave 3
	note A#, 2
	note __, 2
	note G#, 2
	note __, 2
	octave 4
	note C#, 16
	intensity $C5
	note C#, 16
	dutycycle 2
	octave 3
	note A#, 8
	note G#, 8
	note D#, 8
	note C#, 8
	loopchannel 0, Music_ShimmerCity_Ch2_loop

Music_ShimmerCity_Ch3:
	dutycycle 5
	octave 2
	notetype $E, $25
	note G#, 6
	octave 3
	notetype $6, $25
	note C_, 1
	note D#, 1
	note G#, 10
	octave 2
	note A#, 2
	note __, 2
	octave 3
	note C_, 10
	note C_, 12
	note C#, 2
	note C_, 2
	note __, 2
	octave 2
	note B_, 2
	note __, 2
	note A#, 10
	note A#, 8
	octave 3
	note D#, 16
	note E_, 8
	note D#, 8
	note C#, 8
	note D#, 8
Music_ShimmerCity_Ch3_loop:
	octave 2
	note G#, 8
	octave 3
	note G#, 6
	note G_, 2
	note G#, 2
	note F_, 2
	note __, 2
	note D#, 2
	note __, 2
	note C_, 2
	octave 2
	note G#, 4
	octave 3
	note C#, 8
	octave 2
	note F_, 8
	note A#, 8
	note G#, 8
	note G_, 8
	octave 3
	note G_, 6
	note F_, 2
	note D#, 2
	note C#, 2
	note __, 2
	octave 2
	note A#, 2
	note __, 2
	note G_, 2
	note D#, 4
	note G#, 8
	note D#, 8
	note F_, 8
	note G_, 8
	note G#, 8
	octave 3
	note G#, 6
	note G_, 2
	note G#, 2
	note F_, 2
	note __, 2
	note D#, 2
	note __, 2
	note C_, 2
	octave 2
	note G#, 4
	note E_, 8
	octave 3
	note C_, 8
	octave 2
	note F_, 8
	note G#, 8
	note A_, 16
	note G#, 16
	octave 3
	note C#, 8
	octave 4
	note C#, 6
	note C_, 2
	note C#, 2
	octave 3
	note B_, 2
	note __, 2
	note G#, 2
	note __, 2
	note F_, 2
	note C#, 4
	note F#, 2
	note __, 2
	note F#, 2
	note __, 4
	octave 2
	note F#, 2
	octave 3
	note F#, 4
	note F_, 2
	note __, 2
	note F_, 2
	note __, 4
	note F_, 6
	note E_, 8
	octave 2
	note A#, 8
	note B_, 8
	octave 3
	note D_, 8
	note C#, 2
	note __, 2
	note C#, 2
	note __, 4
	note F#, 2
	note C#, 4
	note C_, 2
	note __, 2
	note C_, 2
	note __, 4
	note C_, 6
	octave 2
	note B_, 8
	note G#, 8
	octave 3
	note C#, 2
	octave 2
	note B_, 2
	note __, 2
	note A#, 2
	note __, 2
	note G#, 2
	note __, 2
	note F#, 10
	octave 3
	note F#, 8
	note D_, 8
	note __, 2
	note D_, 2
	note __, 2
	note D#, 10
	octave 2
	note A#, 8
	octave 3
	note D#, 2
	note C#, 2
	note __, 2
	octave 2
	note B_, 2
	note __, 2
	note A#, 2
	note __, 2
	note G#, 10
	octave 3
	note D#, 6
	note G#, 4
	note __, 2
	note F#, 2
	note __, 2
	note F_, 2
	note __, 2
	note D#, 2
	note __, 2
	note C#, 8
	octave 2
	note G#, 8
	note A#, 8
	octave 3
	note C#, 8
	note E_, 16
	note E_, 8
	octave 2
	note G_, 8
	loopchannel 0, Music_ShimmerCity_Ch3_loop

Music_ShimmerCity_Ch4:
	togglenoise 3
	notetype $C
	note B_, 4
	note __, 4
	note G_, 2
	note G_, 1
	note G_, 1
	note __, 1
	note G_, 1
	note __, 1
	note B_, 4
	note __, 5
	note G_, 2
	note G_, 1
	note G_, 1
	note __, 1
	note G_, 1
	note __, 1
	note B_, 4
	note __, 5
	note G_, 2
	note G_, 1
	note G_, 1
	note __, 1
	note G_, 1
	note __, 1
	note B_, 4
	note __, 1
	note G_, 1
	note __, 3
	note G_, 1
	note __, 3
	note G_, 1
	note G_, 1
	note A#, 1
	note __, 1
Music_ShimmerCity_Ch4_loop:
	note B_, 2
	note G_, 1
	note G_, 1
	note A#, 2
	note G_, 1
	note G_, 1
	note A#, 1
	note D_, 1
	note G_, 1
	note G_, 1
	note B_, 1
	note A#, 1
	note G_, 1
	note G_, 1
	loopchannel 0, Music_ShimmerCity_Ch4_loop

