Music_SnareAdminBattle:
	musicheader 4, 1, Music_SnareAdminBattle_Ch1
	musicheader 1, 2, Music_SnareAdminBattle_Ch2
	musicheader 1, 3, Music_SnareAdminBattle_Ch3
	musicheader 1, 4, Music_SnareAdminBattle_Ch4

Music_SnareAdminBattle_Ch1:
	tempo $65
	volume $77
	stereopanning $77
	vibrato $00, $55
	octave 3
	notetype $C, $A8
	note D#, 6
	note B_, 6
	note A#, 4
	note A_, 8
	notetype $E, $A8
	note A_, 3
	notetype $6, $A8
	note G#, 1
	note G_, 1
	note F_, 1
	note E_, 1
	note D_, 1
	note C#, 1
	note C_, 1
	octave 2
	note A#, 1
	note A_, 1
	notetype $C, $A8
	note G_, 16
	intensity $A7
	note G_, 12
	note __, 6
	dutycycle 1
	intensity $C8
	vibrato $00, $00
	note G_, 1
	note __, 3
	note G_, 1
	note __, 3
	note G_, 1
	note __, 3
	note G_, 1
	note __, 3
	octave 3
	note G_, 1
	note __, 1
	note G_, 1
	note __, 1
	note G_, 1
	note __, 1
	note G_, 1
	note __, 1
	note G_, 1
	note __, 1
	note G_, 1
	note __, 1
	note G_, 1
	note __, 1
Music_SnareAdminBattle_Ch1_loop:
	notetype $C, $A8
	octave 2
	intensity $A8
	note G_, 4
	note __, 2
	octave 3
	note C_, 4
	note __, 2
	note D#, 4
	note __, 14
	note __, 2
	note D_, 4
	note __, 2
	octave 2
	note B_, 4
	note __, 2
	note G#, 4
	note __, 14
	note __, 2
	note A#, 4
	note __, 2
	octave 3
	note D#, 4
	note __, 2
	note F#, 4
	note __, 14
	note __, 2
	note D_, 4
	note __, 2
	octave 2
	note B_, 4
	note __, 2
	octave 3
	note F_, 4
	note F_, 6
	note F#, 1
	note G_, 1
	note G#, 8
	dutycycle 2
	intensity $A7
	note C#, 6
	note A_, 6
	note F#, 6
	note C#, 6
	note A_, 4
	note F#, 4
	note G#, 2
	note G_, 2
	note F#, 2
	note F_, 4
	note G#, 2
	note B_, 2
	octave 4
	note C#, 4
	octave 3
	note B_, 2
	note A_, 2
	note B_, 2
	note A_, 2
	note G#, 2
	note F#, 2
	note F_, 2
	notetype $D, $A7
	note C#, 6
	notetype $6, $A7
	note F#, 1
	note G#, 1
	note A_, 1
	octave 4
	note C_, 1
	note C#, 15
	intensity $3E
	note C_, 16
	intensity $A7
	octave 3
	note B_, 16
	intensity $3E
	note A_, 16
	intensity $A7
	note G#, 16
	intensity $3E
	note F#, 16
	intensity $A7
	note F_, 16
	note C#, 12
	note A_, 12
	note F#, 12
	note C#, 12
	note A_, 8
	note F#, 8
	note G#, 4
	note F#, 4
	note E_, 4
	note B_, 8
	note A_, 4
	note G#, 4
	octave 4
	note D_, 8
	note C#, 4
	octave 3
	note B_, 4
	note A_, 4
	note G#, 4
	note A_, 4
	note G#, 4
	note E_, 4
	note C#, 12
	dutycycle 1
	intensity $A5
	note F#, 1
	note __, 1
	note F#, 1
	note __, 1
	note F#, 2
	note __, 2
	note F#, 2
	note __, 2
	note F#, 2
	note __, 2
	note F#, 2
	note __, 6
	note F#, 1
	note __, 1
	note F#, 1
	note __, 1
	note F#, 2
	note __, 2
	note F#, 2
	note __, 2
	note F#, 2
	note __, 2
	note F#, 2
	note __, 6
	note F#, 1
	note __, 1
	note F#, 1
	note __, 1
	note F#, 2
	note __, 2
	note F#, 2
	note __, 2
	note F#, 2
	note __, 2
	note F#, 2
	note __, 6
	note F#, 1
	note __, 1
	note F#, 1
	note __, 1
	note F#, 2
	note __, 2
	note F#, 2
	note __, 2
	note F#, 2
	note __, 2
	note F#, 2
	note __, 2
	note F#, 2
	note __, 2
	note F#, 2
	note __, 2
	notetype $8, $A5
	note F#, 1
	note __, 1
	note F#, 1
	note __, 1
	note F#, 1
	note __, 1
	note F#, 1
	note __, 1
	note F#, 1
	note __, 1
	note F#, 1
	note __, 1
	intensity $A7
	octave 2
	note G_, 9
	octave 3
	note D_, 3
	note B_, 12
	octave 2
	note A_, 9
	octave 3
	note E_, 9
	octave 4
	note C#, 6
	notetype $E, $A7
	note D_, 6
	notetype $6, $A7
	note C#, 1
	note C_, 1
	octave 3
	note B_, 14
	note A_, 1
	note G_, 1
	note F#, 8
	note A_, 8
	note G_, 8
	note F#, 8
	note G_, 12
	note E_, 4
	note C_, 16
	note D_, 12
	octave 2
	note A_, 12
	octave 3
	note F#, 8
	note G_, 12
	intensity $A5
	note E_, 1
	note __, 1
	note E_, 1
	note __, 1
	note E_, 2
	note __, 2
	note E_, 2
	note __, 2
	note E_, 2
	note __, 2
	note E_, 2
	note __, 6
	note E_, 1
	note __, 1
	note E_, 1
	note __, 1
	note E_, 2
	note __, 2
	note E_, 2
	note __, 2
	note E_, 2
	note __, 2
	note E_, 2
	note __, 6
	note E_, 1
	note __, 1
	note E_, 1
	note __, 1
	note E_, 2
	note __, 2
	note E_, 2
	note __, 2
	note E_, 2
	note __, 2
	note E_, 2
	note __, 6
	note E_, 1
	note __, 1
	note E_, 1
	note __, 1
	note E_, 2
	note __, 2
	note E_, 2
	note __, 2
	note E_, 2
	note __, 2
	note E_, 2
	note __, 2
	note E_, 2
	note __, 2
	note E_, 2
	note __, 2
	notetype $8, $A5
	note E_, 1
	note __, 1
	note E_, 1
	note __, 1
	note E_, 1
	note __, 1
	note E_, 1
	note __, 1
	note E_, 1
	note __, 1
	note E_, 1
	note __, 1
	notetype $B, $A5
	note D#, 6
	notetype $6, $A5
	note __, 1
	note D#, 1
	note __, 1
	note D#, 1
	note __, 1
	note D#, 2
	note __, 2
	note D#, 2
	note __, 2
	note D#, 2
	note __, 2
	note D#, 2
	note __, 6
	note D#, 1
	note __, 1
	note D#, 1
	note __, 1
	note D#, 2
	note __, 2
	note D#, 2
	note __, 2
	note D#, 2
	note __, 2
	note D#, 2
	note __, 6
	note D#, 1
	note __, 1
	note D#, 1
	note __, 1
	note D#, 2
	note __, 2
	note D#, 2
	note __, 2
	note D#, 2
	note __, 2
	note D#, 2
	note __, 6
	note D#, 1
	note __, 1
	note D#, 1
	note __, 1
	note D#, 2
	note __, 2
	note D#, 2
	note __, 2
	note D#, 2
	note __, 2
	note D#, 2
	note __, 2
	note D#, 2
	note __, 2
	note D#, 2
	note __, 2
	notetype $8, $A5
	note D#, 1
	note __, 1
	note D#, 1
	note __, 1
	note D#, 1
	note __, 1
	note D#, 1
	note __, 1
	note D#, 1
	note __, 1
	note D#, 1
	note __, 1
	intensity $3E
	note C_, 12
	intensity $A8
	note C_, 9
	notetype $6, $A8
	note C#, 1
	note D_, 1
	note D#, 1
	note E_, 1
	note F_, 16
	intensity $A5
	note F_, 16
	octave 2
	note G#, 4
	note __, 8
	octave 3
	note C_, 4
	note __, 8
	note F_, 4
	note __, 16
	note __, 16
	note __, 4
	note C#, 4
	note __, 8
	octave 2
	note A#, 4
	note __, 8
	note F#, 4
	note __, 16
	note __, 16
	note __, 4
	note G#, 4
	note __, 8
	octave 3
	note C_, 4
	note __, 8
	note D#, 4
	note __, 16
	note __, 16
	note __, 4
	octave 2
	note A#, 4
	note __, 8
	octave 3
	note D#, 4
	note __, 8
	intensity $C7
	note F_, 8
	intensity $88
	note F_, 16
	intensity $78
	note F_, 16
	intensity $68
	note F_, 16
	intensity $58
	note F_, 16
	note F_, 16
	intensity $5C
	note F_, 10
	intensity $C8
	note F#, 1
	note G_, 1
	note G#, 1
	note B_, 1
	octave 4
	note C_, 1
	note D_, 1
	note D#, 4
	tone $0007
	note D_, 4
	intensity $B8
	note D_, 4
	tone $0006
	note D_, 4
	intensity $A8
	note D_, 4
	tone $0005
	note D_, 4
	intensity $98
	note D_, 4
	tone $0004
	note D_, 4
	intensity $88
	note D_, 4
	tone $0003
	note D_, 4
	intensity $78
	note D_, 4
	tone $0002
	note D_, 4
	intensity $68
	note D_, 4
	tone $0001
	intensity $58
	note D_, 4
	intensity $48
	note D_, 4
	tone $0000
	intensity $37
	note D_, 4
	note __, 16
	note __, 16
	note __, 16
	note __, 16
	loopchannel 0, Music_SnareAdminBattle_Ch1_loop

Music_SnareAdminBattle_Ch2:
	vibrato $00, $22
	octave 4
	notetype $C, $C8
	note C_, 6
	note D#, 6
	note F_, 4
	note F#, 8
	notetype $E, $C8
	note F#, 3
	notetype $6, $C8
	note D#, 1
	note C_, 1
	octave 3
	note A#, 1
	note A_, 1
	note G_, 1
	note F#, 1
	note F_, 1
	note D#, 1
	note D_, 1
	notetype $C, $C8
	note C_, 16
	intensity $C7
	note C_, 12
	note __, 6
	dutycycle 1
	intensity $C8
	vibrato $00, $00
	note C_, 1
	note __, 3
	note C_, 1
	note __, 3
	note C_, 1
	note __, 3
	note C_, 1
	note __, 3
	octave 4
	note C_, 1
	note __, 1
	note C_, 1
	note __, 1
	note C_, 1
	note __, 1
	note C_, 1
	note __, 1
	note C_, 1
	note __, 1
	note C_, 1
	note __, 1
	note C_, 1
	note __, 1
Music_SnareAdminBattle_Ch2_loop:
	octave 3
	dutycycle 1
	notetype $C, $C8
	intensity $C8
	vibrato $00, $00
	note C_, 4
	note __, 2
	note D#, 4
	note __, 2
	note F#, 4
	dutycycle 2
	intensity $77
	vibrato $00, $23
	octave 5
	note C_, 6
	note D#, 6
	note F#, 4
	dutycycle 1
	intensity $C8
	vibrato $00, $00
	octave 3
	note F_, 4
	note __, 2
	note D_, 4
	note __, 2
	octave 2
	note B_, 4
	dutycycle 2
	intensity $77
	vibrato $00, $23
	octave 5
	note F_, 6
	note D_, 6
	octave 4
	note B_, 4
	dutycycle 1
	intensity $C8
	vibrato $00, $00
	octave 3
	note D#, 4
	note __, 2
	note F#, 4
	note __, 2
	note A_, 4
	dutycycle 2
	intensity $77
	vibrato $00, $23
	octave 5
	note D#, 6
	note F#, 6
	note A_, 4
	dutycycle 1
	intensity $C8
	vibrato $00, $00
	octave 3
	note F_, 4
	note __, 2
	note D_, 4
	note __, 2
	intensity $C4
	vibrato $00, $55
	octave 4
	note D_, 4
	intensity $58
	note D_, 4
	intensity $5D
	note D_, 6
	intensity $C8
	note D_, 6
	intensity $C7
	vibrato $00, $23
	octave 3
	note F#, 2
	note A_, 2
	octave 4
	note C#, 1
	note __, 1
	intensity $C8
	note C#, 8
	intensity $C7
	note C#, 6
	octave 3
	note A_, 4
	octave 4
	notetype $6, $C7
	note C_, 1
	note C#, 7
	octave 3
	note A_, 8
	intensity $C8
	note B_, 16
	note G#, 16
	note F_, 16
	note G_, 1
	note G#, 15
	intensity $C7
	note F#, 8
	dutycycle 0
	intensity $A7
	octave 4
	note F#, 2
	note __, 2
	note F#, 2
	note __, 2
	note E_, 2
	note __, 2
	note F#, 2
	note __, 6
	note A_, 2
	note __, 6
	note F#, 2
	note __, 6
	note E_, 2
	note __, 6
	note C#, 2
	note __, 2
	note E_, 2
	note __, 2
	note F#, 2
	note __, 2
	octave 5
	note C_, 1
	intensity $A8
	note C#, 15
	intensity $A7
	note C#, 4
	note C_, 4
	octave 4
	note B_, 4
	note A_, 4
	note F#, 4
	note E_, 4
	note F_, 4
	note F#, 4
	notetype $8, $A7
	note E_, 2
	note C#, 2
	note C_, 2
	octave 3
	note B_, 2
	note A_, 2
	note E_, 2
	dutycycle 1
	intensity $C7
	note F#, 3
	note A_, 3
	octave 4
	notetype $C, $C7
	note C#, 1
	note __, 1
	intensity $C8
	note C#, 8
	intensity $C7
	note C#, 6
	octave 3
	note A_, 4
	octave 4
	notetype $6, $C7
	note C_, 1
	note C#, 7
	octave 3
	note A_, 8
	intensity $C8
	note B_, 16
	note G#, 16
	note C#, 16
	note D#, 1
	note E_, 15
	intensity $C7
	note F#, 8
	dutycycle 2
	intensity $A7
	octave 4
	note F#, 4
	note E_, 4
	note F#, 4
	note B_, 4
	note E_, 4
	note F#, 16
	note E_, 4
	note F#, 4
	note B_, 4
	note E_, 4
	octave 5
	note C_, 1
	intensity $A8
	note C#, 16
	note C#, 3
	note C#, 16
	intensity $A7
	note C#, 4
	octave 4
	note B_, 4
	note A#, 4
	note F#, 4
	note E_, 4
	note C#, 4
	octave 3
	note A#, 4
	note F#, 4
	intensity $C7
	octave 2
	note B_, 4
	octave 3
	note D_, 4
	note __, 4
	note F#, 12
	note D_, 8
	note C#, 8
	note E_, 8
	note G#, 1
	note A_, 7
	note G_, 8
	note F#, 14
	note F_, 1
	note E_, 1
	note D_, 16
	notetype $C, $C7
	note __, 16
	note E_, 2
	note G_, 2
	note __, 2
	note B_, 6
	note G_, 4
	note F#, 4
	note A_, 4
	octave 4
	notetype $6, $C7
	note C#, 1
	note D_, 7
	note C_, 8
	octave 3
	note B_, 14
	dutycycle 1
	octave 4
	note E_, 1
	note F#, 1
	note G_, 1
	note A_, 1
	note B_, 14
	intensity $5E
	note A#, 16
	intensity $C7
	note A_, 16
	intensity $5E
	note G_, 16
	intensity $C7
	note F#, 16
	intensity $5E
	note E_, 16
	intensity $C7
	note F#, 16
	intensity $5E
	note G_, 16
	intensity $C7
	note G#, 1
	note A_, 1
	note A#, 14
	intensity $5E
	note A_, 16
	intensity $C7
	note G#, 16
	intensity $5E
	note G_, 16
	intensity $C7
	note F_, 16
	intensity $5E
	note D#, 16
	intensity $C7
	note F_, 16
	intensity $5E
	note F#, 2
	note G_, 14
	intensity $C8
	note G_, 11
	note F#, 1
	note F_, 1
	note E_, 1
	note D#, 1
	note D_, 1
	note C#, 1
	note C_, 15
	intensity $C7
	note C_, 16
	octave 3
	note C_, 4
	note __, 8
	note F_, 4
	note __, 8
	note G#, 4
	note __, 4
	dutycycle 2
	intensity $A6
	octave 5
	note C_, 12
	note F_, 12
	note G#, 8
	octave 3
	dutycycle 1
	note F#, 4
	note __, 8
	note C#, 4
	note __, 8
	octave 2
	note A#, 4
	note __, 4
	octave 5
	dutycycle 2
	note F#, 12
	note C#, 12
	octave 4
	note A#, 8
	octave 3
	dutycycle 1
	note C_, 4
	note __, 8
	note D#, 4
	note __, 8
	note G#, 4
	note __, 4
	octave 5
	dutycycle 2
	note C_, 12
	note D#, 12
	note G#, 8
	octave 3
	dutycycle 1
	note F_, 4
	note __, 8
	note G#, 4
	note __, 8
	note A#, 8
	intensity $88
	note A#, 16
	intensity $78
	note A#, 16
	intensity $68
	note A#, 16
	intensity $58
	note A#, 16
	note B_, 16
	intensity $5C
	note B_, 10
	intensity $C8
	octave 4
	note C_, 1
	note D_, 1
	note F_, 1
	note G_, 1
	note G#, 1
	note B_, 1
	octave 5
	note C_, 4
	tone $0007
	octave 4
	note B_, 4
	intensity $B8
	note B_, 4
	tone $0006
	note B_, 4
	intensity $A8
	note B_, 4
	tone $0005
	note B_, 4
	intensity $98
	note B_, 4
	tone $0004
	note B_, 4
	intensity $88
	note B_, 4
	tone $0003
	note B_, 4
	intensity $78
	note B_, 4
	tone $0002
	note B_, 4
	intensity $68
	note B_, 4
	tone $0001
	intensity $58
	note B_, 4
	intensity $48
	note B_, 4
	tone $0000
	intensity $37
	note B_, 4
	note __, 16
	note __, 16
	note __, 16
	note __, 16
	loopchannel 0, Music_SnareAdminBattle_Ch2_loop

Music_SnareAdminBattle_Ch3:
	dutycycle 4
	octave 3
	notetype $C, $14
	note C_, 16
	note F#, 6
	note F_, 4
	note C_, 2
	octave 2
	note A#, 2
	note B_, 2
	octave 3
	note C_, 2
	octave 4
	note C_, 2
	octave 3
	note A#, 2
	note F#, 2
	note F_, 2
	note D#, 2
	note C_, 2
	octave 2
	note A#, 2
	octave 3
	note C_, 2
	octave 4
	note C_, 2
	octave 3
	note A#, 2
	note F#, 2
	note F_, 2
	note D#, 2
	note C_, 2
	octave 2
	note A#, 2
	octave 3
	note C_, 2
	octave 4
	note C_, 2
	octave 3
	note A#, 2
	note F#, 2
	note F_, 2
	note D#, 2
	note C_, 2
	octave 2
	note A#, 2
	octave 3
	note C_, 2
	octave 4
	note C_, 2
	octave 3
	note A#, 2
	note F#, 2
	note F_, 2
	note D#, 2
	note C_, 2
	octave 2
	note A#, 2
Music_SnareAdminBattle_Ch3_loop:
	octave 3
	note C_, 2
	octave 4
	note C_, 2
	octave 3
	note A#, 2
	note F#, 2
	note F_, 2
	note D#, 2
	note C_, 2
	octave 2
	note A#, 2
	octave 3
	note C_, 2
	octave 4
	note C_, 2
	octave 3
	note A#, 2
	note F#, 2
	note F_, 2
	note D#, 2
	note C_, 2
	note C#, 2
	note D_, 2
	octave 4
	note D_, 2
	octave 3
	note B_, 2
	note G#, 2
	note G_, 2
	note F_, 2
	note D_, 2
	note C#, 2
	note D_, 2
	octave 4
	note D_, 2
	octave 3
	note B_, 2
	note G#, 2
	note G_, 2
	note F_, 2
	note C#, 2
	note D_, 2
	note D#, 2
	octave 4
	note D#, 2
	note C_, 2
	octave 3
	note A_, 2
	note G#, 2
	note F#, 2
	note D#, 2
	note D_, 2
	note D#, 2
	octave 4
	note D#, 2
	note C_, 2
	octave 3
	note A_, 2
	note G#, 2
	note F#, 2
	note D#, 2
	note E_, 2
	note F_, 2
	octave 4
	note F_, 2
	note D_, 2
	note C_, 2
	octave 3
	note B_, 2
	note G#, 2
	note F_, 2
	note E_, 2
	note F_, 2
	octave 4
	note F_, 2
	note D_, 2
	note C_, 2
	octave 3
	note B_, 2
	note G#, 2
	note E_, 2
	note F_, 2
	note F#, 2
	octave 4
	note C#, 2
	octave 3
	note F#, 2
	octave 4
	note C#, 2
	octave 3
	note F#, 2
	octave 4
	note C#, 2
	octave 3
	note F#, 2
	octave 4
	note C#, 2
	octave 3
	note F#, 2
	octave 4
	note C#, 2
	octave 3
	note F#, 2
	octave 4
	note C#, 2
	octave 3
	note F#, 2
	octave 4
	note C#, 2
	octave 3
	note F#, 2
	octave 4
	note C#, 2
	octave 3
	note G#, 2
	octave 4
	note C#, 2
	octave 3
	note G#, 2
	octave 4
	note C#, 2
	octave 3
	note G#, 2
	octave 4
	note C#, 2
	octave 3
	note G#, 2
	octave 4
	note C#, 2
	octave 3
	note G#, 2
	octave 4
	note C#, 2
	octave 3
	note G#, 2
	octave 4
	note C#, 2
	octave 3
	note G#, 2
	octave 4
	note C#, 2
	octave 3
	note G#, 2
	octave 4
	note C#, 2
	octave 3
	note F#, 2
	octave 4
	note C#, 2
	octave 3
	note F#, 2
	octave 4
	note C#, 2
	octave 3
	note F#, 2
	octave 4
	note C#, 2
	octave 3
	note F#, 2
	octave 4
	note C#, 2
	octave 3
	note F#, 2
	octave 4
	note C#, 2
	octave 3
	note F#, 2
	octave 4
	note C#, 2
	octave 3
	note F#, 2
	octave 4
	note C#, 2
	octave 3
	note F#, 2
	octave 4
	note C#, 2
	octave 3
	note F#, 2
	octave 4
	note C#, 2
	octave 3
	note F#, 2
	octave 4
	note C#, 2
	octave 3
	note F#, 2
	octave 4
	note C#, 2
	octave 3
	note F#, 2
	octave 4
	note C#, 2
	octave 3
	note F#, 2
	octave 4
	note C#, 2
	octave 3
	note B_, 2
	note A_, 2
	note F#, 2
	note E_, 2
	note C#, 2
	note E_, 2
	note D_, 2
	note A_, 2
	note D_, 2
	note A_, 2
	note D_, 2
	note A_, 2
	note D_, 2
	note A_, 2
	note D_, 2
	note A_, 2
	note D_, 2
	note A_, 2
	note D_, 2
	note A_, 2
	note D_, 2
	note A_, 2
	note E_, 2
	note B_, 2
	note E_, 2
	note B_, 2
	note E_, 2
	note B_, 2
	note E_, 2
	note B_, 2
	note E_, 2
	note B_, 2
	note E_, 2
	note B_, 2
	note E_, 2
	note B_, 2
	note E_, 2
	note B_, 2
	note F#, 2
	note B_, 2
	note F#, 2
	note B_, 2
	note F#, 2
	note B_, 2
	note F#, 2
	note B_, 2
	note F#, 2
	note B_, 2
	note F#, 2
	note B_, 2
	note F#, 2
	note B_, 2
	note F#, 2
	note B_, 2
	note F#, 2
	note A#, 2
	note F#, 2
	note A#, 2
	note F#, 2
	note A#, 2
	note F#, 2
	note A#, 2
	note F#, 2
	note A#, 2
	note F#, 2
	note A#, 2
	note F#, 2
	note C#, 2
	octave 2
	note A#, 2
	note F#, 2
	note G_, 2
	octave 3
	note D_, 2
	octave 2
	note G_, 2
	octave 3
	note D_, 2
	octave 2
	note G_, 2
	octave 3
	note D_, 2
	octave 2
	note G_, 2
	octave 3
	note D_, 2
	octave 2
	note A_, 2
	octave 3
	note E_, 2
	octave 2
	note A_, 2
	octave 3
	note E_, 2
	octave 2
	note A_, 2
	octave 3
	note E_, 2
	octave 2
	note A_, 2
	octave 3
	note E_, 2
	octave 2
	note B_, 2
	octave 3
	note F#, 2
	note B_, 2
	note A_, 2
	note B_, 2
	octave 2
	note B_, 2
	octave 3
	note F#, 2
	note B_, 2
	note A_, 2
	note B_, 2
	octave 2
	note B_, 2
	octave 3
	note F#, 2
	note B_, 2
	note F#, 2
	note D#, 2
	octave 2
	note B_, 2
	octave 3
	note C_, 2
	note G_, 2
	note C_, 2
	note G_, 2
	note C_, 2
	note G_, 2
	note C_, 2
	note G_, 2
	note D_, 2
	note A_, 2
	note D_, 2
	note A_, 2
	note D_, 2
	note A_, 2
	note D_, 2
	note A_, 2
	note E_, 2
	note B_, 2
	octave 4
	note E_, 2
	octave 3
	note E_, 2
	note B_, 2
	octave 4
	note E_, 2
	octave 3
	note E_, 2
	note B_, 2
	octave 4
	note E_, 2
	octave 3
	note E_, 2
	note A#, 2
	octave 4
	note E_, 2
	octave 3
	note E_, 2
	note A_, 2
	octave 4
	note E_, 2
	octave 3
	note E_, 2
	note G_, 2
	octave 4
	note E_, 2
	octave 3
	note E_, 2
	note G_, 2
	octave 4
	note E_, 2
	octave 3
	note E_, 2
	note F#, 2
	octave 4
	note E_, 2
	octave 3
	note E_, 2
	note B_, 2
	octave 4
	note E_, 2
	octave 3
	note E_, 2
	note F#, 2
	octave 4
	note E_, 2
	octave 3
	note E_, 2
	note F#, 2
	note D#, 2
	note A#, 2
	octave 4
	note D#, 2
	octave 3
	note D#, 2
	note A#, 2
	octave 4
	note D#, 2
	octave 3
	note D#, 2
	note A#, 2
	octave 4
	note D#, 2
	octave 3
	note D#, 2
	note A_, 2
	octave 4
	note D#, 2
	octave 3
	note D#, 2
	note G#, 2
	octave 4
	note D#, 2
	octave 3
	note D#, 2
	note G_, 2
	octave 4
	note D#, 2
	octave 3
	note D#, 2
	note G_, 2
	octave 4
	note D#, 2
	octave 3
	note D#, 2
	note F_, 2
	octave 4
	note D#, 2
	octave 3
	note D#, 2
	note A#, 2
	octave 4
	note D#, 2
	octave 3
	note D#, 2
	note F_, 2
	octave 4
	note D#, 2
	octave 3
	note D#, 2
	note C_, 2
	note F_, 2
	octave 4
	note C_, 2
	octave 3
	note F_, 2
	octave 4
	note C_, 2
	octave 3
	note F_, 2
	octave 4
	note C_, 2
	octave 3
	note F_, 2
	octave 4
	note C_, 2
	octave 3
	note F_, 2
	octave 4
	note C_, 2
	octave 3
	note F_, 2
	octave 4
	note C_, 2
	octave 3
	note F_, 2
	octave 4
	note C_, 2
	octave 3
	note F_, 2
	octave 4
	note C_, 2
	octave 3
	note F_, 2
	octave 4
	note C_, 2
	octave 3
	note F_, 2
	octave 4
	note C_, 2
	octave 3
	note F_, 2
	octave 4
	note C_, 2
	octave 3
	note F_, 2
	octave 4
	note C_, 2
	octave 3
	note F_, 2
	octave 4
	note C_, 2
	octave 3
	note F_, 2
	octave 4
	note C_, 2
	octave 3
	note F_, 2
	octave 4
	note C_, 2
	octave 3
	note F_, 2
	octave 4
	note C_, 2
	octave 3
	note F#, 2
	octave 4
	note C#, 2
	octave 3
	note F#, 2
	octave 4
	note C#, 2
	octave 3
	note F#, 2
	octave 4
	note C#, 2
	octave 3
	note F#, 2
	octave 4
	note C#, 2
	octave 3
	note F#, 2
	octave 4
	note C#, 2
	octave 3
	note F#, 2
	octave 4
	note C#, 2
	octave 3
	note F#, 2
	octave 4
	note C#, 2
	octave 3
	note F#, 2
	octave 4
	note C#, 2
	octave 3
	note G#, 2
	octave 4
	note D#, 2
	octave 3
	note G#, 2
	octave 4
	note D#, 2
	octave 3
	note G#, 2
	octave 4
	note D#, 2
	octave 3
	note G#, 2
	octave 4
	note D#, 2
	octave 3
	note G#, 2
	octave 4
	note D#, 2
	octave 3
	note G#, 2
	octave 4
	note D#, 2
	octave 3
	note G#, 2
	octave 4
	note D#, 2
	octave 3
	note G#, 2
	octave 4
	note D#, 2
	octave 3
	note A#, 2
	octave 4
	note F_, 2
	octave 3
	note A#, 2
	octave 4
	note F_, 2
	octave 3
	note A#, 2
	octave 4
	note F_, 2
	octave 3
	note A#, 2
	octave 4
	note F_, 2
	octave 3
	note A#, 2
	octave 4
	note F_, 2
	octave 3
	note A#, 2
	octave 4
	note F_, 2
	octave 3
	note A#, 2
	octave 4
	note F_, 2
	octave 3
	note A#, 2
	octave 4
	note F_, 2
	octave 3
	note A#, 2
	octave 4
	note F_, 2
	octave 3
	note A#, 2
	octave 4
	note F_, 2
	octave 3
	note A#, 2
	octave 4
	note F_, 2
	octave 3
	note A#, 2
	octave 4
	note F_, 2
	octave 3
	note B_, 2
	octave 4
	note F_, 2
	octave 3
	note B_, 2
	octave 4
	note F_, 2
	octave 3
	note B_, 2
	note G#, 2
	note F_, 2
	octave 2
	note B_, 2
	octave 3
	note C_, 2
	octave 4
	note C_, 2
	octave 3
	note A#, 2
	note F#, 2
	note F_, 2
	note D#, 2
	note C_, 2
	octave 2
	note A#, 2
	octave 3
	note C_, 2
	octave 4
	note C_, 2
	octave 3
	note A#, 2
	note F#, 2
	note F_, 2
	note D#, 2
	note C_, 2
	octave 2
	note A#, 2
	octave 3
	note C_, 2
	octave 4
	note C_, 2
	octave 3
	note A#, 2
	note F#, 2
	note F_, 2
	note D#, 2
	note C_, 2
	octave 2
	note A#, 2
	octave 3
	note C_, 2
	octave 4
	note C_, 2
	octave 3
	note A#, 2
	note F#, 2
	note F_, 2
	note D#, 2
	note C_, 2
	octave 2
	note A#, 2
	loopchannel 0, Music_SnareAdminBattle_Ch3_loop
	
Music_SnareAdminBattle_Ch4:	
	endchannel 0	

