Music_SnareVictory:
	musicheader 4, 1, Music_SnareVictory_Ch1
	musicheader 1, 2, Music_SnareVictory_Ch2
	musicheader 1, 3, Music_SnareVictory_Ch3
	musicheader 1, 4, Music_SnareVictory_Ch4

Music_SnareVictory_Ch1:
	tempo 130
	volume $77
	stereopanning $77
	dutycycle 2
	vibrato $00, $23
	octave 2
	notetype $C, $78
	note G#, 8
	intensity $88
	note A#, 5
	notetype $6, $98
	note F_, 1
	note G_, 1
	note A_, 1
	note A#, 1
	octave 3
	note C_, 1
	note D_, 1
Music_SnareVictory_Ch1_loop:
	notetype $6, $98
	intensity $85
	octave 2
	note G_, 4
	octave 3
	note E_, 1
	note __, 1
	note E_, 1
	note __, 1
	note E_, 1
	note __, 3
	note E_, 1
	note __, 3
	note E_, 1
	note __, 3
	octave 2
	note G_, 4
	octave 3
	note E_, 1
	note __, 1
	note E_, 1
	note __, 1
	note E_, 1
	note __, 3
	octave 2
	note G_, 4
	octave 3
	note D_, 1
	note __, 1
	note D_, 1
	note __, 1
	note D_, 1
	note __, 3
	note D_, 1
	note __, 3
	note D_, 1
	note __, 3
	octave 2
	note G_, 4
	octave 3
	note D_, 1
	note __, 1
	note D_, 1
	note __, 1
	note D_, 1
	note __, 3
	octave 2
	note G_, 4
	octave 3
	note E_, 1
	note __, 1
	note E_, 1
	note __, 1
	note E_, 1
	note __, 3
	note E_, 1
	note __, 3
	note E_, 1
	note __, 3
	octave 2
	note G_, 4
	octave 3
	note E_, 1
	note __, 1
	note E_, 1
	note __, 1
	note E_, 1
	note __, 3
	octave 2
	note G_, 4
	octave 3
	note E_, 1
	note __, 1
	note E_, 1
	note __, 1
	note E_, 1
	note __, 3
	note E_, 1
	note __, 3
	note E_, 6
	note F_, 1
	note F#, 1
	note G_, 8
	octave 2
	note C_, 4
	note A_, 1
	note __, 1
	note A_, 1
	note __, 1
	note A_, 1
	note __, 3
	note A_, 1
	note __, 3
	note A_, 1
	note __, 3
	note C_, 4
	note A_, 1
	note __, 1
	note A_, 1
	note __, 1
	note A_, 1
	note __, 3
	note B_, 1
	note __, 1
	note D_, 1
	note __, 1
	note G_, 1
	note __, 1
	note B_, 1
	note __, 1
	octave 3
	note D_, 1
	note __, 1
	octave 2
	note G_, 1
	note __, 1
	note B_, 1
	note __, 1
	octave 3
	note D_, 1
	note __, 1
	note G_, 1
	note __, 1
	octave 2
	note B_, 1
	note __, 1
	octave 3
	note D_, 1
	note __, 1
	note G_, 1
	note __, 1
	note B_, 1
	note __, 1
	note D_, 1
	note __, 1
	note G_, 1
	note __, 1
	note B_, 1
	note __, 1
	octave 2
	note D#, 4
	octave 3
	note C_, 1
	note __, 1
	note C_, 1
	note __, 1
	note C_, 1
	note __, 3
	note C_, 1
	note __, 3
	note C_, 1
	note __, 3
	octave 2
	note D#, 4
	octave 3
	note C_, 1
	note __, 1
	note C_, 1
	note __, 1
	note C_, 1
	note __, 3
	intensity $87
	note A#, 8
	octave 4
	note C_, 8
	note D_, 8
	intensity $85
	octave 2
	note D_, 1
	note D#, 1
	note F_, 1
	note G_, 1
	note A_, 1
	note A#, 1
	octave 3
	note C_, 1
	note D_, 1
	loopchannel 0, Music_SnareVictory_Ch1_loop

Music_SnareVictory_Ch2:
	dutycycle 2
	vibrato $00, $23
	octave 2
	notetype $C, $88
	octave 3
	note C_, 8
	intensity $98
	note D_, 5
	notetype $6, $A8
	note D_, 1
	note E_, 1
	note F_, 1
	note G_, 1
	note A_, 1
	note A#, 1
Music_SnareVictory_Ch2_loop:
	notetype $6, $A8
	intensity $B7
	vibrato $00, $13
	octave 4
	note C_, 4
	note E_, 4
	note G_, 2
	note __, 2
	note G_, 8
	note E_, 4
	note G_, 4
	note E_, 4
	note F_, 8
	note D_, 8
	octave 3
	note B_, 8
	octave 4
	note C#, 1
	note D_, 7
	intensity $B8
	note C_, 14
	intensity $B7
	octave 3
	note B_, 1
	note A_, 1
	note G_, 16
	note __, 4
	dutycycle 1
	intensity $6E
	octave 5
	note C_, 4
	octave 4
	note B_, 4
	note A_, 4
	note G_, 4
	note F_, 4
	note E_, 4
	note C_, 4
	dutycycle 2
	intensity $B7
	octave 3
	note F_, 4
	note A_, 4
	octave 4
	note C_, 2
	note __, 2
	note C_, 8
	octave 3
	note A_, 4
	octave 4
	note C_, 4
	octave 3
	note A_, 4
	note G_, 8
	note B_, 8
	octave 4
	note D_, 8
	octave 3
	note G_, 8
	note G#, 4
	octave 4
	note C_, 4
	note D#, 2
	note __, 2
	note D#, 8
	note C_, 4
	note D#, 4
	note C_, 4
	note D_, 8
	note D#, 8
	note F_, 8
	octave 2
	note A#, 1
	octave 3
	note C_, 1
	note D_, 1
	note E_, 1
	note F_, 1
	note G_, 1
	note A_, 1
	note A#, 1
	loopchannel 0, Music_SnareVictory_Ch2_loop

Music_SnareVictory_Ch3:
	dutycycle 1
	octave 5
	notetype $C, $11
	note C_, 2
	octave 4
	note D#, 2
	note G#, 2
	octave 5
	note C_, 2
	note D_, 2
	octave 4
	note F_, 2
	note A#, 2
	octave 5
	note D_, 2
Music_SnareVictory_Ch3_loop:
	notetype $C, $11
	octave 3
	note C_, 2
	octave 4
	notetype $6, $11
	note C_, 1
	note __, 1
	note C_, 1
	note __, 1
	note C_, 1
	note __, 3
	note C_, 1
	note __, 3
	note C_, 1
	note __, 3
	octave 3
	note C_, 4
	octave 4
	note C_, 1
	note __, 1
	note C_, 1
	note __, 1
	note C_, 1
	note __, 3
	octave 2
	note G_, 4
	octave 3
	note B_, 1
	note __, 1
	note B_, 1
	note __, 1
	note B_, 1
	note __, 3
	note B_, 1
	note __, 3
	note B_, 1
	note __, 3
	octave 2
	note G_, 4
	octave 3
	note B_, 1
	note __, 1
	note B_, 1
	note __, 1
	note B_, 1
	note __, 3
	note C_, 4
	octave 4
	note C_, 1
	note __, 1
	note C_, 1
	note __, 1
	note C_, 1
	note __, 3
	note C_, 1
	note __, 3
	note C_, 1
	note __, 3
	octave 3
	note C_, 4
	note E_, 4
	note G_, 4
	note C_, 4
	octave 4
	note C_, 1
	note __, 1
	note C_, 1
	note __, 1
	note C_, 1
	note __, 3
	note C_, 1
	note __, 3
	note C_, 1
	note __, 3
	octave 3
	note C_, 4
	note G_, 4
	note E_, 4
	octave 2
	note F_, 4
	octave 3
	note F_, 1
	note __, 1
	note F_, 1
	note __, 1
	note F_, 1
	note __, 3
	note F_, 1
	note __, 3
	note F_, 1
	note __, 3
	octave 2
	note F_, 4
	octave 3
	note F_, 1
	note __, 1
	note F_, 1
	note __, 1
	note F_, 1
	note __, 3
	octave 2
	note G_, 4
	octave 3
	note G_, 1
	note __, 1
	note G_, 1
	note __, 1
	note G_, 1
	note __, 3
	note G_, 1
	note __, 3
	note G_, 1
	note __, 3
	octave 2
	note G_, 4
	octave 3
	note G_, 1
	note __, 1
	note G_, 1
	note __, 1
	note G_, 1
	note __, 3
	octave 2
	note G#, 4
	octave 3
	note G#, 1
	note __, 1
	note G#, 1
	note __, 1
	note G#, 1
	note __, 3
	note G#, 1
	note __, 3
	note G#, 1
	note __, 3
	octave 2
	note G#, 4
	octave 3
	note G#, 1
	note __, 1
	note G#, 1
	note __, 1
	note G#, 1
	note __, 3
	octave 2
	note A#, 2
	octave 3
	note D_, 2
	note F_, 2
	note A#, 2
	octave 4
	note D_, 2
	octave 3
	note A#, 2
	octave 4
	note D_, 2
	note F_, 2
	note A#, 8
	note __, 8
	loopchannel 0, Music_SnareVictory_Ch3_loop

Music_SnareVictory_Ch4:
	endchannel