Music_SnareTheme:
	musicheader 4, 1, Music_SnareTheme_Ch1
	musicheader 1, 2, Music_SnareTheme_Ch2
	musicheader 1, 3, Music_SnareTheme_Ch3
	musicheader 1, 4, Music_SnareTheme_Ch4

Music_SnareTheme_Ch1:
	tempo $93
	volume $77
	stereopanning $77
	dutycycle 1
	octave 4
	notetype $C, $C7
	note G_, 1
	note F_, 1
	note __, 1
	note D_, 1
	note __, 1
	note C#, 1
	note __, 1
	note C_, 1
	note __, 1
	octave 3
	note A#, 1
	note __, 1
	note G_, 1
	vibrato $00, $21
	octave 4
	note C#, 8
	intensity $2D
	note C#, 4
	intensity $C8
	note C#, 4
Music_SnareTheme_Ch1_loop:
	note __, 1
	intensity $A3
	octave 3
	note D#, 1
	note __, 1
	note D#, 1
	note __, 1
	note D#, 1
	note C_, 1
	note D#, 1
	note D#, 1
	note __, 1
	note D#, 1
	note __, 1
	note D#, 1
	note __, 1
	note C_, 1
	note D#, 1
	note __, 1
	note D#, 1
	note __, 1
	note D#, 1
	note __, 1
	note D#, 1
	note C_, 1
	note D#, 1
	note D#, 1
	note __, 1
	note D#, 1
	note __, 1
	note D#, 1
	note __, 1
	note C_, 1
	note D#, 1
	note __, 1
	note D#, 1
	note __, 1
	note D#, 1
	note __, 1
	note D#, 1
	note C_, 1
	note D#, 1
	note D#, 1
	note __, 1
	note D#, 1
	note __, 1
	note D#, 1
	note __, 1
	note C_, 1
	note D#, 1
	note __, 1
	note D#, 1
	note __, 1
	note D#, 1
	note __, 1
	note D#, 1
	note C_, 1
	note D#, 1
	note D#, 1
	note __, 1
	note D#, 1
	note __, 1
	note D#, 1
	note __, 1
	note C_, 1
	note D#, 1
	intensity $A7
	vibrato $00, $23
	note G_, 4
	note D#, 2
	octave 4
	note C_, 4
	octave 3
	note G_, 2
	octave 4
	note C_, 2
	octave 3
	note G_, 2
	note B_, 4
	note G_, 2
	note D_, 4
	note F_, 2
	note D_, 4
	note D#, 2
	dutycycle 0
	intensity $A2
	vibrato $00, $00
	octave 5
	note D#, 1
	note D#, 1
	note C_, 1
	note D#, 1
	note __, 1
	note D#, 1
	note __, 1
	note D#, 1
	note C_, 1
	note D#, 1
	note D#, 1
	note D#, 1
	note C_, 1
	note D#, 1
	note D#, 1
	note __, 1
	note D#, 1
	note __, 1
	note C_, 1
	note D#, 1
	note __, 1
	note D#, 1
	note __, 1
	note D#, 1
	note C_, 1
	note D#, 1
	note D#, 1
	note D#, 1
	note C_, 1
	note D#, 1
	dutycycle 1
	intensity $A7
	vibrato $00, $23
	octave 3
	note F_, 4
	note C_, 2
	octave 4
	note C_, 4
	octave 3
	note G#, 2
	octave 4
	note C_, 2
	octave 3
	note G#, 2
	note G_, 4
	note D_, 2
	octave 2
	note B_, 4
	octave 3
	note D_, 2
	octave 2
	note B_, 4
	octave 3
	note D#, 2
	dutycycle 0
	intensity $A2
	vibrato $00, $00
	octave 5
	note D#, 1
	note __, 1
	note D_, 1
	note C_, 1
	note __, 1
	note D#, 1
	note __, 1
	note D#, 1
	note D_, 1
	note C_, 1
	note D#, 1
	note D#, 1
	note D_, 1
	note C_, 1
	note __, 2
	note D#, 1
	note __, 1
	note D_, 1
	note C_, 1
	note __, 1
	note D#, 1
	note __, 1
	note D#, 1
	note D_, 1
	note C_, 1
	note F_, 1
	note D#, 1
	note D_, 1
	note C_, 1
	dutycycle 1
	intensity $A7
	vibrato $00, $23
	octave 3
	note G_, 4
	note D#, 2
	octave 4
	note C_, 4
	octave 3
	note G_, 2
	octave 4
	note C_, 2
	octave 3
	note G_, 2
	note B_, 4
	note G_, 2
	note D_, 4
	note F_, 2
	note D_, 4
	note C_, 6
	note D_, 2
	note D#, 6
	dutycycle 2
	note G_, 1
	octave 4
	note C_, 1
	note D#, 4
	note D_, 4
	note C_, 4
	octave 3
	note A#, 4
	dutycycle 1
	intensity $3F
	note C_, 8
	note C#, 8
	note D_, 8
	note D#, 8
	note E_, 8
	note F_, 8
	intensity $C8
	octave 5
	note C_, 1
	octave 4
	note A#, 1
	note __, 1
	note G_, 1
	note __, 1
	note F#, 1
	note __, 1
	note F_, 1
	note __, 1
	note D#, 1
	note __, 1
	note C_, 1
	note B_, 4
	loopchannel 0, Music_SnareTheme_Ch1_loop

Music_SnareTheme_Ch2:
	dutycycle 1
	octave 5
	notetype $C, $C7
	note C_, 1
	octave 4
	note A#, 1
	note __, 1
	note G_, 1
	note __, 1
	note F#, 1
	note __, 1
	note F_, 1
	note __, 1
	note D#, 1
	note __, 1
	note C_, 1
	vibrato $00, $21
	note B_, 8
	intensity $2D
	note B_, 4
	intensity $C8
	note B_, 4	
Music_SnareTheme_Ch2_loop:
	intensity $C8
	note __, 1
	octave 3
	note G_, 1
	note __, 1
	note G_, 1
	note __, 1
	note G_, 1
	note D#, 1
	note G_, 1
	note G#, 1
	note __, 1
	note G#, 1
	note __, 1
	note G#, 1
	note __, 1
	note D#, 1
	note G#, 1
	note __, 1
	note A_, 1
	note __, 1
	note A_, 1
	note __, 1
	note A_, 1
	note D#, 1
	note A_, 1
	note G#, 1
	note __, 1
	note G#, 1
	note __, 1
	note G#, 1
	note __, 1
	note D#, 1
	note G#, 1
	note __, 1
	note G_, 1
	note __, 1
	note G_, 1
	note __, 1
	note G_, 1
	note D#, 1
	note G_, 1
	note G#, 1
	note __, 1
	note G#, 1
	note __, 1
	note G#, 1
	note __, 1
	note D#, 1
	note G#, 1
	note __, 1
	note A_, 1
	note __, 1
	note A_, 1
	note __, 1
	note A_, 1
	note D#, 1
	note A_, 1
	note A#, 1
	note __, 1
	note A#, 1
	note __, 1
	note B_, 1
	note __, 1
	note D#, 1
	note B_, 1
	dutycycle 2
	intensity $C7
	vibrato $00, $23
	octave 4
	note C_, 2
	note D#, 2
	note G_, 1
	note __, 1
	note G_, 4
	note D#, 2
	note G_, 2
	note D#, 2
	note F_, 4
	note D_, 4
	octave 3
	note B_, 4
	octave 4
	note D_, 4
	note C_, 2
	dutycycle 1
	intensity $81
	vibrato $00, $00
	octave 5
	note G_, 1
	intensity $A3
	note G_, 1
	note D#, 1
	note G_, 1
	note __, 1
	note G#, 1
	note __, 1
	note G#, 1
	note D#, 1
	intensity $81
	note G#, 1
	note G#, 1
	intensity $A3
	note G#, 1
	note D#, 1
	note G#, 1
	note A_, 1
	note __, 1
	note A_, 1
	note __, 1
	note D#, 1
	note A_, 1
	note __, 1
	note G#, 1
	note __, 1
	note G#, 1
	note D#, 1
	intensity $81
	note G#, 1
	note G#, 1
	intensity $A3
	note G#, 1
	note D#, 1
	note G#, 1
	dutycycle 2
	intensity $C7
	vibrato $00, $23
	octave 3
	note G#, 2
	octave 4
	note C_, 2
	note D#, 1
	note __, 1
	note D#, 4
	note C_, 2
	note D#, 2
	note C_, 2
	note D_, 4
	octave 3
	note B_, 4
	note G_, 4
	octave 4
	note D_, 4
	note C_, 2
	dutycycle 1
	intensity $A3
	vibrato $00, $00
	octave 5
	note F#, 1
	note __, 1
	note F_, 1
	note D#, 1
	note __, 1
	note F#, 1
	note __, 1
	note F#, 1
	note F_, 1
	note D#, 1
	intensity $81
	note F#, 1
	intensity $A3
	note F#, 1
	note F_, 1
	note D#, 1
	note __, 2
	note F#, 1
	note __, 1
	note F_, 1
	note D#, 1
	note __, 1
	note F#, 1
	note __, 1
	note F#, 1
	note F_, 1
	note D#, 1
	note B_, 1
	note F#, 1
	note F_, 1
	note D#, 1
	dutycycle 2
	intensity $C7
	vibrato $00, $23
	octave 4
	note C_, 2
	note D#, 2
	note G_, 1
	note __, 1
	note G_, 4
	note D#, 2
	note G_, 2
	note D#, 2
	note F_, 4
	note D_, 4
	octave 3
	note B_, 4
	octave 4
	note F_, 4
	note D#, 6
	note D_, 2
	note C_, 6
	note D#, 1
	note G_, 1
	octave 5
	note C_, 4
	octave 4
	note A#, 4
	note G#, 4
	note G_, 4
	dutycycle 1
	intensity $3F
	octave 2
	note F_, 8
	note F#, 8
	note G_, 8
	note G#, 8
	note A_, 8
	note A#, 8
	intensity $C8
	octave 4
	note G_, 1
	note F_, 1
	note __, 1
	note D_, 1
	note __, 1
	note C#, 1
	note __, 1
	note C_, 1
	note __, 1
	octave 3
	note A#, 1
	note __, 1
	note G_, 1
	octave 4
	note C#, 4
	loopchannel 0, Music_SnareTheme_Ch2_loop

Music_SnareTheme_Ch3:
	dutycycle 5
	octave 5
	notetype $C, $15
	note C_, 1
	octave 4
	note A#, 1
	note __, 1
	note G_, 1
	note __, 1
	note F#, 1
	note __, 1
	note F_, 1
	note __, 1
	note D#, 1
	note __, 1
	note C_, 1
	vibrato $00, $11
	note G_, 4
	intensity $25
	note G_, 8
	intensity $15
	note G_, 4
Music_SnareTheme_Ch3_loop:
	dutycycle 4
	intensity $14
	octave 3
	note C_, 1
	note __, 1
	note C_, 1
	note __, 1
	octave 4
	note C_, 1
	note __, 1
	octave 3
	note C_, 1
	note __, 1
	note F#, 1
	note __, 1
	note F_, 1
	note __, 1
	note D#, 1
	octave 2
	note G_, 1
	note A#, 1
	note B_, 1
	octave 3
	note C_, 1
	note __, 1
	note C_, 1
	note __, 1
	octave 4
	note C_, 1
	note __, 1
	octave 3
	note C_, 1
	note __, 1
	note F#, 1
	note __, 1
	note F_, 1
	note __, 1
	note D#, 1
	octave 2
	note G_, 1
	note A#, 1
	note B_, 1
	octave 3
	note C_, 1
	note __, 1
	note C_, 1
	note __, 1
	octave 4
	note C_, 1
	note __, 1
	octave 3
	note C_, 1
	note __, 1
	note F#, 1
	note __, 1
	note F_, 1
	note __, 1
	note D#, 1
	octave 2
	note G_, 1
	note A#, 1
	note B_, 1
	octave 3
	note C_, 1
	note __, 1
	note C_, 1
	note __, 1
	octave 4
	note C_, 1
	note __, 1
	octave 3
	note C_, 1
	note __, 1
	note F#, 1
	note __, 1
	note F_, 1
	note __, 1
	note D#, 1
	octave 2
	note G_, 1
	note A#, 1
	note B_, 1
	octave 3
	note C_, 1
	note __, 1
	note C_, 1
	note __, 1
	octave 4
	note C_, 1
	note __, 1
	octave 3
	note C_, 1
	note __, 1
	note F#, 1
	note __, 1
	note F_, 1
	note __, 1
	note D#, 1
	octave 2
	note G_, 1
	note A#, 1
	octave 3
	note C_, 1
	octave 2
	note G_, 1
	note __, 1
	note G_, 1
	note __, 1
	octave 3
	note G_, 1
	note __, 1
	octave 2
	note G_, 1
	note __, 1
	octave 3
	note F_, 1
	note __, 1
	note D_, 1
	note __, 1
	octave 2
	note B_, 1
	note G_, 1
	note A#, 1
	note B_, 1
	octave 3
	note C_, 1
	note __, 1
	note C_, 1
	note __, 1
	octave 4
	note C_, 1
	note __, 1
	octave 3
	note C_, 1
	note __, 1
	note F#, 1
	note __, 1
	note F_, 1
	note __, 1
	note D#, 1
	octave 2
	note G_, 1
	note A#, 1
	note B_, 1
	octave 3
	note C_, 1
	note __, 1
	note C_, 1
	note __, 1
	octave 4
	note C_, 1
	note __, 1
	octave 3
	note C_, 1
	note __, 1
	note F#, 1
	note __, 1
	note F_, 1
	note __, 1
	note D#, 1
	octave 2
	note G_, 1
	note A#, 1
	octave 3
	note C_, 1
	octave 2
	note F_, 1
	note __, 1
	note F_, 1
	note __, 1
	octave 3
	note F_, 1
	note __, 1
	octave 2
	note F_, 1
	note __, 1
	octave 3
	note C_, 1
	note __, 1
	octave 2
	note A#, 1
	note __, 1
	note G#, 1
	note C_, 1
	note D#, 1
	note F_, 1
	note G_, 1
	note __, 1
	note G_, 1
	note __, 1
	octave 3
	note G_, 1
	note __, 1
	octave 2
	note G_, 1
	note __, 1
	octave 3
	note F_, 1
	note __, 1
	note D_, 1
	note __, 1
	octave 2
	note B_, 1
	note G_, 1
	note B_, 1
	note G_, 1
	note G#, 1
	note __, 1
	note G#, 1
	note __, 1
	octave 3
	note G#, 1
	note __, 1
	octave 2
	note G#, 1
	note __, 1
	octave 3
	note F#, 1
	note __, 1
	note F_, 1
	note __, 1
	note D#, 1
	octave 2
	note D#, 1
	note F#, 1
	note G_, 1
	note G#, 1
	note __, 1
	note G#, 1
	note __, 1
	octave 3
	note G#, 1
	note __, 1
	octave 2
	note G#, 1
	note __, 1
	octave 3
	note F#, 1
	note __, 1
	note F_, 1
	note __, 1
	note D#, 1
	octave 2
	note D#, 1
	note F#, 1
	note G_, 1
	octave 3
	note C_, 1
	note __, 1
	note C_, 1
	note __, 1
	octave 4
	note C_, 1
	note __, 1
	octave 3
	note C_, 1
	note __, 1
	note F#, 1
	note __, 1
	note F_, 1
	note __, 1
	note D#, 1
	octave 2
	note G_, 1
	note A#, 1
	octave 3
	note C_, 1
	octave 2
	note G_, 1
	note __, 1
	note G_, 1
	note __, 1
	octave 3
	note G_, 1
	note __, 1
	octave 2
	note G_, 1
	note __, 1
	octave 3
	note F_, 1
	note __, 1
	note D_, 1
	note __, 1
	octave 2
	note B_, 1
	note G_, 1
	note A#, 1
	note B_, 1
	note G#, 1
	note __, 1
	note G#, 1
	note __, 1
	octave 3
	note G#, 1
	note __, 1
	octave 2
	note G#, 1
	note __, 1
	octave 3
	note F#, 1
	note __, 1
	note F_, 1
	note __, 1
	note D#, 1
	octave 2
	note D#, 1
	note F#, 1
	note G_, 1
	note G#, 1
	note __, 1
	note G#, 1
	note __, 1
	octave 3
	note G#, 1
	note __, 1
	octave 2
	note G#, 1
	note __, 1
	octave 3
	note C_, 1
	note __, 1
	note F_, 1
	note __, 1
	note D#, 1
	octave 2
	note G#, 1
	note G_, 1
	note F#, 1
	octave 4
	note D#, 1
	note F_, 1
	note G#, 1
	note B_, 1
	note D#, 1
	note F_, 1
	note G#, 1
	note B_, 1
	note E_, 1
	note F#, 1
	note A_, 1
	octave 5
	note C_, 1
	octave 4
	note E_, 1
	note F#, 1
	note A_, 1
	octave 5
	note C_, 1
	octave 4
	note F_, 1
	note G_, 1
	note A#, 1
	octave 5
	note C#, 1
	octave 4
	note F_, 1
	note G_, 1
	note A#, 1
	octave 5
	note C#, 1
	octave 4
	note F#, 1
	note G#, 1
	note B_, 1
	octave 5
	note D_, 1
	octave 4
	note F#, 1
	note G#, 1
	note B_, 1
	octave 5
	note D_, 1
	octave 4
	note G_, 1
	note A_, 1
	octave 5
	note C_, 1
	note D#, 1
	octave 4
	note G_, 1
	note A_, 1
	octave 5
	note C_, 1
	note D#, 1
	octave 4
	note G#, 1
	note A#, 1
	octave 5
	note C#, 1
	note E_, 1
	octave 4
	note G#, 1
	note A#, 1
	octave 5
	note C#, 1
	note E_, 1
	note C_, 1
	octave 4
	note A#, 1
	note __, 1
	note G_, 1
	note __, 1
	note F#, 1
	note __, 1
	note F_, 1
	note __, 1
	note D#, 1
	note __, 1
	note C_, 1
	note G_, 4
	loopchannel 0, Music_SnareTheme_Ch3_loop

Music_SnareTheme_Ch4:
	togglenoise 3
	notetype $C
	note D_, 1
	note D_, 1
	note __, 1
	note D_, 1
	note __, 1
	note D_, 1
	note __, 1
	note D_, 1
	note __, 1
	note D_, 1
	note __, 1
	note A#, 1
	note B_, 2
	note __, 2
	note G_, 2
	note __, 2
	note G_, 2
	note __, 2
	note D#, 1
	note D#, 1
	note D#, 1
	note D#, 1
Music_SnareTheme_Ch4_loop:
	note A#, 1
	note G_, 1
	note G_, 1
	note G_, 1
	note D_, 1
	note G_, 1
	note B_, 1
	note G_, 1
	loopchannel 0, Music_SnareTheme_Ch4_loop

