Music_SnareInvasion:
	musicheader 4, 1, Music_SnareInvasion_Ch1
	musicheader 1, 2, Music_SnareInvasion_Ch2
	musicheader 1, 3, Music_SnareInvasion_Ch3
	musicheader 1, 4, Music_SnareInvasion_Ch4

Music_SnareInvasion_Ch1:
	tempo $A0
	volume $77
	stereopanning $77
	notetype $C, $00
	note __, 16
	note __, 8
	dutycycle 2
	intensity $1F
	vibrato $00, $52
	octave 4
	note B_, 4
	note F#, 4
	note __, 16
	note __, 8
	note F#, 4
	note C_, 4
Music_SnareInvasion_Ch1_loop:
	dutycycle 2
	intensity $1F
	vibrato $00, $52
	octave 4
	note __, 16
	note __, 8
	note B_, 4
	octave 5
	note F#, 4
	note __, 16
	note __, 16
	dutycycle 0
	intensity $B7
	octave 2
	note F_, 4
	note G#, 2
	octave 3
	note C_, 14
	octave 2
	note G#, 4
	octave 3
	note C_, 4
	octave 2
	note G#, 4
	note B_, 8
	note F#, 12
	note C_, 4
	note D#, 4
	note F#, 4
	note F_, 8
	note __, 2
	tone $0005
	intensity $43
	vibrato $00, $00
	octave 5
	note C_, 1
	note __, 1
	octave 4
	note B_, 1
	note __, 1
	octave 5
	note C_, 1
	note __, 1
	note D#, 1
	note __, 3
	note C_, 1
	note __, 1
	octave 4
	note B_, 1
	note __, 1
	octave 5
	note C_, 1
	note __, 1
	note D#, 1
	note __, 3
	note C_, 1
	note __, 1
	octave 4
	note B_, 1
	note __, 1
	octave 5
	note C_, 1
	note __, 1
	note D#, 1
	note __, 3
	note C_, 1
	note __, 1
	octave 4
	note B_, 1
	note __, 1
	octave 5
	note C_, 1
	note __, 1
	note D#, 1
	note __, 3
	note C_, 1
	note __, 1
	octave 4
	note B_, 1
	note __, 1
	octave 5
	note C_, 1
	note __, 1
	note D#, 1
	note __, 3
	note C_, 1
	note __, 1
	octave 4
	note B_, 1
	note __, 1
	dutycycle 0
	intensity $B7
	octave 2
	note F_, 4
	note G#, 2
	octave 3
	note C_, 14
	octave 2
	note G#, 4
	octave 3
	note C_, 4
	octave 2
	note G#, 4
	note B_, 8
	note A_, 8
	note F#, 8
	note A_, 8
	dutycycle 1
	intensity $2F
	vibrato $00, $32
	note D#, 8
	intensity $C7
	note D_, 8
	intensity $2F
	note C#, 8
	intensity $C7
	note C_, 8
	intensity $2F
	octave 1
	note B_, 8
	intensity $C7
	note A#, 8
	intensity $2F
	note A_, 8
	intensity $C7
	note A#, 8
	intensity $2F
	octave 3
	note D#, 8
	intensity $C7
	note D_, 8
	intensity $2F
	note C#, 8
	intensity $C7
	note C_, 8
	intensity $2F
	octave 2
	note B_, 8
	intensity $C7
	note A#, 8
	intensity $2F
	note A_, 8
	intensity $C7
	note A#, 8
	intensity $1F
	octave 3
	note C_, 16
	intensity $A7
	notetype $C, $A7
	note C_, 16
	note __, 16
	note __, 16
	notetype $C, $A7
	loopchannel 0, Music_SnareInvasion_Ch1_loop

Music_SnareInvasion_Ch2:
	dutycycle 2
	tone $0005
	octave 1
	notetype $C, $88
	note F_, 2
	note __, 4
	note F_, 2
	note __, 2
	note C_, 2
	note F#, 2
	note F_, 2
	note __, 2
	note F_, 2
	note __, 12
	note F_, 2
	note __, 4
	note F_, 2
	note __, 2
	note F_, 2
	note F#, 2
	note C_, 2
	note __, 2
	note C_, 2
	note __, 12
Music_SnareInvasion_Ch2_loop:
	dutycycle 2
	tone $0005
	notetype $C, $88
	octave 1
	note F_, 2
	note __, 4
	note F_, 2
	note __, 2
	note C_, 2
	note F#, 2
	note F_, 2
	note __, 2
	note F_, 2
	note __, 12
	note F_, 2
	note __, 4
	note F_, 2
	note __, 2
	note F_, 2
	note F#, 2
	note C_, 2
	note __, 2
	note C_, 2
	note __, 12
	dutycycle 0
	intensity $C7
	vibrato $00, $F0
	octave 2
	note F_, 4
	note G#, 2
	octave 3
	note C_, 14
	octave 2
	note G#, 4
	octave 3
	note C_, 4
	octave 2
	note G#, 4
	note B_, 8
	note F#, 12
	note C_, 4
	note D#, 4
	note F#, 4
	note F_, 8
	dutycycle 1
	tone $0000
	intensity $C3
	vibrato $00, $00
	octave 5
	note C_, 1
	note __, 1
	octave 4
	note B_, 1
	note __, 1
	octave 5
	note C_, 1
	note __, 1
	note D#, 1
	note __, 3
	note C_, 1
	note __, 1
	octave 4
	note B_, 1
	note __, 1
	octave 5
	note C_, 1
	note __, 1
	note D#, 1
	note __, 3
	note C_, 1
	note __, 1
	octave 4
	note B_, 1
	note __, 1
	octave 5
	note C_, 1
	note __, 1
	note D#, 1
	note __, 3
	note C_, 1
	note __, 1
	octave 4
	note B_, 1
	note __, 1
	octave 5
	note C_, 1
	note __, 1
	note D#, 1
	note __, 3
	note C_, 1
	note __, 1
	octave 4
	note B_, 1
	note __, 1
	octave 5
	note C_, 1
	note __, 1
	note D#, 1
	note __, 3
	note C_, 1
	note __, 1
	octave 4
	note B_, 1
	note __, 1
	octave 5
	note C_, 1
	note __, 1
	dutycycle 0
	tone $0005
	intensity $C7
	vibrato $00, $F0
	octave 2
	note F_, 4
	note G#, 2
	octave 3
	note C_, 14
	octave 2
	note G#, 4
	octave 3
	note C_, 4
	octave 2
	note G#, 4
	note B_, 8
	note A_, 8
	note F#, 8
	note A_, 8
	dutycycle 1
	tone $0000
	intensity $3F
	vibrato $00, $32
	note G#, 8
	intensity $C7
	note G_, 8
	intensity $3F
	note F#, 8
	intensity $C7
	note F_, 8
	intensity $3F
	note E_, 8
	intensity $C7
	note D#, 8
	intensity $3F
	note D_, 8
	intensity $C7
	note D#, 8
	intensity $3F
	octave 3
	note G#, 8
	intensity $C7
	note G_, 8
	intensity $3F
	note F#, 8
	intensity $C7
	note F_, 8
	intensity $3F
	note E_, 8
	intensity $C7
	note D#, 8
	intensity $3F
	note D_, 8
	intensity $C7
	note D#, 8
	intensity $1F
	note F_, 16
	notetype $C, $A7
	note F_, 16
	dutycycle 2
	tone $0005
	intensity $88
	octave 1
	note F_, 2
	note __, 4
	notetype $C, $88
	note F_, 2
	note __, 2
	note F_, 2
	note F#, 2
	note C_, 2
	note __, 2
	note C_, 2
	note __, 12
	loopchannel 0, Music_SnareInvasion_Ch2_loop

Music_SnareInvasion_Ch3:
	dutycycle 7
	octave 2
	notetype $C, $27
	note F_, 2
	note __, 4
	note F_, 2
	note __, 2
	note C_, 2
	note F#, 2
	note F_, 2
	note __, 2
	note F_, 2
	note __, 12
	note F_, 2
	note __, 4
	note F_, 2
	note __, 2
	note F_, 2
	note F#, 2
	note C_, 2
	note __, 2
	note C_, 2
	note __, 12
Music_SnareInvasion_Ch3_loop:
	note F_, 2
	note __, 4
	note F_, 2
	note __, 2
	note C_, 2
	note F#, 2
	note F_, 2
	note __, 2
	note F_, 2
	note __, 12
	note F_, 2
	note __, 4
	note F_, 2
	note __, 2
	note F_, 2
	note F#, 2
	note C_, 2
	note __, 2
	note C_, 2
	note __, 12
	note F_, 2
	note __, 4
	note F_, 2
	note __, 2
	note C_, 2
	note F#, 2
	note F_, 2
	note __, 2
	note F_, 2
	note __, 12
	note F_, 2
	note __, 4
	note F_, 2
	note __, 2
	note F_, 2
	note F#, 2
	note C_, 2
	note __, 2
	note C_, 2
	note __, 12
	note F_, 2
	note __, 4
	note F_, 2
	note __, 2
	note C_, 2
	note F#, 2
	note F_, 2
	note __, 2
	note F_, 2
	note __, 12
	note F_, 2
	note __, 4
	note F_, 2
	note __, 2
	note F_, 2
	note F#, 2
	note C_, 2
	note __, 2
	note C_, 2
	note __, 12
	note F_, 2
	note __, 4
	note F_, 2
	note __, 2
	note C_, 2
	note F#, 2
	note F_, 2
	note __, 2
	note F_, 2
	note __, 12
	note F#, 2
	note __, 4
	note F#, 2
	note __, 2
	note F#, 2
	note A_, 2
	note C#, 2
	note __, 2
	note C#, 2
	note __, 4
	note F#, 4
	octave 3
	note F#, 4
	octave 2
	note G#, 1
	note __, 1
	octave 3
	note G#, 1
	note __, 1
	note G#, 1
	note __, 1
	octave 2
	note G#, 1
	note __, 1
	octave 3
	note G#, 1
	note __, 1
	note G#, 1
	note __, 1
	octave 2
	note G#, 1
	note __, 1
	octave 3
	note G#, 1
	note __, 1
	note G#, 1
	note __, 1
	octave 2
	note G#, 1
	note __, 1
	octave 3
	note G#, 1
	note __, 1
	note G#, 1
	note __, 1
	octave 2
	note G#, 1
	note __, 1
	octave 3
	note G#, 1
	note __, 1
	note G#, 1
	note __, 1
	octave 2
	note G#, 1
	note __, 1
	octave 3
	note G#, 1
	note __, 1
	note G#, 1
	note __, 1
	octave 2
	note G#, 1
	note __, 1
	octave 3
	note G#, 1
	note __, 1
	note G#, 1
	note __, 1
	octave 2
	note G#, 1
	note __, 1
	octave 3
	note G#, 1
	note __, 1
	note G#, 1
	note __, 1
	octave 2
	note G#, 1
	note __, 1
	octave 3
	note G#, 1
	note __, 1
	note G#, 1
	note __, 1
	octave 2
	note G#, 1
	note __, 1
	octave 3
	note G#, 1
	note __, 1
	note G#, 1
	note __, 1
	octave 2
	note G#, 1
	note __, 1
	octave 3
	note G#, 1
	note __, 1
	note G#, 1
	note __, 1
	octave 2
	note G#, 1
	note __, 1
	octave 3
	note G#, 1
	note __, 1
	note G#, 1
	note __, 1
	octave 2
	note G#, 1
	note __, 1
	octave 3
	note G#, 1
	note __, 1
	note G#, 1
	note __, 1
	octave 2
	note G#, 1
	note __, 1
	octave 3
	note G#, 1
	note __, 1
	note G#, 1
	note __, 1
	octave 2
	note G#, 1
	note __, 1
	octave 3
	note G#, 1
	note __, 1
	note G#, 1
	note __, 1
	octave 2
	note G#, 1
	note __, 1
	octave 3
	note G#, 1
	note __, 1
	note G#, 1
	note __, 1
	octave 2
	note G#, 1
	note __, 1
	octave 3
	note G#, 1
	note __, 1
	note G#, 1
	note __, 1
	octave 2
	note G#, 1
	note __, 1
	octave 3
	note G#, 1
	note __, 1
	note G#, 1
	note __, 1
	octave 2
	note G#, 1
	note __, 1
	octave 3
	note G#, 1
	note __, 1
	note G#, 1
	note __, 1
	octave 2
	note G#, 1
	note __, 1
	octave 3
	note G#, 1
	note __, 1
	note G#, 1
	note __, 1
	octave 2
	note G#, 1
	note __, 1
	octave 3
	note G#, 1
	note __, 1
	note G#, 1
	note __, 1
	octave 2
	note G#, 1
	note __, 1
	note F_, 2
	note __, 4
	note F_, 2
	note __, 2
	note C_, 2
	note F#, 2
	note F_, 2
	note __, 2
	note F_, 2
	note __, 12
	note F_, 2
	note __, 4
	note F_, 2
	note __, 2
	note F_, 2
	note F#, 2
	note C_, 2
	note __, 2
	note C_, 2
	note __, 12
	loopchannel 0, Music_SnareInvasion_Ch3_loop

Music_SnareInvasion_Ch4:
	togglenoise 3
Music_SnareInvasion_Ch4_loop:
	notetype $C
	note A#, 2
	note G_, 1
	note G_, 1
	note C_, 2
	notetype $C
	note A#, 2
	note G_, 1
	note G_, 1
	note C_, 2
	note A#, 2
	note G_, 1
	note G_, 1
	note C_, 2
	note A#, 2
	note G_, 1
	note G_, 1
	note C_, 2
	note A#, 2
	note G_, 1
	note G_, 1
	note C_, 1
	note A#, 1
	note B_, 2
	loopchannel 0, Music_SnareInvasion_Ch4_loop

