Music_Snes_Kirby: ; f0000
	musicheader 4, 1, Music_Snes_Kirby_Ch1
	musicheader 1, 2, Music_Snes_Kirby_Ch2
	musicheader 1, 3, Music_Snes_Kirby_Ch3
	musicheader 1, 4, Music_Snes_Kirby_Ch4
; f000c

Music_Snes_Kirby_Ch1: ; f000c
	tempo 60
	volume $77
	vibrato $9, $27
	dutycycle $20
	notetype $c, $c7
	intensity $20
	octave 4
	note E_, 2
	note __, 2
	note E_, 2
	note E_, 2
	note E_, 4
	note F_, 4
	note G_, 2
	note __, 2
	note G_, 2
	note __, 2
	note F_, 4
	note E_, 4
	note D_, 2
	note __, 2
	note D_, 2
	note D_, 2
	note D_, 4
	note E_, 4
	note D_, 4
	note __, 12
	
	note C_, 2
	note __, 2
	note C_, 2
	note C_, 2
	note C_, 4
	note D_, 4
	note E_, 2
	note __, 2
	note E_, 2
	note __, 2
	note D_, 4
	note C_, 4
	octave 3
	note B_, 2
	note __, 2
	note B_, 2
	note B_, 2
	note B_, 4
	octave 4
	note C_, 4
	note D_, 4
	note __, 12
	
	intensity $40
	dutycycle $50
	note F_, 2
	note A_, 2
	octave 5
	note C_, 2
	octave 4
	note A_, 2
	note F_, 2
	note A_, 2
	octave 5
	note C_, 2
	octave 4
	note A_, 2
	note F_, 2
	note A_, 2
	octave 5
	note C_, 2
	octave 4
	note A_, 2
	note F_, 2
	note A_, 2
	octave 5
	note C_, 2
	octave 4
	note A_, 2
	
	note E_, 2
	note G_, 2
	octave 5
	note C_, 2
	octave 4
	note G_, 2
	note E_, 2
	note G_, 2
	octave 5
	note C_, 2
	octave 4
	note G_, 2
	note E_, 2
	note G_, 2
	octave 5
	note C_, 2
	octave 4
	note G_, 2
	note E_, 2
	note G_, 2
	octave 5
	note C_, 2
	octave 4
	note G_, 2
	
	note D#, 2
	note G#, 2
	octave 5
	note C_, 2
	octave 4
	note G#, 2
	note D#, 2
	note G#, 2
	octave 5
	note C_, 2
	octave 4
	note G#, 2
	note D#, 2
	note G#, 2
	octave 5
	note C_, 2
	octave 4
	note G#, 2
	note D#, 2
	note G#, 2
	octave 5
	note C_, 2
	octave 4
	note G#, 2
	
	note D_, 2
	note G_, 2
	note B_, 2
	note G_, 2
	note D_, 2
	note G_, 2
	note B_, 2
	note G_, 2
	note D_, 2
	note __, 6
	note __, 8
	
	
	intensity $20
	dutycycle $20
	octave 4
	note E_, 2
	note __, 2
	note E_, 2
	note E_, 2
	note E_, 4
	note F_, 4
	note G_, 2
	note __, 2
	note G_, 2
	note __, 2
	note F_, 4
	note E_, 4
	note D_, 2
	note __, 2
	note D_, 2
	note D_, 2
	note D_, 4
	note E_, 4
	note D_, 4
	note __, 12
	
	note C_, 2
	note __, 2
	note C_, 2
	note C_, 2
	note C_, 4
	note D_, 4
	note E_, 2
	note __, 2
	note E_, 2
	note __, 2
	note D_, 4
	note C_, 4
	octave 3
	note B_, 2
	note __, 2
	note B_, 2
	note B_, 2
	note B_, 4
	octave 4
	note C_, 4
	note D_, 4
	note __, 12
	
	intensity $40
	dutycycle $50
	note F_, 2
	note A_, 2
	octave 5
	note C_, 2
	octave 4
	note A_, 2
	note F_, 2
	note A_, 2
	octave 5
	note C_, 2
	octave 4
	note A_, 2
	note F_, 2
	note A_, 2
	octave 5
	note C_, 2
	octave 4
	note A_, 2
	note F_, 2
	note A_, 2
	octave 5
	note C_, 2
	octave 4
	note A_, 2
	
	note E_, 2
	note G_, 2
	octave 5
	note C_, 2
	octave 4
	note G_, 2
	note E_, 2
	note G_, 2
	octave 5
	note C_, 2
	octave 4
	note G_, 2
	note E_, 2
	note G_, 2
	octave 5
	note C_, 2
	octave 4
	note G_, 2
	note E_, 2
	note G_, 2
	octave 5
	note C_, 2
	octave 4
	note G_, 2
	
	note D#, 2
	note G#, 2
	octave 5
	note C_, 2
	octave 4
	note G#, 2
	note D#, 2
	note G#, 2
	octave 5
	note C_, 2
	octave 4
	note G#, 2
	note F_, 2
	note G#, 2
	octave 5
	note C_, 2
	octave 4
	note G#, 2
	note F_, 2
	note G#, 2
	octave 5
	note C_, 2
	octave 4
	note G#, 2
	
	note G_, 12
	note F_, 2
	note G_, 1
	note F_, 1
	note E_, 12
	note __, 4
	loopchannel 0, Music_Snes_Kirby_Ch1

Music_Snes_Kirby_Ch2: ; f0162
	vibrato $12, $25
	dutycycle $20
	notetype $c, $95
	intensity $70
	octave 4
	note C_, 2
	note __, 2
	note C_, 2
	note C_, 2
	note C_, 4
	note D_, 4
	note E_, 2
	note __, 2
	note E_, 2
	note __, 2
	note D_, 4
	note C_, 4
	octave 3
	note B_, 2
	note __, 2
	note B_, 2
	note B_, 2
	note B_, 4
	octave 4
	note C_, 4
	octave 3
	note B_, 4
	note __, 12
	
	note A_, 2
	note __, 2
	note A_, 2
	note A_, 2
	note A_, 4
	note B_, 4
	octave 4
	note C_, 2
	note __, 2
	note C_, 2
	note __, 2
	octave 3
	note B_, 4
	note A_, 4
	note G_, 2
	note __, 2
	note G_, 2
	note G_, 2
	note G_, 4
	note A_, 4
	note B_, 4
	note __, 12
	
	dutycycle $5
	note F_, 2
	note __, 2
	note F_, 2
	note F_, 2
	note F_, 4
	note G_, 4
	note A_, 2
	note __, 2
	note A_, 2
	note __, 2
	note G_, 4
	note F_, 4
	note E_, 2
	note __, 2
	note E_, 2
	note G_, 2
	octave 4
	note C_, 4
	note D_, 4
	note C_, 8
	octave 3
	note G_, 8
	octave 4
	note C_, 2
	note __, 2
	note C_, 2
	note C_, 2
	note C_, 4
	note D_, 4
	note D#, 3
	note __, 1
	note D#, 3
	note __, 1
	note F_, 4
	note D#, 4
	note D_, 16
	note __, 16
	
	
	dutycycle $20
	octave 4
	note C_, 2
	note __, 2
	note C_, 2
	note C_, 2
	note C_, 4
	note D_, 4
	note E_, 2
	note __, 2
	note E_, 2
	note __, 2
	note D_, 4
	note C_, 4
	octave 3
	note B_, 2
	note __, 2
	note B_, 2
	note B_, 2
	note B_, 4
	octave 4
	note C_, 4
	octave 3
	note B_, 4
	note __, 12
	
	note A_, 2
	note __, 2
	note A_, 2
	note A_, 2
	note A_, 4
	note B_, 4
	octave 4
	note C_, 2
	note __, 2
	note C_, 2
	note __, 2
	octave 3
	note B_, 4
	note A_, 4
	note G_, 2
	note __, 2
	note G_, 2
	note G_, 2
	note G_, 4
	note A_, 4
	note B_, 4
	note __, 12
	
	dutycycle $5
	note F_, 2
	note __, 2
	note F_, 2
	note F_, 2
	note F_, 4
	note G_, 4
	note A_, 2
	note __, 2
	note A_, 2
	note __, 2
	note G_, 4
	note F_, 4
	note E_, 2
	note __, 2
	note E_, 2
	note G_, 2
	octave 4
	note C_, 4
	note D_, 4
	note C_, 8
	octave 3
	note G_, 8
	octave 4
	note C_, 2
	note __, 2
	note C_, 2
	note C_, 2
	note C_, 4
	note D_, 4
	note D#, 3
	note __, 1
	note D#, 3
	note __, 1
	note D_, 4
	octave 3
	note A#, 4
	octave 4
	note C_, 8
	
	intensity $40
	note C_, 8
	octave 3
	note G_, 12
	note __, 4
	loopchannel 0, Music_Snes_Kirby_Ch2

Music_Snes_Kirby_Ch3: ; f0247
	stereopanning $ff
	vibrato $8, $23
	notetype $c, $25
	octave 3
	note C_, 2
	note __, 2
	octave 4
	note C_, 2
	octave 3
	note G_, 2
	note C_, 2
	note __, 2
	octave 4
	note C_, 2
	octave 3
	note G_, 2
	note C_, 2
	note __, 2
	octave 4
	note C_, 2
	octave 3
	note G_, 2
	note C_, 2
	note __, 2
	octave 4
	note C_, 2
	octave 3
	note G_, 2
	
	octave 2
	note G_, 2
	note __, 2
	octave 3
	note G_, 2
	note D_, 2
	octave 2
	note G_, 2
	note __, 2
	octave 3
	note G_, 2
	note D_, 2
	octave 2
	note G_, 2
	note __, 14
	
	note A_, 2
	note __, 2
	octave 3
	note A_, 2
	note E_, 2
	octave 2
	note A_, 2
	note __, 2
	octave 3
	note A_, 2
	note E_, 2
	octave 2
	note A_, 2
	note __, 2
	octave 3
	note A_, 2
	note E_, 2
	octave 2
	note A_, 2
	note __, 2
	octave 3
	note A_, 2
	note E_, 2
	octave 2
	
	note E_, 2
	note __, 2
	octave 3
	note E_, 2
	octave 2
	note B_, 2
	note E_, 2
	note __, 2
	octave 3
	note E_, 2
	octave 2
	note B_, 2
	note E_, 2
	note __, 14
	
	note D_, 2
	note __, 2
	octave 3
	note D_, 2
	octave 2
	note A_, 2
	note D_, 2
	note __, 2
	octave 3
	note D_, 2
	octave 2
	note A_, 2
	
	note G_, 2
	note __, 2
	octave 3
	note G_, 2
	note D_, 2
	octave 2
	note G_, 2
	note __, 2
	octave 3
	note G_, 2
	note D_, 2
	
	note C_, 2
	note __, 2
	octave 4
	note C_, 2
	octave 3
	note G_, 2
	note C_, 2
	note __, 2
	octave 4
	note C_, 2
	octave 3
	note G_, 2
	note C_, 2
	note __, 2
	octave 4
	note C_, 2
	octave 3
	note G_, 2
	note C_, 2
	note __, 2
	octave 2
	note A#, 2
	note __, 2
	
	note G#, 2
	note __, 2
	octave 3
	note G#, 2
	note D#, 2
	octave 2
	note G#, 2
	note __, 2
	octave 3
	note G#, 2
	note D#, 2
	octave 2
	note G#, 2
	note __, 2
	octave 3
	note G#, 2
	note D#, 2
	octave 2
	note G#, 2
	note __, 2
	octave 3
	note G#, 2
	note D#, 2
	octave 2
	
	note G_, 2
	note __, 2
	octave 3
	note G_, 2
	note D_, 2
	octave 2
	note G_, 2
	note __, 2
	octave 3
	note G_, 2
	note D_, 2
	octave 2
	note G_, 2
	note __, 14
	
	
	
	
	octave 3
	note C_, 2
	note __, 2
	octave 4
	note C_, 2
	octave 3
	note G_, 2
	note C_, 2
	note __, 2
	octave 4
	note C_, 2
	octave 3
	note G_, 2
	note C_, 2
	note __, 2
	octave 4
	note C_, 2
	octave 3
	note G_, 2
	note C_, 2
	note __, 2
	octave 4
	note C_, 2
	octave 3
	note G_, 2
	
	octave 2
	note G_, 2
	note __, 2
	octave 3
	note G_, 2
	note D_, 2
	octave 2
	note G_, 2
	note __, 2
	octave 3
	note G_, 2
	note D_, 2
	octave 2
	note G_, 2
	note __, 14
	
	note A_, 2
	note __, 2
	octave 3
	note A_, 2
	note E_, 2
	octave 2
	note A_, 2
	note __, 2
	octave 3
	note A_, 2
	note E_, 2
	octave 2
	note A_, 2
	note __, 2
	octave 3
	note A_, 2
	note E_, 2
	octave 2
	note A_, 2
	note __, 2
	octave 3
	note A_, 2
	note E_, 2
	octave 2
	
	note E_, 2
	note __, 2
	octave 3
	note E_, 2
	octave 2
	note B_, 2
	note E_, 2
	note __, 2
	octave 3
	note E_, 2
	octave 2
	note B_, 2
	note E_, 2
	note __, 14
	
	note D_, 2
	note __, 2
	octave 3
	note D_, 2
	octave 2
	note A_, 2
	note D_, 2
	note __, 2
	octave 3
	note D_, 2
	octave 2
	note A_, 2
	
	note G_, 2
	note __, 2
	octave 3
	note G_, 2
	note D_, 2
	octave 2
	note G_, 2
	note __, 2
	octave 3
	note G_, 2
	note D_, 2
	
	note C_, 2
	note __, 2
	octave 4
	note C_, 2
	octave 3
	note G_, 2
	note C_, 2
	note __, 2
	octave 4
	note C_, 2
	octave 3
	note G_, 2
	note C_, 2
	note __, 2
	octave 4
	note C_, 2
	octave 3
	note G_, 2
	note C_, 2
	note __, 2
	octave 2
	note A#, 2
	note __, 2
	
	note G#, 2
	note __, 2
	octave 3
	note G#, 2
	note D#, 2
	octave 2
	note G#, 2
	note __, 2
	octave 3
	note G#, 2
	note D#, 2
	octave 2
	
	note A#, 2
	note __, 2
	octave 3
	note A#, 2
	note F_, 2
	octave 2
	note A#, 2
	note __, 2
	octave 3
	note A#, 2
	note F_, 2
	
	note C_, 2
	note __, 2
	octave 4
	note C_, 2
	note G_, 2
	octave 3
	note C_, 2
	note __, 2
	octave 4
	note C_, 2
	note G_, 2
	octave 3
	note C_, 2
	note __, 2
	octave 4
	note C_, 2
	note G_, 2
	octave 3
	note C_, 2
	note __, 2
	octave 4
	note C_, 2
	note G_, 2
	octave 3
	loopchannel 0, Music_Snes_Kirby_Ch3
	endchannel
; f031e

Music_Snes_Kirby_Ch4: ; f031e
	togglenoise $3
	notetype $c
	
Music_Snes_Kirby_Ch4loop:
	note D_, 2
	note __, 2
	note D_, 2
	note D_, 2
	note D_, 2
	note __, 2
	note D_, 2
	note D_, 2
	note D_, 2
	note __, 2
	note D_, 2
	note D_, 2
	note D_, 2
	note __, 2
	note D_, 2
	note D_, 2
	note D_, 2
	note __, 2
	note D_, 2
	note D_, 2
	note D_, 2
	note __, 2
	note D_, 2
	note D_, 2
	note D_, 2
	note __, 6
	
	note E_, 2
	note E_, 2
	note E_, 2
	note __, 2
	
	note D_, 2
	note __, 2
	note D_, 2
	note D_, 2
	note D_, 2
	note __, 2
	note D_, 2
	note D_, 2
	note D_, 2
	note __, 2
	note D_, 2
	note D_, 2
	note D_, 2
	note __, 2
	note D_, 2
	note D_, 2
	note D_, 2
	note __, 2
	note D_, 2
	note D_, 2
	note D_, 2
	note __, 2
	note D_, 2
	note D_, 2
	note D_, 2
	note __, 2
	
	note F#, 2
	note __, 2
	note C_, 2
	note C#, 2
	note C_, 2
	note __, 2
	
	note D_, 2
	note __, 2
	note D_, 2
	note D_, 2
	note D_, 2
	note __, 2
	note D_, 2
	note D_, 2
	note D_, 2
	note __, 2
	note D_, 2
	note D_, 2
	note D_, 2
	note __, 2
	note D_, 2
	note D_, 2
	note D_, 2
	note __, 2
	note D_, 2
	note D_, 2
	note D_, 2
	note __, 2
	note D_, 2
	note D_, 2
	note D_, 2
	note __, 2
	note D_, 2
	note D_, 2
	note D_, 2
	note __, 2
	note D_, 2
	note D_, 2
	note D_, 2
	note __, 2
	note D_, 2
	note D_, 2
	note D_, 2
	note __, 2
	note D_, 2
	note D_, 2
	note D_, 2
	note __, 2
	note D_, 2
	note D_, 2
	note D_, 2
	note __, 2
	note D_, 2
	note D_, 2
	note D_, 2
	note __, 2
	note D_, 2
	note D_, 2
	note D_, 2
	note __, 2
	note D_, 2
	note D_, 2
	note D_, 2
	note __, 2
	
	note F#, 2
	note __, 2
	note C_, 2
	note C#, 2
	note C_, 2
	note __, 2
	loopchannel 0, Music_Snes_Kirby_Ch4loop
	endchannel
; f0386
