Music_SnowTown:
	musicheader 4, 1, Music_SnowTown_Ch1
	musicheader 1, 2, Music_SnowTown_Ch2
	musicheader 1, 3, Music_SnowTown_Ch3
	musicheader 1, 4, Music_SnowTown_Ch4

Music_SnowTown_Ch1:
	tempo $B3
	volume $77
	stereopanning $77
	notetype $6, $00
	note __, 16
	note __, 16
	note __, 16
	note __, 16
	note __, 16
	note __, 8
Music_SnowTown_Ch1_loop:	
	dutycycle 2
	intensity $B7
	vibrato $00, $33
	notetype $6, $B7
	octave 4
	note D_, 2
	note E_, 4
	notetype $6, $B7
	note F_, 1
	note F#, 7
	dutycycle 1
	intensity $A5
	octave 5
	note D_, 4
	note A_, 6
	note __, 2
	dutycycle 2
	intensity $B7
	octave 4
	note G_, 4
	note F#, 6
	note E_, 6
	note D_, 6
	note E_, 6
	note F_, 1
	note F#, 7
	dutycycle 1
	intensity $A5
	octave 5
	note A_, 4
	octave 6
	note D_, 6
	note __, 2
	dutycycle 2
	intensity $B7
	octave 4
	note G_, 4
	note F#, 6
	note E_, 6
	note D_, 6
	note E_, 6
	octave 3
	note A#, 8
	dutycycle 1
	intensity $A5
	octave 5
	note D_, 4
	note G_, 6
	note __, 2
	dutycycle 2
	intensity $B7
	octave 4
	note C#, 4
	note D_, 14
	octave 3
	note A#, 1
	note B_, 9
	note __, 2
	dutycycle 1
	note B_, 4
	note __, 2
	note B_, 4
	note __, 2
	note B_, 4
	note B_, 4
	note __, 2
	octave 4
	note C#, 14
	note __, 4
	note D_, 2
	note E_, 4
	note F_, 1
	note F#, 7
	intensity $A5
	octave 5
	note D_, 4
	note A_, 6
	note __, 2
	intensity $B7
	octave 4
	note G_, 4
	note F#, 6
	note E_, 6
	note D_, 6
	note E_, 6
	note F_, 1
	note F#, 7
	intensity $A5
	octave 5
	note A_, 4
	octave 6
	note D_, 6
	note __, 2
	intensity $B7
	octave 4
	note G_, 4
	note B_, 6
	note F#, 1
	note G_, 5
	note D_, 6
	octave 3
	note B_, 6
	note A#, 8
	intensity $A5
	octave 5
	note D_, 4
	note G_, 6
	note __, 2
	intensity $B7
	octave 4
	note C#, 4
	note D_, 14
	note D#, 10
	note __, 2
	octave 3
	note B_, 12
	note A#, 10
	note B_, 6
	octave 4
	note B_, 2
	octave 5
	note C#, 4
	note D_, 6
	octave 3
	note G_, 2
	note A_, 4
	note B_, 12
	note A_, 12
	note F#, 14
	note __, 4
	note E_, 2
	note F#, 4
	notetype $D, $98
	note G_, 12
	notetype $C, $98
	note E_, 12
	note A_, 12
	note D_, 16
	note __, 2
	note G_, 6
	note A#, 12
	note B_, 6
	note A_, 6
	octave 4
	note D_, 6
	intensity $B7
	octave 3
	note B_, 2
	note G_, 1
	note A_, 2
	notetype $6, $B7
	note A#, 1
	note B_, 7
	intensity $A5
	octave 4
	note E_, 4
	note B_, 4
	note __, 4
	intensity $B7
	octave 3
	note D_, 4
	note C#, 8
	intensity $A5
	octave 4
	note E_, 4
	note A_, 4
	note __, 2
	intensity $B7
	octave 3
	note F#, 2
	note G_, 4
	note G#, 1
	note A_, 7
	note A#, 6
	note B_, 4
	note A_, 4
	note __, 2
	note G_, 6
	note F#, 6
	note E_, 6
	dutycycle 2
	note D_, 2
	note E_, 4
	note F#, 8
	dutycycle 1
	intensity $A5
	octave 4
	note B_, 4
	octave 5
	note B_, 4
	note __, 2
	dutycycle 2
	intensity $B7
	octave 3
	note D_, 2
	note E_, 4
	note F#, 8
	dutycycle 1
	intensity $A5
	octave 4
	note A#, 4
	octave 5
	note A#, 4
	note __, 2
	dutycycle 2
	intensity $B7
	octave 3
	note D_, 2
	note E_, 4
	note F#, 6
	note __, 2
	note E_, 4
	note __, 2
	note F#, 4
	note G_, 4
	note __, 2
	note G#, 1
	note A_, 5
	note B_, 6
	note F#, 6
	note E_, 6
	notetype $C, $B7
	note D_, 9
	dutycycle 1
	intensity $A5
	octave 4
	note B_, 3
	octave 5
	note B_, 3
	note __, 6
	dutycycle 2
	intensity $B7
	octave 3
	note E_, 1
	note F#, 2
	note E_, 16
	note __, 5
	loopchannel 0, Music_SnowTown_Ch1_loop

Music_SnowTown_Ch2:
	notetype $6, $00
	note __, 16
	note __, 16
	note __, 16
	note __, 16
	note __, 16
	note __, 8
Music_SnowTown_Ch2_loop:	
	dutycycle 2
	intensity $F6
	notetype $6, $F6
	vibrato $00, $33
	octave 4
	note F#, 2
	note G_, 4
	notetype $6, $F6
	note G#, 1
	note A_, 16
	note __, 3
	note B_, 4
	note A_, 6
	note G_, 6
	note F#, 6
	note G_, 6
	note G#, 1
	note A_, 16
	note __, 3
	note B_, 4
	note A_, 6
	note G_, 6
	note F#, 6
	note G_, 6
	notetype $F, $F6
	note D_, 8
	notetype $C, $F6
	note E_, 2
	note F#, 7
	notetype $6, $F6
	note F#, 1
	note G_, 9
	dutycycle 1
	note F#, 2
	note E_, 4
	note __, 2
	note F#, 4
	note __, 2
	note E_, 4
	note F#, 4
	note __, 2
	note E_, 14
	note __, 4
	note F#, 2
	note G_, 4
	note G#, 1
	note A_, 16
	note __, 3
	note B_, 4
	note A_, 6
	note G_, 6
	note F#, 6
	note G_, 6
	note G#, 1
	note A_, 16
	note __, 3
	note B_, 4
	octave 5
	note D_, 6
	octave 4
	note A#, 1
	note B_, 5
	note A_, 6
	note G_, 6
	notetype $F, $F6
	note D_, 8
	notetype $C, $F6
	note E_, 2
	note F#, 7
	notetype $6, $F6
	note A#, 1
	note B_, 8
	note A_, 1
	note G_, 1
	note F#, 1
	note E_, 4
	note __, 2
	note F#, 4
	note __, 2
	note E_, 4
	note F#, 4
	note __, 2
	notetype $C, $F6
	note D_, 9
	note E_, 1
	note F#, 2
	note G_, 6
	note C#, 6
	note D_, 7
	note __, 12
	dutycycle 2
	octave 3
	note B_, 2
	note A_, 1
	note B_, 2
	octave 4
	notetype $6, $F6
	note C_, 1
	note C#, 13
	note __, 6
	octave 3
	note A_, 6
	octave 4
	note E_, 6
	note D_, 6
	note C#, 4
	note D_, 6
	note F_, 1
	note F#, 7
	note E_, 4
	note __, 2
	note D_, 4
	note __, 2
	note C#, 4
	note __, 2
	octave 3
	note B_, 10
	note __, 2
	note A#, 1
	note B_, 3
	note A#, 2
	note B_, 4
	octave 4
	note C_, 1
	note C#, 13
	note __, 4
	note D_, 2
	note E_, 6
	note D#, 1
	note E_, 13
	note __, 2
	note F_, 1
	note F#, 3
	note __, 2
	note F#, 14
	note __, 4
	dutycycle 1
	note E_, 2
	note F#, 4
	note F#, 1
	note G_, 16
	note __, 3
	octave 3
	note B_, 4
	notetype $C, $F6
	note A_, 9
	octave 4
	note D_, 1
	note E_, 2
	notetype $6, $F6
	note F_, 1
	note F#, 16
	note __, 1
	octave 5
	note C_, 4
	note __, 2
	octave 4
	note B_, 14
	note __, 4
	dutycycle 2
	octave 3
	note B_, 2
	octave 4
	note C#, 4
	note D_, 14
	note __, 4
	octave 3
	note B_, 2
	octave 4
	note C#, 4
	note D_, 14
	note __, 4
	octave 3
	note B_, 2
	octave 4
	note C#, 4
	note D_, 6
	note __, 2
	note C#, 4
	note __, 2
	note D_, 4
	note E_, 4
	note __, 2
	note F_, 1
	note F#, 5
	note E_, 6
	note D_, 6
	note C#, 6
	octave 3
	note B_, 16
	notetype $D, $F6
	note __, 12
	octave 4
	notetype $C, $F6
	note C#, 1
	note D_, 2
	octave 3
	note A_, 8
	note __, 13
	loopchannel 0, Music_SnowTown_Ch2_loop

Music_SnowTown_Ch3:
	octave 3
	notetype $C, $10
	note D_, 2
	note __, 1
	note C#, 2
	note __, 1
	octave 2
	note B_, 2
	note __, 1
	note A_, 2
	note __, 1
	note G_, 2
	note __, 1
	note F#, 2
	note __, 1
	note E_, 2
	note __, 1
	note A_, 2
	note __, 1
	octave 3
	note D_, 2
	note __, 1
	note C#, 2
	note __, 1
	octave 2
	note B_, 2
	note __, 1
	note A_, 2
	note __, 1
	note G_, 2
	note __, 1
	note E_, 2
	note __, 1
	note A_, 2
	note __, 1
	octave 1
	note A_, 2
	note __, 1
Music_SnowTown_Ch3_loop:
	octave 2
	note D_, 2
	note __, 1
	note F#, 2
	note __, 1
	note A_, 2
	note __, 1
	note D_, 2
	note __, 1
	note C#, 2
	note __, 1
	note E_, 2
	note __, 1
	note A_, 2
	note __, 1
	note C#, 2
	note __, 1
	note C_, 2
	note __, 1
	note F#, 2
	note __, 1
	note A_, 2
	note __, 1
	note C_, 2
	note __, 1
	octave 1
	note B_, 2
	note __, 1
	octave 2
	note D_, 2
	note __, 1
	note G_, 2
	note __, 1
	octave 1
	note B_, 2
	note __, 1
	note A#, 2
	note __, 1
	octave 2
	note D_, 2
	note __, 1
	note G_, 2
	note __, 1
	octave 1
	note G_, 2
	note __, 1
	octave 2
	note D_, 2
	note __, 1
	note C#, 2
	note __, 1
	octave 1
	note B_, 2
	note __, 1
	note A_, 2
	note __, 1
	note G_, 2
	note __, 1
	octave 2
	note G_, 2
	note __, 1
	octave 1
	note G#, 2
	note __, 1
	octave 2
	note G#, 2
	note __, 1
	octave 1
	note A_, 2
	octave 2
	note A_, 1
	note G_, 2
	note __, 1
	note F#, 2
	note __, 1
	note E_, 2
	note __, 1
	note D_, 2
	note __, 1
	note F#, 2
	note __, 1
	note A_, 2
	note __, 1
	note D_, 2
	note __, 1
	note C#, 2
	note __, 1
	note E_, 2
	note __, 1
	note A_, 2
	note __, 1
	note C#, 2
	note __, 1
	note C_, 2
	note __, 1
	note F#, 2
	note __, 1
	note A_, 2
	note __, 1
	note C_, 2
	note __, 1
	octave 1
	note B_, 2
	note __, 1
	octave 2
	note D_, 2
	note __, 1
	note G_, 2
	note __, 1
	octave 1
	note B_, 2
	note __, 1
	note A#, 2
	note __, 1
	octave 2
	note D_, 2
	note __, 1
	note G_, 2
	note __, 1
	octave 1
	note G_, 2
	note __, 1
	octave 2
	note D_, 2
	note __, 1
	note C#, 2
	note __, 1
	octave 1
	note B_, 2
	note __, 1
	note A_, 2
	note __, 1
	note G_, 2
	note __, 1
	octave 2
	note G_, 2
	note __, 1
	octave 1
	note F#, 2
	note __, 1
	octave 2
	note F#, 2
	note __, 1
	octave 1
	note B_, 2
	octave 2
	note B_, 1
	note A_, 2
	note __, 1
	note G_, 2
	note __, 1
	note F#, 2
	note __, 1
	note E_, 2
	note __, 1
	note G_, 2
	note __, 1
	note A_, 2
	note __, 1
	octave 1
	note A_, 2
	note __, 1
	octave 2
	note D_, 2
	octave 3
	note D_, 1
	note C_, 2
	note __, 1
	octave 2
	note B_, 2
	note __, 1
	note A_, 2
	note __, 1
	note G_, 2
	note __, 1
	octave 3
	note G_, 2
	note __, 1
	octave 2
	note G_, 2
	note __, 1
	octave 3
	note G_, 2
	note __, 1
	octave 2
	note G_, 2
	note __, 1
	octave 3
	note G_, 2
	note __, 1
	octave 2
	note G_, 2
	note __, 1
	octave 3
	note G_, 2
	note __, 1
	octave 2
	note F#, 2
	note __, 1
	octave 3
	note F#, 2
	note __, 1
	octave 2
	note F#, 2
	note __, 1
	octave 3
	note F#, 2
	note __, 1
	octave 2
	note B_, 2
	note __, 1
	octave 3
	note B_, 2
	octave 2
	note B_, 1
	note A_, 2
	note __, 1
	octave 3
	note A_, 2
	octave 2
	note A_, 1
	note G_, 2
	note __, 1
	octave 3
	note G_, 2
	note __, 1
	octave 2
	note G_, 2
	note __, 1
	octave 3
	note G_, 2
	note __, 1
	octave 2
	note F#, 2
	note __, 1
	octave 3
	note F#, 2
	note __, 1
	octave 2
	note F#, 2
	note __, 1
	octave 3
	note F#, 2
	note __, 1
	octave 2
	note B_, 2
	note __, 1
	octave 3
	note B_, 2
	note __, 1
	note C#, 2
	note __, 1
	octave 4
	note C#, 2
	note __, 1
	octave 3
	note D_, 2
	note __, 1
	octave 4
	note D_, 2
	note __, 1
	octave 3
	note D#, 2
	note __, 1
	octave 4
	note D#, 2
	octave 3
	note D#, 1
	note E_, 3
	note F#, 3
	note G_, 3
	note E_, 3
	note A_, 3
	note G_, 3
	note F#, 3
	note E_, 3
	note D_, 3
	note E_, 3
	note F#, 3
	note D#, 3
	note E_, 3
	note F#, 3
	note G_, 3
	octave 2
	note A#, 3
	note B_, 3
	octave 3
	note B_, 3
	octave 2
	note B_, 3
	octave 3
	note B_, 3
	octave 2
	note A#, 3
	octave 3
	note A#, 3
	octave 2
	note A#, 3
	octave 3
	note A#, 3
	octave 2
	note A_, 3
	octave 3
	note A_, 3
	octave 2
	note A_, 3
	octave 3
	note A_, 3
	octave 2
	note G#, 3
	octave 3
	note G#, 3
	octave 2
	note G#, 3
	octave 3
	note G#, 3
	octave 2
	note G_, 3
	octave 3
	note G_, 3
	octave 2
	note G_, 3
	octave 3
	note G_, 3
	octave 2
	note G_, 3
	octave 3
	note G_, 3
	octave 2
	note G#, 3
	octave 3
	note G#, 3
	octave 2
	note A_, 3
	octave 3
	note A_, 2
	octave 2
	note A_, 1
	note G_, 3
	octave 3
	note G_, 2
	octave 2
	note G_, 1
	note F#, 3
	octave 3
	note F#, 2
	octave 2
	note F#, 1
	note E_, 3
	octave 3
	note E_, 2
	octave 2
	note E_, 1
	loopchannel 0, Music_SnowTown_Ch3_loop

Music_SnowTown_Ch4:
	togglenoise 3
Music_SnowTown_Ch4_loop:	
	notetype $C
	note F#, 3
	note D#, 3
	loopchannel 0, Music_SnowTown_Ch4_loop

