Music_SpruceLab:
	musicheader 4, 1, Music_SpruceLab_Ch1
	musicheader 1, 2, Music_SpruceLab_Ch2
	musicheader 1, 3, Music_SpruceLab_Ch3
	musicheader 1, 4, Music_SpruceLab_Ch4

Music_SpruceLab_Ch1:
	tempo 90
	volume $77
	stereopanning $77
	notetype $F, $00
	note __, 8
Music_SpruceLab_Ch1_loop:
	dutycycle 2
	vibrato $00, $22
	octave 3
	notetype $C, $98
	note G_, 8
	note E_, 4
	note G_, 4
	note A_, 4
	note G_, 4
	octave 4
	note C_, 8
	note D_, 8
	note E_, 4
	note D_, 4
	note C#, 8
	octave 3
	note A#, 8
	note A_, 4
	dutycycle 1
	intensity $A7
	octave 4
	note D_, 8
	note C_, 8
	octave 3
	note B_, 8
	note A_, 4
	dutycycle 2
	intensity $98
	note G_, 1
	note __, 1
	note D_, 1
	note __, 1
	octave 4
	note C_, 1
	note __, 1
	octave 3
	note G_, 1
	note __, 1
	octave 4
	note D_, 1
	note __, 1
	note C_, 1
	note __, 1
	note G_, 1
	note __, 1
	note C_, 1
	note __, 1
	note G_, 1
	note A_, 1
	note G_, 1
	note A_, 1
	note G_, 1
	note A_, 1
	note G_, 1
	note A_, 1
	note G_, 1
	note A_, 1
	note D_, 1
	note __, 1
	octave 3
	note B_, 1
	note __, 1
	note G_, 1
	note __, 1
	note D_, 8
	octave 2
	note B_, 4
	octave 3
	note D_, 4
	note E_, 4
	note D_, 4
	note G_, 8
	note A_, 8
	note G_, 4
	note A_, 4
	octave 4
	note C_, 4
	octave 3
	note A_, 4
	octave 4
	note D_, 4
	dutycycle 1
	intensity $A7
	note C_, 8
	octave 3
	note B_, 8
	note A_, 8
	note G_, 8
	note F_, 4
	note E_, 4
	dutycycle 2
	intensity $98
	note C_, 1
	note __, 1
	note E_, 1
	note __, 1
	note G_, 1
	note __, 1
	octave 4
	note C_, 1
	note __, 1
	note E_, 1
	note __, 1
	note G_, 1
	note __, 1
	octave 5
	note C_, 1
	note D_, 1
	note C_, 1
	note D_, 1
	note C_, 1
	note D_, 1
	note C_, 1
	note D_, 1
	note C_, 1
	note __, 1
	octave 4
	note G_, 1
	note __, 1
	note F_, 1
	note __, 1
	note E_, 1
	note __, 1
	dutycycle 1
	intensity $93
	note D_, 1
	dutycycle 0
	intensity $53
	note D_, 1
	dutycycle 1
	intensity $93
	note G_, 1
	dutycycle 0
	intensity $53
	note G_, 1
	dutycycle 1
	intensity $93
	note D_, 1
	dutycycle 0
	intensity $53
	note D_, 1
	dutycycle 1
	intensity $93
	note G_, 1
	dutycycle 0
	intensity $53
	note G_, 1
	dutycycle 1
	intensity $93
	note B_, 1
	dutycycle 0
	intensity $53
	note B_, 1
	dutycycle 1
	intensity $93
	note G_, 1
	dutycycle 0
	intensity $53
	note G_, 1
	dutycycle 1
	intensity $93
	note D_, 1
	dutycycle 0
	intensity $53
	note D_, 1
	dutycycle 1
	intensity $93
	note G_, 1
	dutycycle 0
	intensity $53
	note G_, 1
	dutycycle 1
	intensity $93
	note D_, 1
	dutycycle 0
	intensity $53
	note D_, 1
	dutycycle 1
	intensity $93
	note G_, 1
	dutycycle 0
	intensity $53
	note G_, 1
	dutycycle 1
	intensity $93
	note D_, 1
	dutycycle 0
	intensity $53
	note D_, 1
	dutycycle 1
	intensity $93
	note G_, 1
	dutycycle 0
	intensity $53
	note G_, 1
	dutycycle 1
	intensity $93
	note B_, 1
	dutycycle 0
	intensity $53
	note B_, 1
	dutycycle 1
	intensity $93
	note G_, 1
	dutycycle 0
	intensity $53
	note G_, 1
	dutycycle 1
	intensity $93
	note D_, 1
	dutycycle 0
	intensity $53
	note D_, 1
	dutycycle 1
	intensity $93
	note G_, 1
	dutycycle 0
	intensity $53
	note G_, 1
	dutycycle 1
	intensity $93
	note E_, 1
	dutycycle 0
	intensity $53
	note E_, 1
	dutycycle 1
	intensity $93
	note G_, 1
	dutycycle 0
	intensity $53
	note G_, 1
	dutycycle 1
	intensity $93
	note E_, 1
	dutycycle 0
	intensity $53
	note E_, 1
	dutycycle 1
	intensity $93
	note G_, 1
	dutycycle 0
	intensity $53
	note G_, 1
	dutycycle 1
	intensity $93
	octave 5
	note C_, 1
	dutycycle 0
	intensity $53
	note C_, 1
	dutycycle 1
	intensity $93
	octave 4
	note G_, 1
	dutycycle 0
	intensity $53
	note G_, 1
	dutycycle 1
	intensity $93
	note E_, 1
	dutycycle 0
	intensity $53
	note E_, 1
	dutycycle 1
	intensity $93
	note G_, 1
	dutycycle 0
	intensity $53
	note G_, 1
	dutycycle 1
	intensity $93
	note E_, 1
	dutycycle 0
	intensity $53
	note E_, 1
	dutycycle 1
	intensity $93
	note G_, 1
	dutycycle 0
	intensity $53
	note G_, 1
	dutycycle 1
	intensity $93
	note E_, 1
	dutycycle 0
	intensity $53
	note E_, 1
	dutycycle 1
	intensity $93
	note G_, 1
	dutycycle 0
	intensity $53
	note G_, 1
	dutycycle 1
	intensity $93
	octave 5
	note C_, 1
	dutycycle 0
	intensity $53
	note C_, 1
	dutycycle 1
	intensity $93
	octave 4
	note G_, 1
	dutycycle 0
	intensity $53
	note G_, 1
	dutycycle 1
	intensity $93
	note E_, 1
	dutycycle 0
	intensity $53
	note E_, 1
	dutycycle 1
	intensity $93
	note G_, 1
	dutycycle 0
	intensity $53
	note G_, 1
	dutycycle 1
	intensity $93
	note F_, 1
	dutycycle 0
	intensity $53
	note F_, 1
	dutycycle 1
	intensity $93
	note G_, 1
	dutycycle 0
	intensity $53
	note G_, 1
	dutycycle 1
	intensity $93
	note F_, 1
	dutycycle 0
	intensity $53
	note F_, 1
	dutycycle 1
	intensity $93
	note G_, 1
	dutycycle 0
	intensity $53
	note G_, 1
	dutycycle 1
	intensity $93
	octave 5
	note D_, 1
	dutycycle 0
	intensity $53
	note D_, 1
	dutycycle 1
	intensity $93
	octave 4
	note G_, 1
	dutycycle 0
	intensity $53
	note G_, 1
	dutycycle 1
	intensity $93
	note F_, 1
	dutycycle 0
	intensity $53
	note F_, 1
	dutycycle 1
	intensity $93
	note G_, 1
	dutycycle 0
	intensity $53
	note G_, 1
	dutycycle 1
	intensity $93
	note E_, 1
	dutycycle 0
	intensity $53
	note E_, 1
	dutycycle 1
	intensity $93
	note G_, 1
	dutycycle 0
	intensity $53
	note G_, 1
	dutycycle 1
	intensity $93
	note E_, 1
	dutycycle 0
	intensity $53
	note E_, 1
	dutycycle 1
	intensity $93
	note G_, 1
	dutycycle 0
	intensity $53
	note G_, 1
	dutycycle 1
	intensity $93
	octave 5
	note C_, 1
	dutycycle 0
	intensity $53
	note C_, 1
	dutycycle 1
	intensity $93
	octave 4
	note G_, 1
	dutycycle 0
	intensity $53
	note G_, 1
	dutycycle 1
	intensity $93
	note E_, 1
	dutycycle 0
	intensity $53
	note E_, 1
	dutycycle 1
	intensity $93
	note G_, 1
	dutycycle 0
	intensity $53
	note G_, 1
	note __, 2
	dutycycle 1
	intensity $97
	octave 3
	note F_, 2
	note __, 2
	note E_, 2
	note __, 2
	note D_, 2
	note __, 2
	note C#, 2
	note __, 2
	note D_, 2
	note __, 2
	note C_, 2
	note __, 2
	octave 2
	note B_, 2
	note __, 4
	dutycycle 2
	octave 3
	note G_, 2
	note __, 2
	note E_, 8
	note D#, 2
	note E_, 2
	note A_, 2
	note __, 2
	note G_, 8
	note F#, 2
	note G_, 2
	octave 4
	note C_, 8
	note D_, 8
	note E_, 8
	note F_, 8
	note E_, 12
	note D_, 8
	octave 3
	note B_, 8
	note E_, 4
	note A_, 1
	note __, 1
	octave 4
	note C#, 1
	note __, 1
	note E_, 1
	note __, 1
	note A_, 1
	note __, 1
	octave 5
	note C#, 1
	note __, 1
	octave 4
	note A_, 1
	note __, 1
	note E_, 1
	note __, 1
	note C#, 1
	note __, 1
	octave 3
	note F_, 4
	note A_, 4
	octave 4
	note C#, 4
	octave 3
	note A_, 4
	dutycycle 1
	octave 4
	note D_, 8
	octave 3
	note F_, 8
	note G_, 8
	note F_, 8
	note E_, 4
	dutycycle 2
	note C_, 1
	note __, 1
	note E_, 1
	note __, 1
	note G_, 1
	note __, 1
	octave 4
	note C_, 1
	note __, 1
	note E_, 1
	note __, 1
	note G_, 1
	note __, 1
	octave 5
	note C_, 1
	note D_, 1
	note C_, 1
	note D_, 1
	note C_, 1
	note D_, 1
	note C_, 1
	note D_, 1
	note C_, 1
	note __, 1
	octave 4
	note G_, 1
	note __, 1
	note E_, 1
	note __, 1
	note C_, 1
	note __, 1
	loopchannel 0, Music_SpruceLab_Ch1_loop

Music_SpruceLab_Ch2:
	dutycycle 1
	vibrato $00, $12
	octave 3
	notetype $C, $C7
	note G_, 2
	note A_, 2
	note B_, 2
	octave 4
	note C_, 2
	note D_, 2
Music_SpruceLab_Ch2_loop:
	notetype $C, $C7
	note E_, 2
	note __, 2
	note C_, 8
	octave 3
	note B_, 2
	octave 4
	note C_, 2
	note F_, 2
	note __, 2
	note E_, 8
	note D#, 2
	note E_, 2
	note A_, 4
	note __, 2
	note B_, 1
	note A_, 1
	intensity $C8
	note G_, 10
	intensity $C7
	note G_, 6
	note F#, 8
	note F_, 8
	note E_, 8
	note D_, 8
	note C_, 8
	intensity $C8
	note C_, 14
	intensity $C7
	note D_, 1
	note C_, 1
	octave 3
	note B_, 6
	note D_, 2
	note E_, 2
	note F#, 2
	note G_, 2
	note A_, 2
	note B_, 2
	note __, 2
	note G_, 8
	note F#, 2
	note G_, 2
	octave 4
	note C_, 2
	note __, 2
	octave 3
	note B_, 8
	note A#, 2
	note B_, 2
	octave 4
	note F_, 4
	note __, 2
	note G_, 1
	note F_, 1
	intensity $C8
	note E_, 16
	intensity $C7
	note A_, 8
	note G_, 8
	note F_, 8
	note E_, 8
	octave 3
	note B_, 8
	intensity $C8
	octave 4
	note C_, 16
	intensity $C7
	note C_, 12
	dutycycle 2
	note D_, 2
	note C_, 2
	octave 3
	note B_, 2
	note __, 2
	note G_, 8
	note F#, 2
	note G_, 2
	note D_, 2
	note __, 2
	note G_, 8
	note F#, 2
	note G_, 2
	octave 4
	note C_, 2
	note __, 2
	octave 3
	note G_, 8
	note F#, 2
	note G_, 2
	note E_, 2
	note __, 2
	note G_, 8
	note F#, 2
	note G_, 2
	octave 4
	note D_, 2
	note __, 2
	octave 3
	note G_, 8
	note F#, 2
	note G_, 2
	octave 4
	note E_, 2
	note __, 2
	octave 3
	note G_, 8
	note F#, 2
	note G_, 2
	octave 4
	note F_, 2
	note __, 2
	note E_, 2
	note __, 2
	note D_, 2
	note __, 2
	note C#, 2
	note __, 2
	note D_, 2
	note __, 2
	note C_, 2
	note __, 2
	octave 3
	note B_, 2
	note __, 2
	octave 4
	note C_, 2
	note D_, 2
	note E_, 2
	note __, 2
	note C_, 8
	octave 3
	note B_, 2
	octave 4
	note C_, 2
	note F_, 2
	note __, 2
	note E_, 8
	note D#, 2
	note E_, 2
	note A_, 4
	note __, 2
	note B_, 1
	note A_, 1
	intensity $C8
	note G_, 16
	intensity $C7
	octave 5
	note C_, 8
	octave 4
	note G_, 8
	note F_, 8
	note E_, 8
	note D_, 8
	intensity $C8
	note C#, 16
	note D_, 4
	note __, 4
	dutycycle 1
	intensity $C7
	note E_, 8
	note F_, 8
	octave 3
	note A_, 8
	octave 4
	note E_, 8
	octave 3
	note B_, 8
	octave 4
	note C_, 16
	note __, 6
	octave 3
	note G_, 2
	note A_, 2
	note B_, 2
	octave 4
	note C_, 2
	note D_, 2
	loopchannel 0, Music_SpruceLab_Ch2_loop

Music_SpruceLab_Ch3:
	notetype $F, $00
	note __, 8
Music_SpruceLab_Ch3_loop:
	octave 4
	notetype $C, $10
	note C_, 4
	octave 5
	note C_, 4
	octave 4
	note G_, 4
	octave 5
	note C_, 4
	octave 3
	note B_, 4
	octave 5
	note C_, 4
	octave 4
	note G_, 4
	octave 5
	note C_, 4
	octave 3
	note A#, 4
	octave 5
	note C_, 4
	octave 4
	note G_, 4
	octave 5
	note C_, 4
	octave 3
	note A_, 4
	octave 4
	note A_, 4
	note C#, 4
	note A_, 4
	note D_, 4
	note A_, 4
	note E_, 4
	note A_, 4
	note F_, 4
	note A_, 4
	note F#, 4
	note D_, 4
	note G_, 4
	note F#, 4
	note F_, 4
	note E_, 4
	note D_, 4
	note C_, 4
	octave 3
	note B_, 4
	note A_, 4
	note G_, 4
	octave 4
	note G_, 4
	note D_, 4
	note G_, 4
	octave 3
	note F#, 4
	octave 4
	note G_, 4
	note D_, 4
	note G_, 4
	octave 3
	note F_, 4
	note A_, 4
	octave 4
	note C_, 4
	note D_, 4
	note E_, 4
	note C_, 4
	note F#, 4
	note D_, 4
	note G_, 4
	octave 3
	note G_, 4
	note G#, 4
	note G_, 4
	note A_, 4
	note G_, 4
	octave 4
	note E_, 4
	note D_, 4
	note C_, 4
	octave 5
	note C_, 4
	octave 4
	note G_, 4
	octave 5
	note C_, 4
	octave 4
	note C_, 4
	note G_, 4
	note E_, 4
	note G_, 4
	note __, 4
	octave 3
	note G_, 1
	note __, 1
	note G_, 1
	note __, 1
	octave 4
	note G_, 1
	note __, 1
	note G_, 1
	note __, 1
	octave 3
	note G_, 1
	note __, 1
	note G_, 1
	note __, 5
	note G_, 1
	note __, 1
	note G_, 1
	note __, 1
	octave 4
	note G_, 1
	note __, 1
	note G_, 1
	note __, 1
	octave 3
	note G_, 1
	note __, 1
	note G_, 1
	note __, 5
	note G_, 1
	note __, 1
	note G_, 1
	note __, 1
	octave 4
	note G_, 1
	note __, 1
	note G_, 1
	note __, 1
	octave 3
	note G_, 1
	note __, 1
	note G_, 1
	note __, 5
	note G_, 1
	note __, 1
	note G_, 1
	note __, 1
	octave 4
	note G_, 1
	note __, 1
	note G_, 1
	note __, 1
	octave 3
	note G_, 1
	note __, 1
	note G_, 1
	note __, 5
	note G_, 1
	note __, 1
	note G_, 1
	note __, 1
	octave 4
	note G_, 1
	note __, 1
	note G_, 1
	note __, 1
	octave 3
	note G_, 1
	note __, 1
	note G_, 1
	note __, 5
	note G_, 1
	note __, 1
	note G_, 1
	note __, 1
	octave 4
	note G_, 1
	note __, 1
	note G_, 1
	note __, 1
	octave 3
	note G_, 1
	note __, 1
	note G_, 1
	note __, 16
	note __, 16
	notetype $1, $10
	note __, 12
	notetype $C, $10
	note C_, 12
	octave 4
	note C_, 4
	octave 2
	note B_, 12
	octave 3
	note B_, 4
	octave 2
	note A#, 12
	octave 3
	note A#, 4
	octave 2
	note A_, 8
	octave 3
	note G#, 8
	note G_, 2
	note __, 2
	octave 2
	note G_, 2
	note __, 2
	octave 3
	note G_, 2
	note __, 2
	octave 2
	note G_, 2
	note __, 2
	octave 3
	note G#, 2
	note __, 2
	octave 2
	note G#, 2
	note __, 2
	octave 3
	note G#, 2
	note __, 2
	octave 2
	note G#, 2
	note __, 2
	octave 3
	note A_, 2
	note __, 2
	note G#, 2
	note __, 2
	note G_, 2
	note __, 2
	note F#, 2
	note __, 2
	note F_, 2
	note __, 2
	note E_, 2
	note __, 2
	note D_, 2
	note __, 2
	note C#, 2
	note __, 2
	note D_, 4
	octave 4
	note D_, 12
	octave 2
	note G_, 4
	octave 3
	note G_, 12
	note C_, 2
	note __, 2
	octave 5
	note C_, 2
	note __, 2
	octave 4
	note B_, 2
	note __, 2
	note A_, 2
	note __, 2
	note G_, 2
	note __, 2
	note F_, 2
	note __, 2
	note E_, 2
	note __, 2
	note D_, 2
	note __, 2
	loopchannel 0, Music_SpruceLab_Ch3_loop

Music_SpruceLab_Ch4:
	notetype $F
	note __, 8
	togglenoise 3
Music_SpruceLab_Ch4_loop:
	notetype $C
	note A#, 4
	note E_, 2
	note E_, 2
	note D_, 2
	note __, 2
	note E_, 4
	loopchannel 0, Music_SpruceLab_Ch4_loop

