Music_StarglowOld: ; f57e8
	musicheader 4, 1, Music_StarglowOld_Ch1
	musicheader 1, 2, Music_StarglowOld_Ch2
	musicheader 1, 3, Music_StarglowOld_Ch3
	musicheader 1, 4, Music_StarglowOld_Ch4
; f57f4

Music_StarglowOld_Ch1: ; f57f4
	tempo 180
	volume $77
	dutycycle $1
	stereopanning $f
	notetype $c, $b6
Music_StarglowOld_loop1:
	octave 3
	note __, 8
	note __, 2
	note E_, 1
	note F#, 1
	note G#, 2
	note E_, 2
	note D#, 4
	octave 2
	note B_, 4
	octave 3
	note D#, 4
	note F#, 4
	note A_, 8
	note __, 2
	note F#, 1
	note G#, 1
	note A_, 2
	octave 2
	note B_, 2
	octave 3
	note E_, 4
	octave 2
	note B_, 4
	octave 3
	note E_, 4
	note G#, 4
	note A_, 4
	note A_, 4
	note G#, 4
	note F#, 4
	note E_, 4
	note __, 2
	note F#, 1
	note G#, 1
	note __, 4
	note E_, 4
	note C#, 4
	octave 2
	note A_, 4
	octave 3
	note C#, 3
	note E_, 3
	note D#, 8
	note __, 10
	
	octave 3
	note __, 8
	note __, 2
	note E_, 1
	note F#, 1
	note G#, 2
	note E_, 2
	note D#, 4
	octave 2
	note B_, 4
	octave 3
	note D#, 4
	note F#, 4
	note A_, 8
	note __, 2
	note F#, 1
	note G#, 1
	note A_, 2
	octave 2
	note B_, 2
	octave 3
	note E_, 4
	octave 2
	note B_, 4
	octave 3
	note E_, 4
	note G#, 4
	note A_, 4
	note A_, 4
	note G#, 4
	note F#, 4
	note E_, 4
	note __, 2
	note F#, 1
	note G#, 1
	note __, 4
	note E_, 4
	note D#, 6
	note C#, 2
	octave 2
	note B_, 3
	note A_, 3
	note G#, 8
	note __, 10
	
	octave 3
	note C#, 8
	note E_, 3
	note E_, 3
	note E_, 1
	note __, 1
	note __, 4
	octave 2
	note G#, 4
	octave 3
	note E_, 4
	octave 2
	note B_, 4
	note A_, 8
	octave 3
	note D#, 3
	octave 2
	note A_, 3
	note B_, 1
	note __, 1
	
	note __, 2
	note B_, 2
	octave 3
	note E_, 2
	note G#, 2
	note A_, 3
	note G#, 2
	note F#, 1
	note E_, 2
	note C#, 8
	note E_, 3
	note C#, 3
	octave 2
	note A_, 2
	note B_, 4
	octave 3
	note D#, 4
	note E_, 4
	note D#, 4
	note C#, 6
	octave 2
	note B_, 2
	note A_, 3
	note A_, 3
	note G#, 1
	note __, 1
	note __, 8
	note __, 8
	
	loopchannel 0, Music_StarglowOld_loop1


Music_StarglowOld_Ch2: ; f591d
	vibrato $12, $23
	dutycycle $2
	stereopanning $f0
	notetype $c, $c6
Music_StarglowOld_loop2:
	octave 2
	note __, 6
	note B_, 2
	octave 3
	note G#, 6
	note A_, 2
	note F#, 8
	note __, 8
	note __, 6
	note C#, 2
	note A_, 6
	note F#, 2
	note G#, 8
	note __, 8
	note __, 4
	octave 4
	note C#, 4
	octave 3
	note B_, 4
	note A_, 4
	note G#, 4
	note __, 2
	note A_, 1
	note B_, 1
	note __, 4
	note G#, 4
	note F#, 6
	note G#, 2
	note A_, 3
	octave 4
	note C#, 3
	octave 3
	note B_, 8
	note __, 10
	
	octave 2
	note __, 6
	note B_, 2
	octave 3
	note G#, 6
	note A_, 2
	note F#, 8
	note __, 8
	note __, 6
	note C#, 2
	note A_, 6
	note F#, 2
	note G#, 8
	note __, 8
	note __, 4
	octave 4
	note C#, 4
	octave 3
	note B_, 4
	note A_, 4
	note G#, 4
	note __, 2
	note A_, 1
	note B_, 1
	note __, 4
	note G#, 4
	note F#, 6
	note E_, 2
	note D#, 3
	note G#, 3
	note E_, 8
	note __, 8
	note F#, 1
	note G#, 1
	
	note A_, 6
	note E_, 2
	octave 4
	note C#, 3
	note C_, 3
	octave 3
	note B_, 1
	note __, 1
	note __, 12
	note __, 2
	note D#, 1
	note E_, 1
	note F#, 6
	note D#, 2
	note A_, 3
	note F#, 3
	note G#, 1
	note __, 1
	
	note __, 8
	notetype $c, $87
	octave 4
	note C#, 3
	octave 3
	note B_, 2
	note A_, 1
	notetype $c, $c6
	note G#, 2
	note A_, 6
	note E_, 2
	octave 4
	note C#, 3
	octave 3
	note A_, 3
	octave 4
	note C#, 2
	octave 3
	note B_, 4
	note A_, 4
	note G#, 4
	note B_, 4
	note A_, 6
	note G#, 2
	note F#, 3
	note D#, 3
	note E_, 1
	note __, 1
	
	note __, 8
	note __, 8	
	loopchannel 0, Music_StarglowOld_loop2

	
Music_StarglowOld_Ch3: ; f5a08
	stereopanning $ff
	vibrato $6, $26
	notetype $c, $25
Music_StarglowOld_loop3:
	octave 3
	note E_, 1
	note __, 5
	octave 2
	note B_, 1
	octave 3
	note E_, 1
	note __, 2
	note E_, 1
	note __, 3
	note E_, 2
	octave 2
	note B_, 1
	note __, 5
	note F#, 1
	note B_, 1
	note __, 2
	note B_, 1
	note __, 3
	note B_, 1
	note A#, 1
	note A_, 1
	note __, 5
	note E_, 1
	note A_, 1
	note __, 2
	note A_, 1
	note __, 3
	note A_, 2
	octave 3
	note E_, 1
	note __, 5
	octave 2
	note B_, 1
	octave 3
	note E_, 1
	note __, 2
	note E_, 1
	note __, 3
	note E_, 2
	octave 2
	note A_, 1
	note __, 5
	note E_, 1
	note A_, 1
	note __, 2
	note A_, 1
	note __, 3
	note A_, 2
	note G#, 1
	note __, 5
	note D#, 1
	note G#, 1
	note __, 2
	note G#, 1
	note __, 3
	note G#, 2
	note F#, 1
	note __, 5
	note C#, 1
	note F#, 1
	note __, 2
	note F#, 1
	note __, 3
	note F#, 2
	note B_, 1
	note __, 5
	note F#, 1
	note B_, 1
	note __, 2
	note B_, 1
	note __, 3
	note B_, 2
	
	octave 3
	note E_, 1
	note __, 5
	octave 2
	note B_, 1
	octave 3
	note E_, 1
	note __, 2
	note E_, 1
	note __, 3
	note E_, 2
	octave 2
	note B_, 1
	note __, 5
	note F#, 1
	note B_, 1
	note __, 2
	note B_, 1
	note __, 3
	note B_, 1
	note A#, 1
	note A_, 1
	note __, 5
	note E_, 1
	note A_, 1
	note __, 2
	note A_, 1
	note __, 3
	note A_, 2
	octave 3
	note E_, 1
	note __, 5
	octave 2
	note B_, 1
	octave 3
	note E_, 1
	note __, 2
	note E_, 1
	note __, 3
	note E_, 2
	octave 2
	note A_, 1
	note __, 5
	note E_, 1
	note A_, 1
	note __, 2
	note A_, 1
	note __, 3
	note A_, 2
	note G#, 1
	note __, 5
	note D#, 1
	note G#, 1
	note __, 2
	note G#, 1
	note __, 3
	note G#, 2
	note F#, 1
	note __, 5
	note C#, 1
	note F#, 1
	note __, 2
	note F#, 1
	note __, 3
	note F#, 2
	octave 3
	note E_, 1
	note __, 5
	octave 2
	note B_, 1
	octave 3
	note E_, 1
	note __, 2
	note E_, 1
	note __, 3
	note E_, 2
	
	octave 2
	note A_, 1
	note __, 5
	note E_, 1
	note A_, 1
	note __, 2
	note A_, 1
	note __, 3
	note A_, 2
	octave 3
	note E_, 1
	note __, 5
	octave 2
	note B_, 1
	octave 3
	note E_, 1
	note __, 2
	note E_, 1
	note __, 3
	note E_, 2
	octave 2
	note B_, 1
	note __, 5
	note F#, 1
	note B_, 1
	note __, 2
	note B_, 1
	note __, 3
	note B_, 2
	octave 3
	note E_, 1
	note __, 5
	octave 2
	note B_, 1
	octave 3
	note E_, 1
	note __, 2
	note E_, 1
	note __, 3
	note E_, 2
	octave 2
	note A_, 1
	note __, 5
	note E_, 1
	note A_, 1
	note __, 2
	note A_, 1
	note __, 3
	note A_, 2
	note G#, 4
	octave 3
	note C_, 4
	note C#, 4
	octave 2
	note G#, 4
	note F#, 1
	note __, 5
	note A_, 1
	note B_, 1
	note __, 2
	note B_, 1
	note __, 1
	octave 1
	note B_, 4
	octave 3
	note E_, 1
	note __, 5
	octave 2
	note B_, 1
	octave 3
	note E_, 1
	note __, 2
	note E_, 1
	note __, 3
	note E_, 2
	loopchannel 0, Music_StarglowOld_loop3


Music_StarglowOld_Ch4: ; f5ae5
	togglenoise $3
	notetype $c
Music_StarglowOld_loop4:
	note D#, 1
	note A_, 1
	note A_, 1
	note A_, 1
	note D_, 1
	note A_, 1
	note D#, 1
	note A_, 1
	note A_, 1
	note A_, 1
	note D#, 1
	note A_, 1
	note D_, 1
	note A_, 1
	note A_, 1
	note A_, 1
	
	note D#, 1
	note A_, 1
	note A_, 1
	note A_, 1
	note D_, 1
	note A_, 1
	note D#, 1
	note A_, 1
	note A_, 1
	note A_, 1
	note D#, 1
	note A_, 1
	note D_, 1
	note A_, 1
	note D#, 1
	note A_, 1
	
	note D#, 1
	note A_, 1
	note A_, 1
	note A_, 1
	note D_, 1
	note A_, 1
	note D#, 1
	note A_, 1
	note A_, 1
	note A_, 1
	note D#, 1
	note A_, 1
	note D_, 1
	note A_, 1
	note A_, 1
	note A_, 1
	
	note D#, 1
	note A_, 1
	note A_, 1
	note A_, 1
	note D_, 1
	note A_, 1
	note D#, 1
	note A_, 1
	note A_, 1
	note A_, 1
	note D#, 1
	note A_, 1
	note D_, 1
	note A_, 1
	note D#, 1
	note D_, 1
	loopchannel 0, Music_StarglowOld_loop4
