Music_StarglowValley:
	musicheader 4, 1, Music_StarglowValley_Ch1
	musicheader 1, 2, Music_StarglowValley_Ch2
	musicheader 1, 3, Music_StarglowValley_Ch3
	musicheader 1, 4, Music_StarglowValley_Ch4

Music_StarglowValley_Ch1:
	tempo $AB
	volume $77
	stereopanning $77
	notetype $C, $00
	note __, 16
	note __, 2
	intensity $95
	octave 3
	note A_, 1
	note __, 1
	octave 4
	note D_, 1
	note __, 1
	note E_, 1
	note __, 1
	note F#, 1
	note __, 1
	octave 3
	note A_, 1
	note __, 1
	octave 4
	note D_, 1
	note __, 1
	octave 3
	note A_, 1
	note __, 1
Music_StarglowValley_Ch1_loop:
	note __, 2
	note A_, 1
	note __, 1
	octave 4
	note D_, 1
	note __, 1
	note E_, 1
	note __, 1
	note F#, 1
	note __, 1
	note G_, 1
	note __, 1
	note F#, 1
	note __, 1
	note E_, 1
	note __, 3
	note D_, 1
	note __, 1
	note F#, 1
	note __, 1
	note E_, 1
	note __, 1
	note F#, 1
	note __, 1
	note D_, 1
	note __, 1
	note C#, 1
	note __, 1
	octave 3
	note B_, 1
	note __, 3
	note A_, 1
	note __, 1
	octave 4
	note E_, 1
	note __, 1
	note C#, 1
	note __, 1
	octave 3
	note A_, 1
	note __, 1
	note B_, 1
	note __, 1
	octave 4
	note C#, 1
	note __, 1
	octave 3
	note A_, 1
	note __, 3
	note A_, 1
	note __, 1
	octave 4
	note D_, 1
	note __, 1
	note E_, 1
	note __, 1
	note F#, 1
	note __, 1
	octave 3
	note A_, 1
	note __, 1
	octave 4
	note D_, 1
	note __, 1
	octave 3
	note A_, 1
	note __, 3
	octave 4
	note D_, 1
	note __, 1
	note E_, 1
	note __, 1
	note F#, 1
	note __, 1
	note D_, 1
	note __, 1
	octave 3
	note B_, 1
	note __, 1
	note G_, 1
	note __, 1
	octave 4
	note D_, 1
	note __, 3
	note C#, 1
	note __, 1
	note D_, 1
	note __, 1
	note E_, 1
	note __, 1
	note C#, 1
	note __, 1
	octave 3
	note A_, 1
	note __, 1
	note G_, 1
	note __, 1
	note F#, 1
	note __, 3
	note A_, 1
	note __, 1
	octave 4
	note D_, 1
	note __, 1
	note C#, 1
	note __, 1
	note D_, 1
	note __, 1
	octave 3
	note A_, 1
	note __, 1
	note F#, 1
	note __, 1
	note A_, 1
	note __, 1
	octave 2
	note F#, 1
	note A_, 1
	note F#, 1
	note __, 3
	note F#, 1
	note A_, 1
	note F#, 1
	note __, 3
	note F#, 1
	note A_, 1
	note F#, 1
	note D_, 1
	note E_, 1
	note G_, 1
	note E_, 1
	note __, 3
	note E_, 1
	note G_, 1
	note E_, 1
	note __, 3
	note E_, 1
	note G_, 1
	note E_, 1
	note C_, 1
	note D_, 1
	note A_, 1
	note D_, 1
	note __, 3
	note D_, 1
	note A_, 1
	note D_, 1
	note __, 3
	note D_, 1
	note A_, 1
	note F#, 1
	note D_, 1
	note C#, 1
	note E_, 1
	note C#, 1
	note __, 3
	note C#, 1
	note E_, 1
	note C#, 1
	note __, 3
	note C#, 1
	note E_, 1
	note D_, 1
	note C#, 1
	note F#, 1
	note A_, 1
	dutycycle 1
	intensity $A7
	vibrato $00, $23
	octave 4
	note D_, 2
	note F#, 2
	note E_, 2
	note D_, 4
	octave 3
	note B_, 2
	note A_, 2
	note G_, 4
	note F#, 4
	note E_, 4
	note D_, 4
	note C#, 4
	note D_, 4
	note E_, 4
	octave 2
	note A_, 4
	intensity $97
	vibrato $00, $00
	note F#, 1
	note __, 1
	octave 3
	note D_, 1
	dutycycle 0
	intensity $47
	octave 2
	note F#, 1
	intensity $97
	octave 3
	note A_, 1
	intensity $47
	note D_, 1
	intensity $97
	note F#, 1
	intensity $47
	note A_, 1
	intensity $97
	octave 4
	note D_, 1
	intensity $47
	octave 3
	note F#, 1
	intensity $97
	note A_, 1
	intensity $47
	octave 4
	note D_, 1
	intensity $97
	note F#, 1
	intensity $47
	octave 3
	note A_, 1
	intensity $97
	octave 4
	note D_, 1
	intensity $47
	note F#, 1
	intensity $97
	note A_, 1
	intensity $47
	note D_, 1
	intensity $97
	note D_, 1
	intensity $47
	note A_, 1
	intensity $97
	note F_, 1
	intensity $47
	note D_, 1
	intensity $97
	octave 3
	note A_, 1
	intensity $47
	octave 4
	note F_, 1
	intensity $97
	note D_, 1
	intensity $47
	octave 3
	note A_, 1
	intensity $97
	note F_, 1
	intensity $47
	octave 4
	note D_, 1
	intensity $97
	octave 3
	note A_, 1
	intensity $47
	note F_, 1
	intensity $97
	note D_, 1
	intensity $47
	note A_, 1
	intensity $97
	note F_, 1
	intensity $47
	note D_, 1
	intensity $97
	note C_, 1
	intensity $47
	note F_, 1
	intensity $97
	note A_, 1
	intensity $47
	note C_, 1
	intensity $97
	note F_, 1
	intensity $47
	note A_, 1
	intensity $97
	octave 4
	note C_, 1
	intensity $47
	octave 3
	note F_, 1
	intensity $97
	note A_, 1
	intensity $47
	octave 4
	note C_, 1
	intensity $97
	note F_, 1
	intensity $47
	octave 3
	note A_, 1
	intensity $97
	octave 4
	note C_, 1
	intensity $47
	note F_, 1
	intensity $97
	note D_, 1
	intensity $47
	note C_, 1
	intensity $97
	note F_, 1
	intensity $47
	note D_, 1
	intensity $97
	octave 3
	note A_, 1
	intensity $47
	octave 4
	note F_, 1
	intensity $97
	note D_, 1
	intensity $47
	octave 3
	note A_, 1
	intensity $97
	note F_, 1
	intensity $47
	octave 4
	note D_, 1
	intensity $97
	octave 3
	note A_, 1
	intensity $47
	note F_, 1
	intensity $97
	note D_, 1
	intensity $47
	note A_, 1
	intensity $97
	note F_, 1
	intensity $47
	note D_, 1
	intensity $97
	note C_, 1
	intensity $47
	note F_, 1
	intensity $97
	note A_, 1
	intensity $47
	note C_, 1
	intensity $97
	note F_, 1
	intensity $47
	note A_, 1
	intensity $97
	octave 4
	note C_, 1
	intensity $47
	octave 3
	note F_, 1
	intensity $97
	note A_, 1
	intensity $47
	octave 4
	note C_, 1
	intensity $97
	note F_, 1
	intensity $47
	octave 3
	note A_, 1
	intensity $97
	octave 4
	note C_, 1
	intensity $47
	note F_, 1
	intensity $97
	note A_, 1
	intensity $47
	note C_, 1
	intensity $97
	octave 5
	note D_, 1
	intensity $47
	octave 4
	note A_, 1
	intensity $97
	note F_, 1
	intensity $47
	octave 5
	note D_, 1
	intensity $97
	octave 4
	note A_, 1
	intensity $47
	note F_, 1
	intensity $97
	note D_, 1
	intensity $47
	note A_, 1
	intensity $97
	note F_, 1
	intensity $47
	note D_, 1
	intensity $97
	octave 3
	note A_, 1
	intensity $47
	octave 4
	note F_, 1
	intensity $97
	note D_, 1
	intensity $47
	octave 3
	note A_, 1
	intensity $97
	note F_, 1
	intensity $47
	octave 4
	note D_, 1
	intensity $97
	note C_, 1
	intensity $47
	octave 3
	note F_, 1
	intensity $97
	note A_, 1
	intensity $47
	octave 4
	note C_, 1
	intensity $97
	note F_, 1
	intensity $47
	octave 3
	note A_, 1
	intensity $97
	octave 4
	note C_, 1
	intensity $47
	note F_, 1
	intensity $97
	note A_, 1
	intensity $47
	note C_, 1
	intensity $97
	note F_, 1
	intensity $47
	note A_, 1
	intensity $97
	note C_, 1
	intensity $47
	note F_, 1
	intensity $97
	note F_, 1
	intensity $47
	note C_, 1
	intensity $97
	octave 3
	note B_, 1
	intensity $47
	octave 4
	note F_, 1
	intensity $97
	octave 3
	note G_, 1
	intensity $47
	note B_, 1
	intensity $97
	octave 4
	note D_, 1
	intensity $47
	octave 3
	note G_, 1
	dutycycle 1
	intensity $97
	vibrato $00, $23
	note F#, 2
	note E_, 2
	note F#, 4
	note E_, 6
	note F#, 2
	note D_, 4
	note C#, 4
	note D_, 4
	dutycycle 0
	vibrato $00, $00
	note A_, 1
	note __, 1
	octave 4
	note D_, 1
	note __, 1
	note E_, 1
	note __, 1
	note F#, 1
	note __, 1
	octave 3
	note A_, 1
	note __, 1
	octave 4
	note D_, 1
	note __, 1
	octave 3
	note A_, 1
	note __, 1
	loopchannel 0, Music_StarglowValley_Ch1_loop

Music_StarglowValley_Ch2:
	notetype $C, $00
	note __, 16
	note __, 2
	dutycycle 2
	intensity $C7
	vibrato $00, $23
	octave 3
	note F#, 2
	note A_, 2
	note G_, 2
	note F#, 4
	note E_, 2
	note D_, 2
Music_StarglowValley_Ch2_loop:
	note E_, 2
	note F#, 4
	note D_, 6
	note E_, 2
	note F#, 4
	note F#, 2
	note A_, 2
	note G_, 2
	note F#, 4
	note E_, 2
	note D_, 2
	note C#, 2
	note D_, 2
	note __, 2
	note E_, 6
	note F_, 2
	note F#, 4
	note F#, 2
	note A_, 2
	note G_, 2
	note F#, 4
	note E_, 2
	note F#, 2
	note G_, 2
	note A_, 4
	note B_, 6
	note A#, 2
	note A_, 4
	note G_, 2
	note F#, 2
	note G_, 4
	note F#, 2
	note E_, 2
	note D_, 10
	note __, 8
	vibrato $00, $00
	octave 2
	note D_, 1
	note __, 1
	note D_, 1
	note __, 1
	octave 3
	note D_, 1
	note __, 1
	octave 2
	note D_, 1
	note __, 1
	note D_, 1
	note __, 1
	octave 3
	note D_, 1
	note __, 1
	octave 2
	note A_, 1
	note __, 1
	octave 3
	note D_, 1
	note __, 1
	octave 2
	note C_, 1
	note __, 1
	note C_, 1
	note __, 1
	octave 3
	note C_, 1
	note __, 1
	octave 2
	note C_, 1
	note __, 1
	note C_, 1
	note __, 1
	octave 3
	note C_, 1
	note __, 1
	octave 2
	note G_, 1
	note __, 1
	octave 3
	note C_, 1
	note __, 1
	octave 1
	note B_, 1
	note __, 1
	note B_, 1
	note __, 1
	octave 2
	note B_, 1
	note __, 1
	octave 1
	note B_, 1
	note __, 1
	note B_, 1
	note __, 1
	octave 2
	note B_, 1
	note __, 1
	note F#, 1
	note __, 1
	note B_, 1
	note __, 1
	octave 1
	note A_, 1
	note __, 1
	note A_, 1
	note __, 1
	octave 2
	note A_, 1
	note __, 1
	octave 1
	note A_, 1
	note __, 1
	note A_, 1
	note __, 1
	octave 2
	note A_, 1
	note __, 1
	note E_, 1
	note __, 1
	note A_, 1
	note __, 1
	note D_, 2
	dutycycle 1
	vibrato $00, $23
	octave 4
	note F#, 2
	note A_, 2
	note G_, 2
	note F#, 4
	note E_, 2
	note D#, 2
	note E_, 2
	note F#, 4
	note G_, 6
	note B_, 2
	note A_, 4
	note G_, 2
	note F#, 2
	note G_, 4
	note F#, 2
	note E_, 2
	note D_, 10
	note __, 16
	dutycycle 2
	octave 3
	note D_, 2
	note E_, 2
	note F_, 2
	note A_, 6
	note G_, 4
	note F_, 2
	note E_, 4
	note D_, 10
	note E_, 2
	note F_, 2
	octave 2
	note A#, 2
	note A_, 4
	note A#, 4
	octave 3
	note C_, 4
	note C#, 4
	note D_, 10
	note D_, 2
	note E_, 2
	note F_, 2
	note A_, 4
	note A#, 4
	octave 4
	note C_, 4
	note D_, 4
	octave 3
	note G_, 8
	dutycycle 1
	note A_, 2
	note G_, 2
	note A_, 4
	note G_, 6
	note A_, 2
	note F#, 4
	note E_, 4
	note F#, 4
	dutycycle 2
	note F#, 2
	note A_, 2
	note G_, 2
	note F#, 4
	note E_, 2
	note D_, 2
	loopchannel 0, Music_StarglowValley_Ch2_loop

Music_StarglowValley_Ch3:
	notetype $C, $00
	note __, 16
	dutycycle 5
	intensity $25
	octave 3
	note D_, 2
	note A_, 2
	octave 4
	note D_, 2
	octave 3
	note D_, 2
	note __, 2
	note A_, 2
	octave 4
	note D_, 2
	octave 3
	note D_, 2
Music_StarglowValley_Ch3_loop:
	note C_, 2
	note G_, 2
	octave 4
	note C_, 2
	octave 3
	note C_, 2
	note __, 2
	note G_, 2
	octave 4
	note C_, 2
	octave 3
	note C_, 2
	octave 2
	note B_, 2
	octave 3
	note F#, 2
	note B_, 2
	octave 2
	note B_, 2
	note __, 2
	octave 3
	note F#, 2
	note B_, 2
	octave 2
	note B_, 2
	note A_, 2
	octave 3
	note E_, 2
	note A_, 2
	octave 2
	note A_, 2
	note __, 2
	octave 3
	note E_, 2
	note A_, 2
	octave 2
	note A_, 2
	octave 3
	note D_, 2
	note A_, 2
	octave 4
	note D_, 2
	octave 3
	note D_, 2
	note __, 2
	note A_, 2
	note F#, 2
	note C_, 2
	octave 2
	note B_, 2
	octave 3
	note D_, 2
	note G_, 2
	octave 2
	note G_, 2
	note __, 2
	octave 3
	note D_, 2
	note G_, 2
	octave 2
	note G_, 2
	note A_, 2
	octave 3
	note E_, 2
	note A_, 2
	octave 2
	note A_, 2
	note __, 2
	octave 3
	note E_, 2
	octave 2
	note A_, 2
	octave 3
	note C#, 2
	note D_, 2
	note A_, 2
	octave 4
	note D_, 2
	octave 3
	note D_, 2
	note __, 2
	note A_, 2
	note F#, 2
	note E_, 2
	note D_, 2
	dutycycle 1
	intensity $11
	vibrato $00, $22
	octave 5
	note F#, 2
	note A_, 2
	note G_, 2
	note F#, 4
	note E_, 2
	note D_, 2
	note E_, 2
	note F#, 4
	note D_, 6
	note E_, 2
	note F#, 4
	note F#, 2
	note A_, 2
	note G_, 2
	note F#, 4
	note E_, 2
	note D_, 2
	note C#, 2
	note D_, 2
	note __, 2
	note E_, 6
	note F_, 2
	note F#, 4
	dutycycle 5
	intensity $25
	octave 3
	note A_, 2
	octave 4
	note D_, 2
	octave 3
	note D_, 2
	note __, 2
	note A_, 2
	note G_, 2
	note F#, 2
	note E_, 2
	note B_, 2
	octave 4
	note E_, 2
	octave 3
	note E_, 2
	note __, 2
	note B_, 2
	octave 4
	note E_, 2
	octave 3
	note E_, 2
	octave 2
	note A_, 2
	octave 3
	note E_, 2
	note A_, 2
	octave 2
	note A_, 2
	note __, 2
	octave 3
	note E_, 2
	octave 2
	note A_, 2
	octave 3
	note C#, 2
	note D_, 2
	note A_, 2
	octave 4
	note D_, 2
	octave 3
	note D_, 2
	note __, 2
	note A_, 2
	note F#, 2
	note D_, 2
	dutycycle 1
	intensity $11
	octave 2
	note A#, 2
	octave 3
	note D_, 2
	note F_, 2
	note A#, 10
	octave 2
	note F_, 2
	note A_, 2
	octave 3
	note C_, 2
	note F_, 10
	octave 2
	note A#, 2
	octave 3
	note D_, 2
	note F_, 2
	note A#, 10
	octave 2
	note F_, 2
	note A_, 2
	octave 3
	note C_, 2
	note F_, 10
	octave 2
	note A#, 2
	octave 3
	note D_, 2
	note F_, 2
	note A#, 10
	octave 2
	note F_, 2
	note A_, 2
	octave 3
	note C_, 2
	note F_, 10
	octave 2
	note G_, 2
	note B_, 2
	octave 3
	note D_, 2
	note G_, 10
	octave 2
	note A_, 2
	octave 3
	note C#, 2
	note E_, 2
	note A_, 4
	note E_, 2
	note C#, 2
	octave 2
	note A_, 2
	dutycycle 5
	intensity $25
	octave 3
	note D_, 2
	note A_, 2
	octave 4
	note D_, 2
	octave 3
	note D_, 2
	note __, 2
	note A_, 2
	octave 4
	note D_, 2
	octave 3
	note D_, 2
	loopchannel 0, Music_StarglowValley_Ch3_loop

Music_StarglowValley_Ch4:
	togglenoise 3
	notetype $C
	note G_, 2
	note __, 2
	note G_, 2
	note __, 2
	note G_, 2
	note A#, 2
	note G_, 1
	note G_, 1
	note A#, 2
Music_StarglowValley_Ch4_loop:
	note B_, 2
	note A#, 2
	note D_, 2
	note A#, 2
	note __, 2
	note A#, 2
	note D_, 2
	note B_, 2
	note A#, 2
	note A#, 2
	note D_, 2
	note A#, 2
	note G_, 2
	note A#, 2
	note D_, 2
	note A#, 2
	loopchannel 0, Music_StarglowValley_Ch4_loop

