Music_SunsetBay: ; f0000
	musicheader 4, 1, Music_SunsetBay_Ch1
	musicheader 1, 2, Music_SunsetBay_Ch2
	musicheader 1, 3, Music_SunsetBay_Ch3
	musicheader 1, 4, Music_SunsetBay_Ch4
; f000c

Music_SunsetBay_Ch1: ; f000c
	tempo 120
	volume $77
	vibrato $12, $25
	dutycycle $3f
	notetype $c, $95
	intensity $70
	octave 2
	note D_, 4
	note F#, 4
	octave 1
	note A_, 4
	octave 2
	note F#, 4
	note D_, 4
	note F#, 4
	octave 1
	note A_, 4
	octave 2
	note F#, 4
	note D_, 4
	note F#, 4
	octave 1
	note A_, 4
	octave 2
	note F#, 4
	note D_, 4
	note F#, 4
	octave 1
	note A_, 4
	octave 2
	note F#, 4
Music_SunsetBay_branch_f0261: ; f0261
	note D_, 4
	note F#, 4
	octave 1
	note A_, 4
	octave 2
	note F#, 4
	note D_, 4
	note F#, 4
	octave 1
	note A_, 4
	octave 2
	note F#, 4
	note E_, 4
	note G_, 4
	octave 1
	note A_, 4
	octave 2
	note G_, 4
	note E_, 4
	note G_, 4
	octave 1
	note A_, 4
	octave 2
	note G_, 4
	note E_, 4
	note G_, 4
	octave 1
	note A_, 4
	octave 2
	note G_, 4
	note E_, 4
	octave 1
	note A_, 4
	note B_, 4
	octave 2
	note C#, 4
	note D_, 4
	note F#, 4
	octave 1
	note A_, 4
	octave 2
	note F#, 4
	note D_, 4
	note D_, 4
	note E_, 4
	note F#, 4
	note G_, 4
	note B_, 4
	note D_, 4
	note B_, 4
	note G_, 4
	note B_, 4
	note D_, 4
	note B_, 4
	note F#, 4
	note A_, 4
	note D_, 4
	note A_, 4
	note F#, 4
	note A_, 4
	note D_, 4
	note A_, 4
	note E_, 4
	note G_, 4
	octave 1
	note A_, 4
	octave 2
	note G_, 4
	note E_, 4
	note G_, 4
	octave 1
	note A_, 4
	octave 2
	note G_, 4
	note E_, 4
	note G_, 4
	note C#, 4
	note G_, 4
	octave 1
	note A_, 4
	note A_, 4
	note B_, 4
	octave 2
	note C#, 4
	
	note D_, 4
	note F#, 4
	octave 1
	note A_, 4
	octave 2
	note F#, 4
	note D_, 4
	note F#, 4
	octave 1
	note A_, 4
	octave 2
	note F#, 4
	note E_, 4
	note G_, 4
	octave 1
	note A_, 4
	octave 2
	note G_, 4
	note E_, 4
	note G_, 4
	octave 1
	note A_, 4
	octave 2
	note G_, 4
	note E_, 4
	note G_, 4
	octave 1
	note A_, 4
	octave 2
	note G_, 4
	note E_, 4
	octave 1
	note A_, 4
	note B_, 4
	octave 2
	note C#, 4
	note D_, 4
	note F#, 4
	octave 1
	note A_, 4
	octave 2
	note F#, 4
	note D_, 4
	note D_, 4
	note E_, 4
	note F#, 4
	note G_, 4
	note B_, 4
	note D_, 4
	note B_, 4
	note G_, 4
	note B_, 4
	note D_, 4
	note B_, 4
	note F#, 4
	note A_, 4
	note D_, 4
	note A_, 4
	note F#, 4
	note A_, 4
	note D_, 4
	note A_, 4
	octave 1
	note A_, 4
	octave 2
	note C#, 4
	note E_, 4
	octave 1
	note A_, 4
	octave 2
	note E_, 4
	octave 1
	note A_, 4
	note B_, 4
	octave 2
	note C#, 4
	note D_, 4
	note A_, 4
	note F#, 4
	note A_, 4
	note D_, 12
	note __, 4
	
	note D_, 4
	note F#, 4
	octave 1
	note A_, 4
	octave 2
	note F#, 4
	note D_, 4
	note F#, 4
	octave 1
	note A_, 4
	octave 2
	note F#, 4
	note D_, 4
	note F#, 4
	octave 1
	note A_, 4
	octave 2
	note F#, 4
	note D_, 4
	octave 1
	note A_, 4
	note B_,4
	octave 2
	note C#, 4
	loopchannel 0, Music_SunsetBay_branch_f0261

Music_SunsetBay_Ch2: ; f0162
	vibrato $9, $27
	dutycycle $2
	notetype $c, $c7
	octave 3
	note __, 16
	note __, 16
	note __, 16
	note __, 16
Music_SunsetBay_Ch2loop:
	intensity $d7
	octave 3
	note F#, 12
	note D_, 4
	note A_, 4
	note G_, 4
	note F#, 4
	note E_, 4
	note G_, 12
	note E_, 4
	note E_, 12
	note __, 4
	note E_, 12
	note C#,4
	note G_, 4
	note F#, 4
	note E_, 4
	note C#, 4
	note D_, 12
	note __, 8
	note F#, 4
	note G_, 4
	note A_, 4
	note B_, 12
	note G_, 4
	octave 4
	note D_, 8
	note C#, 4
	octave 3
	note B_, 4
	note A_, 12
	note F#, 4
	note A_, 8
	note G_, 4
	note F#, 4
	note E_, 12
	octave 2
	note B_, 4
	octave 3
	note C#, 8
	note F#, 8
	note E_, 16
	note __, 16
	
	note F#, 12
	note D_, 4
	note A_, 4
	note G_, 4
	note F#, 4
	note E_, 4
	note G_, 12
	note E_, 4
	note E_, 12
	note __, 4
	note E_, 12
	note C#,4
	note G_, 4
	note F#, 4
	note E_, 4
	note C#, 4
	note D_, 12
	note __, 8
	note F#, 4
	note G_, 4
	note A_, 4
	note B_, 12
	note G_, 4
	octave 4
	note D_, 8
	note C#, 4
	octave 3
	note B_, 4
	note A_, 12
	note F#, 4
	note A_, 8
	note G_, 4
	note F#, 4
	note E_, 12
	note D_, 4
	note C#, 8
	note F#, 4
	note E_, 4
	note D_, 16
	note __, 16	
	
	note __, 16
	note __, 16
	note __, 16
	note __, 16
	loopchannel 0, Music_SunsetBay_Ch2loop

Music_SunsetBay_Ch3: ; f0247
	stereopanning $ff
	vibrato $8, $23
	notetype $c, $25
	octave 3
	note __, 4
	note A_, 2
	note __, 2
	octave 4
	note D_, 2
	note __,2
	octave 3
	note A_, 2
	note __, 2
	note __, 4
	note A_, 2
	note __, 2
	octave 4
	note D_, 2
	note __,2
	octave 3
	note A_, 2
	note __, 2
	note __, 4
	note A_, 2
	note __, 2
	octave 4
	note D_, 2
	note __,2
	octave 3
	note A_, 2
	note __, 2
	note __, 4
	note A_, 2
	note __, 2
	octave 4
	note D_, 2
	note __,2
	octave 3
	note A_, 2
	note __, 2	
Music_SunsetBay_branch_f0199: ; f0199
	note __, 4
	note A_, 2
	note __, 2
	octave 4
	note D_, 2
	note __,2
	octave 3
	note A_, 2
	note __, 2
;	intensity $a7
	octave 4
	note F#, 4
	note E_, 4
	note D_, 4
	note C#, 4
;	intensity $97
	octave 3
	note __, 4
	note A_, 2
	note __, 2
	octave 4
	note C#, 2
	note __,2
	octave 3
	note A_, 2
	note __, 2
	note __, 4
	note A_, 2
	note __, 2
	octave 4
	note C#, 2
	note __,2
	octave 3
	note A_, 2
	note __, 2
	note __, 4
	note A_, 2
	note __, 2
	octave 4
	note C#, 2
	note __,2
	octave 3
	note A_, 2
	note __, 2
;	intensity $a7
	octave 4
	note E_, 4
	note D_, 4
	note C#, 4
;	intensity $c7
	note E_, 4
;	intensity $97
	octave 3
	note __, 4
	note A_, 2
	note __, 2
	octave 4
	note D_, 2
	note __,2
	octave 3
	note A_, 2
	note __, 2
	note __, 4
	note A_, 2
	note __, 2
	octave 4
	note D_, 2
	note __,2
	octave 3
	note A_, 2
	note __, 2
	note __, 4
	note B_, 2
	note __, 2
	octave 4
	note D_, 2
	note __, 2
	octave 3
	note B_, 2
	note __, 2
;	intensity $a7
	octave 4
	note B_, 8
	note A_, 4
	note G_, 4
;	intensity $97
	octave 3
	note __, 4
	note A_, 2
	note __, 2
	octave 4
	note D_, 2
	note __, 2
	octave 3
	note A_, 2
	note __, 2
;	intensity $a7
	octave 4
	note F#, 8
	note E_, 4
	note D_, 4
	octave 3
	note __, 4
	note A_, 2
	note __, 2
	octave 4
	note C#, 2
	note __,2
	octave 3
	note A_, 2
	note __, 2
	note __, 4
	note A_, 2
	note __, 2
	octave 4
	note C#, 2
	note __,2
	octave 3
	note A_, 2
	note __, 2
	note __, 4
	note A_, 2
	note __, 2
	octave 4
	note C#, 2
	note __,2
	octave 3
	note A_, 2
	note __, 2
	note __, 4
	note A_, 2
	note __, 2
	octave 4
	note C#, 2
	note __,2
	octave 3
	note A_, 2
	note __, 2
	
	note __, 4
	note A_, 2
	note __, 2
	octave 4
	note D_, 2
	note __,2
	octave 3
	note A_, 2
	note __, 2
;	intensity $a7
	octave 4
	note F#, 4
	note E_, 4
	note D_, 4
	note C#, 4
;	intensity $97
	octave 3
	note __, 4
	note A_, 2
	note __, 2
	octave 4
	note C#, 2
	note __,2
	octave 3
	note A_, 2
	note __, 2
	note __, 4
	note A_, 2
	note __, 2
	octave 4
	note C#, 2
	note __,2
	octave 3
	note A_, 2
	note __, 2
	note __, 4
	note A_, 2
	note __, 2
	octave 4
	note C#, 2
	note __,2
	octave 3
	note A_, 2
	note __, 2
;	intensity $a7
	octave 4
	note E_, 4
	note D_, 4
	note C#, 4
;	intensity $c7
	note E_, 4
;	intensity $97
	octave 3
	note __, 4
	note A_, 2
	note __, 2
	octave 4
	note D_, 2
	note __,2
	octave 3
	note A_, 2
	note __, 2
	note __, 4
	note A_, 2
	note __, 2
	octave 4
	note D_, 2
	note __,2
	octave 3
	note A_, 2
	note __, 2
	note __, 4
	note G_, 2
	note __, 2
	octave 4
	note D_, 2
	note __, 2
	octave 3
	note G_, 2
	note __, 2
	octave 4
;	intensity $a7
	note B_, 8
	note A_, 4
	note G_, 4
;	intensity $97
	octave 3
	note __, 4
	note F#, 2
	note __, 2
	octave 4
	note D_, 2
	octave 3
	note __, 2
	note F#, 2
	note __, 2
;	intensity $a7
	octave 4
	note F#, 8
	note E_, 4
	note D_, 4
;	intensity $97
	octave 3
	note __, 4
	note A_, 2
	octave 4
	note __, 2
	note D_, 2
	note __, 2
	octave 3
	note A_, 2
	note __, 2
	note __, 4
	note A_, 2
	note __, 2
	note B_, 2
	octave 4
	note __, 2
	note C#, 2
	note __, 2
	octave 3
	note __, 4
	note A_, 2
	note __, 2
	octave 4
	note D_, 2
	octave 3
	note __, 2
	note A_, 2
	note __, 2
	octave 4
	note D_, 2
	note __, 2
	note __, 4
	note __, 8
	
	octave 3
	note __, 4
	note A_, 2
	note __, 2
	octave 4
	note D_, 2
	note __,2
	octave 3
	note A_, 2
	note __, 2
	note __, 4
	note A_, 2
	note __, 2
	octave 4
	note D_, 2
	note __,2
	octave 3
	note A_, 2
	note __, 2
	note __, 4
	note A_, 2
	note __, 2
	octave 4
	note D_, 2
	note __,2
	octave 3
	note A_, 2
	note __, 2
	note __, 4
	note A_, 2
	note __, 2
	octave 4
	note D_, 2
	note __,2
	octave 3
	note A_, 2
	note __, 2		
	
	loopchannel 0, Music_SunsetBay_branch_f0199
	endchannel
; f031e

Music_SunsetBay_Ch4: ; f031e
	togglenoise $3
	notetype $c
Music_SunsetBay_Ch4loop:
	note __, 4
	note G#, 2
	note __, 6
	note G#, 2
	note __, 6
	note G#, 2
	note G#, 2
	note __, 4
	note G#, 4
	note __, 4
	note G#, 2
	note __, 6
	note G#, 2
	note __, 6
	note G#, 2
	note G#, 2
	note __, 4
	note F#, 4
	loopchannel 0, Music_SunsetBay_Ch4loop
	endchannel
; f0386
