Music_TitleScreen2:
	musicheader 4, 1, Music_TitleScreen2_Ch1
	musicheader 1, 2, Music_TitleScreen2_Ch2
	musicheader 1, 3, Music_TitleScreen2_Ch3
	musicheader 1, 4, Music_TitleScreen2_Ch4

Music_TitleScreen2_Ch1:
	tempo $89
	volume $77
	stereopanning $77
	notetype $8, $65
	dutycycle 1
	intensity $78
	octave 3
	note E_, 6
	note G_, 6
	octave 4
	note C_, 6
	note E_, 6
	note D_, 6
	octave 3
	note A#, 6
	octave 4
	note D_, 6
	note F_, 6
	notetype $F, $78
	note E_, 4
	notetype $C, $78
	note __, 1
	notetype $6, $78
	note E_, 1
	note __, 1
	note D_, 1
	note __, 1
	note C_, 8
	octave 3
	note G_, 8
	octave 2
	notetype $8, $78
	note D#, 2
	note G#, 2
	octave 3
	note C_, 2
	note D#, 2
	note G#, 2
	octave 4
	note C_, 2
	octave 3
	note A#, 2
	note F_, 2
	note D_, 2
	notetype $6, $78
	note D_, 1
	note E_, 1
	note F_, 1
	note G_, 1
	note A_, 1
	note A#, 1
	octave 4
	note C_, 1
	note D_, 1
	octave 3
	note E_, 8
	note G_, 8
	octave 4
	note C_, 8
	note E_, 8
	note F_, 8
	note E_, 8
	note D_, 8
	octave 3
	note A#, 8
	octave 4
	note C_, 10
	note __, 2
	note C_, 1
	note __, 1
	note D_, 1
	note __, 1
	note E_, 8
	note C_, 8
	octave 3
	note A_, 16
	note B_, 16
	octave 3
	note E_, 8
	note G_, 8
	octave 4
	note C_, 8
	note E_, 8
	note D_, 8
	octave 3
	note A#, 8
	octave 4
	note D_, 8
	note F_, 8
	note E_, 10
	note __, 2
	note E_, 1
	note __, 1
	note D_, 1
	note __, 1
	note C_, 8
	octave 3
	note G_, 8
	octave 2
	notetype $8, $78
	note D#, 2
	note G#, 2
	octave 3
	note C_, 2
	note D#, 2
	note G#, 2
	octave 4
	note C_, 2
	octave 3
	note A#, 2
	note F_, 2
	note D_, 2
	notetype $6, $78
	note D_, 1
	note E_, 1
	note F_, 1
	note G_, 1
	note A_, 1
	note A#, 1
	octave 4
	note C_, 1
	note D_, 1
	octave 3
	note E_, 8
	note G_, 8
	octave 4
	note C_, 8
	note E_, 8
	note F_, 8
	note E_, 8
	note D_, 8
	octave 3
	note A#, 8
	note A_, 12
	note G#, 2
	note G_, 2
	note F_, 8
	note G_, 8
	note A_, 8
	note F_, 8
	dutycycle 2
	intensity $68
	note A#, 16
	vibrato $00, $13
	notetype $C, $68
	note A#, 12
	note G#, 4
	note G_, 4
	note F_, 4
	note D#, 4
	note C_, 4
	octave 4
	note C_, 12
	octave 3
	note A#, 4
	note A_, 4
	note G_, 4
	note F_, 4
	note F#, 4
	dutycycle 1
	octave 4
	notetype $8, $65
	note G_, 1
	intensity $25
	note G_, 1
	intensity $65
	octave 5
	note D_, 1
	intensity $25
	note D_, 1
	intensity $65
	note C_, 1
	intensity $25
	note C_, 1
	intensity $65
	note G_, 1
	intensity $25
	note G_, 1
	intensity $65
	note C_, 1
	intensity $25
	note C_, 1
	intensity $65
	note D_, 1
	intensity $25
	note D_, 1
	intensity $65
	octave 4
	note G_, 1
	intensity $25
	note G_, 1
	intensity $65
	octave 5
	note D_, 1
	intensity $25
	note D_, 1
	intensity $65
	note C_, 1
	intensity $25
	note C_, 1
	intensity $65
	note G_, 1
	intensity $25
	note G_, 1
	intensity $65
	note C_, 1
	intensity $25
	note C_, 1
	intensity $65
	note D_, 1
	intensity $25
	note D_, 1
	intensity $65
	octave 4
	note G_, 1
	intensity $25
	note G_, 1
	intensity $65
	octave 5
	note D_, 1
	intensity $25
	note D_, 1
	intensity $65
	note C_, 1
	intensity $25
	note C_, 1
	intensity $65
	note G_, 1
	intensity $25
	note G_, 1
	intensity $65
	note C_, 1
	intensity $25
	note C_, 1
	intensity $65
	note D_, 1
	intensity $25
	note D_, 1
	intensity $65
	octave 4
	note G_, 1
	intensity $25
	note G_, 1
	intensity $65
	octave 5
	note D_, 1
	intensity $25
	note D_, 1
	intensity $65
	note C_, 1
	intensity $25
	note C_, 1
	intensity $65
	note G_, 1
	intensity $25
	note G_, 1
	intensity $65
	note C_, 1
	intensity $25
	note C_, 1
	intensity $65
	note D_, 1
	intensity $25
	note D_, 1
	intensity $65
	octave 4
	note G_, 1
	intensity $25
	note G_, 1
	intensity $65
	octave 5
	note D_, 1
	intensity $25
	note D_, 1
	intensity $65
	note C_, 1
	intensity $25
	note C_, 1
	intensity $65
	note G_, 1
	intensity $25
	note G_, 1
	intensity $65
	note C_, 1
	intensity $25
	note C_, 1
	intensity $65
	note D_, 1
	intensity $25
	note D_, 1
	intensity $65
	octave 4
	note G_, 1
	intensity $25
	note G_, 1
	intensity $65
	octave 5
	note D_, 1
	intensity $25
	note D_, 1
	intensity $65
	note C_, 1
	intensity $25
	note C_, 1
	intensity $65
	note G_, 1
	intensity $25
	note G_, 1
	intensity $65
	note C_, 1
	intensity $25
	note C_, 1
	intensity $65
	note D_, 1
	intensity $25
	note D_, 1
	intensity $65
	octave 4
	note G_, 1
	intensity $25
	note G_, 1
	intensity $65
	octave 5
	note D_, 1
	intensity $25
	note D_, 1
	intensity $65
	note C_, 1
	intensity $25
	note C_, 1
	intensity $65
	note G_, 1
	intensity $25
	note G_, 1
	intensity $65
	note C_, 1
	intensity $25
	note C_, 1
	intensity $65
	note D_, 1
	intensity $25
	note D_, 1
	intensity $65
	octave 4
	note G_, 1
	intensity $25
	note G_, 1
	intensity $65
	octave 5
	note D_, 1
	intensity $25
	note D_, 1
	intensity $65
	note C_, 1
	intensity $25
	note C_, 1
	intensity $65
	note G_, 1
	intensity $25
	note G_, 1
	intensity $65
	note C_, 1
	intensity $25
	note C_, 1
	intensity $65
	note D_, 1
	intensity $25
	note D_, 1
	intensity $65
	octave 4
	note G_, 1
	intensity $25
	note G_, 1
	intensity $65
	octave 5
	note D_, 1
	intensity $25
	note D_, 1
	intensity $65
	note C_, 1
	intensity $25
	note C_, 1
	intensity $65
	note G_, 1
	intensity $25
	note G_, 1
	intensity $65
	note C_, 1
	intensity $25
	note C_, 1
	intensity $65
	note D_, 1
	intensity $25
	note D_, 1
	intensity $65
	octave 4
	note G_, 1
	intensity $25
	note G_, 1
	intensity $65
	octave 5
	note D_, 1
	intensity $25
	note D_, 1
	intensity $65
	note C_, 1
	intensity $25
	note C_, 1
	intensity $65
	note G_, 1
	intensity $25
	note G_, 1
	intensity $65
	note C_, 1
	intensity $25
	note C_, 1
	intensity $65
	note D_, 1
	intensity $25
	note D_, 1
	intensity $65
	octave 4
	note G_, 1
	intensity $25
	note G_, 1
	intensity $65
	octave 5
	note D_, 1
	intensity $25
	note D_, 1
	intensity $65
	note C_, 1
	intensity $25
	note C_, 1
	intensity $65
	note G_, 1
	intensity $25
	note G_, 1
	intensity $65
	note C_, 1
	intensity $25
	note C_, 1
	intensity $65
	note D_, 1
	intensity $25
	note D_, 1
	intensity $65
	octave 4
	note G_, 1
	intensity $25
	note G_, 1
	intensity $65
	octave 5
	note D_, 1
	intensity $25
	note D_, 1
	intensity $65
	note C_, 1
	intensity $25
	note C_, 1
	intensity $65
	octave 4
	note A#, 1
	intensity $25
	note A#, 1
	intensity $88
	note A#, 1
	note __, 1
	note B_, 1
	note __, 1
	octave 5
	note C_, 2
	note __, 4
	note C_, 2
	note __, 6
	note C_, 1
	note __, 1
	note C_, 1
	note __, 1
	note C_, 1
	note __, 1
	note C_, 1
	note __, 1
	note C_, 1
	note __, 1
	note C_, 2
	note __, 7
	octave 3
	notetype $6, $88
	note C_, 1
	note __, 1
	note C_, 1
	note __, 1
	note C_, 16
	endchannel

Music_TitleScreen2_Ch2:
	notetype $C, $00
	dutycycle 2
	notetype $6, $A8
	octave 4
	note C_, 11
	note __, 1
	note E_, 2
	note __, 2
	note G_, 16
	note G_, 8
	intensity $A6
	note G_, 8
	intensity $A8
	note A#, 11
	note __, 1
	note A_, 1
	note __, 1
	note G#, 1
	note __, 1
	note G_, 16
	dutycycle 1
	intensity $68
	octave 3
	note E_, 8
	note C_, 8
	dutycycle 2
	octave 2
	notetype $8, $A8
	note G#, 2
	octave 3
	note C_, 2
	note D#, 2
	note G#, 2
	octave 4
	note C_, 2
	note D#, 2
	note D_, 2
	octave 3
	note A#, 2
	note F_, 2
	octave 2
	notetype $6, $A8
	note A#, 1
	octave 3
	note C_, 1
	note D_, 1
	note E_, 1
	note F_, 1
	note G_, 1
	note A_, 1
	note A#, 1
	octave 4
	note C_, 11
	note __, 1
	note E_, 2
	note __, 2
	note G_, 16
	note G_, 8
	intensity $A6
	note G_, 8
	notetype $8, $A8
	note F_, 4
	note E_, 4
	note F_, 4
	note G_, 12
	dutycycle 1
	intensity $68
	note C_, 6
	octave 3
	note G_, 6
	intensity $A8
	octave 4
	note F_, 10
	note E_, 1
	note D#, 1
	note D_, 6
	octave 3
	note G_, 6
	dutycycle 2
	octave 4
	notetype $B, $A8
	note C_, 6
	notetype $6, $A8
	note __, 1
	note E_, 2
	note __, 2
	note G_, 16
	note G_, 8
	intensity $A6
	note G_, 8
	intensity $A8
	note A#, 11
	note __, 1
	note A_, 1
	note __, 1
	note G#, 1
	note __, 1
	note G_, 16
	dutycycle 1
	intensity $68
	octave 3
	note E_, 8
	note C_, 8
	dutycycle 2
	octave 2
	notetype $8, $A8
	note G#, 2
	octave 3
	note C_, 2
	note D#, 2
	note G#, 2
	octave 4
	note C_, 2
	note D#, 2
	note D_, 2
	octave 3
	note A#, 2
	note F_, 2
	octave 2
	notetype $6, $A8
	note A#, 1
	octave 3
	note C_, 1
	note D_, 1
	note E_, 1
	note F_, 1
	note G_, 1
	note A_, 1
	note A#, 1
	octave 4
	note C_, 11
	note __, 1
	note E_, 2
	note __, 2
	note G_, 16
	note G_, 8
	intensity $A6
	note G_, 8
	notetype $8, $A8
	note A#, 4
	note A_, 4
	note A#, 4
	octave 5
	notetype $F, $A8
	note C_, 4
	notetype $C, $A8
	note __, 1
	note D#, 1
	note __, 1
	note C_, 8
	intensity $A7
	note C_, 8
	dutycycle 1
	octave 4
	notetype $8, $65
	note A#, 1
	intensity $25
	note A#, 1
	intensity $65
	octave 3
	note A#, 1
	intensity $25
	note A#, 1
	intensity $65
	octave 4
	note F_, 1
	intensity $25
	note F_, 1
	intensity $65
	note A#, 1
	intensity $25
	note A#, 1
	intensity $65
	octave 5
	note F_, 1
	intensity $25
	note F_, 1
	intensity $65
	note A#, 1
	intensity $25
	note A#, 1
	dutycycle 2
	intensity $A8
	octave 2
	note D#, 12
	note D#, 9
	octave 3
	notetype $6, $A8
	note D#, 1
	note __, 1
	note D#, 1
	note __, 1
	note D#, 10
	note D_, 1
	note C_, 1
	octave 2
	note A#, 1
	note A_, 1
	note G_, 1
	note F_, 1
	note D#, 16
	note F_, 16
	note F_, 12
	octave 3
	note F_, 1
	note __, 1
	note F_, 1
	note __, 1
	note F_, 10
	note E_, 1
	note D_, 1
	note C_, 1
	octave 2
	note B_, 1
	note A_, 1
	note G_, 1
	note F_, 8
	note F#, 8
	dutycycle 1
	octave 1
	notetype $8, $A8
	note G_, 2
	note __, 2
	note G_, 2
	notetype $C, $A8
	note __, 12
	notetype $8, $A8
	note G_, 2
	note __, 2
	note G_, 2
	note __, 12
	note G_, 1
	note __, 1
	note G_, 1
	note __, 1
	note G_, 1
	note __, 1
	note G#, 2
	note __, 2
	note G#, 2
	notetype $C, $A8
	note __, 12
	notetype $8, $A8
	note G#, 2
	note __, 2
	note G#, 2
	note __, 12
	note G#, 1
	note __, 1
	note G#, 1
	note __, 1
	note G#, 1
	note __, 1
	note A#, 2
	note __, 2
	note A#, 2
	notetype $C, $A8
	note __, 12
	notetype $8, $A8
	note A#, 2
	note __, 2
	note A#, 2
	note __, 12
	octave 2
	note A#, 1
	note __, 1
	note A#, 1
	note __, 1
	note B_, 1
	note __, 1
	octave 3
	note C_, 2
	note __, 4
	note C_, 2
	note __, 6
	note C_, 1
	note __, 1
	note C_, 1
	note __, 1
	note C_, 1
	note __, 1
	note C_, 1
	note __, 1
	note C_, 1
	note __, 1
	note C_, 2
	note __, 7
	octave 2
	notetype $6, $A8
	note C_, 1
	note __, 1
	note C_, 1
	note __, 1
	note C_, 16
	endchannel

Music_TitleScreen2_Ch3:
	vibrato $00, $00
	notetype $6, $10
	octave 3
	note C_, 4
	notetype $8, $10
	note __, 1
	note C_, 1
	note __, 1
	octave 4
	note C_, 2
	octave 3
	note G_, 2
	octave 4
	note C_, 2
	octave 3
	note C_, 2
	note __, 2
	note C_, 2
	note __, 2
	note C_, 2
	note __, 2
	octave 2
	note A#, 3
	note __, 1
	note A#, 1
	note __, 1
	octave 3
	note A#, 2
	note F_, 2
	note A#, 2
	octave 2
	note A#, 2
	note __, 2
	note A#, 2
	note __, 2
	note B_, 2
	note __, 2
	octave 3
	note C_, 3
	note __, 1
	note C_, 1
	note __, 1
	octave 4
	note C_, 2
	octave 3
	note G_, 2
	octave 4
	note C_, 2
	octave 3
	note C_, 3
	note __, 1
	note C_, 1
	note __, 1
	octave 4
	note C_, 2
	octave 3
	note G_, 2
	note C_, 2
	octave 2
	note G#, 2
	octave 3
	note D#, 2
	note G#, 2
	octave 4
	note C_, 2
	octave 3
	note G#, 2
	note D#, 2
	octave 2
	note A#, 2
	octave 3
	note D_, 2
	note F_, 2
	note A#, 2
	octave 4
	note D_, 2
	note F_, 2
	octave 3
	note C_, 3
	note __, 1
	note C_, 1
	note __, 1
	octave 4
	note C_, 2
	octave 3
	note G_, 2
	octave 4
	note C_, 2
	octave 3
	note C_, 2
	note __, 2
	note C_, 2
	note __, 2
	note C_, 2
	note __, 2
	octave 2
	note A#, 3
	note __, 1
	note A#, 1
	note __, 1
	octave 3
	note A#, 2
	note F_, 2
	note A#, 2
	octave 2
	note A#, 2
	note __, 2
	note A#, 2
	note __, 2
	note A#, 2
	note __, 2
	note A_, 3
	note __, 1
	note A_, 1
	note __, 1
	octave 3
	note A_, 2
	note E_, 2
	note A_, 2
	octave 2
	note A_, 3
	note __, 1
	note A_, 1
	note __, 1
	octave 3
	note A_, 2
	note E_, 2
	octave 2
	note A_, 2
	note F_, 2
	note __, 2
	note F_, 2
	note __, 2
	note F_, 2
	note __, 2
	note G_, 6
	octave 3
	note G_, 2
	note D_, 2
	octave 2
	note G_, 2
	octave 3
	note C_, 3
	note __, 1
	note C_, 1
	note __, 1
	octave 4
	note C_, 2
	octave 3
	note G_, 2
	octave 4
	note C_, 2
	octave 3
	note C_, 2
	note __, 2
	note C_, 2
	note __, 2
	note C_, 2
	note __, 2
	octave 2
	note A#, 3
	note __, 1
	note A#, 1
	note __, 1
	octave 3
	note A#, 2
	note F_, 2
	note A#, 2
	octave 2
	note A#, 2
	note __, 2
	note A#, 2
	note __, 2
	note B_, 2
	note __, 2
	octave 3
	note C_, 3
	note __, 1
	note C_, 1
	note __, 1
	octave 4
	note C_, 2
	octave 3
	note G_, 2
	octave 4
	note C_, 2
	octave 3
	note C_, 3
	note __, 1
	note C_, 1
	note __, 1
	octave 4
	note C_, 2
	octave 3
	note G_, 2
	note C_, 2
	octave 2
	note G#, 2
	octave 3
	note D#, 2
	note G#, 2
	octave 4
	note C_, 2
	octave 3
	note G#, 2
	note D#, 2
	octave 2
	note A#, 2
	octave 3
	note D_, 2
	note F_, 2
	note A#, 2
	octave 4
	note D_, 2
	note F_, 2
	octave 3
	note C_, 3
	note __, 1
	note C_, 1
	note __, 1
	octave 4
	note C_, 2
	octave 3
	note G_, 2
	octave 4
	note C_, 2
	octave 3
	note C_, 2
	note __, 2
	note C_, 2
	note __, 2
	note C_, 2
	note __, 2
	octave 2
	note A#, 3
	note __, 1
	note A#, 1
	note __, 1
	octave 3
	note A#, 2
	note F_, 2
	note A#, 2
	octave 2
	note A#, 2
	note __, 2
	note A#, 2
	note __, 2
	note A#, 2
	note __, 2
	note F_, 3
	note __, 1
	note F_, 1
	note __, 1
	octave 3
	note F_, 2
	note C_, 2
	note F_, 2
	octave 2
	note F_, 3
	note __, 1
	note F_, 1
	note __, 1
	octave 3
	note F_, 2
	note C_, 2
	note F_, 2
	note A_, 2
	note F_, 2
	note A_, 2
	octave 4
	note C_, 2
	octave 3
	note A_, 2
	octave 4
	note C_, 2
	dutycycle 5
	intensity $25
	vibrato $00, $12
	octave 5
	note D_, 12
	notetype $F, $25
	note D#, 4
	notetype $C, $25
	note __, 1
	octave 4
	note A#, 1
	note __, 1
	note A#, 1
	note G#, 1
	note A#, 2
	note A#, 4
	note A#, 8
	octave 5
	note D#, 4
	note E_, 4
	note F_, 6
	note C_, 1
	note __, 1
	note C_, 1
	octave 4
	note A#, 1
	octave 5
	note C_, 2
	note C_, 4
	note C_, 8
	note F_, 4
	note F#, 4
	notetype $D, $25
	note G_, 6
	dutycycle 0
	notetype $6, $10
	note F_, 1
	note D_, 1
	note C_, 1
	octave 4
	notetype $8, $10
	note G_, 4
	octave 5
	note C_, 4
	note D_, 4
	note F_, 10
	note E_, 1
	note D#, 1
	note D_, 9
	intensity $20
	note D_, 3
	note __, 12
	intensity $10
	octave 4
	note G_, 4
	octave 5
	note C_, 4
	note D_, 4
	note F_, 10
	note D#, 1
	note F_, 1
	note G_, 9
	intensity $20
	note G_, 3
	note __, 12
	intensity $10
	octave 4
	note A#, 4
	octave 5
	note D_, 4
	note F_, 4
	note A#, 10
	note A_, 1
	note G#, 1
	note G_, 6
	vibrato $00, $00
	note F_, 1
	note __, 1
	note F_, 1
	note __, 1
	note D_, 1
	note __, 1
	note E_, 2
	note __, 4
	note E_, 2
	note __, 6
	note E_, 1
	note __, 1
	note E_, 1
	note __, 1
	note E_, 1
	note __, 1
	note E_, 1
	note __, 1
	note E_, 1
	note __, 1
	note E_, 2
	endchannel

Music_TitleScreen2_Ch4:
	togglenoise 3
Music_TitleScreen2_Ch4_skip: ;required for Ch4 to work in sound test
	notetype $8
	note B_, 2
	note G_, 2
	note G_, 2
	note C_, 2
	note G_, 2
	note G_, 2
	note A#, 2
	note G_, 2
	note A#, 2
	note C_, 2
	note C_, 2
	note C_, 2
	note B_, 2
	note G_, 2
	note G_, 2
	note C_, 2
	note G_, 2
	note G_, 2
	note A#, 2
	note G_, 2
	note A#, 2
	note C_, 2
	note C_, 2
	note C_, 2
	note B_, 2
	note G_, 2
	note G_, 2
	note C_, 2
	note G_, 2
	note G_, 2
	note A#, 2
	note G_, 2
	note A#, 2
	note C_, 2
	note C_, 2
	note C_, 2
	note B_, 2
	note G_, 2
	note G_, 2
	note C_, 2
	note G_, 2
	note G_, 2
	note A#, 2
	note G_, 2
	note A#, 2
	note C_, 2
	note C_, 2
	note C_, 2
	note B_, 2
	note G_, 2
	note G_, 2
	note C_, 2
	note G_, 2
	note G_, 2
	note A#, 2
	note G_, 2
	note A#, 2
	note C_, 2
	note C_, 2
	note C_, 2
	note B_, 2
	note G_, 2
	note G_, 2
	note C_, 2
	note G_, 2
	note G_, 2
	note A#, 2
	note G_, 2
	note A#, 2
	note C_, 2
	note C_, 2
	note C_, 2
	note B_, 2
	note G_, 2
	note G_, 2
	note C_, 2
	note G_, 2
	note G_, 2
	note A#, 2
	note G_, 2
	note A#, 2
	note C_, 2
	note C_, 2
	note C_, 2
	note B_, 12
	note B_, 6
	note C_, 2
	note C_, 2
	note C_, 2
	note B_, 2
	note G_, 2
	note G_, 2
	note C_, 2
	note G_, 2
	note G_, 2
	note A#, 2
	note G_, 2
	note A#, 2
	note C_, 2
	note C_, 2
	note C_, 2
	note B_, 2
	note G_, 2
	note G_, 2
	note C_, 2
	note G_, 2
	note G_, 2
	note A#, 2
	note G_, 2
	note A#, 2
	note C_, 2
	note C_, 2
	note C_, 2
	note B_, 2
	note G_, 2
	note G_, 2
	note C_, 2
	note G_, 2
	note G_, 2
	note A#, 2
	note G_, 2
	note A#, 2
	note C_, 2
	note C_, 2
	note C_, 2
	note B_, 2
	note G_, 2
	note G_, 2
	note C_, 2
	note G_, 2
	note G_, 2
	note A#, 2
	note G_, 2
	note A#, 2
	note C_, 2
	note C_, 2
	note C_, 2
	note B_, 2
	note G_, 2
	note G_, 2
	note C_, 2
	note G_, 2
	note G_, 2
	note A#, 2
	note G_, 2
	note A#, 2
	note C_, 2
	note C_, 2
	note C_, 2
	note B_, 2
	note G_, 2
	note G_, 2
	note C_, 2
	note G_, 2
	note G_, 2
	note A#, 2
	note G_, 2
	note A#, 2
	note C_, 2
	note C_, 2
	note C_, 2
	note B_, 2
	note G_, 2
	note G_, 2
	note C_, 2
	note G_, 2
	note G_, 2
	note A#, 2
	note G_, 2
	note A#, 2
	note C_, 2
	note C_, 2
	note C_, 2
	note B_, 2
	note A#, 2
	note A#, 2
	note C_, 2
	note C_, 2
	note C_, 2
	note B_, 6
	note __, 6
	note B_, 6
	note __, 6
	note C_, 6
	note __, 6
	note A#, 2
	note __, 4
	note A#, 2
	note __, 4
	note A#, 2
	note A#, 2
	note A#, 2
	note C_, 2
	note C_, 2
	note C_, 2
	note B_, 6
	note __, 6
	note C_, 6
	note __, 6
	note A#, 2
	note __, 4
	note A#, 2
	note __, 4
	note A#, 2
	note A#, 2
	note A#, 2
	note C_, 2
	note C_, 2
	note C_, 2
	note B_, 2
	note G_, 2
	note G_, 2
	note C_, 2
	note G_, 2
	note G_, 2
	note A#, 2
	note G_, 2
	note A#, 2
	note C_, 2
	note C_, 2
	note C_, 2
	note B_, 2
	note G_, 2
	note G_, 2
	note C_, 2
	note G_, 2
	note G_, 2
	note A#, 2
	note G_, 2
	note A#, 2
	note C_, 2
	note C_, 2
	note C_, 2
	note B_, 2
	note G_, 2
	note G_, 2
	note C_, 2
	note G_, 2
	note G_, 2
	note A#, 2
	note G_, 2
	note A#, 2
	note C_, 2
	note C_, 2
	note C_, 2
	note B_, 2
	note G_, 2
	note G_, 2
	note C_, 2
	note G_, 2
	note G_, 2
	note A#, 2
	note G_, 2
	note A#, 2
	note C_, 2
	note C_, 2
	note C_, 2
	note B_, 2
	note G_, 2
	note G_, 2
	note C_, 2
	note G_, 2
	note G_, 2
	note A#, 2
	note G_, 2
	note A#, 2
	note C_, 2
	note C_, 2
	note C_, 2
	note A#, 2
	note G_, 2
	note A#, 2
	note C_, 2
	note C_, 2
	note C_, 2
	note B_, 2
	note A#, 2
	note A#, 2
	note C_, 2
	note C_, 2
	note C_, 2
	intensity $20
	note B_, 6
	note A#, 2
	note __, 6
	note A#, 1
	note __, 1
	note A#, 1
	note __, 1
	note A#, 1
	note __, 1
	note A#, 1
	note __, 1
	note A#, 1
	note __, 1
	note A#, 2
	endchannel

