Music_TitleScreen:
	musicheader 4, 1, Music_TitleScreen_Ch1
	musicheader 1, 2, Music_TitleScreen_Ch2
	musicheader 1, 3, Music_TitleScreen_Ch3
	musicheader 1, 4, Music_TitleScreen_Ch4

Music_TitleScreen_Ch1:
	tempo $89
	volume $77
	stereopanning $77
	notetype $C, $00
	dutycycle 1
	octave 4
	notetype $8, $65
	note G_, 1
	intensity $25
	note G_, 1
	intensity $65
	octave 5
	note D_, 1
	intensity $25
	note D_, 1
	intensity $65
	note C_, 1
	intensity $25
	note C_, 1
	intensity $65
	note G_, 1
	intensity $25
	note G_, 1
	intensity $65
	note C_, 1
	intensity $25
	note C_, 1
	intensity $65
	note D_, 1
	intensity $25
	note D_, 1
	intensity $65
	octave 4
	note G_, 1
	intensity $25
	note G_, 1
	intensity $65
	octave 5
	note D_, 1
	intensity $25
	note D_, 1
	intensity $65
	note C_, 1
	intensity $25
	note C_, 1
	intensity $65
	note G_, 1
	intensity $25
	note G_, 1
	intensity $65
	note C_, 1
	intensity $25
	note C_, 1
	intensity $65
	note D_, 1
	intensity $25
	note D_, 1
	intensity $65
	octave 4
	note G_, 1
	intensity $25
	note G_, 1
	intensity $65
	octave 5
	note D_, 1
	intensity $25
	note D_, 1
	intensity $65
	note C_, 1
	intensity $25
	note C_, 1
	intensity $65
	note G_, 1
	intensity $25
	note G_, 1
	intensity $65
	note C_, 1
	intensity $25
	note C_, 1
	intensity $65
	note D_, 1
	intensity $25
	note D_, 1
	intensity $65
	octave 4
	note G_, 1
	intensity $25
	note G_, 1
	intensity $65
	octave 5
	note D_, 1
	intensity $25
	note D_, 1
	intensity $65
	note C_, 1
	intensity $25
	note C_, 1
	intensity $65
	note G_, 1
	intensity $25
	note G_, 1
	intensity $65
	note C_, 1
	intensity $25
	note C_, 1
	intensity $65
	note D_, 1
	intensity $25
	note D_, 1
	intensity $65
	octave 4
	note G_, 1
	intensity $25
	note G_, 1
	intensity $65
	octave 5
	note D_, 1
	intensity $25
	note D_, 1
	intensity $65
	note C_, 1
	intensity $25
	note C_, 1
	intensity $65
	note G_, 1
	intensity $25
	note G_, 1
	intensity $65
	note C_, 1
	intensity $25
	note C_, 1
	intensity $65
	note D_, 1
	intensity $25
	note D_, 1
	intensity $65
	octave 4
	note G_, 1
	intensity $25
	note G_, 1
	intensity $65
	octave 5
	note D_, 1
	intensity $25
	note D_, 1
	intensity $65
	note C_, 1
	intensity $25
	note C_, 1
	intensity $65
	note G_, 1
	intensity $25
	note G_, 1
	intensity $65
	note C_, 1
	intensity $25
	note C_, 1
	intensity $65
	note D_, 1
	intensity $25
	note D_, 1
	intensity $65
	octave 4
	note G_, 1
	intensity $25
	note G_, 1
	intensity $65
	octave 5
	note D_, 1
	intensity $25
	note D_, 1
	intensity $65
	note C_, 1
	intensity $25
	note C_, 1
	intensity $65
	note G_, 1
	intensity $25
	note G_, 1
	intensity $65
	note C_, 1
	intensity $25
	note C_, 1
	intensity $65
	note D_, 1
	intensity $25
	note D_, 1
	intensity $65
	octave 4
	note G_, 1
	intensity $25
	note G_, 1
	intensity $65
	octave 5
	note D_, 1
	intensity $25
	note D_, 1
	intensity $65
	note C_, 1
	intensity $25
	note C_, 1
	intensity $65
	note G_, 1
	intensity $25
	note G_, 1
	intensity $65
	note C_, 1
	intensity $25
	note C_, 1
	intensity $65
	note D_, 1
	intensity $25
	note D_, 1
	intensity $65
	octave 4
	note G_, 1
	intensity $25
	note G_, 1
	intensity $65
	octave 5
	note D_, 1
	intensity $25
	note D_, 1
	intensity $65
	note C_, 1
	intensity $25
	note C_, 1
	intensity $65
	note G_, 1
	intensity $25
	note G_, 1
	intensity $65
	note C_, 1
	intensity $25
	note C_, 1
	intensity $65
	note D_, 1
	intensity $25
	note D_, 1
	intensity $65
	octave 4
	note G_, 1
	intensity $25
	note G_, 1
	intensity $65
	octave 5
	note D_, 1
	intensity $25
	note D_, 1
	intensity $65
	note C_, 1
	intensity $25
	note C_, 1
	intensity $65
	note G_, 1
	intensity $25
	note G_, 1
	intensity $65
	note C_, 1
	intensity $25
	note C_, 1
	intensity $65
	note D_, 1
	intensity $25
	note D_, 1
	intensity $65
	octave 4
	note G_, 1
	intensity $25
	note G_, 1
	intensity $65
	octave 5
	note D_, 1
	intensity $25
	note D_, 1
	intensity $65
	note C_, 1
	intensity $25
	note C_, 1
	intensity $65
	note G_, 1
	intensity $25
	note G_, 1
	intensity $65
	note C_, 1
	intensity $25
	note C_, 1
	intensity $65
	note D_, 1
	intensity $25
	note D_, 1
	intensity $65
	octave 4
	note G_, 1
	intensity $25
	note G_, 1
	intensity $65
	octave 5
	note D_, 1
	intensity $25
	note D_, 1
	intensity $65
	note C_, 1
	intensity $25
	note C_, 1
	intensity $65
	note G_, 1
	intensity $25
	note G_, 1
	intensity $65
	note C_, 1
	intensity $25
	note C_, 1
	intensity $65
	note D_, 1
	intensity $25
	note D_, 1
	intensity $65
	octave 4
	note G_, 1
	intensity $25
	note G_, 1
	intensity $65
	octave 5
	note D_, 1
	intensity $25
	note D_, 1
	intensity $65
	note C_, 1
	intensity $25
	note C_, 1
	intensity $65
	note G_, 1
	intensity $25
	note G_, 1
	intensity $65
	note C_, 1
	intensity $25
	note C_, 1
	intensity $65
	note D_, 1
	intensity $25
	note D_, 1
	intensity $65
	octave 4
	note G_, 1
	intensity $25
	note G_, 1
	intensity $65
	octave 5
	note D_, 1
	intensity $25
	note D_, 1
	intensity $65
	note C_, 1
	intensity $25
	note C_, 1
	intensity $65
	note G_, 1
	intensity $25
	note G_, 1
	intensity $65
	note C_, 1
	intensity $25
	note C_, 1
	intensity $65
	note D_, 1
	intensity $25
	note D_, 1
	intensity $65
	octave 4
	note G_, 1
	intensity $25
	note G_, 1
	intensity $65
	octave 5
	note D_, 1
	intensity $25
	note D_, 1
	intensity $65
	note C_, 1
	intensity $25
	note C_, 1
	intensity $65
	note G_, 1
	intensity $25
	note G_, 1
	intensity $65
	note C_, 1
	intensity $25
	note C_, 1
	intensity $65
	note D_, 1
	intensity $25
	note D_, 1
	intensity $65
	octave 4
	note G_, 1
	intensity $25
	note G_, 1
	intensity $65
	octave 5
	note D_, 1
	intensity $25
	note D_, 1
	intensity $65
	note C_, 1
	intensity $25
	note C_, 1
	intensity $65
	note G_, 1
	intensity $25
	note G_, 1
	intensity $65
	note C_, 1
	intensity $25
	note C_, 1
	intensity $65
	note D_, 1
	intensity $25
	note D_, 1
	intensity $65
	octave 4
	note G_, 1
	intensity $25
	note G_, 1
	intensity $65
	octave 5
	note D_, 1
	intensity $25
	note D_, 1
	intensity $65
	note C_, 1
	intensity $25
	note C_, 1
	intensity $65
	note G_, 1
	intensity $25
	note G_, 1
	intensity $65
	note C_, 1
	intensity $25
	note C_, 1
	intensity $65
	note D_, 1
	intensity $25
	note D_, 1
	intensity $65
	octave 6
	note C_, 1
	intensity $25
	note C_, 1
	intensity $65
	octave 5
	note G_, 1
	intensity $25
	note G_, 1
	intensity $65
	note D_, 1
	intensity $25
	note D_, 1
	intensity $65
	note C_, 1
	intensity $25
	note C_, 1
	intensity $65
	note D_, 1
	intensity $25
	note D_, 1
	intensity $65
	note G_, 1
	intensity $25
	note G_, 1
	intensity $65
	octave 4
	note G_, 1
	intensity $25
	note G_, 1
	intensity $65
	octave 5
	note D_, 1
	intensity $25
	note D_, 1
	intensity $65
	note C_, 1
	intensity $25
	note C_, 1
	intensity $65
	note G_, 1
	intensity $25
	note G_, 1
	intensity $65
	note C_, 1
	intensity $25
	note C_, 1
	intensity $65
	note D_, 1
	intensity $25
	note D_, 1
	intensity $65
	octave 6
	note C_, 1
	intensity $25
	note C_, 1
	intensity $65
	octave 5
	note G_, 1
	intensity $25
	note G_, 1
	intensity $65
	note D_, 1
	intensity $25
	note D_, 1
	intensity $65
	note C_, 1
	intensity $25
	note C_, 1
	intensity $65
	note D_, 1
	intensity $25
	note D_, 1
	intensity $65
	note G_, 1
	intensity $25
	note G_, 1
	intensity $65
	octave 4
	note G_, 1
	intensity $25
	note G_, 1
	intensity $65
	octave 5
	note D_, 1
	intensity $25
	note D_, 1
	intensity $65
	note C_, 1
	intensity $25
	note C_, 1
	intensity $65
	note G_, 1
	intensity $25
	note G_, 1
	intensity $65
	note C_, 1
	intensity $25
	note C_, 1
	intensity $65
	note D_, 1
	intensity $25
	note D_, 1
	intensity $65
	octave 6
	note C_, 1
	intensity $25
	note C_, 1
	intensity $65
	octave 5
	note G_, 1
	intensity $25
	note G_, 1
	intensity $65
	note D_, 1
	intensity $25
	note D_, 1
	intensity $65
	note C_, 1
	intensity $25
	note C_, 1
	intensity $65
	note D_, 1
	intensity $25
	note D_, 1
	intensity $65
	note G_, 1
	intensity $25
	note G_, 1
	intensity $65
	octave 4
	note G_, 1
	intensity $25
	note G_, 1
	intensity $65
	octave 5
	note C_, 1
	intensity $25
	note C_, 1
	intensity $65
	note D_, 1
	intensity $25
	note D_, 1
	intensity $65
	note C_, 1
	intensity $25
	note C_, 1
	intensity $65
	note D_, 1
	intensity $25
	note D_, 1
	intensity $65
	note G_, 1
	intensity $25
	note G_, 1
	intensity $65
	note D_, 1
	intensity $25
	note D_, 1
	intensity $65
	note G_, 1
	intensity $25
	note G_, 1
	intensity $65
	octave 6
	note C_, 1
	intensity $25
	note C_, 1
	intensity $65
	octave 5
	note G_, 1
	intensity $25
	note G_, 1
	intensity $65
	octave 6
	note D_, 1
	intensity $25
	note D_, 1
	intensity $65
	note G_, 1
	intensity $25
	note G_, 1
	jumpchannel Music_TitleScreen2_Ch1

Music_TitleScreen_Ch2:
	notetype $C, $00
	note __, 16
	note __, 16
	note __, 16
	note __, 16
	note __, 16
	note __, 16
	note __, 16
	note __, 16
	dutycycle 2
	intensity $A8
	octave 1
	note G#, 8
	note G#, 6
	octave 2
	notetype $6, $A8
	note G#, 1
	note __, 1
	note G#, 1
	note __, 1
	note G#, 10
	note G_, 1
	note F_, 1
	note D#, 1
	note D_, 1
	note C_, 1
	octave 1
	note A#, 1
	note G#, 16
	note A#, 16
	note A#, 12
	octave 2
	note A#, 1
	note __, 1
	note A#, 1
	note __, 1
	note A#, 10
	note A_, 1
	note G_, 1
	note F_, 1
	note D#, 1
	note D_, 1
	note C_, 1
	octave 1
	note A#, 8
	octave 2
	note A#, 1
	octave 3
	note C_, 1
	note D_, 1
	note E_, 1
	note F_, 1
	note G_, 1
	note A_, 1
	note A#, 1
	jumpchannel Music_TitleScreen2_Ch2

Music_TitleScreen_Ch3:
	notetype $C, $00
	note __, 16
	note __, 16
	intensity $10
	vibrato $00, $12
	octave 5
	note C_, 6
	note E_, 2
	note G_, 16
	note A#, 4
	note A#, 2
	note A_, 1
	note G#, 1
	note G_, 8
	intensity $20
	note G_, 8
	intensity $30
	note G_, 8
	note __, 8
	intensity $10
	note C_, 6
	note E_, 2
	note G_, 16
	note A#, 6
	note A_, 1
	note A#, 1
	octave 6
	note C_, 8
	note C_, 8
	intensity $20
	note C_, 8
	intensity $30
	note C_, 8
	note D_, 8
	intensity $20
	note D_, 8
	intensity $10
	note D_, 8
	note D_, 4
	dutycycle 4
	vibrato $00, $00
	octave 3
	notetype $6, $10	
	note D_, 1
	note E_, 1
	note F_, 1
	note G_, 1
	note A_, 1
	note A#, 1
	octave 4
	note C_, 1
	note D_, 1
	jumpchannel Music_TitleScreen2_Ch3

Music_TitleScreen_Ch4:
	togglenoise 6
	notetype $C
;	note G_, 8
	note __, 8
	note __, 16
	note __, 16
	note __, 16
	note __, 16
	note __, 16
	note __, 16
	note __, 16
	note __, 1
	togglenoise 6
	notetype $C
	togglenoise 3
	notetype $C
	note B_, 4
	note __, 16
	note __, 8
	notetype $8
	note A#, 2
	notetype $F
	note A#, 1
	notetype $1
	note __, 1
	note A#, 16
	notetype $C
	note B_, 4
	notetype $F
	note __, 16
	notetype $8
	note A#, 2
	note A#, 2
	note A#, 2
	note D_, 2
	note D_, 2
	note D_, 2
	jumpchannel Music_TitleScreen2_Ch4_skip
