Music_TrainerBattle: ; f6096
	musicheader 3, 1, Music_TrainerBattle_Ch1
	musicheader 1, 2, Music_TrainerBattle_Ch2
	musicheader 1, 3, Music_TrainerBattle_Ch3
; f609f

Music_TrainerBattle_Ch1: ; f609f
	tempo 107
	volume $77
	dutycycle $3
	tone $0002
	vibrato $12, $15
	notetype $c, $92
	
	intensity $a3
	octave 4
	note __, 8
	note C#, 1
	note C_, 1
	octave 3
	note B_, 1
	note A#, 1
	note B_, 1
	note A#, 1
	note A_, 1
	note G#, 1
	note A_, 1
	note G#, 1
	note G_, 1
	note F#, 1
	note G_, 1
	note F#, 1
	note F_, 1
	note E_, 1
	octave 2
	
	intensity $a7
	note A#, 8
	
	octave 3
	note D#, 2
	note __, 4
	note F#, 2
	note __, 4
	note G#, 2
	note __, 2
	note A_, 6
	note G#, 6
	note F#, 2
	note C#, 2
	note D#, 2
	note __, 4
	note F#, 2
	note __, 4
	note G#, 2
	note __, 2
	note A_, 6
	note G#, 6
	note G_, 2
	note __, 2
	note D#, 2
	note __, 4
	note F#, 2
	note __, 4
	note G#, 2
	note __, 2
	note A_, 6
	note G#, 6
	note F#, 2
	note __, 2
	note D#, 2
	note __, 4
	note F#, 2
	note __, 4
	note G#, 2
	note __, 2
	note A_, 2
	note __, 4
	note A_, 2
	note __, 4
	note A_, 2
	note __, 2
		
Music_TrainerBattle_loop1: ; f6102
	note D#, 6
	note B_, 6
	note __, 4
	note D#, 6
	note B_, 4
	note D#, 2
	note G#, 2
	note B_, 2
	octave 4
	note C#, 8
	octave 3
	note B_, 8
	note A#, 8
	note G_, 8
	note D#, 6
	note B_, 6
	note __, 4
	note D#, 6
	note B_, 4
	note D#, 2
	note G#, 2
	note B_, 2
	octave 4
	note C#, 8
	octave 3
	note B_, 8
	note G_, 6
	note B_, 2
	octave 4
	note C#, 4
	octave 3
	note G_, 4
	note B_, 12
	note A#, 4
	note G#, 12
	note E_, 4
	note D#, 6
	note E_, 2
	note F#, 4
	note E_, 4
	note D#, 16
	
	intensity $47
	note A#, 2
	note F#, 2
	octave 4
	note C#, 2
	octave 3
	note F#, 2
	note A#, 2
	note F#, 2
	octave 4
	note C#, 2
	octave 3
	note F#, 2
	note A#, 2
	note F#, 2
	octave 4
	note C#, 2
	octave 3
	note F#, 2
	note A#, 2
	note F#, 2
	octave 4
	note C#, 2
	octave 3
	note F#, 2
	
	octave 4
	note C_, 2
	octave 3
	note G#, 2
	octave 4
	note D#, 2
	octave 3
	note G#, 2
	octave 4
	note C_, 2
	octave 3
	note G#, 2
	octave 4
	note D#, 2
	octave 3
	note G#, 2
	octave 4
	note C_, 2
	octave 3
	note G#, 2
	octave 4
	note D#, 2
	octave 3
	note G#, 2
	octave 4
	note C_, 2
	octave 3
	note G#, 2
	octave 4
	note D#, 2
	octave 3
	note G#, 2
	note A#, 2
	note F#, 2
	octave 4
	note C#, 2
	octave 3
	note F#, 2
	note A#, 2
	note F#, 2
	octave 4
	note C#, 2
	octave 3
	note F#, 2
	note A#, 2
	note F#, 2
	octave 4
	note C#, 2
	octave 3
	note F#, 2
	note A#, 2
	note F#, 2
	octave 4
	note C#, 2
	octave 3
	note F#, 2
	octave 4
	note C_, 2
	octave 3
	note G#, 2
	octave 4
	note D#, 2
	octave 3
	note G#, 2
	octave 4
	note C_, 2
	octave 3
	note G#, 2
	octave 4
	note D#, 2
	octave 3
	note G#, 2
	octave 4
	note D#, 8
	note __, 8
	
	intensity $a7
	octave 2
	note A#, 8
	note F#, 8
	note A#, 8
	octave 3
	note C#, 8
	note C_, 8
	octave 2
	note G#, 8
	octave 3
	note C#, 8
	note C_, 8
	octave 2
	note A#, 8
	note F#, 8
	octave 3
	note F#, 8
	note C#, 4
	note D_, 4
	note D#, 8
	note C_, 8
	note G#, 16
	note G#, 8
	note D#, 8
	octave 4
	note C_, 16
	
	octave 3
	note A#, 16
	note G_, 8
	note A#, 8
	note G#, 8
	note D#, 8
	octave 4
	note C_, 16
	octave 3
	note A#, 8
	note G_, 8
	octave 4
	note C#, 8
	octave 3
	note G_, 8
	note G#, 8
	note D#, 8
	octave 4
	note C_, 8
	note __, 8
	octave 3
	note C#, 4
	octave 2
	note A#, 4
	octave 3
	note C#, 4
	note F#, 4
	note A#, 4
	note F#, 4
	note C#, 4
	note D_, 4
	note D#, 8
	note C_, 8
	note G#, 8
	note C_, 8
	octave 2
	note A#, 4
	note F#, 4
	note A#, 4
	octave 3
	note C#, 4
	note F#, 4
	note C#, 4
	note F#, 4
	note G_, 4
	
	note D#, 6
	note B_, 6
	note __, 4
	note F#, 6
	note B_, 4
	note D#, 2
	note G#, 2
	note B_, 2
	octave 4
	note C#, 8
	octave 3
	note B_, 8
	note A#, 8
	note G_, 8
	note D#, 6
	note B_, 6
	note __, 4
	note F#, 6
	note B_, 4
	note D#, 2
	note G#, 2
	note B_, 2
	octave 4
	note C#, 8
	octave 3
	note B_, 8
	note A#, 6
	note B_, 2
	octave 4
	note C#, 2
	octave 3
	note B_, 2
	note A#, 2
	octave 4
	note C#, 2
	octave 3
	loopchannel 0, Music_TrainerBattle_loop1
	endchannel
; f62b3

Music_TrainerBattle_Ch2: ; f62b3
	dutycycle $3
	vibrato $12, $15
	tone $0001
	notetype $c, $92
	intensity $a3
	octave 4
	note A#, 1
	note A_, 1
	note G#, 1
	note G_, 1
	intensity $83
	note A#, 1
	intensity $a3
	note G_, 1
	note F#, 1
	note F_, 1
	intensity $83
	note A#, 1
	intensity $a3
	note F_, 1
	note E_, 1
	note D#, 1
	intensity $83
	note A#, 1
	intensity $a3
	note D#, 1
	note D_, 1
	note C#, 1
	intensity $83
	note A_, 1
	intensity $a3
	note C#, 1
	note C_, 1
	octave 3
	note B_, 1
	intensity $83
	octave 4
	note G#, 1
	intensity $a3
	octave 3
	note B_, 1
	note A#, 1
	note A_, 1
	note D#, 3
	note G_, 3
	note B_, 2
	
	intensity $c7
	note G#, 2
	note __, 4
	note B_, 2
	note __, 4
	octave 4
	note C#, 2
	note __,2
	note D_, 6
	note C#, 6
	octave 3
	note B_, 2
	note F#, 2
	note G#, 2
	note __, 4
	note B_, 2
	note __, 4
	octave 4
	note C#, 2
	note __,2
	note D_, 6
	note C#, 6
	note D#, 2
	note __, 2
	octave 3
	note G#, 2
	note __, 4
	note B_, 2
	note __, 4
	octave 4
	note C#, 2
	note __,2
	note D_, 6
	note C#, 6
	octave 3
	note B_, 2
	note __, 2
	
	note G#, 2
	note __, 4
	note B_, 2
	note __, 4
	octave 4
	note C#, 2
	note __,2
	note D#, 2
	octave 3
	note D#, 1
	note __, 1
	note D#, 1
	note __, 1
	octave 4
	note D#, 2
	octave 3
	note D#, 1
	note __, 1
	note D#, 1
	note __, 1
	octave 4
	note D#, 2
	octave 3
	note D#, 1
	note __, 1
	
Music_TrainerBattle_loop2: ; f6102
	note G#, 6
	octave 4
	note D#, 6
	note __, 4
	octave 3
	note G#, 6
	octave 4
	note D#, 4
	octave 3
	note G#, 2
	octave 4
	note C#, 2
	note D#, 2
	intensity $c4
	note E_, 16
	intensity $97
	note C#, 16
	intensity $c7
	octave 3
	note G#, 6
	octave 4
	note D#, 6
	note __, 4
	octave 3
	note G#, 6
	octave 4
	note D#, 4
	octave 3
	note G#, 2
	octave 4
	note C#, 2
	note D#, 2
	intensity $c4
	note E_, 16
	intensity $c7
	note C#, 6
	note D#, 2
	note E_, 4
	note C#, 4
	note D#, 12
	note C#, 4
	note C_, 12
	octave 3
	note A_, 4
	note G#, 6
	note A_, 2
	note B_, 4
	note A_, 4
	note G#, 16
	
	intensity $57
	octave 4
	note F#, 2
	note C#, 2
	note A#, 2
	note C#, 2
	note F#, 2
	note C#, 2
	note A#, 2
	note C#, 2
	note F#, 2
	note C#, 2
	note A#, 2
	note C#, 2
	note F#, 2
	note C#, 2
	note A#, 2
	note C#, 2
	note G#, 2
	note D#, 2
	octave 5
	note C_, 2
	octave 4
	note D#, 2
	note G#, 2
	note D#, 2
	octave 5
	note C_, 2
	octave 4
	note D#, 2
	note G#, 2
	note D#, 2
	octave 5
	note C_, 2
	octave 4
	note D#, 2
	note G#, 2
	note D#, 2
	octave 5
	note C_, 2
	octave 4
	note D#, 2
	
	note F#, 2
	note C#, 2
	note A#, 2
	note C#, 2
	note F#, 2
	note C#, 2
	note A#, 2
	note C#, 2
	note F#, 2
	note C#, 2
	note A#, 2
	note C#, 2
	note F#, 2
	note C#, 2
	note A#, 2
	note C#, 2
	note G#, 2
	note D#, 2
	octave 5
	note C_, 2
	octave 4
	note D#, 2
	note G#, 2
	note D#, 2
	octave 5
	note C_, 2
	octave 4
	note D#, 2
	octave 5
	note C_, 8
	note __, 8
	
	intensity $c7
	octave 3
	note F#, 12
	note C#, 4
	note A#, 8
	note F#, 8
	note G#, 16
	note D#, 16
	note F#, 12
	note C#, 4
	note A#, 8
	note F#, 4
	note G_, 4
	note G#, 16
	octave 4
	note C_, 16
	note C_, 14
	note C#, 2
	note D#, 16
	note F#, 8
	note F_, 8
	note D#, 8
	note C#, 8
	note C_, 14
	note C#, 2
	note D#, 8
	octave 3
	note G#, 8
	octave 4
	note F#, 8
	note F_, 8
	note D#, 8
	note C#, 8
	note C_, 16
	note D#, 8
	note __, 8
	
	note F#, 8
	note F_, 8
	note D#, 8
	note C#, 8
	note C_, 8
	octave 3
	note G#, 8
	octave 4
	note D#, 8
	octave 3
	note G#, 8
	octave 4
	note F#, 8
	note F_, 8
	note D#, 8
	note C#, 8
	
	octave 3
	note G#, 6
	octave 4
	note D#, 6
	note __, 4
	octave 3
	note G#, 6
	octave 4
	note D#, 4
	octave 3
	note G#, 2
	octave 4
	note C#, 2
	note D#, 2
	note E_, 16
	intensity $97
	note C#, 16
	intensity $c7
	octave 3
	note G#, 6
	octave 4
	note D#, 6
	note __, 4
	octave 3
	note G#, 6
	octave 4
	note D#, 4
	octave 3
	note G#, 2
	octave 4
	note C#, 2
	note D#, 2
	note E_, 16
	note C#, 6
	note D#, 2
	note E_, 2
	note D#, 2
	note C#, 2
	note E_, 2	
	octave 3
	loopchannel 0, Music_TrainerBattle_loop2
	endchannel
; f64de

Music_TrainerBattle_Ch3: ; f64de
	notetype $c, $19
	octave 3
	note D#, 1
	note D_, 1
	note C#, 1
	note C_, 1
	note C#, 1
	note C_, 1
	octave 2
	note B_, 1
	note A#, 1
	note B_, 1
	note A#, 1
	note A_, 1
	note G#, 1
	note A_, 1
	note G#, 1
	note G_, 1
	note F#, 1
	note G_, 1
	note F#, 1
	note F_, 1
	note E_, 1
	note F_, 1
	note E_, 1
	note D#, 1
	note D_, 1
	note D#, 8
	
	note G#, 2
	octave 3
	note D#, 2
	octave 2
	note G#, 2
	octave 3
	note D#, 2
	octave 2
	note G#, 2
	octave 3
	note D#, 2
	octave 2
	note G#, 2
	octave 3
	note D#, 2
	octave 2
	note G#, 2
	octave 3
	note D#, 2
	octave 2
	note G#, 2
	octave 3
	note D#, 2
	octave 2
	note G#, 2
	octave 3
	note D#, 2
	octave 2
	note G#, 2
	note F#, 2
	note G#, 2
	octave 3
	note D#, 2
	octave 2
	note G#, 2
	octave 3
	note D#, 2
	octave 2
	note G#, 2
	octave 3
	note D#, 2
	octave 2
	note G#, 2
	octave 3
	note D#, 2
	note F#, 6
	note F_, 6
	note D#, 2
	note __, 2
	
	octave 2
	note G#, 2
	octave 3
	note D#, 2
	octave 2
	note G#, 2
	octave 3
	note D#, 2
	octave 2
	note G#, 2
	octave 3
	note D#, 2
	octave 2
	note G#, 2
	octave 3
	note D#, 2
	octave 2
	note G#, 2
	octave 3
	note D#, 2
	octave 2
	note G#, 2
	octave 3
	note D#, 2
	octave 2
	note G#, 2
	octave 3
	note D#, 2
	octave 2
	note F#, 2
	note G_, 2
	note G#, 2
	octave 3
	note D#, 2
	octave 2
	note G#, 2
	octave 3
	note D#, 2
	octave 2
	note G#, 2
	octave 3
	note D#, 2
	octave 2
	note G#, 2
	octave 3
	note D#, 2
	octave 2
	note D#, 2
	note __, 4
	note D#, 2
	note __, 4
	note D#, 2
	note __, 2

Music_TrainerBattle_loop3: ; f6102
	note G#, 2
	octave 3
	note D#, 2
	octave 2
	note G#, 2
	octave 3
	note D#, 2
	octave 2
	note G#, 2
	octave 3
	note D#, 2
	octave 2
	note G#, 2
	octave 3
	note D#, 2
	octave 2
	note G#, 2
	octave 3
	note D#, 2
	octave 2
	note G#, 2
	octave 3
	note D#, 2
	octave 2
	note G#, 2
	octave 3
	note D#, 2
	octave 2
	note G#, 2
	octave 3
	note D#, 2
	octave 2
	note A#, 2
	octave 3
	note E_, 2
	octave 2
	note A#, 2
	octave 3
	note E_, 2
	octave 2
	note A#, 2
	octave 3
	note E_, 2
	octave 2
	note A#, 2
	octave 3
	note E_, 2
	octave 2
	
	note G_,2 
	octave 3
	note D#, 2
	octave 2
	note A#, 2
	octave 3
	note C#, 2
	note D#, 2
	note C#, 2
	octave 2
	note B_, 2
	note A#, 2
	
	note G#, 2
	octave 3
	note D#, 2
	octave 2
	note G#, 2
	octave 3
	note D#, 2
	octave 2
	note G#, 2
	octave 3
	note D#, 2
	octave 2
	note G#, 2
	octave 3
	note D#, 2
	octave 2
	note G#, 2
	octave 3
	note D#, 2
	octave 2
	note G#, 2
	octave 3
	note D#, 2
	octave 2
	note G#, 2
	octave 3
	note D#, 2
	octave 2
	note G#, 2
	octave 3
	note D#, 2
	octave 2
	note A#, 2
	octave 3
	note E_, 2
	octave 2
	note A#, 2
	octave 3
	note E_, 2
	octave 2
	note A#, 2
	octave 3
	note E_, 2
	octave 2
	note A#, 2
	octave 3
	note E_, 2
	octave 2
	
	note G_, 2
	octave 3
	note D#, 2
	octave 2
	note G_, 2
	octave 3
	note D#, 2
	octave 2
	note G_, 2
	octave 3
	note D#, 2
	octave 2
	note G_, 2
	octave 3
	note D#, 2
	octave 2
	note G#, 2
	octave 3
	note D#, 2
	octave 2
	note G#, 2
	octave 3
	note D#, 2
	octave 2
	note G#, 2
	octave 3
	note D#, 2
	octave 2
	note G#, 2
	octave 3
	note D#, 2
	octave 2
	note G#, 2
	octave 3
	note D#, 2
	octave 2
	note G#, 2
	octave 3
	note D#, 2
	octave 2
	note G#, 2
	octave 3
	note D#, 2
	octave 2
	note G#, 2
	octave 3
	note D#, 2
	octave 2
	note G#, 2
	octave 3
	note D#, 2
	octave 2
	note G#, 2
	octave 3
	note D#, 2
	octave 2
	note G#, 2
	octave 3
	note D#, 2
	octave 2
	note G#, 2
	octave 3
	note D#, 2
	octave 2
	note G#, 2
	octave 3
	note D#, 2
	note C_, 2
	note C#, 2
	note D#, 2
	note C#, 2
	note C_, 2
	note D#, 2
	
	octave 2
	note F#, 12
	note C#, 4
	note A#, 8
	note A#, 2
	note G#, 2
	note F#, 2
	note A#, 2
	note G#, 12
	note D#, 4
	octave 3
	note C_, 12
	note __, 4
	octave 2
	note F#, 12
	note C#, 4
	note A#, 8
	note F#, 4
	note G_, 4
	note G#, 12
	note D#, 4
	octave 3
	note C_, 12
	note __, 4
	
	octave 2
	note F#, 2
	octave 3
	note C#, 2
	octave 2
	note F#, 2
	octave 3
	note C#, 2
	octave 2
	note F#, 2
	octave 3
	note C#, 2
	octave 2
	note F#, 2
	octave 3
	note C#, 2
	octave 2
	note F#, 2
	octave 3
	note C#, 2
	octave 2
	note F#, 2
	octave 3
	note C#, 2
	octave 2
	note F#, 2
	octave 3
	note C#, 2
	octave 2
	note F#, 2
	octave 3
	note C#, 2
	octave 2
	note G#, 2
	octave 3
	note D#, 2
	octave 2
	note G#, 2
	octave 3
	note D#, 2
	octave 2
	note G#, 2
	octave 3
	note D#, 2
	octave 2
	note G#, 2
	octave 3
	note D#, 2
	octave 2
	note G#, 2
	octave 3
	note D#, 2
	octave 2
	note G#, 2
	octave 3
	note D#, 2
	octave 2
	note G#, 2
	octave 3
	note D#, 2
	octave 2
	note G#, 2
	octave 3
	note D#, 2
	octave 2
	note F#, 2
	octave 3
	note C#, 2
	octave 2
	note F#, 2
	octave 3
	note C#, 2
	octave 2
	note F#, 2
	octave 3
	note C#, 2
	octave 2
	note F#, 2
	octave 3
	note C#, 2
	octave 2
	note F#, 2
	octave 3
	note C#, 2
	octave 2
	note F#, 2
	octave 3
	note C#, 2
	octave 2
	note F#, 2
	octave 3
	note C#, 2
	octave 2
	note F#, 2
	note G_, 2
	note G#, 2
	octave 3
	note D#, 2
	octave 2
	note G#, 2
	octave 3
	note D#, 2
	octave 2
	note G#, 2
	octave 3
	note D#, 2
	octave 2
	note G#, 2
	octave 3
	note D#, 2
	octave 2
	note G#, 2
	octave 3
	note D#, 2
	octave 2
	note G#, 2
	octave 3
	note D#, 2
	octave 2
	note G#, 2
	octave 3
	note D#, 2
	octave 2
	note G#, 2
	octave 3
	note D#, 2
	octave 2
	note G#, 2
	octave 3
	note D#, 2
	octave 2
	note G#, 2
	octave 3
	note D#, 2
	octave 2
	note G#, 2
	octave 3
	note D#, 2
	octave 2
	note G#, 2
	octave 3
	note D#, 2
	octave 2
	note G#, 2
	octave 3
	note D#, 2
	note C_, 2
	note C#, 2
	note D#, 2
	note C#, 2
	note C_, 2
	note D#, 2
	
	note C#, 8
	note C_, 8
	octave 2
	note A#, 8
	note G_, 8
	note G#, 16
	note D#, 16
	note A#, 8
	note G_, 8
	octave 3
	note C#, 8
	octave 2
	note A#, 8
	note G#, 16
	octave 3
	note C_, 8
	note __, 8
	
	octave 2
	note F#, 2
	octave 3
	note C#, 2
	octave 2
	note F#, 2
	octave 3
	note C#, 2
	octave 2
	note F#, 2
	octave 3
	note C#, 2
	octave 2
	note F#, 2
	octave 3
	note C#, 2
	octave 2
	note F#, 2
	octave 3
	note C#, 2
	octave 2
	note F#, 2
	octave 3
	note C#, 2
	octave 2
	note F#, 2
	octave 3
	note C#, 2
	octave 2
	note F#, 2
	note G_, 2
	note G#, 2
	octave 3
	note D#, 2
	octave 2
	note G#, 2
	octave 3
	note D#, 2
	octave 2
	note G#, 2
	octave 3
	note D#, 2
	octave 2
	note G#, 2
	octave 3
	note D#, 2
	octave 2
	note G#, 2
	octave 3
	note D#, 2
	octave 2
	note G#, 2
	octave 3
	note D#, 2
	octave 2
	note G#, 2
	octave 3
	note D#, 2
	octave 2
	note G#, 2
	note G_, 2
	note F#, 2
	octave 3
	note C#, 2
	octave 2
	note F#, 2
	octave 3
	note C#, 2
	octave 2
	note F#, 2
	octave 3
	note C#, 2
	octave 2
	note F#, 2
	octave 3
	note C#, 2
	octave 2
	note F#, 2
	octave 3
	note C#, 2
	octave 2
	note F#, 2
	octave 3
	note C#, 2
	octave 2
	note F#, 2
	octave 3
	note C#, 2
	octave 2
	note F#, 4
	
	note G#, 12
	octave 3
	note D#, 4
	note F#, 12
	note D#, 4
	note E_, 12
	note D#, 4
	note C#, 8
	octave 2
	note A#, 8
	note G#, 12
	octave 3
	note D#, 4
	note F#, 8
	note D#, 8
	note E_, 16
	note G#, 8
	note G_, 4
	note __, 4
	octave 2
	loopchannel 0, Music_TrainerBattle_loop3
	endchannel
; f66c3
