Music_Train:
	musicheader 4, 1, Music_Train_Ch1
	musicheader 1, 2, Music_Train_Ch2
	musicheader 1, 3, Music_Train_Ch3
	musicheader 1, 4, Music_Train_Ch4

Music_Train_Ch1:
	tempo $96
	volume $77
	stereopanning $77
	octave 1
	notetype $C, $00
	note __, 16
	note __, 8
	dutycycle 1
	intensity $88
	vibrato $00, $33
	octave 2
	note C#, 2
	intensity $84
	note C#, 1
	intensity $88
	note F#, 2
	intensity $84
	note F#, 2
	intensity $48
	note F#, 1
	note F_, 1
	note E_, 3
	note __, 6
	intensity $88
	note C#, 2
	intensity $84
	note C#, 1
	intensity $88
	note G#, 2
	intensity $84
	note G#, 2
	intensity $48
	note G#, 1
	note G_, 1
	note F#, 3
	note __, 6
	intensity $88
	note C#, 2
	intensity $84
	note C#, 1
	intensity $88
	note B_, 2
	intensity $84
	note B_, 2
	intensity $48
	note B_, 1
	note A#, 1
	note A_, 3
	note __, 6
	intensity $88
	note D_, 2
	intensity $84
	note D_, 1
	intensity $88
	note C#, 2
	intensity $84
	note C#, 2
	intensity $48
	note C#, 1
	note C_, 1
	octave 1
	note B_, 3
Music_Train_Ch1_loop:
	note __, 6
	intensity $88
	octave 2
	note C#, 2
	intensity $84
	note C#, 1
	intensity $88
	note F#, 2
	intensity $84
	note F#, 2
	intensity $48
	note F#, 1
	note F_, 1
	note E_, 3
	note __, 6
	intensity $88
	note C#, 2
	intensity $84
	note C#, 1
	intensity $88
	note G#, 2
	intensity $84
	note G#, 2
	intensity $48
	note G#, 1
	note G_, 1
	note F#, 3
	note __, 6
	intensity $88
	note C#, 2
	intensity $84
	note C#, 1
	intensity $88
	note B_, 2
	intensity $84
	note B_, 2
	intensity $48
	note B_, 1
	note A#, 1
	note A_, 3
	note __, 6
	intensity $88
	note D_, 2
	intensity $84
	note D_, 1
	intensity $88
	note C#, 2
	intensity $84
	note C#, 2
	intensity $48
	note C#, 1
	note C_, 1
	octave 1
	note B_, 3
	note __, 6
	intensity $88
	octave 2
	note C#, 2
	intensity $84
	note C#, 1
	intensity $88
	note F#, 2
	intensity $84
	note F#, 2
	intensity $48
	note F#, 1
	note F_, 1
	note E_, 3
	note __, 6
	intensity $88
	note C#, 2
	intensity $84
	note C#, 1
	intensity $88
	note G#, 2
	intensity $84
	note G#, 2
	intensity $48
	note G#, 1
	note G_, 1
	note F#, 3
	note __, 6
	intensity $88
	note C#, 2
	intensity $84
	note C#, 1
	intensity $88
	note B_, 2
	intensity $84
	note B_, 2
	intensity $48
	note B_, 1
	note A#, 1
	note A_, 3
	note __, 6
	intensity $88
	note D_, 2
	intensity $84
	note D_, 1
	intensity $88
	note C#, 2
	intensity $84
	note C#, 2
	intensity $48
	note C#, 1
	note C_, 1
	octave 1
	note B_, 3
	note __, 6
	intensity $88
	note A_, 2
	intensity $84
	note A_, 1
	intensity $88
	octave 2
	note F_, 1
	note F#, 1
	intensity $84
	note F#, 2
	intensity $48
	note F#, 1
	note F_, 1
	note E_, 3
	note __, 6
	intensity $88
	octave 1
	note A_, 2
	intensity $84
	note A_, 1
	intensity $88
	octave 2
	note G_, 1
	note G#, 1
	intensity $84
	note G#, 2
	intensity $48
	note G#, 1
	note G_, 1
	note F#, 3
	note __, 6
	intensity $88
	note A#, 1
	note B_, 2
	intensity $88
	note A_, 2
	intensity $84
	note A_, 2
	intensity $48
	note A_, 1
	note A_, 1
	note G#, 3
	note __, 6
	intensity $88
	note G#, 1
	note A_, 2
	intensity $84
	note G#, 1
	intensity $88
	note G#, 1
	intensity $84
	note G#, 2
	intensity $48
	note G#, 1
	note G#, 1
	note F#, 3
	note __, 6
	intensity $88
	octave 1
	note A_, 2
	intensity $84
	note A_, 1
	intensity $88
	octave 2
	note F_, 1
	note F#, 1
	intensity $84
	note F#, 2
	intensity $48
	note F#, 1
	note F_, 1
	note E_, 3
	note __, 6
	intensity $88
	octave 1
	note A_, 2
	intensity $84
	note A_, 1
	intensity $88
	octave 2
	note G_, 1
	note G#, 1
	intensity $84
	note G#, 2
	intensity $48
	note G#, 1
	note G_, 1
	note F#, 3
	note __, 6
	intensity $88
	note A#, 1
	note B_, 2
	intensity $88
	note A_, 2
	intensity $84
	note A_, 2
	intensity $48
	note A_, 1
	note A_, 1
	note G#, 3
	note __, 6
	intensity $88
	octave 3
	note C#, 1
	note D_, 2
	intensity $88
	note C#, 2
	intensity $84
	note C#, 2
	intensity $48
	note C#, 1
	note C#, 1
	octave 2
	note B_, 3
	loopchannel 0, Music_Train_Ch1_loop

Music_Train_Ch2:
	octave 1
	notetype $C, $00
	note __, 16
	note __, 2
	dutycycle 1
	intensity $88
	vibrato $00, $33
	note A_, 2
	intensity $84
	note A_, 2
	intensity $48
	note A_, 2
	intensity $38
	note A_, 4
	intensity $28
	note A_, 6
	intensity $25
	note A_, 2
	intensity $88
	note A_, 2
	intensity $84
	note A_, 2
	intensity $48
	note A_, 2
	intensity $38
	note A_, 4
	intensity $28
	note A_, 6
	intensity $25
	note A_, 2
	intensity $88
	note A_, 2
	intensity $84
	note A_, 2
	intensity $48
	note A_, 2
	intensity $38
	note A_, 4
	intensity $28
	note A_, 6
	intensity $25
	note A_, 2
	intensity $88
	note E_, 2
	intensity $84
	note E_, 2
	intensity $48
	note E_, 2
	intensity $38
	note E_, 4
	intensity $28
	note E_, 6
	intensity $25
	note E_, 2
Music_Train_Ch2_loop:
	intensity $88
	note A_, 2
	intensity $84
	note A_, 2
	intensity $48
	note A_, 2
	intensity $38
	note A_, 4
	intensity $28
	note A_, 6
	intensity $25
	note A_, 2
	intensity $88
	note A_, 2
	intensity $84
	note A_, 2
	intensity $48
	note A_, 2
	intensity $38
	note A_, 4
	intensity $28
	note A_, 6
	intensity $25
	note A_, 2
	intensity $88
	note A_, 2
	intensity $84
	note A_, 2
	intensity $48
	note A_, 2
	intensity $38
	note A_, 4
	intensity $28
	note A_, 6
	intensity $25
	note A_, 2
	intensity $88
	note E_, 2
	intensity $84
	note E_, 2
	intensity $48
	note E_, 2
	intensity $38
	note E_, 4
	intensity $28
	note E_, 6
	intensity $25
	note E_, 2
	intensity $88
	note A_, 2
	intensity $84
	note A_, 2
	intensity $48
	note A_, 2
	intensity $38
	note A_, 4
	intensity $28
	note A_, 6
	intensity $25
	note A_, 2
	intensity $88
	note A_, 2
	intensity $84
	note A_, 2
	intensity $48
	note A_, 2
	intensity $38
	note A_, 4
	intensity $28
	note A_, 6
	intensity $25
	note A_, 2
	intensity $88
	note A_, 2
	intensity $84
	note A_, 2
	intensity $48
	note A_, 2
	intensity $38
	note A_, 4
	intensity $28
	note A_, 6
	intensity $25
	note A_, 2
	intensity $88
	note E_, 2
	intensity $84
	note E_, 2
	intensity $48
	note E_, 2
	intensity $38
	note E_, 4
	intensity $28
	note E_, 6
	intensity $25
	note E_, 2
	intensity $88
	note D_, 2
	intensity $84
	note D_, 2
	intensity $48
	note D_, 2
	intensity $38
	note D_, 4
	intensity $28
	note D_, 6
	intensity $25
	note D_, 2
	intensity $88
	note D_, 2
	intensity $84
	note D_, 2
	intensity $48
	note D_, 2
	intensity $38
	note D_, 4
	intensity $28
	note D_, 6
	intensity $25
	note D_, 2
	intensity $88
	note D_, 2
	intensity $84
	note D_, 2
	intensity $48
	note D_, 2
	intensity $38
	note D_, 4
	intensity $28
	note D_, 6
	intensity $25
	note D_, 2
	intensity $88
	note D_, 2
	intensity $84
	note D_, 2
	intensity $48
	note D_, 2
	intensity $38
	note D_, 4
	intensity $28
	note D_, 6
	intensity $25
	note D_, 2
	intensity $88
	note D_, 2
	intensity $84
	note D_, 2
	intensity $48
	note D_, 2
	intensity $38
	note D_, 4
	intensity $28
	note D_, 6
	intensity $25
	note D_, 2
	intensity $88
	note D_, 2
	intensity $84
	note D_, 2
	intensity $48
	note D_, 2
	intensity $38
	note D_, 4
	intensity $28
	note D_, 6
	intensity $25
	note D_, 2
	intensity $88
	note D_, 2
	intensity $84
	note D_, 2
	intensity $48
	note D_, 2
	intensity $38
	note D_, 4
	intensity $28
	note D_, 6
	intensity $25
	note D_, 2
	intensity $88
	note E_, 2
	intensity $84
	note E_, 2
	intensity $48
	note E_, 2
	intensity $38
	note E_, 4
	intensity $28
	note E_, 6
	intensity $25
	note E_, 2
	loopchannel 0, Music_Train_Ch2_loop


Music_Train_Ch3:
	notetype $C, $00
	note __, 16
	note __, 16
	note __, 16
	note __, 16
	note __, 16
	note __, 10
Music_Train_Ch3_loop:
	intensity $10
	octave 5
	note D#, 1
	vibrato $03, $34
	note E_, 14
	intensity $20
	note E_, 3
	intensity $30
	note E_, 3
	intensity $10
	note D_, 3
	note C#, 3
	note G#, 6
	note A_, 3
	note E_, 9
	intensity $20
	note E_, 2
	intensity $30
	note E_, 1
	intensity $10
	note D_, 3
	note C#, 3
	note F_, 1
	note F#, 5
	octave 4
	note B_, 3
	octave 5
	note C#, 6
	note D_, 3
	note D#, 1
	note E_, 14
	intensity $20
	note E_, 3
	intensity $30
	note E_, 3
	intensity $10
	note D_, 3
	note C#, 3
	note A#, 1
	note B_, 5
	note A_, 3
	note F#, 12
	note E_, 3
	note D_, 3
	note C_, 1
	note C#, 5
	octave 4
	note B_, 3
	octave 5
	note C_, 1
	note C#, 5
	octave 4
	note B_, 3
	note A_, 9
	intensity $20
	note A_, 6
	intensity $30
	note A_, 3
	note __, 16
	note __, 16
	note __, 16
	note __, 16
	note __, 16
	note __, 16
	note __, 16
	note __, 14
	loopchannel 0, Music_Train_Ch3_loop

Music_Train_Ch4:
	togglenoise 2
Music_Train_Ch4_loop:
	notetype $C
	note C#, 1
	note G_, 1
	note G_, 1
	note G_, 1
	note G_, 1
	note D_, 1
	note C#, 1
	note G_, 1
	note D_, 1
	loopchannel 0, Music_Train_Ch4_loop

