Music_TrainStartup:
	musicheader 4, 1, Music_TrainStartup_Ch1
	musicheader 1, 2, Music_TrainStartup_Ch2
	musicheader 1, 3, Music_TrainStartup_Ch3
	musicheader 1, 4, Music_TrainStartup_Ch4

Music_TrainStartup_Ch1:
	tempo 150
	volume $77
	stereopanning $77
	notetype $4, $00
	dutycycle 2
	octave 3
	intensity $a8
	note F_, 16
	note F_, 12
	intensity $a3
	note F_, 4
	endchannel 0


	

Music_TrainStartup_Ch2:
	notetype $4, $00
	dutycycle 2
	octave 4
	intensity $a8
	tone $03
	note C_, 16
	note C_, 12
	intensity $a3
	note C_, 4
	endchannel 0

Music_TrainStartup_Ch3:
	endchannel 0

Music_TrainStartup_Ch4:
	togglenoise 6
	notetype $4
	note F_, 16
	note F_, 6
	note F#, 12
	togglenoise 6
	togglenoise 2
	note C#, 9
	note C#, 9
	note C#, 9
	note C#, 8
	note C#, 8
	note C#, 7
	note C#, 7
	note C#, 6
	note C#, 6
	note C#, 5
	note C#, 5
	note C#, 4
	note C#, 4
	note C#, 3
	note C#, 3
	note C#, 3
	note C#, 3
	note C#, 3
	note C#, 3
	note C#, 3
	note C#, 3
	note C#, 3
	note C#, 3
	note C#, 3
	note C#, 3
	note C#, 3
	note C#, 3
	endchannel 0

