Music_WaterRoute:
	musicheader 3, 1, Music_WaterRoute_Ch1
	musicheader 1, 2, Music_WaterRoute_Ch2
	musicheader 1, 3, Music_WaterRoute_Ch3
	musicheader 1, 4, Music_WaterRoute_Ch4

Music_WaterRoute_Ch1:
	tempo $96
	volume $77
	stereopanning $77
	notetype $C, $00
	note __, 9
	dutycycle 1
	intensity $83
	octave 4
	note B_, 1
	note G#, 1
	note E_, 1
	octave 3
	note B_, 1
	note G#, 1
	note E_, 1
	note F#, 1
	note D#, 1
	note C_, 1
Music_WaterRoute_Ch1_loop:
	notetype $C, $83
	dutycycle 1
	octave 4
	octave 2
	note A_, 1
	notetype $6, $83
	note __, 1
	octave 3
	note A_, 2
	note __, 1
	note F#, 2
	note __, 4
	note A_, 2
	note __, 1
	octave 4
	note C#, 2
	note __, 1
	octave 2
	note A_, 2
	note __, 1
	octave 3
	note A_, 2
	note __, 1
	note F#, 2
	note __, 4
	note A_, 2
	note __, 1
	octave 4
	note C#, 2
	note __, 1
	octave 2
	note C#, 2
	note __, 1
	octave 3
	note E_, 2
	note __, 1
	note C#, 2
	note __, 4
	note E_, 2
	note __, 1
	note G#, 2
	note __, 1
	octave 2
	note C#, 2
	note __, 1
	note B_, 2
	note __, 1
	octave 3
	note C#, 2
	note __, 1
	note D_, 2
	note __, 1
	note D#, 2
	note __, 1
	note E_, 2
	note __, 1
	octave 2
	note A_, 2
	note __, 1
	octave 3
	note A_, 2
	note __, 1
	note F#, 2
	note __, 4
	note A_, 2
	note __, 1
	octave 4
	note C#, 2
	note __, 1
	octave 2
	note A_, 2
	note __, 1
	octave 3
	note A_, 2
	note __, 1
	note F#, 2
	note __, 4
	note A_, 2
	note __, 1
	octave 4
	note C#, 2
	note __, 1
	dutycycle 2
	intensity $A8
	octave 3
	note D#, 1
	note E_, 5
	notetype $3, $a5
	intensity $a5
	note E_, 12
	intensity $A8
	octave 3
	note A#, 12
	intensity $a5
	note A#, 12
	intensity $A8
	octave 3
	note G_, 12
	intensity $a5
	note G_, 12
	dutycycle 1
	intensity $83
	note F#, 4
	note __, 2
	octave 3
	note F#, 4
	note __, 2
	note A_, 4
	note __, 8
	note F#, 4
	note __, 2
	note A_, 4
	note __, 2
	octave 2
	note F#, 4
	note __, 2
	octave 3
	note F#, 4
	note __, 2
	note A_, 4
	note __, 8
	note F#, 4
	note __, 2
	note A_, 4
	note __, 2
	octave 2
	note G#, 4
	note __, 2
	octave 3
	note D_, 4
	note __, 2
	octave 2
	note G#, 4
	note __, 8
	octave 3
	note D_, 4
	note __, 2
	octave 2
	note E_, 4
	note __, 2
	note G#, 4
	note __, 2
	octave 3
	note C#, 4
	note __, 2
	octave 2
	note G#, 4
	note __, 8
	octave 3
	note C#, 4
	note __, 2
	octave 2
	note B_, 4
	note __, 2
	note A_, 4
	note __, 2
	octave 3
	note C#, 4
	note __, 2
	note E_, 4
	note __, 2
	note C#, 4
	note __, 2
	note E_, 4
	note __, 2
	note A_, 4
	note __, 2
	note C#, 4
	note __, 2
	note F#, 4
	note __, 2
	note A#, 4
	note __, 2
	note F#, 4
	note __, 2
	note A#, 4
	note __, 2
	octave 4
	note C#, 4
	note __, 2
	octave 3
	note B_, 4
	note __, 2
	octave 4
	note D_, 4
	note __, 2
	note F#, 4
	note __, 2
	note D_, 4
	note __, 2
	note F#, 4
	note __, 2
	note A#, 4
	note __, 2
	note B_, 4
	note G#, 4
	note E_, 4
	octave 3
	note B_, 4
	note G#, 4
	note E_, 4
	note F#, 4
	note G_, 4
	note G#, 4
	note A_, 2
	note __, 4
	octave 4
	note D_, 2
	note __, 4
	note F#, 2
	note __, 4
	note D_, 2
	note __, 4
	note F#, 2
	note __, 4
	note D_, 2
	note __, 4
	octave 3
	note A_, 2
	note __, 4
	octave 4
	note D_, 2
	note __, 4
	note F#, 2
	note __, 4
	note D_, 2
	note __, 4
	note F#, 2
	note __, 4
	note D_, 2
	note __, 4
	dutycycle 2
	intensity $88
	note G#, 12
	note G#, 6
	intensity $68
	note G_, 1
	note F#, 1
	note F_, 1
	note E_, 1
	note D#, 1
	note D_, 1
	intensity $48
	note C#, 1
	note C_, 1
	octave 3
	note B_, 1
	note A#, 1
	note A_, 1
	note G#, 1
	note __, 6
	intensity $88
	octave 4
	note G_, 12
	note G_, 6
	intensity $68
	note F#, 1
	note F_, 1
	note E_, 1
	note D#, 1
	note D_, 1
	intensity $48
	note C#, 1
	note C_, 1
	octave 3
	note B_, 1
	note A#, 1
	note A_, 1
	note G#, 1
	note G_, 1
	note __, 6
	dutycycle 0
	intensity $83
	note B_, 2
	note __, 4
	octave 4
	note D_, 2
	note __, 4
	note F#, 2
	note __, 4
	note D_, 2
	note __, 4
	note F#, 2
	note __, 4
	note D_, 2
	note __, 4
	octave 3
	note G#, 2
	note __, 4
	note B_, 2
	note __, 4
	dutycycle 2
	intensity $88
	octave 4
	note D_, 12
	octave 3
	note B_, 12
	dutycycle 0
	intensity $83
	octave 2
	note A_, 2
	note __, 2
	octave 3
	note C#, 2
	note __, 2
	note E_, 2
	note __, 2
	note A_, 2
	note __, 2
	note C#, 2
	note __, 2
	note E_, 2
	note __, 2
	note G#, 2
	note __, 2
	note B_, 2
	note __, 2
	note E_, 2
	note __, 2
	note G#, 2
	note __, 2
	note B_, 2
	note __, 2
	octave 4
	note E_, 2
	note __, 2
	octave 3
	note G_, 2
	note __, 2
	octave 4
	note C#, 2
	note __, 2
	note E_, 2
	note __, 2
	note G_, 2
	note __, 2
	note A_, 2
	note __, 2
	octave 5
	note C#, 2
	note __, 2
	octave 3
	note A_, 2
	note __, 4
	octave 4
	note D_, 2
	note __, 4
	note F#, 2
	note __, 4
	note D_, 2
	note __, 4
	note F#, 2
	note __, 4
	note D_, 2
	note __, 4
	octave 3
	note A_, 2
	note __, 4
	octave 4
	note D_, 2
	note __, 4
	note F#, 2
	note __, 4
	note D_, 2
	note __, 4
	note F#, 2
	note __, 4
	note D_, 2
	note __, 4
	dutycycle 1
	intensity $88
	octave 3
	note E_, 6
	note B_, 6
	note A#, 6
	note A_, 6
	note G#, 6
	note G_, 6
	notetype $C, $88
	note A#, 6
	note F#, 3
	note E_, 3
	note F#, 3
	note E_, 3
	notetype $6, $88
	note D_, 1
	note __, 2
	note F#, 1
	note __, 2
	note B_, 1
	note __, 2
	octave 4
	note D_, 1
	note __, 2
	note F#, 1
	note __, 2
	note B_, 1
	note __, 2
	octave 2
	note B_, 6
	dutycycle 2
	octave 3
	note B_, 6
	octave 4
	note C#, 6
	note D#, 1
	note E_, 5
	note C#, 6
	note D_, 6
	intensity $83
	note C_, 3
	octave 3
	note A_, 1
	note __, 2
	octave 4
	note F_, 1
	note __, 2
	note C_, 1
	note __, 2
	note A_, 1
	note __, 2
	note F_, 1
	note __, 2
	octave 5
	note C_, 1
	note __, 2
	octave 4
	note A_, 1
	note __, 2
	note F_, 1
	note __, 2
	note C_, 1
	note __, 2
	octave 3
	note A_, 1
	note __, 2
	note F_, 1
	note __, 2
	note C_, 1
	note __, 2
	note E_, 1
	note __, 2
	note F_, 1
	note __, 2
	note G_, 1
	note __, 2
	note A_, 1
	note __, 2
	note B_, 1
	note __, 2
	octave 4
	note C_, 1
	note __, 2
	note E_, 1
	note __, 2
	note F_, 1
	note __, 2
	note A_, 1
	note __, 2
	note B_, 1
	note __, 2
	octave 5
	note C_, 1
	note __, 2
	note C#, 1
	note __, 1
	octave 4
	note A_, 1
	note __, 1
	note F#, 1
	note __, 1
	note A_, 1
	note __, 1
	note F#, 1
	note __, 1
	note E_, 1
	note __, 1
	note F#, 1
	note __, 1
	note E_, 1
	note __, 1
	note C#, 1
	note __, 1
	note E_, 1
	note __, 1
	note C#, 1
	note __, 1
	octave 3
	note A_, 1
	note __, 1
	octave 4
	note C#, 1
	note __, 1
	octave 3
	note A_, 1
	note __, 1
	note F#, 1
	note __, 1
	note A_, 1
	note __, 1
	note F#, 1
	note __, 1
	note C#, 1
	note __, 1
	note F#, 1
	note __, 1
	note A_, 1
	note __, 1
	octave 4
	note C#, 1
	note __, 1
	octave 3
	note A_, 1
	note __, 1
	octave 4
	note C#, 1
	note __, 1
	note E_, 1
	note __, 1
	note F#, 1
	note __, 1
	note A_, 1
	note __, 1
	octave 5
	note C#, 1
	note __, 1
	octave 4
	note B_, 1
	note __, 1
	note A_, 1
	note __, 1
	note E_, 1
	note __, 1
	octave 3
	note B_, 1
	note __, 1
	note A_, 1
	note __, 1
	note E_, 1
	note __, 1
	note F#, 1
	note __, 1
	note G_, 1
	note __, 1
	note G#, 1
	note __, 1
	loopchannel 0, Music_WaterRoute_Ch1_loop

Music_WaterRoute_Ch2:
	notetype $9, $00
	note __, 2
	dutycycle 2
	intensity $68
	octave 2
	note F#, 2
	note A_, 2
	octave 3
	note C#, 2
	note E_, 2
	octave 2
	note A_, 2
	octave 3
	note C#, 2
	intensity $78
	note E_, 2
	intensity $88
	note F#, 2
	intensity $98
	note A_, 2
	intensity $A8
	note B_, 2
	intensity $B8
	octave 4
	note C_, 2
Music_WaterRoute_Ch2_loop:
	vibrato $00, $23
	octave 3
	notetype $6, $C8
	note B_, 1
	octave 4
	note C_, 1
	note C#, 12
	intensity $C7
	note C#, 10
	intensity $C8
	octave 3
	note A#, 1
	note B_, 5
	note A_, 6
	note G#, 8
	intensity $C7
	note G#, 6
	intensity $C8
	note A_, 1
	note G#, 3
	note F#, 2
	note __, 1
	note G#, 2
	note __, 1
	note A_, 2
	note __, 1
	note A#, 2
	note __, 1
	note B_, 2
	note __, 1
	octave 4
	note C_, 2
	note __, 1
	octave 3
	note B_, 1
	octave 4
	note C_, 1
	note C#, 12
	intensity $C6
	note C#, 10
	intensity $C8
	octave 3
	note A#, 1
	note B_, 5
	note A_, 6
	note A#, 1
	note B_, 5
	intensity $c5
	note B_, 6
	intensity $C8
	octave 4
	note E_, 6
	intensity $c5
	note E_, 6
	octave 4
	intensity $C8
	note D_, 6
	intensity $c5
	note D_, 6
	octave 4
	notetype $C, $C8
	note C#, 6
	intensity $C6
	note C#, 6
	intensity $C8
	note D_, 3
	note C#, 3
	intensity $C6
	octave 3
	note F#, 9
	note E_, 6
	notetype $6, $C6
	note G#, 1
	intensity $C8
	note A_, 11
	intensity $C6
	note A_, 12
	dutycycle 0
	intensity $3D
	octave 4
	note C#, 8
	intensity $A8
	note C#, 4
	intensity $A6
	note C#, 6
	intensity $3D
	note F#, 8
	intensity $A8
	note F#, 4
	intensity $A6
	note F#, 6
	intensity $A5
	note C#, 1
	note D_, 2
	octave 3
	note B_, 3
	note G#, 3
	note G_, 3
	note F#, 3
	note F_, 3
	dutycycle 2
	intensity $A3
	octave 2
	note D_, 6
	note F#, 3
	note A_, 3
	octave 3
	note D_, 6
	octave 2
	note D_, 6
	note F#, 3
	note A_, 3
	octave 3
	note D_, 6
	octave 2
	note C#, 6
	intensity $A8
	octave 4
	note C_, 1
	note C#, 7
	notetype $3, $58
	note C_, 1
	octave 3
	note B_, 1
	note A#, 1
	note A_, 1
	note G#, 1
	note G_, 1
	note F#, 1
	note F_, 1
	intensity $A3
	octave 2
	note C_, 12
	intensity $A8
	octave 3
	note B_, 2
	octave 4
	note C_, 14
	intensity $58
	octave 3
	note B_, 1
	note A#, 1
	note A_, 1
	note G#, 1
	note G_, 1
	note F#, 1
	note F_, 1
	note E_, 1
	intensity $A3
	octave 1
	note B_, 12
	octave 2
	note D_, 6
	note F#, 6
	note B_, 12
	note E_, 12
	note G#, 6
	note B_, 6
	octave 3
	note E_, 12
	intensity $A8
	note A_, 12
	octave 2
	note A_, 12
	octave 3
	note B_, 12
	octave 2
	note B_, 12
	octave 4
	note C#, 12
	octave 3
	note C#, 12
	intensity $A3
	octave 2
	note D_, 12
	note F#, 6
	note A_, 6
	octave 3
	note D_, 12
	octave 2
	note D_, 12
	note F#, 6
	note A_, 6
	octave 3
	note D_, 12
	octave 2
	note C#, 12
	note E_, 6
	note G#, 6
	octave 3
	note C#, 12
	octave 1
	note F#, 12
	note A#, 6
	octave 2
	note C#, 6
	note F#, 12
	octave 1
	note B_, 12
	octave 2
	note D_, 6
	note F#, 6
	note A#, 12
	octave 1
	note B_, 12
	octave 2
	note F#, 6
	note B_, 6
	octave 3
	note D_, 12
	octave 2
	note E_, 12
	note G#, 6
	note B_, 6
	octave 3
	note E_, 12
	octave 2
	note E_, 12
	note G#, 6
	note B_, 6
	octave 3
	note E_, 12
	octave 2
	notetype $C, $A8
	note F_, 6
	notetype $6, $A8
	note G_, 1
	note A_, 1
	note B_, 1
	octave 3
	note C_, 1
	note D_, 1
	note E_, 1
	note F_, 12
	note E_, 1
	note D_, 1
	note C_, 1
	octave 2
	note B_, 1
	note A_, 1
	note G_, 1
	note F_, 12
	note B_, 1
	octave 3
	note C_, 1
	note D_, 1
	note E_, 1
	note F_, 1
	note G_, 1
	note A_, 12
	note G_, 1
	note F_, 1
	note E_, 1
	note D_, 1
	note C_, 1
	octave 2
	note B_, 1
	note __, 3
	intensity $68
	vibrato $00, $00
	note F#, 3
	note A_, 3
	octave 3
	note C#, 3
	note E_, 3
	octave 2
	note A_, 3
	octave 3
	note C#, 3
	note E_, 3
	note F#, 3
	note E_, 3
	note F#, 3
	note A_, 3
	octave 4
	note C#, 3
	octave 3
	note A_, 3
	octave 4
	note C#, 3
	note E_, 3
	note F#, 3
	note A_, 3
	intensity $B8
	octave 3
	note F#, 6
	note A_, 6
	note B_, 6
	loopchannel 0, Music_WaterRoute_Ch2_loop

Music_WaterRoute_Ch3:
	octave 2
	notetype $C, $10
	note B_, 12
	octave 3
	note E_, 3
	note D#, 3
Music_WaterRoute_Ch3_loop:
	notetype $6, $10
	note D_, 1
	note __, 5
	note F#, 1
	note __, 2
	note A_, 1
	note __, 2
	octave 4
	note C#, 1
	note __, 5
	octave 3
	note D_, 1
	note __, 5
	note F#, 1
	note __, 2
	note A_, 1
	note __, 2
	octave 4
	note C#, 1
	note __, 5
	octave 2
	note A_, 1
	note __, 5
	octave 3
	note C#, 1
	note __, 2
	note E_, 1
	note __, 2
	note G#, 1
	note __, 5
	octave 2
	note A_, 1
	note __, 5
	octave 3
	note C#, 1
	note __, 2
	note E_, 1
	note __, 2
	note G#, 1
	note __, 5
	note D_, 1
	note __, 5
	note F#, 1
	note __, 2
	note A_, 1
	note __, 2
	octave 4
	note C#, 1
	note __, 5
	octave 3
	note D_, 1
	note __, 5
	note F#, 1
	note __, 2
	note A_, 1
	note __, 2
	octave 4
	note C#, 1
	note __, 5
	octave 3
	note C#, 6
	notetype $3, $10
	octave 4
	note C#, 6
	note __, 6
	intensity $10
	octave 3
	note F#, 12
	intensity $10
	octave 4
	note F#, 6
	note __, 6
	intensity $10
	octave 2
	note A#, 12
	octave 3
	note A#, 6
	note __, 6
	octave 2
	note B_, 2
	note __, 10
	octave 3
	note D_, 2
	note __, 4
	note F#, 2
	note __, 4
	note B_, 2
	note __, 10
	octave 2
	note B_, 2
	note __, 10
	octave 3
	note D_, 2
	note __, 4
	note F#, 2
	note __, 4
	note B_, 2
	note __, 10
	octave 2
	note E_, 2
	note __, 10
	note G#, 2
	note __, 4
	note B_, 2
	note __, 4
	octave 3
	note E_, 2
	note __, 10
	octave 2
	note E_, 2
	note __, 10
	note G#, 2
	note __, 4
	note B_, 2
	note __, 4
	octave 3
	note E_, 2
	note __, 10
	octave 2
	note A_, 6
	octave 3
	note E_, 6
	note A_, 6
	note __, 6
	octave 2
	note A_, 6
	note __, 6
	note A#, 6
	octave 3
	note C#, 6
	note F#, 6
	note __, 6
	octave 2
	note A#, 6
	note __, 6
	note B_, 6
	octave 3
	note F#, 6
	note B_, 6
	note __, 6
	octave 2
	note B_, 6
	note __, 6
	note E_, 6
	note B_, 6
	octave 3
	note E_, 6
	note __, 6
	dutycycle 5
	intensity $15
	vibrato $00, $13
	octave 5
	note G#, 2
	note A_, 10
	notetype $C, $15
	note F#, 9
	intensity $25
	note F#, 3
	intensity $15
	note G#, 3
	note A_, 3
	note E_, 3
	notetype $9, $15
	note E_, 2
	notetype $3, $15
	note D#, 1
	intensity $25
	note D_, 1
	note C#, 1
	note C_, 1
	octave 4
	note B_, 1
	note A#, 1
	intensity $35
	note A_, 1
	note G#, 1
	note G_, 1
	note F#, 1
	note F_, 1
	dutycycle 0
	intensity $30
	note E_, 1
	note __, 6
	dutycycle 5
	intensity $15
	octave 5
	note D#, 12
	note D#, 6
	intensity $25
	note D_, 1
	note C#, 1
	note C_, 1
	octave 4
	note B_, 1
	note A#, 1
	note A_, 1
	intensity $35
	note G#, 1
	note G_, 1
	note F#, 1
	note F_, 1
	dutycycle 0
	intensity $30
	note E_, 1
	note D#, 1
	note __, 6
	dutycycle 5
	intensity $15
	octave 5
	note C#, 2
	note D_, 16
	note D_, 16
	intensity $25
	note D_, 2
	note D_, 12
	intensity $15
	note F_, 2
	note F#, 10
	note D_, 12
	notetype $C, $15
	note C#, 6
	note D_, 6
	note E_, 6
	notetype $6, $15
	note F_, 1
	note F#, 16
	notetype $1, $15
	note F#, 6
	notetype $6, $15
	intensity $25
	note F#, 6
	intensity $15
	note G#, 6
	note A_, 6
	octave 6
	note C_, 1
	note C#, 11
	octave 5
	note B_, 6
	octave 6
	note D#, 1
	note E_, 11
	note D_, 6
	note C#, 9
	note D_, 3
	note C#, 6
	octave 5
	notetype $C, $15
	note F#, 9
	intensity $25
	note F#, 3
	intensity $15
	note G#, 3
	note A_, 3
	octave 6
	notetype $6, $15
	note C_, 1
	note C#, 5
	octave 5
	note E_, 6
	note B_, 6
	notetype $C, $15
	note A_, 9
	intensity $25
	note A_, 9
	intensity $35
	note A_, 9
	note __, 9
	dutycycle 0
	intensity $10
	octave 2
	note B_, 9
	note B_, 9
	note B_, 9
	octave 3
	note E_, 6
	note D#, 3
	loopchannel 0, Music_WaterRoute_Ch3_loop

Music_WaterRoute_Ch4:
	endchannel 0

