Music_WildBattle:
	musicheader 4, 1, Music_WildBattle_Ch1
	musicheader 1, 2, Music_WildBattle_Ch2
	musicheader 1, 3, Music_WildBattle_Ch3
	musicheader 1, 4, Music_WildBattle_Ch4

Music_WildBattle_Ch1:
	tempo $6A
	volume $77
	stereopanning $77
	dutycycle 1
	octave 4
	notetype $C, $C8
	note C_, 1
	octave 3
	note B_, 1
	note A#, 1
	note A_, 1
	note B_, 1
	note A#, 1
	note A_, 1
	note G#, 1
	note A#, 1
	note A_, 1
	note G#, 1
	note G_, 1
	note A_, 1
	note G#, 1
	note G_, 1
	note F#, 1
	note G#, 1
	note G_, 1
	note F#, 1
	note F_, 1
	note G_, 1
	note F#, 1
	note F_, 1
	note E_, 1
	note F#, 1
	note F_, 1
	note E_, 1
	note D#, 1
	note F_, 1
	note E_, 1
	note D#, 1
	note D_, 1
	
	dutycycle 2
	intensity $A5
	note G_, 2
	note __, 4
	note C_, 2
	note __, 4
	note F_, 2
	note G_, 2
	note G#, 2
	note __, 4
	note G_, 2
	note __, 4
	note F_, 2
	note __, 2
	note G_, 2
	note __, 4
	note C_, 2
	note __, 4
	note G_, 2
	note F#, 2
	note F_, 2
	note __, 4
	note D_, 2
	note __, 2
	note C_, 2
	octave 2
	note G_, 4
	octave 4
	note C_, 2
	note __, 4
	octave 3
	note G_, 2
	note __, 4
	note A#, 2
	octave 4
	note C_, 2
	note C#, 2
	note __, 4
	octave 3
	note G#, 2
	note __, 4
	octave 4
	note C#, 2
	note __, 2
	note C_, 2
	note __, 4
	note E_, 2
	note __, 4
	dutycycle 1
	octave 2
	note G_, 2
	octave 3
	note C_, 2
	note F_, 2
	note __, 4
	note F_, 2
	note __, 2
	intensity $A8
	note E_, 2
	
	jumpchannel Music_WildBattle2_Ch1

Music_WildBattle_Ch2:
	dutycycle 1
	octave 4
	notetype $C, $C8
	note D_, 1
	note C#, 1
	note D_, 1
	note G_, 1
	note D_, 1
	note C#, 1
	note D_, 1
	note G#, 1
	note C#, 1
	note C_, 1
	note C#, 1
	note A_, 1
	note C#, 1
	note C_, 1
	note C#, 1
	note A#, 1
	note C_, 1
	octave 3
	note B_, 1
	octave 4
	note C_, 1
	note B_, 1
	note C_, 1
	octave 3
	note B_, 1
	octave 4
	note C_, 1
	octave 5
	note C_, 1
	octave 3
	note B_, 1
	note A#, 1
	note B_, 1
	octave 5
	note C#, 1
	octave 3
	note B_, 1
	note A#, 1
	note B_, 1
	octave 5
	note D_, 1
	
	dutycycle 2
	intensity $C5
	octave 4
	note C_, 2
	note __, 4
	octave 3
	note G_, 2
	note __, 4
	note A#, 2
	octave 4
	note C_, 2
	note C#, 2
	note __, 4
	note C_, 2
	note __, 4
	octave 3
	note A#, 2
	note __, 2
	octave 4
	note C_, 2
	note __, 4
	octave 3
	note G_, 2
	note __, 4
	octave 4
	note C_, 2
	octave 3
	note B_, 2
	note A#, 2
	note __, 4
	note F_, 2
	note __, 2
	note E_, 2
	note C_, 4
	octave 4
	note E_, 2
	note __, 4
	note C_, 2
	note __, 4
	note D_, 2
	note E_, 2
	note F_, 2
	note __, 4
	note C#, 2
	note __, 4
	note F_, 2
	note __, 2
	note E_, 2
	note __, 4
	note G_, 2
	note __, 4
	dutycycle 1
	octave 3
	note C_, 2
	note E_, 2
	note A#, 2
	note __, 4
	note G#, 2
	note __, 2
	note G_, 2
	
	jumpchannel Music_WildBattle2_Ch2

Music_WildBattle_Ch3:
	dutycycle 4
	octave 4
	notetype $C, $14
	note C_, 2
	octave 3
	note B_, 2
	note A#, 2
	note A_, 2
	note G#, 2
	note G_, 2
	note F#, 2
	note F_, 2
	note E_, 2
	note D#, 2
	note D_, 2
	note C#, 2
	note C_, 2
	octave 2
	note G_, 2
	note A#, 2
	note B_, 2
	
	octave 2
	note G_, 2
	octave 3
	note C_, 2
	octave 2
	note G_, 2
	octave 3
	note C_, 2
	octave 2
	note G_, 2
	octave 3
	note C_, 2
	octave 2
	note G_, 2
	octave 3
	note C_, 2
	octave 2
	note G#, 2
	octave 3
	note C#, 2
	octave 2
	note G#, 2
	octave 3
	note C#, 2
	octave 2
	note G#, 2
	octave 3
	note C#, 2
	octave 2
	note G#, 2
	octave 3
	note C#, 2
	octave 2
	note G_, 2
	octave 3
	note C_, 2
	octave 2
	note G_, 2
	octave 3
	note C_, 2
	octave 2
	note G_, 2
	octave 3
	note C_, 2
	octave 2
	note G_, 2
	octave 3
	note C_, 2
	octave 2
	note F_, 2
	note A#, 2
	note F_, 2
	note A#, 2
	note F_, 2
	note A#, 2
	note F_, 2
	note A#, 2
	note G_, 2
	octave 3
	note C_, 2
	octave 2
	note G_, 2
	octave 3
	note C_, 2
	octave 2
	note G_, 2
	octave 3
	note C_, 2
	octave 2
	note G_, 2
	octave 3
	note C_, 2
	octave 2
	note G#, 2
	octave 3
	note C#, 2
	octave 2
	note G#, 2
	octave 3
	note C#, 2
	octave 2
	note G#, 2
	octave 3
	note C#, 2
	octave 2
	note G#, 2
	octave 3
	note C#, 2
	octave 2
	note G_, 2
	octave 3
	note C_, 2
	octave 2
	note G_, 2
	octave 3
	note C_, 2
	octave 2
	note G_, 2
	octave 3
	note C_, 2
	octave 2
	note G_, 2
	octave 3
	note C_, 2
	octave 2
	note F_, 2
	note A#, 2
	note F_, 2
	note A#, 2
	note F_, 2
	note A#, 2
	
	jumpchannel Music_WildBattle2_Ch3

Music_WildBattle_Ch4:
	endchannel 0
