Music_GentlemanEncounter:
	musicheader 4, 1, Music_GentlemanEncounter_Ch1
	musicheader 1, 2, Music_GentlemanEncounter_Ch2
	musicheader 1, 3, Music_GentlemanEncounter_Ch3
	musicheader 1, 4, Music_GentlemanEncounter_Ch4

Music_GentlemanEncounter_Ch1:
	tempo $72
	volume $77
	stereopanning $77
	dutycycle 1
	vibrato $03, $23
	octave 3
	notetype $C, $2F
	note A_, 8
	intensity $2C
	octave 2
	note F_, 4
Music_GentlemanEncounter_Ch1_loop:
	intensity $2B
	vibrato $12, $23
	note A#, 4
	intensity $A5
	note A#, 8
	intensity $2B
	note A_, 4
	intensity $A5
	note A_, 8
	intensity $2B
	note G_, 4
	intensity $A5
	note G_, 8
	intensity $2B
	note F_, 4
	intensity $A5
	note F_, 8
	intensity $2B
	note D#, 4
	intensity $A5
	note D#, 8
	intensity $2B
	note F_, 4
	intensity $A5
	note F_, 8
	intensity $2B
	note D_, 4
	intensity $A5
	note D_, 4
	note D#, 4
	note F_, 4
	note G_, 4
	note A_, 4
	intensity $2B
	note A#, 4
	intensity $A5
	note A#, 8
	intensity $2B
	note A_, 4
	intensity $A5
	note A_, 8
	intensity $2B
	note G_, 4
	intensity $A5
	note G_, 8
	intensity $2B
	note F_, 4
	intensity $A5
	note F_, 8
	intensity $2B
	note D#, 4
	intensity $A5
	note D#, 8
	intensity $2B
	note F_, 4
	intensity $A5
	note F_, 8
	intensity $2B
	note A#, 4
	intensity $A5
	note A#, 8
	intensity $2B
	note F_, 4
	intensity $A5
	note F_, 8
	loopchannel 0, Music_GentlemanEncounter_Ch1_loop

Music_GentlemanEncounter_Ch2:
	dutycycle 1
	vibrato $03, $23
	octave 4
	notetype $C, $2F
	note F_, 8
	intensity $88
	octave 3
	note F_, 1
	note A_, 1
	note A#, 1
	octave 4
	note C_, 1
Music_GentlemanEncounter_Ch2_loop:
	intensity $4D
	note D_, 4
	octave 3
	note A#, 2
	note __, 2
	octave 4
	note F_, 2
	note __, 2
	note C_, 4
	intensity $A8
	note C_, 4
	intensity $A5
	note C_, 4
	intensity $4D
	octave 3
	note A#, 4
	note G_, 2
	note __, 2
	octave 4
	note D_, 2
	note __, 2
	octave 3
	note A_, 4
	intensity $A8
	note A_, 4
	intensity $A5
	note A_, 4
	intensity $4D
	note G_, 4
	note D#, 2
	note __, 2
	note A#, 2
	note __, 2
	note A_, 4
	note F_, 2
	note __, 2
	octave 4
	note C_, 2
	note __, 2
	octave 3
	note A#, 4
	octave 4
	note F_, 2
	note __, 2
	note D_, 2
	note __, 2
	note C_, 4
	intensity $A8
	note C_, 4
	intensity $4D
	note C#, 4
	note D_, 4
	octave 3
	note A#, 2
	note __, 2
	octave 4
	note F_, 2
	note __, 2
	note C_, 4
	intensity $A8
	note C_, 4
	intensity $A6
	note C_, 4
	intensity $4D
	octave 3
	note A#, 4
	note G_, 2
	note __, 2
	octave 4
	note G_, 2
	note __, 2
	note D_, 4
	intensity $A8
	note D_, 4
	intensity $4D
	note D#, 2
	note F_, 2
	note G_, 4
	note F_, 4
	note D#, 4
	note D_, 6
	note D#, 2
	note C_, 4
	octave 3
	note A#, 4
	intensity $A8
	note A#, 8
	intensity $A7
	note A#, 8
	intensity $88
	note F_, 1
	note A_, 1
	note A#, 1
	octave 4
	note C_, 1
	loopchannel 0, Music_GentlemanEncounter_Ch2_loop

Music_GentlemanEncounter_Ch3:
	notetype $C, $00
	note __, 12
Music_GentlemanEncounter_Ch3_loop:
	dutycycle 4
	intensity $24
	octave 5
	note A#, 1
	intensity $34
	note A#, 1
	intensity $24
	note F_, 1
	intensity $34
	note F_, 1
	intensity $24
	note A#, 1
	intensity $34
	note A#, 1
	intensity $24
	note F_, 1
	intensity $34
	note F_, 1
	intensity $24
	note A#, 1
	intensity $34
	note A#, 1
	intensity $24
	note F_, 1
	intensity $34
	note F_, 1
	intensity $24
	note A_, 1
	intensity $34
	note A_, 1
	intensity $24
	note F_, 1
	intensity $34
	note F_, 1
	intensity $24
	note A_, 1
	intensity $34
	note A_, 1
	intensity $24
	note A#, 1
	intensity $34
	note A#, 1
	intensity $24
	octave 6
	note C_, 1
	intensity $34
	note C_, 1
	intensity $24
	octave 5
	note A_, 1
	intensity $34
	note A_, 1
	intensity $24
	note G_, 1
	intensity $34
	note G_, 1
	intensity $24
	note D_, 1
	intensity $34
	note D_, 1
	intensity $24
	note G_, 1
	intensity $34
	note G_, 1
	intensity $24
	note D_, 1
	intensity $34
	note D_, 1
	intensity $24
	note G_, 1
	intensity $34
	note G_, 1
	intensity $24
	note D_, 1
	intensity $34
	note D_, 1
	intensity $24
	note F_, 1
	intensity $34
	note F_, 1
	intensity $24
	note D_, 1
	intensity $34
	note D_, 1
	intensity $24
	note F_, 1
	intensity $34
	note F_, 1
	intensity $24
	note G_, 1
	intensity $34
	note G_, 1
	intensity $24
	note A_, 1
	intensity $34
	note A_, 1
	intensity $24
	note F_, 1
	intensity $34
	note F_, 1
	intensity $24
	note G_, 1
	intensity $34
	note G_, 1
	intensity $24
	note D#, 1
	intensity $34
	note D#, 1
	intensity $24
	note G_, 1
	intensity $34
	note G_, 1
	intensity $24
	note D#, 1
	intensity $34
	note D#, 1
	intensity $24
	note G_, 1
	intensity $34
	note G_, 1
	intensity $24
	note D#, 1
	intensity $34
	note D#, 1
	intensity $24
	note A_, 1
	intensity $34
	note A_, 1
	intensity $24
	note F_, 1
	intensity $34
	note F_, 1
	intensity $24
	note A_, 1
	intensity $34
	note A_, 1
	intensity $24
	note F_, 1
	intensity $34
	note F_, 1
	intensity $24
	note A_, 1
	intensity $34
	note A_, 1
	intensity $24
	note F_, 1
	intensity $34
	note F_, 1
	intensity $24
	note A#, 1
	intensity $34
	note A#, 1
	intensity $24
	note F_, 1
	intensity $34
	note F_, 1
	intensity $24
	note A#, 1
	intensity $34
	note A#, 1
	intensity $24
	note F_, 1
	intensity $34
	note F_, 1
	intensity $24
	note A#, 1
	intensity $34
	note A#, 1
	intensity $24
	note F_, 1
	intensity $34
	note F_, 1
	intensity $24
	note A_, 1
	intensity $34
	note A_, 1
	intensity $24
	note F_, 1
	intensity $34
	note F_, 1
	intensity $24
	note A_, 1
	intensity $34
	note A_, 1
	intensity $24
	octave 6
	note C_, 1
	intensity $34
	note C_, 1
	intensity $24
	note F_, 1
	intensity $34
	note F_, 1
	intensity $24
	octave 5
	note F_, 1
	intensity $34
	note F_, 1
	intensity $24
	note A#, 1
	intensity $34
	note A#, 1
	intensity $24
	note F_, 1
	intensity $34
	note F_, 1
	intensity $24
	note A#, 1
	intensity $34
	note A#, 1
	intensity $24
	note F_, 1
	intensity $34
	note F_, 1
	intensity $24
	note A#, 1
	intensity $34
	note A#, 1
	intensity $24
	note F_, 1
	intensity $34
	note F_, 1
	intensity $24
	note A_, 1
	intensity $34
	note A_, 1
	intensity $24
	note F_, 1
	intensity $34
	note F_, 1
	intensity $24
	note A_, 1
	intensity $34
	note A_, 1
	intensity $24
	note A#, 1
	intensity $34
	note A#, 1
	intensity $24
	octave 6
	note C_, 1
	intensity $34
	note C_, 1
	intensity $24
	octave 5
	note A_, 1
	intensity $34
	note A_, 1
	intensity $24
	note G_, 1
	intensity $34
	note G_, 1
	intensity $24
	note D_, 1
	intensity $34
	note D_, 1
	intensity $24
	note G_, 1
	intensity $34
	note G_, 1
	intensity $24
	note D_, 1
	intensity $34
	note D_, 1
	intensity $24
	note G_, 1
	intensity $34
	note G_, 1
	intensity $24
	note D_, 1
	intensity $34
	note D_, 1
	intensity $24
	note F_, 1
	intensity $34
	note F_, 1
	intensity $24
	note D_, 1
	intensity $34
	note D_, 1
	intensity $24
	note F_, 1
	intensity $34
	note F_, 1
	intensity $24
	note G_, 1
	intensity $34
	note G_, 1
	intensity $24
	note A_, 1
	intensity $34
	note A_, 1
	intensity $24
	note F_, 1
	intensity $34
	note F_, 1
	intensity $24
	note G_, 1
	intensity $34
	note G_, 1
	intensity $24
	note D#, 1
	intensity $34
	note D#, 1
	intensity $24
	note G_, 1
	intensity $34
	note G_, 1
	intensity $24
	note D#, 1
	intensity $34
	note D#, 1
	intensity $24
	note G_, 1
	intensity $34
	note G_, 1
	intensity $24
	note D#, 1
	intensity $34
	note D#, 1
	intensity $24
	note A#, 1
	intensity $34
	note A#, 1
	intensity $24
	note F_, 1
	intensity $34
	note F_, 1
	intensity $24
	note A#, 1
	intensity $34
	note A#, 1
	intensity $24
	note F_, 1
	intensity $34
	note F_, 1
	intensity $24
	note A_, 1
	intensity $34
	note A_, 1
	intensity $24
	note F_, 1
	intensity $34
	note F_, 1
	intensity $24
	note A#, 1
	intensity $34
	note A#, 1
	intensity $24
	note F_, 1
	intensity $34
	note F_, 1
	intensity $24
	note A#, 1
	intensity $34
	note A#, 1
	intensity $24
	octave 6
	note C_, 1
	intensity $34
	note C_, 1
	intensity $24
	note D_, 1
	intensity $34
	note D_, 1
	intensity $24
	octave 5
	note A#, 1
	intensity $34
	note A#, 1
	intensity $24
	octave 6
	note F_, 1
	intensity $34
	note F_, 1
	intensity $24
	note D#, 1
	intensity $34
	note D#, 1
	intensity $24
	note D_, 1
	intensity $34
	note D_, 1
	intensity $24
	note D#, 1
	intensity $34
	note D#, 1
	intensity $24
	note D_, 1
	intensity $34
	note D_, 1
	intensity $24
	note C_, 1
	intensity $34
	note C_, 1
	loopchannel 0, Music_GentlemanEncounter_Ch3_loop
	
Music_GentlemanEncounter_Ch4:
	endchannel 0	

