Music_HardcoreEncounter:
	musicheader 4, 1, Music_HardcoreEncounter_Ch1
	musicheader 1, 2, Music_HardcoreEncounter_Ch2
	musicheader 1, 3, Music_HardcoreEncounter_Ch3
	musicheader 1, 4, Music_HardcoreEncounter_Ch4

Music_HardcoreEncounter_Ch1:
	tempo $85
	volume $77
	stereopanning $77
	octave 3
	notetype $6, $88
	note A_, 1
	note __, 1
	note A_, 2
	note __, 2
	octave 1
	note A_, 2
	note __, 2
	octave 3
	note A_, 1
	note __, 1
	note A_, 2
	note __, 2
	octave 1
	note A_, 8
	octave 3
	note A#, 8
Music_HardcoreEncounter_Ch1_loop:
	intensity $88
	tone $0002
	dutycycle 0
	octave 2
	note E_, 2
	note __, 2
	note E_, 2
	note __, 2
	octave 3
	note G_, 2
	note __, 2
	note E_, 2
	note __, 2
	note D_, 4
	octave 2
	note B_, 2
	octave 3
	note D_, 4
	octave 2
	note B_, 2
	octave 3
	note D_, 2
	note E_, 2
	octave 2
	note E_, 2
	note __, 2
	note E_, 2
	note __, 2
	octave 3
	note G_, 2
	note __, 2
	note E_, 2
	note __, 2
	note D_, 4
	octave 2
	note B_, 2
	octave 3
	note D_, 4
	octave 2
	note B_, 2
	octave 3
	note D_, 2
	note E_, 2
	octave 2
	note E_, 2
	note __, 2
	note E_, 2
	note __, 2
	octave 3
	note A_, 2
	note __, 2
	note E_, 2
	note __, 2
	note D_, 4
	note C_, 2
	note D_, 4
	note C_, 2
	note D_, 2
	note E_, 2
	note F#, 1
	note __, 1
	note F#, 1
	note __, 1
	note E_, 1
	note __, 1
	note F#, 1
	note __, 3
	note F#, 1
	note __, 1
	note F#, 1
	note __, 1
	note E_, 1
	note __, 1
	note F#, 1
	note __, 3
	note F#, 1
	note __, 1
	note F#, 1
	note __, 1
	dutycycle 2
	tone $0000
	vibrato $00, $A2
	octave 4
	note B_, 8
	loopchannel 0, Music_HardcoreEncounter_Ch1_loop

Music_HardcoreEncounter_Ch2:
	vibrato $00, $53
	octave 4
	notetype $6, $A8
	note D_, 1
	note __, 1
	note D_, 2
	note __, 2
	octave 2
	note D_, 2
	note __, 2
	octave 4
	note D_, 1
	note __, 1
	note D_, 2
	note __, 2
	octave 2
	note D_, 8
	octave 4
	note D#, 8
Music_HardcoreEncounter_Ch2_loop:
	tone $0000
	intensity $A8
	dutycycle 0
	octave 2
	note E_, 2
	note __, 2
	note E_, 2
	note __, 2
	octave 3
	note G_, 2
	note __, 2
	note E_, 2
	note __, 2
	note D_, 4
	octave 2
	note B_, 2
	octave 3
	note D_, 4
	octave 2
	note B_, 2
	octave 3
	note D_, 2
	note E_, 2
	octave 2
	note E_, 2
	note __, 2
	note E_, 2
	note __, 2
	octave 3
	note G_, 2
	note __, 2
	note E_, 2
	note __, 2
	note D_, 4
	octave 2
	note B_, 2
	octave 3
	note D_, 4
	octave 2
	note B_, 2
	octave 3
	note D_, 2
	note E_, 2
	octave 2
	note E_, 2
	note __, 2
	note E_, 2
	note __, 2
	octave 3
	note A_, 2
	note __, 2
	note E_, 2
	note __, 2
	note D_, 4
	note C_, 2
	note D_, 4
	note C_, 2
	note D_, 2
	note E_, 2
	note B_, 1
	note __, 1
	note B_, 1
	note __, 1
	note A_, 1
	note __, 1
	note B_, 1
	note __, 3
	note B_, 1
	note __, 1
	note B_, 1
	note __, 1
	note A_, 1
	note __, 1
	note B_, 1
	note __, 3
	note B_, 1
	note __, 1
	note B_, 1
	note __, 1
	dutycycle 2
	tone $0002
	intensity $88
	vibrato $00, $A2
	octave 4
	note B_, 8
	loopchannel 0, Music_HardcoreEncounter_Ch2_loop

Music_HardcoreEncounter_Ch3:
	dutycycle 7
	octave 4
	notetype $6, $27
	note D_, 1
	note __, 1
	note D_, 1
	note __, 3
	octave 2
	note D_, 1
	note __, 3
	octave 4
	note D_, 1
	note __, 1
	note D_, 1
	note __, 3
	octave 2
	note D_, 8
	octave 4
	note D#, 8
Music_HardcoreEncounter_Ch3_loop:
	octave 2
	note E_, 4
	octave 3
	note E_, 2
	note D_, 4
	note E_, 2
	octave 2
	note B_, 4
	note E_, 4
	octave 3
	note E_, 2
	note D_, 4
	note E_, 2
	octave 2
	note B_, 4
	note E_, 4
	octave 3
	note E_, 2
	note D_, 4
	note E_, 2
	octave 2
	note B_, 4
	note E_, 4
	octave 3
	note E_, 2
	note D_, 4
	note E_, 2
	octave 2
	note B_, 4
	note A_, 4
	octave 3
	note A_, 2
	note G_, 4
	note A_, 2
	note E_, 4
	octave 2
	note A_, 4
	octave 3
	note A_, 2
	note G_, 4
	note A_, 2
	note E_, 4
	octave 2
	note B_, 1
	note __, 1
	note B_, 1
	note __, 1
	note A_, 1
	note __, 1
	note B_, 1
	note __, 3
	note B_, 1
	note __, 1
	note B_, 1
	note __, 1
	note A_, 1
	note __, 1
	note B_, 1
	note __, 3
	note B_, 1
	note __, 1
	note B_, 1
	note __, 1
	note A_, 1
	note __, 1
	note B_, 1
	note __, 1
	octave 3
	note D_, 4
	loopchannel 0, Music_HardcoreEncounter_Ch3_loop

Music_HardcoreEncounter_Ch4:
	togglenoise 3
	notetype $C
	note G_, 1
	note __, 3
	note G_, 1
	note __, 3
	note G_, 1
	note __, 1
	note A#, 1
	note __, 1
	note C_, 1
	note C_, 1
	note C_, 1
	note C_, 1
Music_HardcoreEncounter_Ch4_loop:
	note B_, 1
	note __, 1
	note G_, 1
	note __, 1
	note C_, 1
	note __, 1
	note G_, 1
	note __, 1
	note A#, 1
	note __, 1
	note G_, 1
	note __, 1
	note C_, 1
	note G_, 1
	note C_, 1
	note C_, 1
	loopchannel 0, Music_HardcoreEncounter_Ch4_loop

