Music_HikerEncounter:
	musicheader 4, 1, Music_HikerEncounter_Ch1
	musicheader 1, 2, Music_HikerEncounter_Ch2
	musicheader 1, 3, Music_HikerEncounter_Ch3
	musicheader 1, 4, Music_HikerEncounter_Ch4

Music_HikerEncounter_Ch1:
	tempo $96
	volume $77
	stereopanning $77
	dutycycle 2
	vibrato $12, $23
	octave 2
	notetype $C, $A8
	note G_, 1
	note __, 1
	note D_, 1
	note G_, 1
	note B_, 1
	note __, 1
	note G_, 1
	note B_, 1
	octave 3
	note D_, 6
	note __, 2
Music_HikerEncounter_Ch1_loop:
	notetype $C, $A8
	intensity $98
	octave 2
	note G_, 1
	note __, 1
	octave 3
	notetype $6, $98
	note D_, 1
	note __, 1
	note D_, 1
	note __, 1
	note D_, 2
	note __, 2
	note D_, 2
	note __, 2
	octave 2
	note G_, 2
	note __, 2
	octave 3
	note D_, 1
	note __, 1
	note D_, 1
	note __, 1
	octave 4
	note C_, 2
	octave 3
	note G_, 2
	note E_, 2
	note C_, 2
	octave 2
	note B_, 2
	note __, 2
	octave 3
	note D_, 1
	note __, 1
	note D_, 1
	note __, 1
	octave 4
	note E_, 2
	note C_, 2
	octave 3
	note G_, 2
	note E_, 2
	octave 2
	note B_, 2
	note __, 2
	octave 3
	note D_, 1
	note __, 1
	note D_, 1
	note __, 1
	note D_, 2
	note __, 2
	note D_, 2
	note __, 2
	note C_, 2
	note __, 2
	note E_, 1
	note __, 1
	note E_, 1
	note __, 1
	note E_, 2
	note __, 2
	note E_, 2
	note __, 2
	octave 2
	note G_, 2
	note __, 2
	octave 3
	note D_, 1
	note __, 1
	note D_, 1
	note __, 1
	note D_, 2
	note __, 2
	note D_, 2
	note __, 2
	octave 2
	note D_, 2
	note __, 2
	note F#, 1
	note __, 1
	note F#, 1
	note __, 1
	note F#, 2
	note __, 2
	note F#, 2
	note __, 2
	note F#, 2
	note __, 2
	octave 3
	note F#, 1
	note __, 1
	note F#, 1
	note __, 1
	note F#, 2
	note __, 2
	note F#, 2
	note __, 2
	octave 2
	note G_, 2
	note __, 2
	octave 3
	note D_, 1
	note __, 1
	note D_, 1
	note __, 1
	note D_, 2
	note __, 2
	note D_, 2
	note __, 2
	octave 2
	note G_, 2
	note __, 2
	octave 3
	note D_, 1
	note __, 1
	note D_, 1
	note __, 1
	note D_, 2
	note __, 2
	note D_, 2
	note __, 2
	octave 2
	note G_, 2
	note __, 2
	octave 3
	note D_, 1
	note __, 1
	note D_, 1
	note __, 1
	octave 2
	note B_, 2
	note __, 2
	note B_, 2
	note __, 2
	octave 3
	note C_, 2
	note __, 2
	note E_, 1
	note __, 1
	note E_, 1
	note __, 1
	note E_, 2
	note __, 2
	note E_, 2
	note __, 2
	octave 2
	note A_, 2
	note __, 2
	octave 3
	note E_, 1
	note __, 1
	note E_, 1
	note __, 1
	note E_, 2
	note __, 2
	note E_, 2
	note __, 2
	note D_, 2
	note __, 2
	octave 2
	note F#, 1
	note __, 1
	note F#, 1
	note __, 1
	note F#, 2
	note __, 2
	note F#, 2
	note __, 2
	note G_, 2
	note __, 2
	note B_, 1
	note __, 1
	note B_, 1
	note __, 1
	note B_, 2
	note __, 2
	note B_, 2
	note __, 2
	note G_, 2
	note __, 2
	note B_, 1
	note __, 1
	note B_, 1
	note __, 1
	note B_, 2
	note __, 2
	note B_, 2
	note __, 2
	loopchannel 0, Music_HikerEncounter_Ch1_loop

Music_HikerEncounter_Ch2:
	dutycycle 2
	vibrato $12, $23
	octave 3
	notetype $C, $C8
	note G_, 1
	note __, 1
	note D_, 1
	note G_, 1
	note B_, 1
	note __, 1
	note G_, 1
	note B_, 1
	octave 4
	note D_, 6
	dutycycle 1
	octave 3
	note F#, 1
	note __, 1
Music_HikerEncounter_Ch2_loop:
	note G_, 1
	note __, 1
	note A_, 1
	note __, 1
	note B_, 1
	note __, 1
	note G_, 1
	note __, 1
	octave 4
	note D_, 2
	note __, 2
	note E_, 4
	octave 3
	note B_, 2
	note __, 2
	octave 4
	note G_, 4
	note D_, 6
	note D#, 2
	note E_, 4
	note D_, 2
	note C_, 2
	octave 3
	note B_, 2
	octave 4
	note D_, 2
	octave 3
	note B_, 2
	note A#, 2
	intensity $C7
	note A_, 4
	dutycycle 0
	intensity $A8
	octave 5
	note D_, 1
	note __, 2
	note E_, 1
	note D_, 1
	note __, 1
	note C_, 1
	note __, 1
	octave 4
	note B_, 1
	note __, 1
	note A_, 1
	note __, 1
	dutycycle 1
	intensity $C8
	octave 3
	note B_, 1
	note __, 1
	note A_, 1
	note __, 1
	note G_, 1
	note __, 1
	note A_, 1
	note __, 1
	note B_, 2
	note __, 2
	note G_, 4
	octave 4
	note D_, 4
	note D#, 4
	note E_, 6
	note D_, 2
	note C_, 1
	note __, 1
	note E_, 1
	note __, 1
	note C_, 1
	note __, 1
	octave 3
	note B_, 1
	note __, 1
	note A_, 1
	note __, 1
	note D_, 1
	note __, 1
	note B_, 1
	note __, 1
	note F#, 1
	note __, 1
	note G_, 8
	intensity $C6
	note G_, 4
	note __, 2
	intensity $C8
	note D_, 1
	note __, 1
	loopchannel 0, Music_HikerEncounter_Ch2_loop

Music_HikerEncounter_Ch3:
	notetype $E, $00
	note __, 12
	dutycycle 5
	octave 3
	notetype $C, $25
	note D_, 1
	note __, 1
Music_HikerEncounter_Ch3_loop:
	notetype $C, $25
	note __, 2
	notetype $6, $25
	note G_, 1
	note __, 1
	note G_, 1
	note __, 1
	note G_, 2
	note __, 2
	note G_, 2
	note __, 6
	note G_, 1
	note __, 1
	note G_, 1
	note __, 1
	octave 4
	note C_, 8
	octave 3
	note G_, 2
	note __, 6
	note C_, 8
	note G_, 2
	note __, 2
	note G_, 1
	note __, 1
	note G_, 1
	note __, 1
	note G_, 2
	note __, 2
	note G_, 2
	note __, 6
	octave 4
	note C_, 1
	note __, 1
	note C_, 1
	note __, 1
	note C_, 2
	note __, 2
	note C_, 2
	note __, 6
	octave 3
	note G_, 1
	note __, 1
	note G_, 1
	note __, 1
	note G_, 2
	note __, 2
	note G_, 2
	note __, 6
	note D_, 1
	note __, 1
	note D_, 1
	note __, 1
	note D_, 2
	note __, 2
	note D_, 2
	note __, 6
	octave 4
	note D_, 1
	note __, 1
	note D_, 1
	note __, 1
	note D_, 2
	note __, 2
	note D_, 2
	note __, 6
	octave 3
	note G_, 1
	note __, 1
	note G_, 1
	note __, 1
	note G_, 2
	note __, 2
	note G_, 2
	note __, 6
	note G_, 1
	note __, 1
	note G_, 1
	note __, 1
	note G_, 2
	note __, 2
	note G_, 2
	note __, 6
	note G_, 1
	note __, 1
	note G_, 1
	note __, 1
	note G_, 2
	note __, 2
	note G_, 2
	note __, 6
	octave 4
	note C_, 1
	note __, 1
	note C_, 1
	note __, 1
	note C_, 2
	note __, 2
	note C_, 2
	note __, 6
	octave 3
	note A_, 1
	note __, 1
	note A_, 1
	note __, 1
	note A_, 2
	note __, 2
	note A_, 2
	note __, 6
	note D_, 1
	note __, 1
	note D_, 1
	note __, 1
	note D_, 2
	note __, 2
	note D_, 2
	note __, 6
	note G_, 1
	note __, 1
	note G_, 1
	note __, 1
	note G_, 2
	note __, 2
	note G_, 2
	note __, 6
	note G_, 1
	note __, 1
	note G_, 1
	note __, 1
	note G_, 2
	note __, 2
	note G_, 2
	note __, 2
	loopchannel 0, Music_HikerEncounter_Ch3_loop

Music_HikerEncounter_Ch4:
	togglenoise 3
	notetype $C
	note D_, 1
	note __, 1
	note D_, 1
	note D_, 1
	note D_, 1
	note __, 1
	note D_, 1
	note D_, 1
	note D_, 1
	note __, 1
	note D_, 1
	note D_, 1
	note D_, 1
	note D_, 1
	note D_, 1
	note D_, 1
Music_HikerEncounter_Ch4_loop:
	note G_, 1
	note __, 1
	note D_, 1
	note D_, 1
	note B_, 1
	note __, 1
	note D_, 1
	note D_, 1
	loopchannel 0, Music_HikerEncounter_Ch4_loop

