Music_LassEncounter:
	musicheader 4, 1, Music_LassEncounter_Ch1
	musicheader 1, 2, Music_LassEncounter_Ch2
	musicheader 1, 3, Music_LassEncounter_Ch3
	musicheader 1, 4, Music_LassEncounter_Ch4

Music_LassEncounter_Ch1:
	tempo $85
	volume $77
	stereopanning $77
	notetype $C, $00
	note __, 4
	dutycycle 2
	intensity $77
	octave 5
	note G_, 1
	note A_, 1
	note G_, 1
	note A_, 1
	note G_, 4
	note __, 4
Music_LassEncounter_Ch1_loop:
	intensity $77
	octave 5
	note __, 2
	dutycycle 0
	note G_, 1
	note __, 1
	note E_, 1
	note __, 1
	note G_, 1
	note __, 3
	note C_, 1
	note __, 1
	note E_, 1
	note __, 1
	note C_, 1
	note __, 3
	note A_, 1
	note __, 1
	note F_, 1
	note __, 1
	note A_, 1
	note __, 3
	note D_, 1
	note __, 1
	note G_, 1
	note __, 1
	note D_, 1
	note __, 1
	intensity $78
	vibrato $08, $23
	octave 4
	note C_, 8
	note D_, 4
	note E_, 4
	note F_, 8
	note G#, 1
	note A_, 7
	note G_, 4
	intensity $77
	octave 5
	note E_, 1
	note __, 1
	note G_, 1
	note __, 3
	note A_, 1
	note __, 1
	note E_, 1
	note __, 1
	note A_, 1
	note __, 3
	note A_, 1
	note __, 1
	note F_, 1
	note __, 1
	note A_, 1
	note __, 3
	note A_, 1
	note __, 1
	note F#, 1
	note __, 1
	note A_, 1
	note __, 1
	intensity $78
	octave 3
	note B_, 8
	octave 4
	note C_, 4
	note D_, 4
	note D#, 1
	note E_, 7
	octave 3
	note B_, 8
	loopchannel 0, Music_LassEncounter_Ch1_loop

Music_LassEncounter_Ch2:
	dutycycle 2
	vibrato $22, $23
	octave 4
	notetype $C, $C7
	note G_, 1
	note A_, 1
	note G_, 1
	note A_, 1
	note G_, 6
	dutycycle 1
	intensity $C5
	note F_, 2
	note E_, 2
	note D_, 2
Music_LassEncounter_Ch2_loop:
	dutycycle 1
	intensity $C5
	note D#, 1
	note E_, 5
	note G_, 2
	note E_, 4
	note D_, 2
	note C_, 2
	note D_, 2
	note E_, 2
	note D_, 2
	octave 3
	note A_, 4
	note B_, 2
	note A_, 2
	note G_, 6
	dutycycle 2
	intensity $88
	octave 5
	note G_, 1
	note __, 1
	octave 4
	note G_, 1
	note __, 3
	octave 5
	note G_, 1
	note __, 1
	octave 4
	note G_, 1
	note __, 3
	octave 5
	note G_, 1
	note __, 1
	note G_, 1
	note __, 3
	octave 4
	note G_, 1
	note __, 3
	octave 5
	note G_, 1
	note __, 1
	octave 4
	note G_, 1
	note __, 3
	dutycycle 1
	intensity $C5
	note D#, 1
	note E_, 5
	note G_, 2
	note E_, 4
	note D_, 2
	note C_, 2
	note D_, 2
	note E_, 2
	note D_, 2
	note A_, 4
	note B_, 2
	note A_, 2
	note G_, 6
	dutycycle 2
	intensity $88
	octave 5
	note G_, 1
	note __, 1
	octave 4
	note G_, 1
	note __, 3
	octave 5
	note G_, 1
	note __, 1
	octave 4
	note G_, 1
	note __, 3
	octave 5
	note G_, 1
	note __, 1
	note G_, 1
	note __, 3
	octave 4
	note G_, 1
	note __, 3
	dutycycle 1
	note F_, 2
	note E_, 2
	note D_, 2
	loopchannel 0, Music_LassEncounter_Ch2_loop

Music_LassEncounter_Ch3:
	notetype $C, $00
	note __, 8
	dutycycle 1
	intensity $11
	octave 3
	note G_, 1
	note A_, 1
	note G_, 1
	note A_, 1
	note G_, 2
	note B_, 2
Music_LassEncounter_Ch3_loop:
	octave 4
	note C_, 4
	note __, 2
	note C_, 1
	note __, 1
	octave 3
	note A_, 1
	note __, 1
	note A_, 1
	note __, 3
	note F_, 4
	note F_, 1
	note __, 1
	note F_, 1
	note __, 1
	note G_, 1
	note __, 3
	note G_, 1
	note __, 3
	note G_, 1
	note __, 1
	octave 4
	note C_, 4
	note __, 2
	note C_, 1
	note __, 1
	octave 3
	note A_, 1
	note __, 1
	note A_, 1
	note __, 3
	note F_, 4
	note F_, 1
	note __, 1
	note F_, 1
	note __, 1
	note G_, 1
	note __, 3
	note G_, 1
	note __, 3
	note G_, 1
	note __, 1
	octave 4
	note C_, 4
	note __, 2
	note C_, 1
	note __, 1
	octave 3
	note A_, 1
	note __, 1
	note A_, 1
	note __, 3
	note F_, 4
	note F_, 1
	note __, 1
	note F_, 1
	note __, 1
	note F#, 1
	note __, 3
	note F#, 1
	note __, 3
	note D_, 1
	note __, 1
	note G_, 4
	note __, 2
	note G_, 1
	note __, 1
	octave 4
	note G_, 1
	note __, 1
	note G_, 1
	note __, 3
	octave 3
	note G_, 4
	note G_, 1
	note __, 1
	note G_, 1
	note __, 1
	octave 4
	note G_, 1
	note __, 3
	note G_, 1
	note __, 3
	note G_, 1
	note __, 1
	loopchannel 0, Music_LassEncounter_Ch3_loop

Music_LassEncounter_Ch4:
	togglenoise 3
	notetype $C
	note __, 16
Music_LassEncounter_Ch4_loop:
	note B_, 2
	note G_, 2
	note G_, 2
	note D_, 2
	note G_, 2
	note G_, 2
	note D_, 2
	note G_, 2
	note G_, 2
	note D_, 2
	note G_, 2
	note G_, 2
	note D_, 2
	note G_, 2
	note D_, 2
	note D_, 2
	loopchannel 0, Music_LassEncounter_Ch4_loop

