Music_TeamSnareEncounter:
	musicheader 4, 1, Music_TeamSnareEncounter_Ch1
	musicheader 1, 2, Music_TeamSnareEncounter_Ch2
	musicheader 1, 3, Music_TeamSnareEncounter_Ch3
	musicheader 1, 4, Music_TeamSnareEncounter_Ch4

Music_TeamSnareEncounter_Ch1:
	tempo $93
	volume $77
	stereopanning $77
	octave 4
	notetype $C, $C8
	dutycycle 1
	note G_, 1
	note F_, 1
	note __, 1
	note D_, 1
	note __, 1
	note C#, 1
	note __, 1
	note C_, 1
	note __, 1
	octave 3
	note A#, 1
	note __, 1
	note G_, 1
	octave 4
	note C#, 4
Music_TeamSnareEncounter_Ch1_loop:
	dutycycle 0
	note __, 1
	intensity $A3
	octave 3
	note D#, 1
	note __, 1
	note D#, 1
	note __, 1
	note D#, 1
	note C_, 1
	note D#, 1
	note D#, 1
	note __, 1
	note D#, 1
	note __, 1
	note D#, 1
	note __, 1
	note C_, 1
	note D#, 1
	note __, 1
	note D#, 1
	note __, 1
	note D#, 1
	note __, 1
	note D#, 1
	note C_, 1
	note D#, 1
	note D#, 1
	note __, 1
	note D#, 1
	note __, 1
	note D#, 1
	note __, 1
	note C_, 1
	note D#, 1
	note __, 1
	note D#, 1
	note __, 1
	note D#, 1
	note __, 1
	note D#, 1
	note C_, 1
	note D#, 1
	note D#, 1
	note __, 1
	note D#, 1
	note __, 1
	note D#, 1
	note __, 1
	note C_, 1
	note D#, 1
	note __, 1
	note D#, 1
	note __, 1
	note D#, 1
	note __, 1
	note D#, 1
	note C_, 1
	note D#, 1
	note D#, 1
	note __, 1
	note D#, 1
	note __, 1
	note D#, 1
	note __, 1
	note C_, 1
	note D#, 1
	loopchannel 0, Music_TeamSnareEncounter_Ch1_loop
	
Music_TeamSnareEncounter_Ch2:
	octave 5
	notetype $C, $C8
	dutycycle 1
	note C_, 1
	octave 4
	note A#, 1
	note __, 1
	note G_, 1
	note __, 1
	note F#, 1
	note __, 1
	note F_, 1
	note __, 1
	note D#, 1
	note __, 1
	note C_, 1
	note B_, 4
Music_TeamSnareEncounter_Ch2_loop:
	dutycycle 0
	note __, 1
	octave 3
	note G_, 1
	note __, 1
	note G_, 1
	note __, 1
	note G_, 1
	note D#, 1
	note G_, 1
	note G#, 1
	note __, 1
	note G#, 1
	note __, 1
	note G#, 1
	note __, 1
	note D#, 1
	note G#, 1
	note __, 1
	note A_, 1
	note __, 1
	note A_, 1
	note __, 1
	note A_, 1
	note D#, 1
	note A_, 1
	note G#, 1
	note __, 1
	note G#, 1
	note __, 1
	note G#, 1
	note __, 1
	note D#, 1
	note G#, 1
	note __, 1
	note G_, 1
	note __, 1
	note G_, 1
	note __, 1
	note G_, 1
	note D#, 1
	note G_, 1
	note G#, 1
	note __, 1
	note G#, 1
	note __, 1
	note G#, 1
	note __, 1
	note D#, 1
	note G#, 1
	note __, 1
	note A_, 1
	note __, 1
	note A_, 1
	note __, 1
	note A_, 1
	note D#, 1
	note A_, 1
	note A#, 1
	note __, 1
	note A#, 1
	note __, 1
	note B_, 1
	note __, 1
	note D#, 1
	note B_, 1
	loopchannel 0, Music_TeamSnareEncounter_Ch2_loop

Music_TeamSnareEncounter_Ch3:
	octave 5
	notetype $C, $14
	note C_, 1
	octave 4
	note A#, 1
	note __, 1
	note G_, 1
	note __, 1
	note F#, 1
	note __, 1
	note F_, 1
	note __, 1
	note D#, 1
	note __, 1
	note C_, 1
	note G_, 4
Music_TeamSnareEncounter_Ch3_loop:
	dutycycle 4
	intensity $14
	octave 3
	note C_, 1
	note __, 1
	note C_, 1
	note __, 1
	octave 4
	note C_, 1
	note __, 1
	octave 3
	note C_, 1
	note __, 1
	note F#, 1
	note __, 1
	note F_, 1
	note __, 1
	note D#, 1
	octave 2
	note G_, 1
	note A#, 1
	note B_, 1
	octave 3
	note C_, 1
	note __, 1
	note C_, 1
	note __, 1
	octave 4
	note C_, 1
	note __, 1
	octave 3
	note C_, 1
	note __, 1
	note F#, 1
	note __, 1
	note F_, 1
	note __, 1
	note D#, 1
	octave 2
	note G_, 1
	note A#, 1
	note B_, 1
	octave 3
	note C_, 1
	note __, 1
	note C_, 1
	note __, 1
	octave 4
	note C_, 1
	note __, 1
	octave 3
	note C_, 1
	note __, 1
	note F#, 1
	note __, 1
	note F_, 1
	note __, 1
	note D#, 1
	octave 2
	note G_, 1
	note A#, 1
	note B_, 1
	octave 3
	note C_, 1
	note __, 1
	note C_, 1
	note __, 1
	octave 4
	note C_, 1
	note __, 1
	octave 3
	note C_, 1
	note __, 1
	note F#, 1
	note __, 1
	note F_, 1
	note __, 1
	note D#, 1
	octave 2
	note G_, 1
	note A#, 1
	note B_, 1
	loopchannel 0, Music_TeamSnareEncounter_Ch3_loop

Music_TeamSnareEncounter_Ch4:
	togglenoise 3
	notetype $C
	note D_, 1
	note D_, 1
	note __, 1
	note D_, 1
	note __, 1
	note D_, 1
	note __, 1
	note D_, 1
	note __, 1
	note D_, 1
	note __, 1
	note A#, 1
	note B_, 2
	note __, 2
Music_TeamSnareEncounter_Ch4_loop:
	note A#, 1
	note G_, 1
	note G_, 1
	note G_, 1
	note D_, 1
	note G_, 1
	note B_, 1
	note G_, 1
	loopchannel 0, Music_TeamSnareEncounter_Ch4_loop

