Music_YoungsterEncounter:
	musicheader 4, 1, Music_YoungsterEncounter_Ch1
	musicheader 1, 2, Music_YoungsterEncounter_Ch2
	musicheader 1, 3, Music_YoungsterEncounter_Ch3
	musicheader 1, 4, Music_YoungsterEncounter_Ch4

Music_YoungsterEncounter_Ch1:
	tempo $78
	volume $77
	stereopanning $77
	notetype $C, $00
	note __, 4
	dutycycle 2
	intensity $98
	octave 3
	note F#, 1
	note __, 3
	note F#, 1
	note __, 3
	note F#, 1
	note __, 1
	note F#, 1
	note __, 3
	note F#, 1
	note __, 1
Music_YoungsterEncounter_Ch1_loop:
	octave 3
	dutycycle 1
	intensity $58
	vibrato $22, $34
	note B_, 8
	note A_, 8
	note G#, 8
	note F#, 8
	note G#, 8
	note A_, 8
	note B_, 2
	dutycycle 2
	intensity $98
	octave 5
	note C#, 1
	note __, 1
	note C#, 1
	note __, 3
	note C#, 1
	note __, 1
	note C#, 1
	note __, 3
	note C#, 1
	note __, 1
	dutycycle 1
	intensity $58
	octave 3
	note B_, 8
	note A_, 8
	note G#, 8
	note F#, 8
	note G#, 8
	note F#, 8
	intensity $3F
	octave 4
	note E_, 6
	intensity $98
	note E_, 10
	loopchannel 0, Music_YoungsterEncounter_Ch1_loop

Music_YoungsterEncounter_Ch2:
	dutycycle 1
	vibrato $12, $34
	octave 3
	notetype $C, $C8
	note E_, 1
	note G#, 1
	note B_, 1
	octave 4
	note C#, 1
	note D_, 14
	dutycycle 0
	note D#, 2
Music_YoungsterEncounter_Ch2_loop:
	note E_, 1
	note __, 1
	note E_, 1
	note __, 1
	note G#, 1
	note __, 1
	note E_, 1
	note __, 1
	note D_, 1
	note __, 1
	note D_, 1
	note __, 1
	note F#, 1
	note __, 1
	note E_, 1
	note __, 3
	note E_, 1
	note __, 1
	note G#, 1
	note __, 1
	note E_, 1
	note __, 1
	note B_, 1
	note A#, 1
	note A_, 1
	note G#, 1
	note G_, 1
	note __, 1
	note F#, 1
	note __, 1
	note E_, 1
	note __, 1
	note E_, 1
	note __, 1
	note G#, 1
	note __, 1
	note E_, 1
	note __, 1
	note D_, 1
	note __, 1
	note D_, 1
	note __, 1
	note F#, 1
	note __, 1
	note E_, 1
	note __, 3
	dutycycle 2
	octave 5
	note D_, 1
	note __, 1
	note D_, 1
	note __, 3
	note D_, 1
	note __, 1
	note D_, 1
	note __, 3
	note D_, 1
	note __, 1
	dutycycle 0
	octave 4
	note E_, 1
	note __, 1
	note E_, 1
	note __, 1
	note G#, 1
	note __, 1
	note E_, 1
	note __, 1
	note D_, 1
	note __, 1
	note D_, 1
	note __, 1
	note F#, 1
	note __, 1
	note E_, 1
	note __, 3
	note E_, 1
	note __, 1
	note G#, 1
	note __, 1
	note E_, 1
	note __, 1
	note B_, 1
	note A#, 1
	note A_, 1
	note G#, 1
	note G_, 1
	note __, 1
	note F#, 1
	note __, 1
	note E_, 1
	note __, 1
	note E_, 1
	note __, 1
	note G#, 1
	note __, 1
	note E_, 1
	note __, 1
	note D_, 1
	note __, 1
	note D_, 1
	note __, 1
	note F#, 1
	note __, 1
	intensity $3F
	note G_, 8
	intensity $C8
	note G_, 8
	note F#, 1
	note F_, 1
	loopchannel 0, Music_YoungsterEncounter_Ch2_loop

Music_YoungsterEncounter_Ch3:
	notetype $C, $00
	note __, 4
	intensity $10
	octave 3
	note B_, 1
	note __, 3
	note B_, 1
	note __, 3
	note B_, 1
	note __, 1
	note B_, 1
	note __, 3
	note B_, 1
	note __, 1
Music_YoungsterEncounter_Ch3_loop:
	note E_, 1
	note __, 1
	note B_, 1
	note __, 1
	note E_, 1
	note __, 1
	note B_, 1
	note __, 1
	note D_, 1
	note __, 1
	note A_, 1
	note __, 1
	note D_, 1
	note __, 1
	note A_, 1
	note __, 1
	note E_, 1
	note __, 1
	note B_, 1
	note __, 1
	note E_, 1
	note __, 1
	note B_, 1
	note __, 1
	note D_, 1
	note __, 1
	note A_, 1
	note __, 1
	note D_, 1
	note __, 1
	note A_, 1
	note __, 1
	note E_, 1
	note __, 1
	note B_, 1
	note __, 1
	note E_, 1
	note __, 1
	note B_, 1
	note __, 1
	note D_, 1
	note __, 1
	note A_, 1
	note __, 1
	note D_, 1
	note __, 1
	note A_, 1
	note __, 1
	note E_, 1
	note __, 1
	note B_, 1
	note __, 1
	note E_, 1
	note __, 1
	note B_, 1
	note __, 1
	note D_, 1
	note __, 1
	note A_, 1
	note __, 1
	note D_, 1
	note __, 1
	note A_, 1
	note __, 1
	note E_, 1
	note __, 1
	note B_, 1
	note __, 1
	note E_, 1
	note __, 1
	note B_, 1
	note __, 1
	note D_, 1
	note __, 1
	note A_, 1
	note __, 1
	note D_, 1
	note __, 1
	note A_, 1
	note __, 1
	note E_, 1
	note __, 1
	note B_, 1
	note __, 1
	note E_, 1
	note __, 1
	note B_, 1
	note __, 1
	note D_, 1
	note __, 1
	note A_, 1
	note __, 1
	note D_, 1
	note __, 1
	note A_, 1
	note __, 1
	note E_, 1
	note __, 1
	note B_, 1
	note __, 1
	note E_, 1
	note __, 1
	note B_, 1
	note __, 1
	note D_, 1
	note __, 1
	note A_, 1
	note __, 1
	note D_, 1
	note __, 1
	note A_, 1
	note __, 1
	note C_, 1
	note __, 1
	note C_, 1
	note __, 1
	octave 4
	note C_, 1
	note __, 1
	octave 3
	note C_, 1
	note __, 1
	octave 4
	note C_, 1
	octave 3
	note B_, 1
	note A#, 1
	note A_, 1
	note G#, 1
	note G_, 1
	note F#, 1
	note F_, 1
	loopchannel 0, Music_YoungsterEncounter_Ch3_loop

Music_YoungsterEncounter_Ch4:
	notetype $C
	note __, 4
	togglenoise 3
	note E_, 1
	note __, 3
	note E_, 1
	note __, 3
	note E_, 1
	note __, 1
	note E_, 1
	note __, 3
	note E_, 1
	note __, 1
Music_YoungsterEncounter_Ch4_loop:
	note __, 2
	note G_, 1
	note __, 1
	note E_, 1
	note __, 1
	note G_, 1
	note __, 1
	loopchannel 0, Music_YoungsterEncounter_Ch4_loop

